<svg xmlns="http://www.w3.org/2000/svg" viewBox="0 0 202.79 283.27"><defs><style>.cls-1{fill:#fff;}</style></defs><g id="Réteg_2" data-name="Réteg 2"><g id="_ŽÓť_1" data-name="—ŽÓť_1"><rect class="cls-1" width="202.79" height="283.27" rx="15.31"/><path d="M24.17,59.76a4.21,4.21,0,0,1-8.12,1.54l0-.09-.41-1a.3.3,0,0,0-.58.11,13,13,0,0,0,.63,3.92A13.1,13.1,0,0,0,17,67.08H12.09a13.1,13.1,0,0,0,1.32-2.82A13,13,0,0,0,14,60.34a.29.29,0,0,0-.57-.11l-.42,1,0,.09A4.21,4.21,0,1,1,9.1,55.56a4.35,4.35,0,0,1,1.58.3l.7.37.37.19a.19.19,0,0,0,.23-.3l-.68-.75-.2-.22,0-.06L11,55l-.09-.12-.09-.15-.07-.11-.09-.15a5.24,5.24,0,0,1-.29-.64c0-.12-.08-.24-.11-.37a.64.64,0,0,1,0-.07l0-.15a1.22,1.22,0,0,1,0-.17.43.43,0,0,1,0-.11s0-.08,0-.13a2.46,2.46,0,0,1,0-.28c0-.07,0-.15,0-.23a4.48,4.48,0,0,1,9,0,1.69,1.69,0,0,1,0,.23,2.46,2.46,0,0,1,0,.28c0,.05,0,.09,0,.13S19,53,19,53a1,1,0,0,1,0,.17l0,.15a.64.64,0,0,1,0,.07c0,.13-.07.25-.11.37a5.24,5.24,0,0,1-.29.64l-.09.15a.41.41,0,0,1-.07.11l-.09.15-.09.12-.1.13-.05.06-.2.22-.68.75a.19.19,0,0,0,.23.3l.37-.19.7-.37a4.35,4.35,0,0,1,1.58-.3A4.2,4.2,0,0,1,24.17,59.76Z"/><path d="M178.62,223.5a4.21,4.21,0,0,1,8.12-1.53l0,.09.41,1a.3.3,0,0,0,.58-.11,12.88,12.88,0,0,0-2-6.74h4.9a12.43,12.43,0,0,0-1.32,2.82,13,13,0,0,0-.64,3.92.3.3,0,0,0,.58.11l.41-1,0-.09a4.21,4.21,0,1,1,3.92,5.74,4.07,4.07,0,0,1-1.57-.31l-.71-.36-.36-.19a.2.2,0,0,0-.24.3l.68.75.2.22.05.06a.64.64,0,0,1,.1.13l.09.12.1.14a.75.75,0,0,0,.07.12,1.09,1.09,0,0,1,.08.15,4.51,4.51,0,0,1,.29.63l.12.38s0,0,0,.06,0,.11,0,.16l0,.17a.34.34,0,0,1,0,.1.68.68,0,0,1,0,.14,2.46,2.46,0,0,1,0,.28,1.69,1.69,0,0,1,0,.23,4.47,4.47,0,0,1-8.94,0v-.23a2.4,2.4,0,0,1,0-.28.66.66,0,0,1,0-.14s0-.07,0-.1l0-.17,0-.16a.14.14,0,0,0,0-.06c0-.13.07-.25.12-.38a4.46,4.46,0,0,1,.28-.63l.09-.15.07-.12.1-.14.08-.12.11-.13,0-.06.2-.22.68-.75a.19.19,0,0,0-.23-.3l-.37.19-.7.36a4.15,4.15,0,0,1-1.57.31A4.2,4.2,0,0,1,178.62,223.5Z"/><path d="M5.87,41.23V39.59A13.88,13.88,0,0,1,9.5,30.24a61.79,61.79,0,0,1,6.88-5.77c2.57-2,3.83-3.67,3.83-5.15A3.56,3.56,0,0,0,18,16.08a8.2,8.2,0,0,0-3.81-.88c-3.53,0-5.32,1.29-5.32,3.84a4.55,4.55,0,0,0,.29,1.49l-2.8,1.24A8.69,8.69,0,0,1,5.87,19a6.3,6.3,0,0,1,2.49-5.4,9.47,9.47,0,0,1,5.81-1.7,10.24,10.24,0,0,1,6.11,1.85,6.37,6.37,0,0,1,2.92,5.53c0,2.15-1.05,4.21-3.12,6.11l-6.3,5.07a13.2,13.2,0,0,0-4.57,7.09L9.13,38H20.21V34.22h3v7Z"/><path d="M196.93,242v1.64a13.86,13.86,0,0,1-3.64,9.34,62,62,0,0,1-6.87,5.78c-2.58,2-3.83,3.67-3.83,5.15a3.55,3.55,0,0,0,2.22,3.24,8.12,8.12,0,0,0,3.8.87c3.53,0,5.32-1.29,5.32-3.83a4.52,4.52,0,0,0-.28-1.49l2.8-1.24a8.93,8.93,0,0,1,.48,2.73,6.29,6.29,0,0,1-2.5,5.39,9.4,9.4,0,0,1-5.8,1.71,10.22,10.22,0,0,1-6.11-1.85,6.39,6.39,0,0,1-2.93-5.53c0-2.15,1-4.21,3.13-6.12l6.29-5.06a13.26,13.26,0,0,0,4.58-7.09l.08-.37H182.59v3.74h-3v-7Z"/><path d="M121.12,59.19a8.61,8.61,0,0,1-16.62,3.14l-.07-.18-.84-2a.62.62,0,0,0-1.19.24,26.66,26.66,0,0,0,1.3,8,26.37,26.37,0,0,0,2.71,5.76h-10a26.18,26.18,0,0,0,4-13.78.61.61,0,0,0-1.18-.24l-.85,2-.07.18a8.61,8.61,0,1,1-8-11.75,8.44,8.44,0,0,1,3.22.63l1.44.75.75.39a.4.4,0,0,0,.47-.62l-1.39-1.54-.4-.44-.1-.12-.21-.27-.18-.25-.19-.29-.15-.24-.18-.31a9.51,9.51,0,0,1-.58-1.3c-.09-.25-.17-.5-.24-.76l0-.13c0-.11-.05-.22-.07-.33s0-.23-.07-.34l0-.21a1.27,1.27,0,0,1,0-.28,5.25,5.25,0,0,1,0-.57c0-.15,0-.31,0-.47a9.16,9.16,0,0,1,18.31,0c0,.16,0,.32,0,.47s0,.39-.05.57l0,.28a1.55,1.55,0,0,1,0,.21l-.06.34c0,.11,0,.22-.07.33a.5.5,0,0,0,0,.13c-.07.26-.15.51-.24.76a8.43,8.43,0,0,1-.58,1.3l-.18.31c0,.08-.09.16-.14.24l-.2.29-.18.25-.21.27-.1.12-.4.44-1.39,1.54a.4.4,0,0,0,.47.62l.76-.39,1.43-.75a8.48,8.48,0,0,1,3.22-.63A8.61,8.61,0,0,1,121.12,59.19Z"/><path d="M81.67,224.08a8.61,8.61,0,0,1,16.62-3.14l.07.17.85,2a.61.61,0,0,0,1.18-.24,26.18,26.18,0,0,0-4-13.78h10a26.14,26.14,0,0,0-2.71,5.76,26.66,26.66,0,0,0-1.3,8,.62.62,0,0,0,1.19.24l.84-2,.07-.17a8.59,8.59,0,1,1,4.79,11.12l-1.43-.75-.76-.39a.4.4,0,0,0-.47.62l1.39,1.53.4.45.1.12.21.27.18.25a3,3,0,0,1,.2.29c0,.08.09.16.14.24l.18.31a8.32,8.32,0,0,1,.58,1.29c.09.25.17.51.24.77a.65.65,0,0,0,0,.13c0,.11,0,.22.07.33l.06.34a1.55,1.55,0,0,1,0,.21l0,.27c0,.19,0,.38.05.58s0,.31,0,.47a9.16,9.16,0,0,1-18.31,0c0-.16,0-.32,0-.47a5.44,5.44,0,0,1,0-.58,1.24,1.24,0,0,1,0-.27l0-.21a3.4,3.4,0,0,1,.07-.34c0-.11,0-.22.07-.33l0-.13c.07-.26.15-.52.24-.77a9.39,9.39,0,0,1,.58-1.29l.18-.31.15-.24a2.9,2.9,0,0,1,.19-.29l.18-.25.21-.27.1-.12.4-.45,1.39-1.53a.4.4,0,0,0-.47-.62l-.75.39-1.44.75a8.62,8.62,0,0,1-11.83-8Z"/></g></g></svg>