<svg xmlns="http://www.w3.org/2000/svg" viewBox="0 0 202.79 283.27"><defs><style>.cls-1{fill:#fff;}</style></defs><g id="Réteg_2" data-name="Réteg 2"><g id="_ŽÓť_1" data-name="—ŽÓť_1"><rect class="cls-1" width="202.79" height="283.27" rx="15.31" transform="translate(202.79 283.27) rotate(180)"/><path d="M24.17,59.76a4.21,4.21,0,0,1-8.12,1.54l0-.09-.41-1a.3.3,0,0,0-.58.11,13,13,0,0,0,.63,3.92A13.1,13.1,0,0,0,17,67.08H12.09a13.1,13.1,0,0,0,1.32-2.82A13,13,0,0,0,14,60.34a.3.3,0,0,0-.58-.11l-.41,1,0,.09A4.21,4.21,0,1,1,9.1,55.56a4.35,4.35,0,0,1,1.58.3l.7.37.37.19a.19.19,0,0,0,.23-.3l-.68-.75-.2-.22,0-.06L11,55l-.09-.12-.09-.15-.07-.11-.09-.15a5.24,5.24,0,0,1-.29-.64c0-.12-.08-.24-.11-.37a.64.64,0,0,1,0-.07l0-.15a1.22,1.22,0,0,1,0-.17.43.43,0,0,1,0-.11s0-.08,0-.13a2.46,2.46,0,0,1,0-.28c0-.07,0-.15,0-.23a4.48,4.48,0,0,1,9,0,1.69,1.69,0,0,1,0,.23,2.46,2.46,0,0,1,0,.28c0,.05,0,.09,0,.13S19,53,19,53a1,1,0,0,1,0,.17l0,.15a.64.64,0,0,1,0,.07c0,.13-.07.25-.11.37a5.24,5.24,0,0,1-.29.64l-.09.15a.41.41,0,0,1-.07.11l-.09.15-.09.12-.1.13-.05.06-.2.22-.68.75a.19.19,0,0,0,.23.3l.37-.19.7-.37a4.35,4.35,0,0,1,1.58-.3A4.2,4.2,0,0,1,24.17,59.76Z"/><path d="M178.62,223.5a4.21,4.21,0,0,1,8.12-1.53l0,.09.41,1a.3.3,0,0,0,.58-.11,12.88,12.88,0,0,0-2-6.74h4.9a12.43,12.43,0,0,0-1.32,2.82,13,13,0,0,0-.64,3.92.3.3,0,0,0,.58.11l.41-1,0-.09a4.21,4.21,0,1,1,3.92,5.74,4.07,4.07,0,0,1-1.57-.31l-.71-.36-.36-.19a.2.2,0,0,0-.24.3l.68.75.2.22.05.06a.64.64,0,0,1,.1.13l.09.12.1.14a.75.75,0,0,0,.07.12,1.09,1.09,0,0,1,.08.15,4.51,4.51,0,0,1,.29.63l.12.38s0,0,0,.06,0,.11,0,.16l0,.17a.34.34,0,0,1,0,.1.68.68,0,0,1,0,.14,2.46,2.46,0,0,1,0,.28,1.69,1.69,0,0,1,0,.23,4.47,4.47,0,0,1-8.94,0v-.23a2.4,2.4,0,0,1,0-.28s0-.09,0-.14,0-.07,0-.1l0-.17,0-.16a.14.14,0,0,0,0-.06c0-.13.07-.25.12-.38a4.46,4.46,0,0,1,.28-.63l.09-.15.07-.12.1-.14.08-.12.11-.13,0-.06.2-.22.68-.75a.19.19,0,0,0-.23-.3l-.37.19-.7.36a4.15,4.15,0,0,1-1.57.31A4.2,4.2,0,0,1,178.62,223.5Z"/><path d="M14.14,41.23a8,8,0,0,1-5.33-2.12,13.23,13.23,0,0,1-3.25-4.78l2.82-1.25a9.62,9.62,0,0,0,2.1,3.22A5.11,5.11,0,0,0,14.16,38a5.53,5.53,0,0,0,4.69-2.76,9.46,9.46,0,0,0,1.66-5.41,9.19,9.19,0,0,0-1.66-5.38,5.55,5.55,0,0,0-4.69-2.61c-1.57,0-3.13.85-4.65,2.52l-2.27-1.4V11.73h13V15h-10v4.56l.41-.2a7.91,7.91,0,0,1,3.46-.82,8.34,8.34,0,0,1,6.82,3.52,12.26,12.26,0,0,1,2.58,7.74A12.69,12.69,0,0,1,21,37.6,8.33,8.33,0,0,1,14.14,41.23Z"/><path d="M188.65,242a7.94,7.94,0,0,1,5.33,2.12,13.11,13.11,0,0,1,3.25,4.78l-2.81,1.25a9.77,9.77,0,0,0-2.1-3.22,5.13,5.13,0,0,0-3.69-1.66,5.55,5.55,0,0,0-4.69,2.76,9.42,9.42,0,0,0-1.66,5.41,9.08,9.08,0,0,0,1.67,5.37,5.53,5.53,0,0,0,4.69,2.62c1.56,0,3.12-.85,4.64-2.53l2.27,1.41v11.19h-13v-3.26h10v-4.56l-.41.2a7.91,7.91,0,0,1-3.46.82,8.35,8.35,0,0,1-6.81-3.52,12.23,12.23,0,0,1-2.59-7.74,12.68,12.68,0,0,1,2.55-7.82A8.33,8.33,0,0,1,188.65,242Z"/><path d="M80.29,59.19a8.61,8.61,0,0,1-16.63,3.14l-.07-.18-.84-2a.61.61,0,0,0-1.18.24,26.66,26.66,0,0,0,1.3,8,26.38,26.38,0,0,0,2.7,5.76h-10a26.18,26.18,0,0,0,4-13.78.61.61,0,0,0-1.18-.24l-.84,2-.07.18a8.61,8.61,0,1,1-8-11.75,8.4,8.4,0,0,1,3.22.63L54.1,52l.75.39a.4.4,0,0,0,.48-.62l-1.39-1.54-.41-.44-.1-.12-.2-.27-.18-.25-.2-.29c-.05-.08-.1-.16-.14-.24a2.48,2.48,0,0,1-.18-.31,8.48,8.48,0,0,1-.59-1.3c-.09-.25-.17-.5-.24-.76a.28.28,0,0,0,0-.13c0-.11-.05-.22-.07-.33s-.05-.23-.06-.34a1.55,1.55,0,0,1,0-.21l0-.28c0-.18,0-.38,0-.57s0-.31,0-.47a9.15,9.15,0,1,1,18.3,0c0,.16,0,.32,0,.47a5,5,0,0,1,0,.57l0,.28,0,.21c0,.12,0,.23-.07.34s0,.22-.07.33l0,.13c-.07.26-.15.51-.24.76a8.48,8.48,0,0,1-.59,1.3l-.17.31-.15.24-.2.29a3,3,0,0,1-.18.25l-.2.27-.1.12-.41.44-1.39,1.54a.4.4,0,0,0,.48.62L67,52l1.44-.75a8.44,8.44,0,0,1,3.22-.63A8.62,8.62,0,0,1,80.29,59.19Z"/><path d="M40.84,224.08a8.61,8.61,0,0,1,16.62-3.14l.07.17.84,2a.61.61,0,0,0,1.18-.24,26,26,0,0,0-1.3-8,25.71,25.71,0,0,0-2.7-5.76h10a26.16,26.16,0,0,0-2.7,5.76,26.66,26.66,0,0,0-1.3,8,.61.61,0,0,0,1.18.24l.84-2,.07-.17a8.6,8.6,0,1,1,4.8,11.12L67,231.31l-.75-.39a.4.4,0,0,0-.48.62l1.39,1.53.41.45.1.12.2.27a2,2,0,0,1,.18.25,3,3,0,0,1,.2.29l.15.24a3.07,3.07,0,0,1,.17.31,8.37,8.37,0,0,1,.59,1.29c.09.25.17.51.24.77l0,.13c0,.11,0,.22.07.33s0,.23.07.34l0,.21,0,.27a5.44,5.44,0,0,1,0,.58c0,.15,0,.31,0,.47a9.15,9.15,0,1,1-18.3,0c0-.16,0-.32,0-.47s0-.39,0-.58l0-.27a1.55,1.55,0,0,1,0-.21,3.43,3.43,0,0,1,.06-.34c0-.11,0-.22.07-.33a.35.35,0,0,0,0-.13c.07-.26.15-.52.24-.77a8.37,8.37,0,0,1,.59-1.29,1.92,1.92,0,0,1,.18-.31c0-.08.09-.16.14-.24a3,3,0,0,1,.2-.29l.18-.25.2-.27.1-.12.41-.45,1.39-1.53a.4.4,0,0,0-.48-.62l-.75.39-1.44.75a8.61,8.61,0,0,1-11.82-8Z"/><path d="M122.51,224.08a8.61,8.61,0,0,1,16.62-3.14l.07.17.84,2a.62.62,0,0,0,1.19-.24,26.39,26.39,0,0,0-1.31-8,25.71,25.71,0,0,0-2.7-5.76h10a26.18,26.18,0,0,0-4,13.78.61.61,0,0,0,1.18.24l.84-2,.08-.17a8.59,8.59,0,1,1,4.79,11.12l-1.44-.75-.75-.39a.4.4,0,0,0-.48.62l1.4,1.53.4.45.1.12.21.27.17.25a1.87,1.87,0,0,1,.2.29l.15.24.18.31a9.39,9.39,0,0,1,.58,1.29c.09.25.17.51.24.77l0,.13c0,.11,0,.22.07.33s.05.23.07.34l0,.21a2.48,2.48,0,0,1,0,.27,5.44,5.44,0,0,1,.05.58c0,.15,0,.31,0,.47a9.16,9.16,0,0,1-18.31,0c0-.16,0-.32,0-.47s0-.39,0-.58l0-.27a1.55,1.55,0,0,1,0-.21l.06-.34c0-.11,0-.22.07-.33a.93.93,0,0,0,0-.13c.07-.26.15-.52.24-.77a8.32,8.32,0,0,1,.58-1.29l.18-.31c0-.08.09-.16.14-.24a3,3,0,0,1,.2-.29l.18-.25.21-.27.09-.12.41-.45,1.39-1.53a.4.4,0,0,0-.47-.62l-.76.39-1.43.75a8.62,8.62,0,0,1-11.83-8Z"/><path d="M162,59.19a8.61,8.61,0,0,1-16.62,3.14l-.08-.18-.84-2a.61.61,0,0,0-1.18.24,26.18,26.18,0,0,0,4,13.78h-10a25.93,25.93,0,0,0,2.7-5.76,26.39,26.39,0,0,0,1.31-8,.62.62,0,0,0-1.19-.24l-.84,2-.07.18a8.61,8.61,0,1,1-8-11.75,8.48,8.48,0,0,1,3.22.63l1.43.75.76.39a.4.4,0,0,0,.47-.62l-1.39-1.54-.41-.44-.09-.12-.21-.27-.18-.25-.2-.29c0-.08-.1-.16-.14-.24l-.18-.31a8.43,8.43,0,0,1-.58-1.3c-.09-.25-.17-.5-.24-.76a.5.5,0,0,0,0-.13c0-.11-.05-.22-.07-.33l-.06-.34a1.55,1.55,0,0,1,0-.21l0-.28c0-.18,0-.38,0-.57s0-.31,0-.47a9.16,9.16,0,0,1,18.31,0c0,.16,0,.32,0,.47a5,5,0,0,1-.05.57,2.4,2.4,0,0,1,0,.28l0,.21a3.4,3.4,0,0,1-.07.34c0,.11,0,.22-.07.33l0,.13c-.07.26-.15.51-.24.76a9.51,9.51,0,0,1-.58,1.3l-.18.31-.15.24c-.06.09-.12.19-.2.29l-.17.25-.21.27-.1.12-.4.44-1.4,1.54a.4.4,0,0,0,.48.62l.75-.39,1.44-.75a8.44,8.44,0,0,1,3.22-.63A8.62,8.62,0,0,1,162,59.19Z"/><path d="M121.12,146.38a8.61,8.61,0,0,1-16.62,3.14l-.07-.18-.84-2a.62.62,0,0,0-1.19.24,26.39,26.39,0,0,0,1.31,8,25.93,25.93,0,0,0,2.7,5.76h-10a26.18,26.18,0,0,0,4-13.78.61.61,0,0,0-1.18-.24l-.85,2-.07.18A8.61,8.61,0,1,1,93.5,138.4l1.44.75.75.39a.4.4,0,0,0,.47-.62l-1.39-1.54-.4-.44-.1-.12-.21-.27-.18-.25-.19-.29-.15-.24-.18-.31a9,9,0,0,1-.58-1.3c-.09-.25-.17-.5-.24-.76l0-.13c0-.11-.05-.22-.07-.33s0-.23-.07-.34l0-.21a1.27,1.27,0,0,1,0-.28,5.25,5.25,0,0,1,0-.57c0-.15,0-.31,0-.47a9.16,9.16,0,0,1,18.31,0c0,.16,0,.32,0,.47s0,.39-.05.57l0,.28a1.55,1.55,0,0,1,0,.21l-.06.34c0,.11,0,.22-.07.33a.65.65,0,0,0,0,.13c-.07.26-.15.51-.24.76a8,8,0,0,1-.58,1.3l-.18.31c0,.08-.09.16-.14.24s-.13.19-.2.29l-.18.25-.21.27-.1.12-.4.44-1.39,1.54a.4.4,0,0,0,.47.62l.76-.39,1.43-.75a8.6,8.6,0,0,1,11.83,8Z"/></g></g></svg>