<svg xmlns="http://www.w3.org/2000/svg" viewBox="0 0 202.79 283.27"><defs><style>.cls-1{fill:#fff;}</style></defs><g id="Réteg_2" data-name="Réteg 2"><g id="_ŽÓť_1" data-name="—ŽÓť_1"><path class="cls-1" d="M187.48,283.27H15.31A15.32,15.32,0,0,1,0,268V15.31A15.32,15.32,0,0,1,15.31,0H187.48a15.31,15.31,0,0,1,15.31,15.31V268A15.31,15.31,0,0,1,187.48,283.27Z"/><path d="M24.17,59.58a4.21,4.21,0,0,1-8.12,1.54L16,61l-.41-1a.3.3,0,0,0-.58.11,13,13,0,0,0,.63,3.92A13.1,13.1,0,0,0,17,66.9H12.09a13.1,13.1,0,0,0,1.32-2.82A12.65,12.65,0,0,0,14,60.16a.29.29,0,0,0-.57-.11l-.42,1,0,.09A4.21,4.21,0,1,1,9.1,55.38a4.35,4.35,0,0,1,1.58.3l.7.37.37.19a.19.19,0,0,0,.23-.3l-.68-.75L11.1,55l0-.06-.1-.13a.83.83,0,0,1-.08-.12l-.1-.15-.07-.11-.09-.15a3.65,3.65,0,0,1-.28-.64,2.29,2.29,0,0,1-.12-.37l0-.06,0-.16a1.22,1.22,0,0,1,0-.17.44.44,0,0,1,0-.1s0-.09,0-.14,0-.18,0-.28,0-.15,0-.23a4.48,4.48,0,0,1,9,0,1.69,1.69,0,0,1,0,.23,2.46,2.46,0,0,1,0,.28s0,.09,0,.14,0,.06,0,.1a1,1,0,0,1,0,.17l0,.16s0,0,0,.06-.07.25-.11.37a4.63,4.63,0,0,1-.29.64l-.09.15a.41.41,0,0,1-.07.11l-.09.15-.09.12-.1.13L18,55l-.2.22-.68.75a.19.19,0,0,0,.23.3l.37-.19.71-.37a4.26,4.26,0,0,1,1.57-.3A4.2,4.2,0,0,1,24.17,59.58Z"/><path d="M178.62,223.68a4.21,4.21,0,0,1,8.12-1.53l0,.09.41,1a.3.3,0,0,0,.58-.11,12.88,12.88,0,0,0-2-6.74h4.9a12.43,12.43,0,0,0-1.32,2.82,13,13,0,0,0-.64,3.92.3.3,0,0,0,.58.11l.41-1,0-.09a4.21,4.21,0,1,1,3.92,5.74,4.11,4.11,0,0,1-1.57-.31l-.71-.36-.36-.19a.19.19,0,0,0-.23.3l.68.75.19.22.05.06a.64.64,0,0,1,.1.13l.09.12.1.14a.75.75,0,0,0,.07.12,1.09,1.09,0,0,1,.08.15,4.51,4.51,0,0,1,.29.63l.12.38s0,0,0,.06,0,.11,0,.16l0,.17s0,.07,0,.1,0,.09,0,.14a2.46,2.46,0,0,1,0,.28,1.69,1.69,0,0,1,0,.23,4.47,4.47,0,0,1-8.94,0v-.23a2.4,2.4,0,0,1,0-.28s0-.09,0-.14,0-.07,0-.1l0-.17a1.24,1.24,0,0,1,0-.16s0,0,0-.06.07-.25.12-.38a4.46,4.46,0,0,1,.28-.63l.09-.15.07-.12.1-.14a.94.94,0,0,1,.09-.12.64.64,0,0,1,.1-.13l0-.06.2-.22.68-.75a.19.19,0,0,0-.23-.3l-.37.19-.7.36a4.15,4.15,0,0,1-1.57.31A4.2,4.2,0,0,1,178.62,223.68Z"/><path d="M16.6,41.23V38.17h1.74l-.67-3.85H11.42l-.68,3.85h1.73v3.06H5.34V38.17H7.82L12.6,11.23h3.83l4.82,26.94h2.48v3.06ZM14.23,18.29l-2.3,13h5.21l-2.32-13Z"/><path d="M186.19,242v3.06h-1.73l.66,3.85h6.26l.68-3.85h-1.73V242h7.12v3.06H195L190.19,272h-3.83l-4.82-26.93h-2.47V242ZM188.57,265l2.3-13h-5.21L188,265Z"/><path d="M136.41,150.06a15.27,15.27,0,0,1-29.5,5.57l-.13-.31-1.49-3.57a1.1,1.1,0,0,0-2.11.42,46.44,46.44,0,0,0,7.11,24.46H92.5a46.53,46.53,0,0,0,4.8-10.23,47.07,47.07,0,0,0,2.31-14.23,1.09,1.09,0,0,0-2.1-.42L96,155.32l-.12.31a15.28,15.28,0,1,1-8.51-19.74l2.55,1.33,1.34.69a.7.7,0,0,0,.84-1.09l-2.47-2.73-.72-.79-.17-.21c-.13-.16-.25-.32-.37-.49s-.22-.29-.32-.44-.24-.34-.35-.52l-.26-.41-.31-.55a15,15,0,0,1-1-2.31c-.16-.44-.3-.9-.43-1.36a1.89,1.89,0,0,0,0-.23,5.43,5.43,0,0,1-.13-.58l-.12-.61c0-.12,0-.25-.05-.37a3.86,3.86,0,0,1-.06-.49c0-.33-.07-.67-.09-1s0-.55,0-.84a16.25,16.25,0,0,1,32.5,0c0,.29,0,.56,0,.84s0,.68-.08,1l-.06.49c0,.12,0,.25-.06.37a6,6,0,0,1-.12.61c0,.2-.08.39-.12.58s0,.16-.06.23c-.13.46-.27.92-.43,1.36a15.93,15.93,0,0,1-1,2.31l-.32.55a3.54,3.54,0,0,1-.26.41,3.64,3.64,0,0,1-.35.52l-.31.44c-.12.17-.25.33-.37.49l-.18.21-.71.79-2.47,2.73a.7.7,0,0,0,.84,1.09l1.33-.69,2.56-1.33a15.09,15.09,0,0,1,5.71-1.11A15.29,15.29,0,0,1,136.41,150.06Z"/></g></g></svg>