<svg xmlns="http://www.w3.org/2000/svg" viewBox="0 0 202.79 283.27"><defs><style>.cls-1{fill:#fff;}.cls-2{fill:#e0010a;}</style></defs><g id="Réteg_2" data-name="Réteg 2"><g id="_ŽÓť_1" data-name="—ŽÓť_1"><rect class="cls-1" width="202.79" height="283.27" rx="15.31"/><path class="cls-2" d="M14.54,67.14A36.1,36.1,0,0,1,17.81,62,36.66,36.66,0,0,1,22,57.51a35.87,35.87,0,0,1-7.42-9.64A37.17,37.17,0,0,1,11.26,53a36.1,36.1,0,0,1-4.15,4.54A36.66,36.66,0,0,1,11.26,62,37.17,37.17,0,0,1,14.54,67.14Z"/><path class="cls-2" d="M188.26,216.13a36.59,36.59,0,0,1-7.42,9.63,36.59,36.59,0,0,1,7.42,9.63,35.49,35.49,0,0,1,3.27-5.09,36.1,36.1,0,0,1,4.15-4.54,36.1,36.1,0,0,1-4.15-4.54A35.49,35.49,0,0,1,188.26,216.13Z"/><path class="cls-2" d="M14.59,41.23V38h2.27V34.24H5.77V31.57L17.24,12.4h2.62V31H23.3v3.26H19.86V38h1.71v3.27ZM9.74,31h7.12V19.07Z"/><path class="cls-2" d="M188.2,242v3.27h-2.27V249H197v2.68l-11.47,19.17h-2.63V252.29h-3.44V249h3.44v-3.71h-1.7V242Zm4.85,10.25h-7.12V264.2Z"/><path class="cls-2" d="M60.56,74.16A74.36,74.36,0,0,1,75.75,54.44a73.29,73.29,0,0,1-8.48-9.28,73.67,73.67,0,0,1-6.71-10.43,74.42,74.42,0,0,1-6.7,10.43,73.3,73.3,0,0,1-8.49,9.28,74.15,74.15,0,0,1,8.49,9.29A74.42,74.42,0,0,1,60.56,74.16Z"/><path class="cls-2" d="M60.56,209.11a74.42,74.42,0,0,1-6.7,10.43,73.3,73.3,0,0,1-8.49,9.28,74.15,74.15,0,0,1,8.49,9.29,74.42,74.42,0,0,1,6.7,10.43,74.36,74.36,0,0,1,15.19-19.72,74.1,74.1,0,0,1-15.19-19.71Z"/><path class="cls-2" d="M142.23,74.16a74.36,74.36,0,0,1,15.19-19.72,73.29,73.29,0,0,1-8.48-9.28,73.67,73.67,0,0,1-6.71-10.43,74.42,74.42,0,0,1-6.7,10.43,74,74,0,0,1-8.48,9.28,74,74,0,0,1,15.18,19.72Z"/><path class="cls-2" d="M142.23,209.11a74.42,74.42,0,0,1-6.7,10.43,73.3,73.3,0,0,1-8.49,9.28,73.81,73.81,0,0,1,15.19,19.72,74.36,74.36,0,0,1,15.19-19.72,74.1,74.1,0,0,1-15.19-19.71Z"/></g></g></svg>