<svg xmlns="http://www.w3.org/2000/svg" viewBox="0 0 202.79 283.27"><defs><style>.cls-1{fill:#fff;}.cls-2{fill:#e0010a;}</style></defs><g id="Réteg_2" data-name="Réteg 2"><g id="_ŽÓť_1" data-name="—ŽÓť_1"><rect class="cls-1" width="202.79" height="283.27" rx="15.31" transform="translate(202.79 283.27) rotate(180)"/><path class="cls-2" d="M14.54,67.14A36.1,36.1,0,0,1,17.81,62,36.66,36.66,0,0,1,22,57.51a35.87,35.87,0,0,1-7.42-9.64A37.17,37.17,0,0,1,11.26,53a36.1,36.1,0,0,1-4.15,4.54A36.66,36.66,0,0,1,11.26,62,37.17,37.17,0,0,1,14.54,67.14Z"/><path class="cls-2" d="M188.26,216.13a36.59,36.59,0,0,1-7.42,9.63,36.59,36.59,0,0,1,7.42,9.63,35.49,35.49,0,0,1,3.27-5.09,36.1,36.1,0,0,1,4.15-4.54,36.1,36.1,0,0,1-4.15-4.54A35.49,35.49,0,0,1,188.26,216.13Z"/><path class="cls-2" d="M188.26,242a8.83,8.83,0,0,1,6.22,2.46,8.55,8.55,0,0,1-.87,13.2l-.32.23.3.26a7.51,7.51,0,0,1,.16,11.17,8.08,8.08,0,0,1-11,0,7.51,7.51,0,0,1,.16-11.17l.29-.26-.31-.23a8.55,8.55,0,0,1-.93-13.16A9,9,0,0,1,188.26,242Zm0,14.11a6.07,6.07,0,0,0,4-1.48,4.91,4.91,0,0,0,1.92-4,5,5,0,0,0-1.92-4,6.35,6.35,0,0,0-8,0,5,5,0,0,0-1.92,4,4.92,4.92,0,0,0,1.92,4A6.12,6.12,0,0,0,188.26,256.15Zm0,12.09a5,5,0,0,0,3.29-1.19,4,4,0,0,0,0-6.45,5.13,5.13,0,0,0-6.57,0,4,4,0,0,0,0,6.46A5,5,0,0,0,188.26,268.24Z"/><path class="cls-2" d="M14.54,41.23a8.82,8.82,0,0,1-6.23-2.47A8.17,8.17,0,0,1,5.6,32.54a8.27,8.27,0,0,1,3.59-7l.31-.23-.3-.25a7.23,7.23,0,0,1-2.56-5.66,7.23,7.23,0,0,1,2.41-5.51,7.82,7.82,0,0,1,5.49-2.15A7.85,7.85,0,0,1,20,13.91a7.27,7.27,0,0,1,2.4,5.51,7.26,7.26,0,0,1-2.57,5.66l-.29.26.32.22a8.23,8.23,0,0,1,3.58,7,8.14,8.14,0,0,1-2.66,6.19A9,9,0,0,1,14.54,41.23Zm0-14.11a6.14,6.14,0,0,0-4,1.47,4.94,4.94,0,0,0-1.91,4,5,5,0,0,0,1.91,4,6.35,6.35,0,0,0,8,0,5,5,0,0,0,1.91-4,4.94,4.94,0,0,0-1.91-4A6.13,6.13,0,0,0,14.54,27.12Zm0-12.09a5,5,0,0,0-3.29,1.19,4,4,0,0,0,0,6.45,5,5,0,0,0,3.29,1.18,5,5,0,0,0,3.28-1.19,4,4,0,0,0,1.62-3.22,4,4,0,0,0-1.62-3.23A5,5,0,0,0,14.54,15Z"/><path class="cls-2" d="M60.56,74.16A74.36,74.36,0,0,1,75.75,54.44a73.29,73.29,0,0,1-8.48-9.28,73.67,73.67,0,0,1-6.71-10.43,74.42,74.42,0,0,1-6.7,10.43,73.3,73.3,0,0,1-8.49,9.28,74.15,74.15,0,0,1,8.49,9.29A74.42,74.42,0,0,1,60.56,74.16Z"/><path class="cls-2" d="M60.56,209.11a74.42,74.42,0,0,1-6.7,10.43,73.3,73.3,0,0,1-8.49,9.28,74.15,74.15,0,0,1,8.49,9.29,74.42,74.42,0,0,1,6.7,10.43,74.36,74.36,0,0,1,15.19-19.72,74.1,74.1,0,0,1-15.19-19.71Z"/><path class="cls-2" d="M60.56,161.35a74.36,74.36,0,0,1,15.19-19.72,74.1,74.1,0,0,1-15.19-19.71,74.42,74.42,0,0,1-6.7,10.43,73.3,73.3,0,0,1-8.49,9.28,74.15,74.15,0,0,1,8.49,9.29A74.42,74.42,0,0,1,60.56,161.35Z"/><path class="cls-2" d="M142.23,161.35a74.36,74.36,0,0,1,15.19-19.72,74.1,74.1,0,0,1-15.19-19.71,74.42,74.42,0,0,1-6.7,10.43,73.3,73.3,0,0,1-8.49,9.28,73.81,73.81,0,0,1,15.19,19.72Z"/><path class="cls-2" d="M142.23,74.16a74.36,74.36,0,0,1,15.19-19.72,73.29,73.29,0,0,1-8.48-9.28,73.67,73.67,0,0,1-6.71-10.43,74.42,74.42,0,0,1-6.7,10.43A73.3,73.3,0,0,1,127,54.44a73.81,73.81,0,0,1,15.19,19.72Z"/><path class="cls-2" d="M142.23,209.11a74.42,74.42,0,0,1-6.7,10.43,73.3,73.3,0,0,1-8.49,9.28,73.81,73.81,0,0,1,15.19,19.72,74.36,74.36,0,0,1,15.19-19.72,74.1,74.1,0,0,1-15.19-19.71Z"/><path class="cls-2" d="M101.4,117.75A73.79,73.79,0,0,1,116.58,98,74,74,0,0,1,101.4,78.32a73.67,73.67,0,0,1-6.71,10.43A74.15,74.15,0,0,1,86.21,98a74.1,74.1,0,0,1,15.19,19.71Z"/><path class="cls-2" d="M101.4,165.51a74.36,74.36,0,0,1-15.19,19.72,74,74,0,0,1,8.48,9.28,74.57,74.57,0,0,1,6.71,10.43,73.79,73.79,0,0,1,15.18-19.71,74,74,0,0,1-15.18-19.72Z"/></g></g></svg>