<svg xmlns="http://www.w3.org/2000/svg" viewBox="0 0 202.79 283.27"><defs><style>.cls-1{fill:#fff;}.cls-2{fill:#e0010a;}.cls-3{fill:none;}.cls-4{fill:#f2c304;}.cls-5{fill:#122166;}</style></defs><g id="Réteg_2" data-name="Réteg 2"><g id="_ŽÓť_1" data-name="—ŽÓť_1"><rect class="cls-1" width="202.79" height="283.27" rx="15.31"/><path class="cls-2" d="M68.45,96.41v30.35a89.58,89.58,0,0,0-4.4-10.32,90.46,90.46,0,0,0-4.5-8A84.26,84.26,0,0,0,65,101.59C66.31,99.81,67.44,98.07,68.45,96.41Z"/><path class="cls-1" d="M125,84.55a11.13,11.13,0,0,1-4.34-2.17,10.86,10.86,0,0,1-2.33-2.63,29.25,29.25,0,0,1-9.12,5.91,18.86,18.86,0,0,1-7.29,1.74,17.39,17.39,0,0,1-6.87-1.33,4.11,4.11,0,0,1-2.65,1.4A3.93,3.93,0,0,1,90.17,87a4.49,4.49,0,0,1-1.79.11,4.37,4.37,0,0,1-1.82-.72,3.2,3.2,0,0,1-.77,0,4.6,4.6,0,0,1-3-1.46c-.28-.12-.59-.24-.62-.19s4.23,3.14,8.45,4.89a32.3,32.3,0,0,0,15.29,2.17A36.71,36.71,0,0,0,125,84.55Z"/><path class="cls-3" d="M83.58,46.27c-.07,3.93-.39,33.42,10.58,39.36a16.83,16.83,0,0,0,3,1.22c9.35,2.6,18.43-4.73,21.16-7.1a10.13,10.13,0,0,1,3.22-13.33c-1.22-3.35-2.4-7.07-3.45-11.12-1-3.68-1.67-7.16-2.21-10.4a89.73,89.73,0,0,0-32.33,1.37Z"/><path d="M86.21,143.7l36.71-36.44L134,118.16a65.85,65.85,0,0,0-2.54,14.48,66.57,66.57,0,0,0,2.88,23.86l-17.77-16.93-17,16.87Z"/><path class="cls-4" d="M68.45,126.76V96.41c.57-.94,1.14-1.92,1.7-2.94q1.17-2.1,2.13-4.1v41.42Z"/><path d="M72.28,130.81V89.37c.1-.19.19-.39.29-.59.3.3.62.6,1,.91.51.47,1,.91,1.51,1.33v42.31Z"/><polygon class="cls-1" points="75.03 91.02 75.03 133.34 78.32 136.39 78.32 93.58 75.03 91.02"/><path class="cls-1" d="M78.32,134.18V93.58A41.13,41.13,0,0,0,91,99.87a43.08,43.08,0,0,0,26.51-1.08l-37.34,37Z"/><path class="cls-2" d="M83.13,132.86a33,33,0,0,1,2.35-4.65c1.93-3.19,3.46-4.49,5.83-7.7a55,55,0,0,0,3.92-6.1,7.45,7.45,0,0,1-4.87.3,7.12,7.12,0,0,1-2.48-1.3q-3,3.93-5.93,8-1.85,2.55-3.63,5.09v9.85L79,137Z"/><rect class="cls-5" x="77.23" y="116.39" width="11.64" height="0.66" transform="matrix(0.81, -0.58, 0.58, 0.81, -52.43, 70.2)"/><rect class="cls-5" x="78.12" y="124.44" width="2.07" height="0.66" transform="translate(-57.85 69.43) rotate(-35.61)"/><rect class="cls-5" x="77.67" y="120.39" width="6.91" height="0.66" transform="translate(-55.13 69.83) rotate(-35.62)"/><rect class="cls-5" x="104.46" y="99.8" width="0.66" height="9.66" transform="translate(-43.28 106.83) rotate(-45.81)"/><rect class="cls-5" x="106.75" y="100.13" width="0.66" height="7.5" transform="translate(-42.04 108.26) rotate(-45.81)"/><rect class="cls-5" x="108.86" y="100.2" width="0.66" height="5.48" transform="translate(-40.73 109.49) rotate(-45.81)"/><rect class="cls-5" x="111.03" y="100.12" width="0.66" height="3.89" transform="translate(-39.45 110.79) rotate(-45.82)"/><rect class="cls-5" x="113.04" y="99.85" width="0.66" height="2.35" transform="translate(-38.1 111.89) rotate(-45.81)"/><rect class="cls-5" x="102.96" y="101.33" width="0.66" height="9.68" transform="translate(-44.83 106.24) rotate(-45.81)"/><rect class="cls-5" x="101.71" y="103.52" width="0.66" height="8.83" transform="translate(-46.48 105.87) rotate(-45.81)"/><rect class="cls-5" x="101.21" y="107.5" width="0.66" height="5.85" transform="translate(-48.42 106.27) rotate(-45.82)"/><rect class="cls-5" x="100.15" y="110.09" width="0.66" height="4.58" transform="translate(-50.14 106.1) rotate(-45.81)"/><rect class="cls-5" x="98.83" y="112.01" width="0.66" height="4.14" transform="translate(-51.76 105.67) rotate(-45.81)"/><rect class="cls-5" x="95.72" y="114.86" width="0.66" height="4.33" transform="translate(-54.82 104.33) rotate(-45.81)"/><rect class="cls-5" x="97.24" y="113.35" width="0.66" height="4.34" transform="translate(-53.27 104.97) rotate(-45.82)"/><rect class="cls-5" x="94.42" y="116.89" width="0.66" height="3.74" transform="translate(-56.45 103.93) rotate(-45.82)"/><rect class="cls-5" x="93.06" y="118.77" width="0.66" height="3.31" transform="translate(-58.05 103.45) rotate(-45.81)"/><rect class="cls-5" x="91.67" y="120.57" width="0.66" height="2.97" transform="translate(-59.65 102.93) rotate(-45.81)"/><rect class="cls-5" x="90.24" y="122.3" width="0.66" height="2.72" transform="translate(-61.23 102.39) rotate(-45.8)"/><rect class="cls-5" x="88.8" y="123.99" width="0.66" height="2.52" transform="translate(-62.81 101.88) rotate(-45.82)"/><rect class="cls-5" x="87.35" y="125.74" width="0.66" height="2.15" transform="translate(-64.38 101.32) rotate(-45.82)"/><rect class="cls-5" x="86.01" y="127.6" width="0.66" height="1.82" transform="translate(-65.99 100.85) rotate(-45.81)"/><rect class="cls-5" x="84.7" y="129.59" width="0.66" height="1.25" transform="translate(-67.61 100.41) rotate(-45.81)"/><path class="cls-4" d="M78.32,133.32c.77-1.47,1.6-3,2.49-4.48a108.66,108.66,0,0,1,9.83-14,7.34,7.34,0,0,1-2.76-1.38q-2.7,3.57-5.4,7.31-2.13,2.93-4.16,5.82Z"/><path class="cls-1" d="M126.22,94.85,81.38,139.22,79,137l38.59-38.19c1.31-.45,2.71-1,4.17-1.65C123.38,96.4,124.88,95.61,126.22,94.85Z"/><path class="cls-5" d="M78.59,126.73l-.54-.38q1.78-2.53,3.63-5.1c1.94-2.68,3.93-5.39,5.93-8l.53.39c-2,2.66-4,5.36-5.93,8C81,123.35,79.77,125,78.59,126.73Z"/><path class="cls-5" d="M83.43,133l-.61-.25A34.53,34.53,0,0,1,85.2,128a35.7,35.7,0,0,1,3.42-4.66c.74-.91,1.52-1.84,2.43-3.07a55,55,0,0,0,3.89-6.06l.58.32a56.28,56.28,0,0,1-3.94,6.13c-.92,1.25-1.7,2.19-2.46,3.1a35.85,35.85,0,0,0-3.36,4.58A33.2,33.2,0,0,0,83.43,133Z"/><path class="cls-5" d="M78.61,133.47l-.58-.3c.79-1.52,1.63-3,2.5-4.5a108.29,108.29,0,0,1,9.86-14.09l.5.42a110,110,0,0,0-9.8,14C80.24,130.47,79.4,132,78.61,133.47Z"/><rect class="cls-5" x="77.99" y="93.58" width="0.66" height="42.81"/><rect class="cls-5" x="71.11" y="117.56" width="54.3" height="0.66" transform="translate(-54.5 103.15) rotate(-44.68)"/><path class="cls-4" d="M90.38,87a3.89,3.89,0,0,0,2.73.4,3.83,3.83,0,0,0,2.13-1.37,15,15,0,0,1-3.5-2.52c-.87-.84-2.79-2.91-4.76-9.23a54.9,54.9,0,0,1-2.2-10.71,18.85,18.85,0,0,1-1,8,18,18,0,0,1-2.31,4.45,3.21,3.21,0,0,0-3.39-4.47,3.86,3.86,0,0,0-3.33,2.89,4,4,0,0,0,1.75,4.26,3,3,0,0,0,.39,1.44,3.1,3.1,0,0,0,1.82,1.38,4.38,4.38,0,0,0,1.08,1.25,4.47,4.47,0,0,0,.75.47,3.7,3.7,0,0,0,1.11,1.18,3.84,3.84,0,0,0,1.41.56,4.26,4.26,0,0,0,1.61,1.17,4.05,4.05,0,0,0,2.11.25,3.9,3.9,0,0,0,3.58.61Z"/><path class="cls-4" d="M83.92,53.06a27.26,27.26,0,0,1-2,8.6c-.31.75-.65,1.46-1,2.12a2.41,2.41,0,0,0-1.73-.58A2.53,2.53,0,0,0,77,66a2.25,2.25,0,0,0,1,1.35,3.2,3.2,0,0,0,1.73.48c1.51,0,3.48-2.2,4.86-5.55-.17-1.43-.31-2.9-.42-4.43S84,54.59,83.92,53.06Z"/><path class="cls-4" d="M121.57,66.42c-3.44,2.62-5.19,6.76-4.38,10.52,1.11,5.1,6.82,8.94,13.15,7.81a86.69,86.69,0,0,1-5-9.09A85.18,85.18,0,0,1,121.57,66.42Z"/><path class="cls-4" d="M144.09,75.57a51.43,51.43,0,0,1-3.49-6,58.87,58.87,0,0,1-3-7.77c-1-3.12-2.28-7.33-3.44-12.45-2.61-.9-5.48-1.77-8.6-2.54-3.43-.84-6.66-1.44-9.62-1.86a134.87,134.87,0,0,0,4.18,17.19c1.32,4.13,2.77,7.76,3,8.4.77,1.92,1.35,3.24,2.07,4.86,3.73,8.41,5,9.8,6.67,10.3a5.11,5.11,0,0,0,2.6.09,5.68,5.68,0,0,0,1.5.43,5.41,5.41,0,0,0,1.76,0,2.36,2.36,0,0,0,1.49.51,2.44,2.44,0,0,0,1.6-.64,3.08,3.08,0,0,0,2.8.45A2.83,2.83,0,0,0,145,85.13a2.75,2.75,0,0,0,1.57-.58,2.79,2.79,0,0,0,.91-1.31,4,4,0,0,0,1.63-.46,4.76,4.76,0,0,0,2.34-4.72,4.51,4.51,0,0,0-3.29-3.92A4.7,4.7,0,0,0,144.09,75.57Z"/><polygon class="cls-4" points="119.71 138.59 119.69 138.6 118.11 140.17 118.1 140.05 117.52 133.87 111.32 133.23 111.41 133.15 112.91 131.67 112.92 131.67 117.88 132.17 118.53 131.54 113.54 131.03 113.63 130.95 115.13 129.47 115.15 129.47 120.13 129.99 120.77 129.35 115.77 128.84 117.36 127.26 117.38 127.26 122.37 127.79 123.01 127.15 118 126.63 119.59 125.06 119.6 125.06 124.61 125.59 125.25 124.95 120.22 124.44 121.81 122.86 121.83 122.86 126.86 123.39 127.51 122.76 122.45 122.24 124.02 120.68 124.04 120.67 129.1 121.19 129.75 120.56 124.66 120.04 124.75 119.97 126.25 118.48 126.27 118.47 132.59 119.12 132.59 119.17 133.16 125.29 131.56 126.87 131.1 121.93 130.46 122.56 130.92 127.5 129.32 129.08 129.31 128.97 128.86 124.12 128.22 124.75 128.68 129.71 127.08 131.29 127.07 131.18 126.61 126.31 125.97 126.95 126.43 131.94 124.83 133.52 124.37 128.51 123.73 129.15 124.18 134.16 122.58 135.74 122.57 135.63 122.13 130.71 121.48 131.34 121.94 136.37 120.35 137.95 119.89 132.9 119.23 133.54 119.71 138.59"/><polygon class="cls-4" points="126.83 145.68 126.81 145.68 125.23 147.25 125.22 147.14 124.64 140.95 118.44 140.31 118.53 140.24 120.03 138.75 120.04 138.75 125 139.25 125.65 138.63 120.66 138.11 120.75 138.04 122.25 136.55 122.27 136.55 127.25 137.07 127.89 136.44 122.89 135.92 124.48 134.35 124.5 134.35 129.49 134.87 130.13 134.24 125.13 133.71 126.71 132.15 126.72 132.15 131.73 132.67 132.37 132.04 127.34 131.52 128.93 129.95 128.95 129.95 133.99 130.47 134.63 129.85 129.57 129.32 131.14 127.76 131.16 127.76 136.22 128.27 136.87 127.65 131.78 127.12 131.87 127.05 133.37 125.56 133.39 125.56 139.71 126.2 139.72 126.25 140.28 132.37 138.68 133.95 138.22 129.01 137.57 129.64 138.04 134.58 136.44 136.16 136.43 136.05 135.98 131.2 135.34 131.84 135.8 136.8 134.2 138.38 134.19 138.26 133.73 133.4 133.09 134.03 133.55 139.02 131.95 140.6 131.49 135.59 130.85 136.23 131.3 141.24 129.71 142.82 129.69 142.72 129.25 137.79 128.6 138.42 129.06 143.45 127.47 145.03 127 139.99 126.35 140.62 126.83 145.68"/><polygon class="cls-4" points="133.95 152.76 133.93 152.76 132.35 154.33 132.34 154.22 131.76 148.03 125.56 147.39 125.65 147.32 127.15 145.83 127.17 145.83 132.12 146.34 132.77 145.71 127.78 145.19 127.87 145.12 129.37 143.63 129.39 143.63 134.37 144.15 135.01 143.52 130.01 143 131.61 141.43 131.62 141.43 136.61 141.95 137.25 141.32 132.25 140.79 133.83 139.23 133.84 139.23 138.85 139.75 139.49 139.12 134.46 138.6 136.05 137.03 136.07 137.03 141.11 137.55 141.75 136.93 136.69 136.4 138.26 134.84 138.29 134.84 143.35 135.35 143.99 134.73 138.9 134.2 138.99 134.13 140.49 132.65 140.51 132.64 146.83 133.28 146.84 133.34 147.4 139.45 145.8 141.03 145.34 136.09 144.7 136.72 145.16 141.66 143.56 143.25 143.55 143.13 143.1 138.28 142.46 138.92 142.92 143.88 141.32 145.46 141.31 145.35 140.85 140.48 140.21 141.11 140.67 146.1 139.07 147.68 138.61 142.68 137.97 143.31 138.43 148.32 136.83 149.9 136.81 149.8 136.37 144.88 135.72 145.5 136.19 150.54 134.59 152.12 134.13 147.07 133.47 147.7 133.95 152.76"/><rect class="cls-5" x="77.06" y="102.7" width="13.43" height="0.66" transform="matrix(0.81, -0.58, 0.58, 0.81, -44.33, 68.06)"/><rect class="cls-5" x="77.34" y="100.94" width="10.45" height="0.66" transform="translate(-43.53 67.03) rotate(-35.62)"/><rect class="cls-5" x="77.6" y="99.12" width="7.65" height="0.66" transform="translate(-42.68 66.03) rotate(-35.62)"/><rect class="cls-5" x="77.76" y="96.98" width="5.95" height="0.66" transform="translate(-41.57 65.22) rotate(-35.62)"/><rect class="cls-5" x="77.76" y="94.35" width="5.95" height="0.66" transform="translate(-40.03 64.72) rotate(-35.61)"/><rect class="cls-5" x="77.35" y="106.23" width="10.35" height="0.66" transform="translate(-46.62 68) rotate(-35.62)"/><rect class="cls-5" x="77.52" y="109.39" width="8.53" height="0.66" transform="translate(-48.6 68.16) rotate(-35.62)"/><rect class="cls-5" x="77.49" y="111.94" width="8.83" height="0.66" transform="translate(-50.06 68.7) rotate(-35.62)"/><rect class="cls-5" x="77.39" y="114.26" width="9.9" height="0.66" transform="matrix(0.81, -0.58, 0.58, 0.81, -51.33, 69.39)"/><path class="cls-4" d="M67,82.35c-3.63,8.4-11.42,22.74-27.05,33a64.24,64.24,0,0,1-10.92,6V108.68a56,56,0,0,0,5.16-3c6.2-4.05,11-9.36,15.53-15.82l16.91-8Z"/><path class="cls-4" d="M82.19,84.82A32.57,32.57,0,0,0,102.69,92,38.74,38.74,0,0,0,125,84.55a12.8,12.8,0,0,0,2.59.39,13.05,13.05,0,0,0,2.68-.18,5,5,0,0,0,1.85.94,4.83,4.83,0,0,0,2.31,0,4.46,4.46,0,0,0,3.12.3c-12.51,12.75-30.13,18.15-46.09,13.77-14.29-3.93-22.26-14.32-24.81-18l8.53-4.06a4.44,4.44,0,0,0,.57.63,3,3,0,0,0,.43.34,2.89,2.89,0,0,0,2.07,2.78,8.57,8.57,0,0,0,1,1.12,7.56,7.56,0,0,0,1.14.86,3.66,3.66,0,0,0,.84.83A3.81,3.81,0,0,0,82.19,84.82Z"/><path class="cls-5" d="M72.57,88.78a81,81,0,0,1-28.38,33,73.72,73.72,0,0,1-15.12,7.84v-8.24a64.24,64.24,0,0,0,10.92-6c15.63-10.23,23.42-24.57,27.05-33,.76,1.05,1.61,2.16,2.59,3.3S71.62,87.86,72.57,88.78Z"/><polygon class="cls-1" points="46.16 119.81 40.05 118.96 40.42 116.35 44.07 116.86 45.03 112.15 49.84 112.35 50.34 107.56 55.12 107.31 55.09 102.55 59.79 101.92 59.31 97.2 63.92 96.13 63.01 91.49 67.5 89.99 66.17 85.53 68.75 84.17 69.98 86.5 69.31 86.85 70.75 91.68 66.04 93.25 67 98.12 62.16 99.25 62.66 104.19 57.74 104.85 57.77 109.8 52.72 110.07 52.2 115.09 47.16 114.87 46.16 119.81"/><path class="cls-5" d="M152,167.22a54.72,54.72,0,0,1,4.81-66.91,11.89,11.89,0,0,0,1,4.63,51.65,51.65,0,0,0-10.93,27.45,52.19,52.19,0,0,0,8.38,32.74Z"/><path class="cls-1" d="M149.47,169.3A58.35,58.35,0,0,1,156.22,96a16.77,16.77,0,0,1,.46,2.23,17,17,0,0,1,.17,1.88A55.11,55.11,0,0,0,152,167.22Z"/><path class="cls-2" d="M149.47,169.3a58.55,58.55,0,0,1,6.73-73.45,8.62,8.62,0,0,1-.34-2.7,8.84,8.84,0,0,1,.9-3.66c-3.47,3-19.24,17.55-21.35,41.92a63.76,63.76,0,0,0,10.75,40.83Z"/><path class="cls-5" d="M155,165.31c-3-4.62-9.8-17.07-8.44-32.95a52.45,52.45,0,0,1,10.71-27.15l.53.4a51.81,51.81,0,0,0-10.58,26.81c-1.34,15.67,5.38,28,8.33,32.53Z"/><path class="cls-2" d="M157.81,104.94a51.14,51.14,0,0,0-3.11,59.31c1.22-.9,2.51-1.81,3.9-2.73s2.79-1.78,4.12-2.56V106.2a3.48,3.48,0,0,1-3,.46A3.36,3.36,0,0,1,157.81,104.94Z"/><path class="cls-5" d="M151.77,167.4a55.43,55.43,0,0,1,4.83-67.55l.49.44A54.74,54.74,0,0,0,152.32,167Z"/><path class="cls-5" d="M149.2,169.48a59,59,0,0,1-9.75-37.73,59.94,59.94,0,0,1,16.54-36l.47.46a59.27,59.27,0,0,0-16.36,35.62,58.38,58.38,0,0,0,9.64,37.3Z"/><path class="cls-5" d="M143.41,175a68,68,0,0,1-11.83-43.94c2.24-26.24,19.36-41.79,23-45l2.83,1.55-.62,1.73c-3.47,3-19.29,17.59-21.39,42a63.83,63.83,0,0,0,10.75,40.83Z"/><path class="cls-5" d="M145.88,172.42a63.77,63.77,0,0,1-10.8-41c2-22.81,15.69-37.14,21.5-42.24l.44.5c-5.75,5-19.34,19.22-21.29,41.8a63.09,63.09,0,0,0,10.7,40.61Z"/><path class="cls-1" d="M145.67,85c-19.44,19.2-40,39.48-59.48,58.68l-2.39-2.19Q97.66,127.7,111.54,114T139.2,86.63a3.94,3.94,0,0,0,1-.3,4.41,4.41,0,0,0,.59-.34,3.8,3.8,0,0,0,2.79.41A3.74,3.74,0,0,0,145.67,85Z"/><path d="M126.22,94.85,81.38,139.22l2.42,2.24,55.64-55.07a4.25,4.25,0,0,1-1.18,0,4,4,0,0,1-.81-.22,53.28,53.28,0,0,1-11.23,8.69Z"/><path class="cls-1" d="M154.59,86.11,149,82.72a3.73,3.73,0,0,1-.77.35,3.32,3.32,0,0,1-.76.17c-.1.19-.21.4-.36.63a6.19,6.19,0,0,1-.55.68,1.66,1.66,0,0,1-.46.33,1.77,1.77,0,0,1-.68.2l-22.52,22.18L134,118.16a69.73,69.73,0,0,1,20.58-32Z"/><polygon class="cls-5" points="135.36 115.65 124.86 105.34 126.81 103.42 136.39 112.83 135.36 115.65"/><rect class="cls-5" x="128.39" y="104.94" width="0.66" height="16.04" transform="translate(-42.07 125.6) rotate(-45.5)"/><polygon class="cls-5" points="138.75 107.5 130.71 99.59 128.76 101.51 137.52 110.12 138.75 107.5"/><polygon class="cls-5" points="141.48 102.52 134.6 95.76 132.65 97.67 140.15 105.05 141.48 102.52"/><polygon class="cls-5" points="138.49 91.92 144.54 97.87 142.97 100.15 136.55 93.84 138.49 91.92"/><polygon class="cls-5" points="142.39 88.09 147.91 93.52 146.14 95.61 140.44 90.01 142.39 88.09"/><path class="cls-5" d="M146.58,84.55l5,4.92-1.85,2-5.41-5.31,1.11-1.09Z"/><path d="M102.68,101.64a42.77,42.77,0,0,1-11.29-1.51C78.08,96.47,70,87.21,66.4,82l.54-.37c3.57,5.12,11.51,14.25,24.62,17.85,15.72,4.32,33.25-.93,45.77-13.68l.47.46C128.06,96.2,115.3,101.64,102.68,101.64Z"/><path d="M102.69,98.89a39.81,39.81,0,0,1-10.58-1.41c-12.25-3.37-19.8-11.88-23.2-16.66l.54-.38c3.35,4.7,10.78,13.09,22.84,16.41a39.28,39.28,0,0,0,10.4,1.39c11.13,0,22.1-4.49,30.9-12.62l.45.48C125.12,94.35,114,98.89,102.69,98.89Z"/><path d="M102.69,95.05a36,36,0,0,1-9.56-1.27c-10.79-3-17.59-10.44-20.69-14.63l.53-.39c3,4.12,9.74,11.47,20.34,14.38a35,35,0,0,0,9.38,1.26,41.61,41.61,0,0,0,26.16-9.74l.42.51A42.31,42.31,0,0,1,102.69,95.05Z"/><path d="M129.06,84.91a41.71,41.71,0,0,1-26.37,9.82,35.69,35.69,0,0,1-9.47-1.27C82.66,90.56,76,83.35,72.71,79l-3.53,1.68c3.5,4.91,10.95,13.22,23,16.53a39.22,39.22,0,0,0,10.49,1.4,46.21,46.21,0,0,0,31.12-12.7,5.05,5.05,0,0,1-2.09-.29,5.2,5.2,0,0,1-1.43-.81Z"/><path d="M102.69,92.31A32.85,32.85,0,0,1,82,85.08l-.53-.43.42-.51.52.43A33.09,33.09,0,0,0,94,90.5a32.53,32.53,0,0,0,8.66,1.15,38.6,38.6,0,0,0,22.14-7.37l.38.54A39.33,39.33,0,0,1,102.69,92.31Z"/><rect x="78.77" y="125.27" width="51.46" height="0.66" transform="translate(-58.12 109.79) rotate(-44.69)"/><rect class="cls-5" x="118.13" y="95.98" width="31.93" height="0.66" transform="translate(-28.97 122.13) rotate(-44.69)"/><rect class="cls-5" x="152.87" y="80.37" width="0.66" height="9.78" transform="translate(0.63 171.65) rotate(-58.62)"/><path class="cls-1" d="M49.76,89.86c-4.49,6.46-9.33,11.77-15.53,15.82a56,56,0,0,1-5.16,3V99.77Z"/><path class="cls-1" d="M161.6,92.59a10.5,10.5,0,0,0,.32-2.81,9.45,9.45,0,0,0-.18-1.71,17.17,17.17,0,0,0,.53-5.43,2.92,2.92,0,0,0-.49-1.29c-.27-.37-.93-1.1-1.52-1s-1.1,1.51-1.95,4.45c-1.84,6.38-2.27,5.56-2.42,7.65-.24,3.29.92,3.85,1,8.17a10.43,10.43,0,0,0,.45,2.91,4.69,4.69,0,0,0,1.42,2.62c1.5,1.11,3.71.19,4,.07,0-3.88.07-7.77.11-11.65Z"/><polygon class="cls-4" points="173.17 32.69 162.72 42.63 162.72 203.73 173.17 213.11 173.17 32.69"/><polygon points="173.17 36.47 165.46 43.8 165.46 202.51 173.17 209.43 173.17 36.47"/><path d="M173.5,210.17l-8.37-7.52v-159l8.37-7.95Zm-7.71-7.81,7.06,6.33V37.24l-7.06,6.7Z"/><path class="cls-4" d="M167.33,205.59a12.51,12.51,0,0,1,1.75-6.83,9.19,9.19,0,0,0,1.37-5.24,9.31,9.31,0,0,0-1.51-5.2,13.45,13.45,0,0,1-.19-13.6,10.1,10.1,0,0,0-.14-10.43,13.42,13.42,0,0,1-.18-13.6,10.18,10.18,0,0,0-.14-10.44,13.45,13.45,0,0,1-.19-13.6,10.16,10.16,0,0,0-.14-10.43,13.46,13.46,0,0,1-.19-13.6A10.11,10.11,0,0,0,169,99.5l3.24.59a13.42,13.42,0,0,1-1.55,4.07,10.18,10.18,0,0,0,.14,10.44,12.33,12.33,0,0,1,1.94,6.77,12.47,12.47,0,0,1-1.75,6.82,10.18,10.18,0,0,0,.14,10.44,13.45,13.45,0,0,1,.19,13.6,10.12,10.12,0,0,0,.14,10.44,13.41,13.41,0,0,1,.18,13.59,10.18,10.18,0,0,0,.14,10.44,13.47,13.47,0,0,1,.19,13.61,9.18,9.18,0,0,0-1.37,5.23Z"/><path class="cls-4" d="M165.89,96.85a18.5,18.5,0,0,1,1.44-7.58,17.41,17.41,0,0,0,0-12.83,18.88,18.88,0,0,1-1.44-7.61,18.65,18.65,0,0,1,1.44-7.57,15.25,15.25,0,0,0,1.22-6.39,15.63,15.63,0,0,0-1.22-6.44,18.69,18.69,0,0,1-1.44-7.6h3.29a15.6,15.6,0,0,0,1.23,6.44,19,19,0,0,1,1.44,7.6,18.65,18.65,0,0,1-1.44,7.57,15.28,15.28,0,0,0-1.22,6.39,15.59,15.59,0,0,0,1.22,6.44,19,19,0,0,1,1.44,7.61,18.65,18.65,0,0,1-1.44,7.57,15.3,15.3,0,0,0-1.22,6.4Z"/><path class="cls-5" d="M101.49,87.74a15.18,15.18,0,0,1-4.23-.58,16.16,16.16,0,0,1-3.07-1.25c-10.72-5.83-10.77-34-10.67-39.64h.65c-.09,5.53,0,33.4,10.33,39.06a16.06,16.06,0,0,0,2.94,1.19c8.3,2.34,16.43-3.28,20.54-6.83l.43.5C114.9,83.24,108.51,87.74,101.49,87.74Z"/><path class="cls-5" d="M133.27,86.19a5.08,5.08,0,0,1-1.52-.22c-1.81-.55-3.16-2.13-6.87-10.49-.69-1.56-1.29-2.91-2.07-4.87-.4-1-1.78-4.5-3-8.42A126.67,126.67,0,0,1,115.58,45l.65-.11A123.91,123.91,0,0,0,120.4,62c1.25,3.9,2.62,7.4,3,8.38.78,1.95,1.37,3.29,2.06,4.85,3.58,8.06,4.89,9.64,6.46,10.12a5.15,5.15,0,0,0,2.45.08l.12.64A5.94,5.94,0,0,1,133.27,86.19Z"/><path class="cls-5" d="M136.66,86.54a5.79,5.79,0,0,1-1.61-.22c-1.47-.41-3.36-1.56-7.29-10-1-2.13-2-4.58-3-7.07-.42-1.07-1.5-3.91-2.51-7.09a124.35,124.35,0,0,1-4.12-16.85l.65-.11A123.4,123.4,0,0,0,122.89,62c1,3.16,2.08,6,2.49,7.06,1,2.47,2,4.9,3,7,3.63,7.77,5.45,9.22,6.87,9.62a5.64,5.64,0,0,0,2.43.11l.1.65A6.89,6.89,0,0,1,136.66,86.54Z"/><path class="cls-5" d="M142.68,86.91c-3.86,0-8.63-7.86-10.71-12.24-.88-1.86-1.73-4.08-2.36-5.7-.14-.37-1.35-3.56-2.38-6.78a124.12,124.12,0,0,1-3.94-15.83l.64-.11A123.17,123.17,0,0,0,127.86,62c1,3.21,2.23,6.38,2.36,6.73v0c.62,1.61,1.47,3.82,2.34,5.65,2.36,5,7.34,12.59,10.58,11.81a2.81,2.81,0,0,0,1.59-1.26l.54.38a3.46,3.46,0,0,1-2,1.52A2.7,2.7,0,0,1,142.68,86.91Z"/><path class="cls-5" d="M144.94,85.46c-1.78,0-4-1.53-6.66-4.57-2-2.24-3-4.6-4.85-8.88-1.4-3.22-2.62-6.43-3.72-9.81-.86-2.67-1.73-5.79-2.46-8.8-.51-2.13-1-4.28-1.36-6.4l.64-.12c.4,2.11.85,4.25,1.36,6.37.72,3,1.59,6.09,2.45,8.74a103.79,103.79,0,0,0,3.7,9.76c2,4.54,2.92,6.63,4.73,8.71,3.71,4.25,5.81,4.63,6.93,4.21a3,3,0,0,0,1.49-1.57l.59.28a3.54,3.54,0,0,1-1.85,1.9A2.72,2.72,0,0,1,144.94,85.46Z"/><path class="cls-5" d="M144.06,80.3a23.58,23.58,0,0,1-2.25-2.64,25,25,0,0,1-2.54-4.29,105,105,0,0,1-4.59-11.17,124.68,124.68,0,0,1-3.52-13.67l.64-.13A122.65,122.65,0,0,0,135.31,62a101.89,101.89,0,0,0,4.55,11.1,24.69,24.69,0,0,0,2.48,4.18,23.23,23.23,0,0,0,2.19,2.57Z"/><path class="cls-5" d="M143.82,75.76a52.14,52.14,0,0,1-3.52-6.1,60.08,60.08,0,0,1-3-7.81c-1.33-4-2.49-8.22-3.45-12.48l.64-.14c1,4.23,2.11,8.41,3.43,12.42a57.71,57.71,0,0,0,3,7.72,49.89,49.89,0,0,0,3.46,6Z"/><path class="cls-5" d="M146.94,83.61a6.91,6.91,0,0,1-2.46-.53c-2.12-.8-5-2.85-8.93-11.67a76.73,76.73,0,0,1-3.35-9.22c-1.4-4.69-2.62-9.55-3.64-14.45l.65-.14c1,4.89,2.23,9.73,3.62,14.4a75.86,75.86,0,0,0,3.32,9.14c3.78,8.6,6.56,10.57,8.56,11.32a5,5,0,0,0,3.71.2,4.23,4.23,0,0,0,2-1.89c.15-.28,1.45-2.76,0-4.73a4,4,0,0,0-5-1.27,3.45,3.45,0,0,0-1.62,4.13,3,3,0,0,0,3.43,1.65,2.3,2.3,0,0,0,1-3.31,1.74,1.74,0,0,0-1.48-.61,1.71,1.71,0,0,0-1.3,1.59l-.66,0a2.2,2.2,0,0,1,4-1.35,2.84,2.84,0,0,1,.23,2.87,2.88,2.88,0,0,1-1.49,1.47,3.59,3.59,0,0,1-4.27-2,4.13,4.13,0,0,1,1.89-5A4.59,4.59,0,0,1,151,75.66c1.64,2.3.16,5.11,0,5.43a4.78,4.78,0,0,1-2.29,2.17A4.32,4.32,0,0,1,146.94,83.61Z"/><path class="cls-5" d="M128.12,85.27c-5.39,0-10.19-3.38-11.25-8.26-.84-3.87.93-8.13,4.5-10.85l.39.52c-3.36,2.57-5,6.57-4.25,10.19,1.14,5.22,6.86,8.61,12.77,7.55l.11.65A12.52,12.52,0,0,1,128.12,85.27Z"/><path class="cls-5" d="M128.11,82.53c-4.13,0-7.8-2.62-8.56-6.1a8.25,8.25,0,0,1,2.81-7.53l.44.48a7.6,7.6,0,0,0-2.61,6.91c.61,2.79,3.75,5.78,8.31,5.58l0,.66Z"/><path class="cls-5" d="M127,79.7a5.66,5.66,0,0,1-4.76-3.85,5.13,5.13,0,0,1,1.22-4.11l.51.41a4.58,4.58,0,0,0-1.09,3.56,5.07,5.07,0,0,0,4.22,3.34Z"/><path class="cls-5" d="M79.71,68.11a3.41,3.41,0,0,1-1.88-.54A2.51,2.51,0,0,1,76.71,66a2.59,2.59,0,0,1,.53-2,2.82,2.82,0,0,1,1.91-1.15,2.55,2.55,0,0,1,1.64.42c.3-.58.57-1.17.82-1.76a26.93,26.93,0,0,0,2-8.49l.66,0a27.38,27.38,0,0,1-2,8.7c-.3.73-.64,1.45-1,2.15l-.18.36L80.7,64a2,2,0,0,0-1.48-.5,2.13,2.13,0,0,0-1.45.89,1.93,1.93,0,0,0-.41,1.46A1.85,1.85,0,0,0,78.21,67a3,3,0,0,0,1.53.42c1.4,0,3.28-2.22,4.56-5.35l.61.25c-1.4,3.42-3.48,5.74-5.16,5.76Z"/><path class="cls-5" d="M81.76,76.24l-.53-.38a18,18,0,0,0,2.12-4,18.28,18.28,0,0,0,1.1-8.23l.65-.06a18.6,18.6,0,0,1-3.34,12.66Z"/><path class="cls-5" d="M79.64,82a3.41,3.41,0,0,1-2.43-.86,3.62,3.62,0,0,1-1-2.36l.66-.06a3,3,0,0,0,.82,1.94c1.49,1.43,4.68.35,6.47-.87a8.47,8.47,0,0,0,3.06-4l.62.24a9.09,9.09,0,0,1-3.31,4.25A9.52,9.52,0,0,1,79.64,82Z"/><path class="cls-5" d="M82,83.92a3.88,3.88,0,0,1-1.3-.23,4.49,4.49,0,0,1-2.26-2l.57-.34a3.79,3.79,0,0,0,1.92,1.69,4.36,4.36,0,0,0,3.28-.38,9,9,0,0,0,4.24-3.9l.57.33a9.65,9.65,0,0,1-4.56,4.18A6.53,6.53,0,0,1,82,83.92Z"/><path class="cls-5" d="M83.88,85.41a4.21,4.21,0,0,1-1.54-.28,4.55,4.55,0,0,1-2-1.67l.53-.38a4,4,0,0,0,1.75,1.44c2.14.84,5.09-.58,7.16-3.43l.53.38C88.48,84,86,85.41,83.88,85.41Z"/><path class="cls-5" d="M86.2,86.81a4.3,4.3,0,0,1-1.07-.14,4.82,4.82,0,0,1-2.3-1.44l.49-.45a3.93,3.93,0,0,0,2,1.25c2,.51,4.31-.71,5.81-3l.56.35A6.88,6.88,0,0,1,86.2,86.81Z"/><path class="cls-5" d="M89.19,87.57a4.45,4.45,0,0,1-2.59-.87l.4-.53a3.65,3.65,0,0,0,3.08.62,3.84,3.84,0,0,0,2.43-2.31l.62.21a4.4,4.4,0,0,1-2.87,2.73A3.83,3.83,0,0,1,89.19,87.57Z"/><path class="cls-5" d="M92.27,87.86a4.31,4.31,0,0,1-2-.53l.32-.58a3.55,3.55,0,0,0,2.49.37,3.43,3.43,0,0,0,2-1.26l.52.41a4,4,0,0,1-3.23,1.59Z"/><path class="cls-5" d="M115.56,53a18.54,18.54,0,0,0-8-1.55c-2.77.32-5.11,1-7.93,1.5l-.11-.16a8.07,8.07,0,0,1,5.27-3,18,18,0,0,1,5,.35,17,17,0,0,1,5.87,2.64l-.09.17Z"/><path class="cls-5" d="M83.59,52.91c3-4.81,11-4.11,11.82,1.9a9.89,9.89,0,0,0-2.48-2.23c-2.79-1.66-6-.68-8.56,1.06l-.78-.73Z"/><path class="cls-5" d="M97.49,68.11a4,4,0,0,1,3.26.27c.76.39,1.23.91,2,.9,1.86-.12,2-1.79.61-2.84a.31.31,0,0,1,.35-.52,3.39,3.39,0,0,1,1.08,1,2.16,2.16,0,0,1-.41,3,3.13,3.13,0,0,1-3.12.48,5.42,5.42,0,0,0-2.18-.69,2.38,2.38,0,0,0-.9.25,1,1,0,1,1-.72-1.84Z"/><path class="cls-5" d="M103,57a10.12,10.12,0,0,0,1.71,4.11,10.47,10.47,0,0,0,3.37,3c.23.12,0,.49-.18.37A10.94,10.94,0,0,1,104,61.64a11.12,11.12,0,0,1-2.3-4.35A.66.66,0,1,1,103,57Z"/><path class="cls-5" d="M95.13,58.85a10.69,10.69,0,0,1-5,5.56.21.21,0,0,1-.22-.36,9.84,9.84,0,0,0,4-5.62.66.66,0,1,1,1.25.42Z"/><path class="cls-5" d="M94.74,78.52a9.83,9.83,0,0,0,7.1-.23,5.43,5.43,0,0,1-7.1.23Z"/><path class="cls-5" d="M95.21,82.4a5.22,5.22,0,0,1,6.91.28,9.58,9.58,0,0,0-6.91-.28Z"/><path class="cls-5" d="M95,58.19a.32.32,0,0,1-.27-.15c-.24-.37-2.42-3.6-6.07-3.6h0a6.7,6.7,0,0,0-3.47,1,.35.35,0,0,1-.46-.11.34.34,0,0,1,.11-.45,7.4,7.4,0,0,1,3.81-1.13h0c4,0,6.36,3.5,6.62,3.9a.34.34,0,0,1-.1.46A.37.37,0,0,1,95,58.19Z"/><path class="cls-5" d="M116.13,57.87a.33.33,0,0,1-.24-.1c-3.32-3.51-7.61-4.9-10.93-3.55a7.24,7.24,0,0,0-3,2.34.33.33,0,0,1-.46,0,.32.32,0,0,1-.06-.46,7.9,7.9,0,0,1,3.26-2.54c3.58-1.45,8.15,0,11.66,3.71a.32.32,0,0,1,0,.46A.35.35,0,0,1,116.13,57.87Z"/><path class="cls-5" d="M94.11,59.41A7.26,7.26,0,0,0,89,57.19H88.9a7,7,0,0,0-4.26,1.56l-.83-1a8.44,8.44,0,0,1,5.07-1.85,8.81,8.81,0,0,1,6.19,2.63Z"/><path class="cls-5" d="M114.15,59a9.31,9.31,0,0,0-11.41-.82L102,57A10.63,10.63,0,0,1,115,58Z"/><circle class="cls-5" cx="88.9" cy="57.98" r="1.66"/><path class="cls-5" d="M88.9,61.27A3.29,3.29,0,0,1,85.61,58a3.22,3.22,0,0,1,.33-1.43l.59.29a2.63,2.63,0,1,0,5,1.14,2.94,2.94,0,0,0-.14-.88l.62-.21A3.37,3.37,0,0,1,92.18,58,3.29,3.29,0,0,1,88.9,61.27Z"/><path class="cls-5" d="M106.28,57.54a1.66,1.66,0,1,1,1.66,1.67A1.66,1.66,0,0,1,106.28,57.54Z"/><path class="cls-5" d="M107.94,60.75a3.2,3.2,0,0,1-2.85-4.67l.59.3a2.46,2.46,0,0,0-.29,1.16,2.55,2.55,0,1,0,4.82-1.15l.59-.3a3.33,3.33,0,0,1,.35,1.45A3.21,3.21,0,0,1,107.94,60.75Z"/><path class="cls-5" d="M89.78,61.59a10.42,10.42,0,0,1-2.1-.22,10.28,10.28,0,0,1-3.52-1.48.33.33,0,0,1-.1-.46.34.34,0,0,1,.46-.09,9.47,9.47,0,0,0,3.3,1.38,9.89,9.89,0,0,0,6-.67.33.33,0,0,1,.43.17.32.32,0,0,1-.17.43A10.7,10.7,0,0,1,89.78,61.59Z"/><path class="cls-5" d="M108.29,60.92h-.39a15.07,15.07,0,0,1-4.85-.9.33.33,0,0,1,.22-.62,14.69,14.69,0,0,0,4.64.86,10,10,0,0,0,4.75-.91,9.55,9.55,0,0,0,1.84-1.17.33.33,0,0,1,.46,0,.32.32,0,0,1,0,.46,9.5,9.5,0,0,1-2,1.25A10.36,10.36,0,0,1,108.29,60.92Z"/><path class="cls-5" d="M101.94,57.65l-1.49-2.47,2.43,1.55a.67.67,0,1,1-.94.92Z"/><path class="cls-5" d="M97.4,72.53a.33.33,0,0,1-.26-.13A4.63,4.63,0,0,0,95,70.8a2.76,2.76,0,0,0-1-.17,1.33,1.33,0,0,1-.84-.2c-.77-.52-1.19-2.08.89-9.87l.25-.93c.65-2.39,1-3.59.46-5A5.72,5.72,0,0,0,92.41,52a.32.32,0,0,1-.09-.45.32.32,0,0,1,.46-.09,6.33,6.33,0,0,1,2.52,3c.6,1.58.24,2.92-.43,5.37l-.25.93c-1.5,5.58-1.88,8.66-1.16,9.15.12.09.23.09.47.09a3.71,3.71,0,0,1,1.26.2A5.28,5.28,0,0,1,97.66,72a.33.33,0,0,1,0,.46A.31.31,0,0,1,97.4,72.53Z"/><path class="cls-5" d="M97.4,72.2a4.4,4.4,0,0,0-2.58-1,3.07,3.07,0,0,1-1.23-.18c-1.86-.81-1.46-2.88-.65-4.3.29.89.14,2,.62,2.68a1.7,1.7,0,0,0,1.33.56,2.93,2.93,0,0,1,2.51,2.2Z"/><path class="cls-5" d="M114.64,57.66a11.28,11.28,0,0,1,1.83,2.08l-1.2-.56-1.22-.35.59-1.17Z"/><polygon points="173.5 213.85 162.39 203.88 162.39 42.48 173.5 31.93 173.95 32.41 163.04 42.77 163.04 203.58 173.94 213.36 173.5 213.85"/><polygon points="173.5 210.16 165.13 202.65 165.13 43.66 173.5 35.71 173.95 36.19 165.79 43.94 165.79 202.36 173.94 209.68 173.5 210.16"/><path class="cls-4" d="M173.72,56.67a62.76,62.76,0,0,1-16.88-3.61,62.17,62.17,0,0,1-13.2-6.66c.9,2.57,5.84,15.82,19.08,20.81a29.45,29.45,0,0,0,11,1.83Z"/><path d="M173,69.37a29.32,29.32,0,0,1-10.42-1.86c-12.71-4.78-18-17.28-19.27-21l-.32-.93.81.55A61.81,61.81,0,0,0,157,52.75a62.06,62.06,0,0,0,16.79,3.59l-.05.66a62.71,62.71,0,0,1-17-3.63,62.79,62.79,0,0,1-12.43-6.15c1.72,4.47,7,15.33,18.53,19.68a29.09,29.09,0,0,0,10.89,1.81v.66Z"/><path d="M173.72,59.4a65.88,65.88,0,0,1-17.81-3.76c-2.1-.76-4-1.59-5.84-2.44a28.5,28.5,0,0,0,13.61,11.44,30.11,30.11,0,0,0,9.26,1.64c.33,0,.61,0,.78,0"/><path d="M173.3,66.62h-.37A30.15,30.15,0,0,1,163.56,65a28.42,28.42,0,0,1-13.77-11.57l-.64-1,1.06.5c1.89.9,3.85,1.72,5.81,2.43a65.54,65.54,0,0,0,17.73,3.74l-.05.66A66.34,66.34,0,0,1,155.8,56c-1.62-.58-3.22-1.24-4.8-2a27.28,27.28,0,0,0,12.8,10.34A30,30,0,0,0,172.94,66h.78v.66Z"/><circle class="cls-4" cx="169.54" cy="61.86" r="1.73"/><path class="cls-4" d="M162.42,61a1.73,1.73,0,1,1,1.73,1.73A1.72,1.72,0,0,1,162.42,61Z"/><path class="cls-4" d="M157.75,59.44a1.48,1.48,0,1,1,1.48,1.48A1.48,1.48,0,0,1,157.75,59.44Z"/><path class="cls-4" d="M154.28,57.34a1.31,1.31,0,1,1,1.31,1.3A1.31,1.31,0,0,1,154.28,57.34Z"/><path d="M160.54,107a3.32,3.32,0,0,1-2-.6,4.89,4.89,0,0,1-1.54-2.79,10.84,10.84,0,0,1-.47-3,17.24,17.24,0,0,0-.58-4.37,10.59,10.59,0,0,1-.39-3.83,5.67,5.67,0,0,1,.57-2.24A46.74,46.74,0,0,0,158,84.69c1-3.59,1.51-4.6,2.22-4.69.9-.1,1.74,1,1.83,1.16a3.24,3.24,0,0,1,.54,1.43,16.78,16.78,0,0,1-.51,5.49,10.8,10.8,0,0,1-.16,4.58l-.64-.15a10.06,10.06,0,0,0,.31-2.72,10.38,10.38,0,0,0-.17-1.66V88a16.86,16.86,0,0,0,.52-5.3,2.49,2.49,0,0,0-.43-1.15c-.33-.46-.86-.93-1.21-.88s-1.34,3.07-1.67,4.21a48.23,48.23,0,0,1-1.89,5.55,5.08,5.08,0,0,0-.53,2,10.44,10.44,0,0,0,.38,3.62,17.78,17.78,0,0,1,.6,4.52,10.23,10.23,0,0,0,.44,2.82,4.4,4.4,0,0,0,1.3,2.45c1.34,1,3.42.13,3.66,0l.26.6A6.18,6.18,0,0,1,160.54,107Z"/><path class="cls-1" d="M171.17,101.39a1.61,1.61,0,0,1,.87.44,1.7,1.7,0,0,1,.49,1.12,1.87,1.87,0,0,1-.45,1.14c-1.31,1.71-5.74,2.74-7.71,1.9a1.71,1.71,0,0,1-.77-.59,1.79,1.79,0,0,1-.08-1.82,2,2,0,0,1,1.27-.94,2.06,2.06,0,0,1-1.75-.36,1.83,1.83,0,0,1-.67-1.29c0-1,1.21-2.09,3.09-2.41a2.39,2.39,0,0,1-3.13-1.67,2.34,2.34,0,0,1,1.79-2.43,2.15,2.15,0,0,1-2.4-.42,1.75,1.75,0,0,1-.21-.54,2.21,2.21,0,0,1,0-.65c.11-.93,1.59-1.79,1.59-1.79,3.53-2.28,6.74-3.18,8-2a2.37,2.37,0,0,1,.74,1.93c-.19,1.28-1.69,1.85-1.79,1.89a2.12,2.12,0,0,1,1.8.54c.7.8.23,2.08-.16,2.68a3,3,0,0,1-1.46,1.17,2,2,0,0,1,1.33.34,2.31,2.31,0,0,1,.52,3A2.16,2.16,0,0,1,171.17,101.39Z"/><path d="M163.05,94.88h-.25a1.81,1.81,0,0,1-1.35-.61,1.58,1.58,0,0,1-.26-.68,2.21,2.21,0,0,1,.1-1.1c.36-1,3.38-2.85,5.64-3.69,1.71-.64,2.95-.75,3.68-.33a3,3,0,0,1,.57.42h0a3.32,3.32,0,0,1,1,2.12,1.78,1.78,0,0,1-.66,1.34C169.76,94,164.68,94.88,163.05,94.88Zm6.47-6a7.29,7.29,0,0,0-2.36.53c-2.55.95-5,2.7-5.25,3.29a1.78,1.78,0,0,0-.08.78,1.12,1.12,0,0,0,.15.4,1.26,1.26,0,0,0,.88.35c1.09.09,6.47-.75,8.19-2.36a1.22,1.22,0,0,0,.45-.84,2.69,2.69,0,0,0-.78-1.66h0a2.19,2.19,0,0,0-.44-.33A1.48,1.48,0,0,0,169.52,88.87Z"/><path d="M164.89,94.15a.91.91,0,0,0-.07-1.41,2.16,2.16,0,0,0-1.82-.26c1.45-.71,3.42.23,2.45,2l-.56-.35Z"/><path d="M164.39,98.94a2.25,2.25,0,0,1-1.49-.39A2.54,2.54,0,0,1,162,96.2a2.62,2.62,0,0,1,2-2l.16.64a2,2,0,0,0-1.54,1.52,1.88,1.88,0,0,0,.66,1.72c.45.36,1.73.32,3.6-.14,2.68-.65,4-1,4.59-2.13.31-.64.49-1.83-.11-2.33a1.62,1.62,0,0,0-1.3-.22l-.12-.64a2.18,2.18,0,0,1,1.85.36c.92.78.65,2.32.27,3.12-.69,1.43-2.23,1.8-5,2.48A11.43,11.43,0,0,1,164.39,98.94Z"/><path d="M165.46,98.28c.37-.46.57-1.14,0-1.52a2.09,2.09,0,0,0-2,0c1.51-1,3.67,0,2.55,1.93l-.55-.37Z"/><path d="M164.72,103c-1.43,0-1.93-.34-2.19-.65a2,2,0,0,1-.32-2.13c.35-.89,2-1.75,4.16-2.17l.13.64c-2.12.42-3.46,1.21-3.68,1.77a1.65,1.65,0,0,0-.11.76h0a1.66,1.66,0,0,0,.33.71c.2.24,1,.72,4.62.1,2.45-.43,3.83-1,4.11-1.55a2.61,2.61,0,0,0,.18-1.23,1.81,1.81,0,0,0-.6-1.34,1.58,1.58,0,0,0-1.1-.28l-.06-.65a2.23,2.23,0,0,1,1.55.4,2.47,2.47,0,0,1,.87,1.81,3.33,3.33,0,0,1-.24,1.57c-.27.57-1,1.3-4.59,1.91A17.64,17.64,0,0,1,164.72,103Z"/><path d="M166.19,106.63a5.24,5.24,0,0,1-1.95-.33,2.08,2.08,0,0,1-.91-.72,2.14,2.14,0,0,1-.1-2.16,2.19,2.19,0,0,1,1.49-1.1l.14.65a1.55,1.55,0,0,0-1.05.76,1.45,1.45,0,0,0,.06,1.48,1.38,1.38,0,0,0,.63.48c1.88.8,6.13-.24,7.32-1.8a1.59,1.59,0,0,0,.38-.94,1.38,1.38,0,0,0-.39-.89,1.41,1.41,0,0,0-.7-.35l.11-.65a2,2,0,0,1,1.05.53,2.12,2.12,0,0,1,.59,1.35,2.17,2.17,0,0,1-.52,1.36C171.3,105.65,168.46,106.63,166.19,106.63Z"/><path d="M165.68,102.45a1.15,1.15,0,0,0-.24-1.5,1.89,1.89,0,0,0-1.81-.21,2.09,2.09,0,0,1,2-.07,1.68,1.68,0,0,1,.68,2l-.62-.24Z"/><path d="M166,106.05c.89-.67.64-1.94-.58-1.89a1.61,1.61,0,0,0-1,.36,1.7,1.7,0,0,1,1-.53c1.6-.27,2.07,1.53,1,2.54l-.44-.48Z"/><path d="M158.39,84.64c1.58.86,3-.83,3-2.38a3.26,3.26,0,0,1-.72,2.38,2.28,2.28,0,0,1-2.53.61l.25-.61Z"/><path d="M160.8,99.46a.32.32,0,0,1-.26-.53,5.31,5.31,0,0,0,.79-1.36,5.57,5.57,0,0,0,.25-3.25.33.33,0,0,1,.65-.14,6.27,6.27,0,0,1-.29,3.64,6,6,0,0,1-.88,1.52A.34.34,0,0,1,160.8,99.46Z"/><rect x="72.53" y="113.72" width="77.94" height="0.66" transform="translate(-47.97 111.37) rotate(-44.69)"/><rect x="72.26" y="116.7" width="63.08" height="0.66" transform="translate(-52.3 106.8) rotate(-44.68)"/><rect x="26.54" y="88.53" width="51.2" height="0.66" transform="translate(-33.39 31.42) rotate(-25.71)"/><circle class="cls-4" cx="92.38" cy="107.89" r="7.12" transform="translate(-31 37.52) rotate(-19.73)"/><path d="M92.36,115.33a7.32,7.32,0,0,1-3.14-.7,7.46,7.46,0,1,1,3.14.7Zm0-14.24a6.82,6.82,0,0,0-2.31.41,6.71,6.71,0,1,0,2.31-.41Z"/><path class="cls-4" d="M94.72,103.12a2.17,2.17,0,0,1,1.29-.79h0a2.19,2.19,0,0,0,1.58-1.25c.82-1.85,1.64-3.73,2.44-5.62.71-1.69,1-2.5.79-3.15a2.28,2.28,0,0,0-.7-1,2.3,2.3,0,0,0-1.19.08c-.64.25-1.07,1-1.92,2.63-.94,1.82-1.86,3.65-2.75,5.47a2.17,2.17,0,0,0,0,2h0a2.21,2.21,0,0,1,.23,1.49Z"/><path class="cls-4" d="M96,102.33a2.19,2.19,0,0,0,1.58-1.25c.82-1.85,1.64-3.73,2.44-5.62.71-1.69,1-2.5.79-3.15a2.28,2.28,0,0,0-.7-1,2.3,2.3,0,0,0-1.19.08c-.64.25-1.07,1-1.92,2.63-.94,1.82-1.86,3.65-2.75,5.47a2.17,2.17,0,0,0,0,2h0a2.21,2.21,0,0,1,.23,1.49c0,.15-.08.31-.13.47a2.85,2.85,0,0,1-.12.31,8,8,0,0,1-2.81,2.53,15.48,15.48,0,0,0-.15-2.77,16.09,16.09,0,0,0-.68-2.86c1-2.11,2.32-4.78,3.94-7.91.94-1.83,1.71-3.28,3.34-3.92a5.35,5.35,0,0,1,3.32-.09l.13.06a5.33,5.33,0,0,1,2,2.61c.55,1.66-.07,3.18-.87,5.08-1.37,3.24-2.58,6-3.55,8.09a15.53,15.53,0,0,0-2.64,1.3,16.14,16.14,0,0,0-2.23,1.66,8,8,0,0,1,.15-3.78c.08-.15.17-.29.17-.29a3.83,3.83,0,0,1,.27-.39,2.17,2.17,0,0,1,1.29-.79Z"/><path d="M93.88,108.24l-.08-.62a14.73,14.73,0,0,1-.11-2.57,13.18,13.18,0,0,1-2,1.56l-.53.34,0-.63a15.35,15.35,0,0,0-.15-2.71,15.15,15.15,0,0,0-.68-2.81l0-.13.06-.12c1.25-2.61,2.58-5.27,3.94-7.91.9-1.73,1.74-3.37,3.52-4.07a5.53,5.53,0,0,1,3.52-.11l.19.09a5.48,5.48,0,0,1,2.22,2.79c.6,1.82-.11,3.52-.87,5.32-1.16,2.74-2.36,5.46-3.56,8.09l-.06.12-.12,0a16.41,16.41,0,0,0-2.59,1.28,15.8,15.8,0,0,0-2.18,1.62Zm2.2-5.59a1.89,1.89,0,0,0-1.1.67c-.09.11-.17.23-.26.36s-.08.14-.14.27a6.53,6.53,0,0,0-.19,3,15.06,15.06,0,0,1,1.8-1.28,15.79,15.79,0,0,1,2.57-1.28c1.18-2.59,2.35-5.27,3.49-8,.74-1.75,1.38-3.27.86-4.85a5,5,0,0,0-1.93-2.44l-.08,0a4.85,4.85,0,0,0-3,.1c-1.55.61-2.31,2.07-3.18,3.76-1.34,2.6-2.64,5.21-3.88,7.78a16.88,16.88,0,0,1,.66,2.79,16.28,16.28,0,0,1,.16,2.2,7,7,0,0,0,2.16-2h0v0a2.83,2.83,0,0,0,.11-.29,3.74,3.74,0,0,0,.11-.42,1.82,1.82,0,0,0-.19-1.27A2.53,2.53,0,0,1,94,99.37c.9-1.83,1.83-3.67,2.76-5.47s1.35-2.49,2.09-2.78a2.52,2.52,0,0,1,1.36-.1h.09l.08.06a2.67,2.67,0,0,1,.79,1.11c.25.76,0,1.62-.8,3.39s-1.61,3.77-2.44,5.62a2.53,2.53,0,0,1-1.81,1.44Zm3.56-11a1.55,1.55,0,0,0-.59.1c-.53.21-1,1-1.74,2.47-.93,1.8-1.86,3.64-2.76,5.46a1.88,1.88,0,0,0,0,1.71,2.61,2.61,0,0,1,.31,1.11,2.45,2.45,0,0,1,1-.47h0a1.89,1.89,0,0,0,1.34-1.07c.82-1.85,1.64-3.74,2.43-5.61.67-1.57,1-2.38.78-2.92a1.79,1.79,0,0,0-.53-.76Z"/><path d="M86.19,144a.35.35,0,0,1-.23-.09L72.06,131a.33.33,0,0,1,0-.46.32.32,0,0,1,.47,0l13.9,12.85a.33.33,0,0,1,0,.46A.34.34,0,0,1,86.19,144Z"/><path d="M29.22,109l-.3-.58a57.65,57.65,0,0,0,5.13-3c5.59-3.66,10.44-8.59,15.29-15.52l.54.38c-4.9,7-9.81,12-15.47,15.69A55.26,55.26,0,0,1,29.22,109Z"/><path d="M29.21,112.65l-.28-.59a39.89,39.89,0,0,0,5-3l1.33-.88A63.18,63.18,0,0,0,55,87.18l.56.34a63.84,63.84,0,0,1-19.89,21.19l-1.32.88A40.55,40.55,0,0,1,29.21,112.65Z"/><path d="M29.2,118.08l-.26-.6A59.85,59.85,0,0,0,38,112.29c13-8.51,20.52-20.35,24.54-28.79l.59.28c-4,8.52-11.64,20.47-24.77,29.06A59.69,59.69,0,0,1,29.2,118.08Z"/><path d="M29.2,121.66l-.25-.61a63.25,63.25,0,0,0,10.86-6c11.61-7.6,20.92-18.94,26.93-32.82l.6.27c-6.06,14-15.45,25.43-27.17,33.1A64.54,64.54,0,0,1,29.2,121.66Z"/><path d="M29.18,129.9l-.22-.62a73,73,0,0,0,15-7.81A80.47,80.47,0,0,0,72.27,88.64l.6.29A81.14,81.14,0,0,1,44.37,122,73.62,73.62,0,0,1,29.18,129.9Z"/><rect x="74.7" y="91.02" width="0.66" height="42.32"/><rect x="71.96" y="89.37" width="0.66" height="41.43"/><path class="cls-5" d="M78.87,79.73a4.32,4.32,0,0,1-2.84-1,4.48,4.48,0,0,1-1.38-5,4.13,4.13,0,0,1,4-2.54,3.76,3.76,0,0,1,2.86,1.6,3.3,3.3,0,0,1,.24,3.38,2.81,2.81,0,0,1-3.33,1.23,2.55,2.55,0,0,1-1.6-3A2.46,2.46,0,0,1,78.45,73l.19.63a1.84,1.84,0,0,0-1.16,1,1.9,1.9,0,0,0,1.21,2.14,2.14,2.14,0,0,0,2.52-1A2.64,2.64,0,0,0,81,73.2a3.06,3.06,0,0,0-2.35-1.3A3.52,3.52,0,0,0,75.26,74a3.8,3.8,0,0,0,1.19,4.24,4.38,4.38,0,0,0,4.14.55c4.14-1.14,5.33-6.8,5.37-7l.65.13c0,.26-1.32,6.3-5.84,7.54A7,7,0,0,1,78.87,79.73Z"/><path class="cls-5" d="M139.2,86.9c-2.58,0-5.62-3.7-9.28-11.26-.72-1.49-1.19-2.65-2-4.78-.53-1.29-1.88-4.73-3.14-8.67a125.93,125.93,0,0,1-4-16.38l.65-.11a124.56,124.56,0,0,0,4,16.29c1.25,3.92,2.6,7.34,3.12,8.63.85,2.11,1.31,3.27,2,4.73,4.58,9.46,7.44,11.13,9,10.86a2.2,2.2,0,0,0,1-.5l.42.51a2.82,2.82,0,0,1-1.34.64A3.13,3.13,0,0,1,139.2,86.9Z"/><path class="cls-2" d="M66.41,26.23l17,20a91.08,91.08,0,0,1,50.69,3.08l16.59-23.12Z"/><path d="M134.34,50.14l-.47-.17a90.53,90.53,0,0,0-50.33-3.06l-.38.09L65.91,26.65l1-.85L83.65,45.54a91.6,91.6,0,0,1,50.19,3l7.84-10.93,8.47-11.8,1.07.77-8.47,11.8-8.13,11.33Z"/><path class="cls-1" d="M85.08,42.05l-.43-.53-6-7.28-6-7.28,1.78-1.46,6,7.28L86,39.53c1.09-.2,2.19-.38,3.28-.54.77-.11,1.55-.22,2.33-.31L86,26.72l2.08-1,7,14.87-1.62.17c-1.28.14-2.57.3-3.84.49s-2.59.41-3.86.65Z"/><path class="cls-1" d="M117,41.22l-1-.14c-2.84-.38-5.73-.63-8.59-.74-2.62-.11-5.28-.11-7.91,0l-.86,0-.28-.82c-.67-2-1.43-4.23-2.18-6.49s-1.5-4.5-2.17-6.47l2.18-.74c.68,2,1.43,4.23,2.18,6.48.65,1.95,1.3,3.9,1.9,5.67,2.41-.08,4.84-.08,7.24,0,2.57.11,5.17.32,7.74.63.41-1.83.87-3.83,1.32-5.83.54-2.38,1.09-4.75,1.55-6.85l2.25.5c-.46,2.1-1,4.48-1.55,6.86s-1.08,4.75-1.55,6.85Z"/><path class="cls-1" d="M131.7,44.56l-.8-.24c-1.52-.46-3.07-.89-4.62-1.27-1.36-.34-2.75-.65-4.12-.93L121,41.89l.24-1.13c.47-2.28,1-4.84,1.58-7.39s1.11-5.1,1.58-7.38l2.26.47c-.48,2.28-1,4.84-1.59,7.4-.46,2.13-.93,4.27-1.34,6.24,1,.22,2.07.46,3.09.71,1.31.33,2.62.68,3.92,1.06,1.71-2.47,3.55-5.16,5.4-7.85,2-2.91,4-5.81,5.8-8.45l1.9,1.31c-1.82,2.63-3.81,5.54-5.8,8.44s-4,5.89-5.88,8.55Z"/><polygon class="cls-4" points="112.59 131.51 112.57 131.52 110.99 133.08 110.98 132.97 110.4 126.79 104.2 126.14 104.29 126.07 105.79 124.59 105.8 124.59 110.76 125.09 111.41 124.46 106.42 123.95 106.51 123.87 108.01 122.39 108.03 122.39 113.01 122.91 113.65 122.27 108.65 121.75 110.24 120.18 110.26 120.18 115.25 120.7 115.89 120.07 110.88 119.55 112.47 117.98 112.48 117.98 117.49 118.51 118.13 117.87 113.1 117.36 114.69 115.78 114.71 115.78 119.74 116.31 120.39 115.68 115.33 115.16 116.9 113.6 116.92 113.59 121.98 114.11 122.63 113.48 117.53 112.96 117.63 112.88 119.13 111.4 119.15 111.39 125.47 112.04 125.47 112.09 126.03 118.2 124.44 119.78 123.98 114.85 123.33 115.47 123.8 120.42 122.2 122 122.19 121.89 121.73 117.04 121.09 117.67 121.56 122.63 119.96 124.21 119.95 124.1 119.49 119.23 118.85 119.86 119.31 124.85 117.71 126.43 117.25 121.43 116.61 122.06 117.06 127.08 115.46 128.66 115.45 128.55 115.01 123.63 114.36 124.25 114.82 129.29 113.22 130.87 112.76 125.82 112.11 126.45 112.59 131.51"/><path class="cls-5" d="M92.07,74.87c-.22.08-.22.46-.35,1.54-.16,1.31-.26,1.51-.12,1.6.4.3,1.39-1.45,3.06-1.51.9,0,.93.46,2.46.65a5.51,5.51,0,0,0,2.32-.1c.81-.24,1-.62,1.92-.75a4.18,4.18,0,0,1,1.26,0c1.71.25,2.54,1.26,2.83,1,.12-.11,0-.31-.45-1.78-.3-1-.42-1.42-.68-1.45s-.26.2-.65.43a2.43,2.43,0,0,1-1,.3c-1.2.14-1.66-.62-2.68-.52s-1.25,1.07-2.2,1-.92-.91-1.79-1c-1.22-.14-2,1.44-3,1.12C92.5,75.27,92.34,74.78,92.07,74.87Z"/><path d="M174.38,257.7h-146V25.57h146ZM29.73,256.38H173.06V26.89H29.73Z"/><rect x="68.12" y="96.41" width="0.66" height="30.53"/><circle class="cls-1" cx="90.42" cy="58.2" r="0.61"/><circle class="cls-1" cx="109.53" cy="57.6" r="0.61"/><path class="cls-2" d="M134.35,186.86V156.5a90.52,90.52,0,0,0,4.39,10.33,88.74,88.74,0,0,0,4.51,7.95,82,82,0,0,0-5.49,6.9C136.49,183.46,135.36,185.19,134.35,186.86Z"/><path class="cls-1" d="M77.77,198.72a11,11,0,0,1,6.68,4.8,29.49,29.49,0,0,1,9.11-5.92,19.1,19.1,0,0,1,7.29-1.73,17.26,17.26,0,0,1,6.88,1.33,4.12,4.12,0,0,1,2.64-1.41,4,4,0,0,1,2.26.44,4.24,4.24,0,0,1,1.78-.11,4.39,4.39,0,0,1,1.82.71,4.78,4.78,0,0,1,.77,0,4.71,4.71,0,0,1,3,1.47,1.56,1.56,0,0,0,.61.19c.1-.19-4.23-3.14-8.45-4.9a32.57,32.57,0,0,0-15.29-2.17A36.82,36.82,0,0,0,77.77,198.72Z"/><path class="cls-3" d="M119.21,237c.08-3.94.39-33.42-10.58-39.36a16.83,16.83,0,0,0-3-1.22c-9.35-2.61-18.42,4.72-21.15,7.1a10.14,10.14,0,0,1-3.22,13.33c1.21,3.35,2.39,7.07,3.44,11.12,1,3.68,1.67,7.16,2.21,10.4A89.7,89.7,0,0,0,119.21,237Z"/><path d="M116.58,139.57,79.88,176l-11.1-10.9a66.38,66.38,0,0,0,2.55-14.49,67.06,67.06,0,0,0-2.88-23.86L86.21,143.7l17.05-16.87Z"/><path class="cls-4" d="M134.35,156.5v30.36c-.57.94-1.14,1.91-1.71,2.94q-1.17,2.1-2.13,4.1V152.47Z"/><path d="M130.51,152.46V193.9l-.29.58c-.3-.3-.62-.6-.95-.9-.5-.47-1-.92-1.5-1.34V149.93Z"/><polygon class="cls-1" points="127.77 192.24 127.77 149.93 124.48 146.88 124.48 189.69 127.77 192.24"/><path class="cls-1" d="M124.48,149.08v40.61a41,41,0,0,0-12.72-6.29,43,43,0,0,0-26.52,1.08l37.34-37Z"/><path class="cls-2" d="M119.67,150.41a36,36,0,0,1-2.35,4.65c-1.94,3.19-3.46,4.49-5.84,7.7a54.28,54.28,0,0,0-3.91,6.1,7.42,7.42,0,0,1,4.87-.31,7.31,7.31,0,0,1,2.48,1.31q3-3.93,5.93-8c1.23-1.71,2.44-3.4,3.63-5.09v-9.85l-.65-.6Z"/><rect class="cls-5" x="113.92" y="166.22" width="11.64" height="0.66" transform="translate(-74.6 100.92) rotate(-35.62)"/><rect class="cls-5" x="122.6" y="158.17" width="2.07" height="0.66" transform="translate(-69.17 101.63) rotate(-35.61)"/><rect class="cls-5" x="118.21" y="162.22" width="6.91" height="0.66" transform="matrix(0.81, -0.58, 0.58, 0.81, -71.9, 101.26)"/><rect class="cls-5" x="97.68" y="173.81" width="0.66" height="9.66" transform="translate(-98.4 124.41) rotate(-45.81)"/><rect class="cls-5" x="95.38" y="175.64" width="0.66" height="7.5" transform="translate(-99.63 122.99) rotate(-45.81)"/><rect class="cls-5" x="93.27" y="177.58" width="0.66" height="5.48" transform="translate(-100.94 121.76) rotate(-45.81)"/><rect class="cls-5" x="91.1" y="179.25" width="0.66" height="3.89" transform="translate(-102.23 120.46) rotate(-45.81)"/><rect class="cls-5" x="89.1" y="181.06" width="0.66" height="2.36" transform="translate(-103.58 119.35) rotate(-45.82)"/><rect class="cls-5" x="99.17" y="172.26" width="0.66" height="9.68" transform="translate(-96.85 125.01) rotate(-45.81)"/><rect class="cls-5" x="100.42" y="170.92" width="0.66" height="8.83" transform="translate(-95.2 125.38) rotate(-45.81)"/><rect class="cls-5" x="100.93" y="169.92" width="0.66" height="5.85" transform="translate(-93.26 124.97) rotate(-45.81)"/><rect class="cls-5" x="101.99" y="168.6" width="0.66" height="4.58" transform="translate(-91.54 125.15) rotate(-45.81)"/><rect class="cls-5" x="103.31" y="167.11" width="0.66" height="4.14" transform="translate(-89.91 125.57) rotate(-45.81)"/><rect class="cls-5" x="106.42" y="164.07" width="0.66" height="4.33" transform="translate(-86.86 126.91) rotate(-45.81)"/><rect class="cls-5" x="104.9" y="165.58" width="0.66" height="4.34" transform="matrix(0.7, -0.72, 0.72, 0.7, -88.4, 126.27)"/><rect class="cls-5" x="107.71" y="162.64" width="0.66" height="3.74" transform="translate(-85.22 127.31) rotate(-45.81)"/><rect class="cls-5" x="109.08" y="161.19" width="0.66" height="3.31" transform="translate(-83.62 127.81) rotate(-45.82)"/><rect class="cls-5" x="110.47" y="159.72" width="0.66" height="2.97" transform="translate(-82.03 128.31) rotate(-45.82)"/><rect class="cls-5" x="111.89" y="158.25" width="0.66" height="2.72" transform="translate(-80.45 128.84) rotate(-45.81)"/><rect class="cls-5" x="113.33" y="156.76" width="0.66" height="2.52" transform="translate(-78.87 129.37) rotate(-45.81)"/><rect class="cls-5" x="114.79" y="155.37" width="0.66" height="2.15" transform="translate(-77.31 129.98) rotate(-45.82)"/><rect class="cls-5" x="116.12" y="153.85" width="0.66" height="1.82" transform="translate(-75.69 130.39) rotate(-45.81)"/><rect class="cls-5" x="117.44" y="152.42" width="0.66" height="1.25" transform="translate(-74.07 130.89) rotate(-45.83)"/><path class="cls-4" d="M124.48,150q-1.17,2.2-2.5,4.48a108.66,108.66,0,0,1-9.83,14,6.63,6.63,0,0,1,1.65.64,7.24,7.24,0,0,1,1.12.74q2.68-3.57,5.4-7.31,2.12-2.93,4.16-5.82Z"/><path class="cls-1" d="M76.58,188.42l44.83-44.37,2.42,2.23-38.59,38.2c-1.3.45-2.7,1-4.17,1.64A50.36,50.36,0,0,0,76.58,188.42Z"/><path class="cls-5" d="M115.18,170.06l-.53-.4c2-2.65,4-5.35,5.93-8,1.23-1.71,2.44-3.4,3.63-5.09l.54.38q-1.78,2.54-3.64,5.09C119.18,164.7,117.18,167.4,115.18,170.06Z"/><path class="cls-5" d="M107.85,169l-.57-.32a55,55,0,0,1,3.94-6.14c.92-1.24,1.7-2.18,2.45-3.09a35.6,35.6,0,0,0,3.36-4.58,32.13,32.13,0,0,0,2.33-4.61l.61.25a33.36,33.36,0,0,1-2.37,4.7,35.7,35.7,0,0,1-3.42,4.66c-.75.9-1.52,1.83-2.43,3.07A55,55,0,0,0,107.85,169Z"/><path class="cls-5" d="M112.41,168.69l-.51-.42a108.69,108.69,0,0,0,9.8-14c.85-1.45,1.69-3,2.48-4.47l.59.31c-.8,1.52-1.64,3-2.5,4.49A110.07,110.07,0,0,1,112.41,168.69Z"/><rect class="cls-5" x="124.15" y="146.88" width="0.66" height="42.81"/><rect class="cls-5" x="77.39" y="165.05" width="54.3" height="0.66" transform="translate(-86.09 121.31) rotate(-44.69)"/><path class="cls-4" d="M112.41,196.23a3.81,3.81,0,0,0-2.72-.4,3.91,3.91,0,0,0-2.14,1.37,14.92,14.92,0,0,1,3.51,2.51c.86.84,2.78,2.92,4.76,9.24a55.37,55.37,0,0,1,2.2,10.7,18.59,18.59,0,0,1,1-8,18.39,18.39,0,0,1,2.31-4.45,3.21,3.21,0,0,0,3.4,4.47,3.86,3.86,0,0,0,3.32-2.9,3.93,3.93,0,0,0-1.75-4.25,2.87,2.87,0,0,0-.39-1.44,3,3,0,0,0-1.82-1.38,4.33,4.33,0,0,0-1.07-1.26,4.66,4.66,0,0,0-.76-.46,3.57,3.57,0,0,0-2.51-1.74,4.14,4.14,0,0,0-3.73-1.43,4,4,0,0,0-1.56-.71A3.92,3.92,0,0,0,112.41,196.23Z"/><path class="cls-4" d="M118.87,230.21a27.2,27.2,0,0,1,2-8.6c.32-.75.65-1.46,1-2.12a2.42,2.42,0,0,0,1.73.58,2.55,2.55,0,0,0,2.15-2.75,2.28,2.28,0,0,0-1-1.36,3.19,3.19,0,0,0-1.72-.47c-1.52,0-3.49,2.2-4.86,5.55.16,1.43.3,2.9.42,4.42S118.82,228.68,118.87,230.21Z"/><path class="cls-4" d="M81.23,216.85c3.44-2.62,5.18-6.77,4.37-10.52-1.1-5.1-6.82-8.94-13.14-7.81a85.72,85.72,0,0,1,5,9.09A84.57,84.57,0,0,1,81.23,216.85Z"/><path class="cls-4" d="M58.7,207.7a49.28,49.28,0,0,1,3.49,6.05,57.44,57.44,0,0,1,3,7.77c1,3.12,2.28,7.32,3.45,12.45,2.6.9,5.47,1.77,8.59,2.53a97.31,97.31,0,0,0,9.62,1.87,136.66,136.66,0,0,0-4.17-17.2c-1.32-4.12-2.77-7.76-3-8.39-.77-1.92-1.35-3.24-2.07-4.86-3.73-8.42-5-9.81-6.67-10.31a5.25,5.25,0,0,0-2.6-.08,5.46,5.46,0,0,0-1.5-.43,5.77,5.77,0,0,0-1.76,0,2.37,2.37,0,0,0-1.49-.51,2.4,2.4,0,0,0-1.59.65,3.07,3.07,0,0,0-2.81-.45,2.83,2.83,0,0,0-1.41,1.31A2.7,2.7,0,0,0,55.31,200a4.06,4.06,0,0,0-1.64.46,4.77,4.77,0,0,0-2.34,4.71,4.52,4.52,0,0,0,3.3,3.93A4.67,4.67,0,0,0,58.7,207.7Z"/><polygon class="cls-4" points="83.08 144.67 83.1 144.67 84.69 143.1 84.69 143.21 85.28 149.4 91.48 150.04 91.39 150.11 89.89 151.6 89.87 151.6 84.92 151.1 84.27 151.72 89.25 152.24 89.16 152.31 87.66 153.8 87.65 153.8 82.66 153.28 82.02 153.91 87.02 154.43 85.43 156 85.41 156 80.42 155.48 79.78 156.11 84.79 156.64 83.2 158.2 83.19 158.2 78.18 157.68 77.54 158.31 82.57 158.83 80.98 160.4 80.97 160.4 75.93 159.88 75.28 160.5 80.35 161.03 78.77 162.59 78.75 162.59 73.69 162.08 73.04 162.7 78.14 163.23 78.05 163.3 76.55 164.79 76.53 164.79 70.21 164.15 70.2 164.1 69.64 157.98 71.24 156.4 71.69 161.34 72.34 160.71 71.88 155.77 73.48 154.19 73.48 154.3 73.94 159.15 74.58 158.51 74.12 153.55 75.72 151.97 75.72 152.09 76.18 156.96 76.83 156.32 76.36 151.33 77.96 149.75 78.42 154.76 79.06 154.12 78.61 149.11 80.21 147.53 80.22 147.63 80.66 152.56 81.31 151.93 80.85 146.9 82.45 145.32 82.91 150.37 83.56 149.73 83.08 144.67"/><polygon class="cls-4" points="75.96 137.59 75.98 137.59 77.57 136.02 77.57 136.13 78.16 142.31 84.36 142.96 84.27 143.03 82.76 144.52 82.75 144.52 77.79 144.01 77.15 144.64 82.13 145.16 82.04 145.23 80.54 146.72 80.53 146.72 75.54 146.2 74.9 146.83 79.9 147.35 78.31 148.92 78.29 148.92 73.3 148.4 72.66 149.03 77.67 149.56 76.08 151.12 76.07 151.12 71.06 150.6 70.42 151.23 75.45 151.75 73.86 153.32 73.84 153.32 68.81 152.8 68.16 153.42 73.23 153.95 71.65 155.5 71.63 155.51 66.57 155 65.92 155.62 71.02 156.15 70.93 156.22 69.43 157.7 69.41 157.71 63.09 157.07 63.08 157.01 62.52 150.9 64.12 149.32 64.57 154.26 65.22 153.63 64.76 148.69 66.36 147.1 66.36 147.22 66.82 152.06 67.46 151.43 67 146.47 68.59 144.89 68.6 145 69.06 149.87 69.7 149.24 69.24 144.25 70.84 142.67 71.3 147.67 71.94 147.04 71.49 142.03 73.09 140.45 73.1 140.55 73.54 145.47 74.19 144.85 73.73 139.81 75.33 138.23 75.79 143.28 76.44 142.65 75.96 137.59"/><polygon class="cls-4" points="68.84 130.51 68.86 130.5 70.45 128.94 70.45 129.05 71.03 135.23 77.23 135.88 77.14 135.95 75.64 137.43 75.63 137.43 70.67 136.93 70.03 137.56 75.01 138.07 74.92 138.15 73.42 139.63 73.41 139.63 68.42 139.12 67.78 139.75 72.78 140.27 71.19 141.84 71.17 141.84 66.18 141.31 65.54 141.95 70.55 142.47 68.96 144.04 68.95 144.04 63.94 143.51 63.3 144.15 68.33 144.66 66.74 146.24 66.72 146.24 61.69 145.71 61.04 146.34 66.11 146.86 64.53 148.42 64.51 148.43 59.45 147.91 58.8 148.54 63.9 149.06 63.81 149.14 62.31 150.62 62.28 150.63 55.96 149.98 55.96 149.93 55.4 143.82 56.99 142.24 57.45 147.17 58.1 146.55 57.64 141.6 59.23 140.02 59.24 140.13 59.7 144.98 60.34 144.35 59.88 139.39 61.47 137.81 61.48 137.92 61.94 142.79 62.58 142.16 62.12 137.17 63.72 135.59 64.18 140.59 64.82 139.96 64.37 134.95 65.97 133.37 65.98 133.47 66.42 138.39 67.07 137.77 66.61 132.73 68.21 131.15 68.67 136.2 69.32 135.57 68.84 130.51"/><rect class="cls-5" x="112.3" y="179.91" width="13.43" height="0.66" transform="translate(-82.7 103.03) rotate(-35.62)"/><rect class="cls-5" x="115" y="181.67" width="10.45" height="0.66" transform="translate(-83.5 104.07) rotate(-35.62)"/><rect class="cls-5" x="117.54" y="183.49" width="7.65" height="0.66" transform="translate(-84.34 105.05) rotate(-35.61)"/><rect class="cls-5" x="119.08" y="185.63" width="5.95" height="0.66" transform="translate(-85.47 105.9) rotate(-35.62)"/><rect class="cls-5" x="119.08" y="188.26" width="5.95" height="0.66" transform="translate(-87.01 106.39) rotate(-35.62)"/><rect class="cls-5" x="115.09" y="176.38" width="10.35" height="0.66" transform="translate(-80.41 103.1) rotate(-35.62)"/><rect class="cls-5" x="116.74" y="173.22" width="8.53" height="0.66" transform="translate(-78.42 102.92) rotate(-35.61)"/><rect class="cls-5" x="116.47" y="170.67" width="8.83" height="0.66" transform="translate(-76.97 102.39) rotate(-35.62)"/><rect class="cls-5" x="115.5" y="168.35" width="9.9" height="0.66" transform="translate(-75.69 101.69) rotate(-35.61)"/><path class="cls-4" d="M135.75,200.91c3.64-8.39,11.43-22.73,27.05-33a64.62,64.62,0,0,1,10.92-6v12.67a55.89,55.89,0,0,0-5.16,3c-6.2,4.06-11,9.37-15.53,15.82l-16.9,8Z"/><path class="cls-4" d="M120.6,198.45a32.64,32.64,0,0,0-20.49-7.17,38.75,38.75,0,0,0-22.34,7.44,12,12,0,0,0-2.59-.39,13.05,13.05,0,0,0-2.68.18,4.88,4.88,0,0,0-4.16-1,4.44,4.44,0,0,0-3.11-.3c12.51-12.75,30.12-18.16,46.09-13.77,14.29,3.92,22.25,14.32,24.81,18l-8.54,4.06a3.82,3.82,0,0,0-.56-.62,3.08,3.08,0,0,0-.44-.34,2.89,2.89,0,0,0-.66-1.86,3,3,0,0,0-1.4-.92,9.44,9.44,0,0,0-1-1.13,8.92,8.92,0,0,0-1.13-.86,4.49,4.49,0,0,0-.85-.83A4.11,4.11,0,0,0,120.6,198.45Z"/><path class="cls-5" d="M130.22,194.48a81,81,0,0,1,28.38-33,73.72,73.72,0,0,1,15.12-7.84v8.24a64.62,64.62,0,0,0-10.92,6c-15.62,10.23-23.41,24.57-27.05,33-.75-1-1.61-2.16-2.59-3.29S131.17,195.41,130.22,194.48Z"/><polygon class="cls-1" points="134.04 199.1 132.82 196.76 133.48 196.42 132.04 191.58 136.75 190.01 135.79 185.15 140.63 184.02 140.13 179.08 145.05 178.42 145.02 173.47 150.07 173.19 150.59 168.18 155.63 168.39 156.63 163.45 162.74 164.31 162.38 166.92 158.72 166.41 157.76 171.12 152.96 170.91 152.46 175.7 147.67 175.96 147.7 180.72 143.01 181.35 143.48 186.06 138.87 187.13 139.79 191.78 135.29 193.28 136.62 197.74 134.04 199.1"/><path class="cls-5" d="M50.75,116.05a55.49,55.49,0,0,1,9,35.16A55.3,55.3,0,0,1,45.94,183a11.16,11.16,0,0,0-.29-2.55,11.73,11.73,0,0,0-.67-2.07,51.69,51.69,0,0,0,10.93-27.45,52.06,52.06,0,0,0-8.38-32.74Z"/><path class="cls-1" d="M53.67,114.44a58.37,58.37,0,0,1-7.1,72.86,18,18,0,0,1-.46-2.22A16.84,16.84,0,0,1,46,183.2a55.73,55.73,0,0,0,7.52-10.85,56.85,56.85,0,0,0,6.27-21.14c1.49-16.92-5.73-30-8.6-34.63Z"/><path class="cls-2" d="M53.67,114.44A59.37,59.37,0,0,1,63,151.49,59.49,59.49,0,0,1,46.6,187.42a8.82,8.82,0,0,1-.57,6.35c3.49-3.05,19.24-17.56,21.36-41.91a63.79,63.79,0,0,0-10.53-40.5Z"/><path class="cls-5" d="M45.53,178.06l-.52-.4a51.81,51.81,0,0,0,10.58-26.81c1.34-15.68-5.39-28-8.34-32.53l.56-.36c3,4.61,9.79,17.07,8.43,33A52.48,52.48,0,0,1,45.53,178.06Z"/><path class="cls-2" d="M45,178.33a51.71,51.71,0,0,0,10.93-27.45A51.84,51.84,0,0,0,48.09,119q-1.81,1.35-3.9,2.73t-4.11,2.55v52.76a3.49,3.49,0,0,1,3-.45A3.36,3.36,0,0,1,45,178.33Z"/><path class="cls-5" d="M46.19,183.42,45.7,183a54.77,54.77,0,0,0,4.78-66.75l.55-.36a55.41,55.41,0,0,1-4.84,67.55Z"/><path class="cls-5" d="M46.81,187.53l-.47-.46a59.21,59.21,0,0,0,16.35-35.61,58.41,58.41,0,0,0-9.64-37.31l.55-.36a59,59,0,0,1,9.74,37.72A59.86,59.86,0,0,1,46.81,187.53Z"/><path class="cls-5" d="M59.38,108.25a67.89,67.89,0,0,1,11.83,43.94c-2.24,26.24-19.35,41.79-23,45l-2.84-1.55.62-1.72c3.47-3,19.29-17.59,21.4-42A63.89,63.89,0,0,0,56.64,111Z"/><path class="cls-5" d="M46.21,194.13l-.43-.5c5.75-5,19.33-19.22,21.28-41.8a63,63,0,0,0-10.7-40.61l.55-.37a63.78,63.78,0,0,1,10.81,41C65.75,174.7,52,189,46.21,194.13Z"/><path class="cls-1" d="M57.12,198.29c19.44-19.19,40.05-39.48,59.49-58.67l2.39,2.19q-13.86,13.75-27.74,27.48T63.59,196.63a4.15,4.15,0,0,0-1,.31,4.24,4.24,0,0,0-.58.34,3.68,3.68,0,0,0-4.88,1Z"/><path d="M76.58,188.42l44.83-44.37L119,141.81,63.36,196.88a4.24,4.24,0,0,1,1.18,0,3.61,3.61,0,0,1,.81.22,52.42,52.42,0,0,1,11.23-8.69Z"/><path class="cls-1" d="M48.21,197.15q2.77,1.71,5.57,3.4a3.29,3.29,0,0,1,.77-.35,3.21,3.21,0,0,1,.76-.17,4.71,4.71,0,0,1,.36-.63,4.61,4.61,0,0,1,.54-.68,2.1,2.1,0,0,1,.46-.34,1.81,1.81,0,0,1,.68-.19L79.88,176l-11.1-10.9A69.37,69.37,0,0,1,60.7,182.6,69.46,69.46,0,0,1,48.21,197.15Z"/><polygon class="cls-5" points="67.44 167.62 77.93 177.93 75.98 179.84 66.41 170.43 67.44 167.62"/><rect class="cls-5" x="73.74" y="162.29" width="0.66" height="16.04" transform="translate(-99.32 103.78) rotate(-45.5)"/><polygon class="cls-5" points="64.04 175.77 72.09 183.68 74.03 181.76 65.27 173.15 64.04 175.77"/><polygon class="cls-5" points="61.31 180.75 68.19 187.51 70.14 185.59 62.64 178.22 61.31 180.75"/><polygon class="cls-5" points="64.3 191.34 58.25 185.4 59.82 183.11 66.25 189.43 64.3 191.34"/><polygon class="cls-5" points="60.41 195.18 54.88 189.75 56.66 187.66 62.35 193.26 60.41 195.18"/><path class="cls-5" d="M56.21,198.72l-5-4.92,1.85-2,5.4,5.31-1.11,1.1Z"/><path d="M135.86,201.63c-3.57-5.12-11.52-14.25-24.63-17.85-15.71-4.32-33.25.92-45.77,13.68L65,197c12.69-12.93,30.47-18.24,46.42-13.86,13.31,3.66,21.37,12.92,25,18.12Z"/><path d="M133.35,202.83c-3.36-4.71-10.78-13.09-22.85-16.41A39.26,39.26,0,0,0,100.11,185C89,185,78,189.51,69.2,197.65l-.45-.48c8.93-8.25,20.06-12.8,31.36-12.8a39.8,39.8,0,0,1,10.57,1.42c12.26,3.36,19.8,11.88,23.2,16.66Z"/><path d="M129.82,204.51c-3-4.12-9.73-11.47-20.33-14.39a35.47,35.47,0,0,0-9.38-1.25,41.64,41.64,0,0,0-26.17,9.74l-.42-.51a42.35,42.35,0,0,1,26.59-9.89,35.88,35.88,0,0,1,9.55,1.28c10.79,3,17.6,10.44,20.69,14.63Z"/><path d="M73.73,198.36a41.74,41.74,0,0,1,26.38-9.82,35.75,35.75,0,0,1,9.47,1.27c10.56,2.9,17.26,10.1,20.51,14.51l3.52-1.68c-3.5-4.91-11-13.22-23-16.54a39.61,39.61,0,0,0-10.48-1.4A46.25,46.25,0,0,0,69,197.41a5,5,0,0,1,2.1.29,5.12,5.12,0,0,1,1.42.81Z"/><path d="M120.92,199.13l-.53-.43a32.84,32.84,0,0,0-11.63-5.93,32.51,32.51,0,0,0-8.65-1.16A38.64,38.64,0,0,0,78,199l-.38-.54a39.35,39.35,0,0,1,22.53-7.5,33.45,33.45,0,0,1,8.83,1.18,33.8,33.8,0,0,1,11.87,6.06l.52.43Z"/><rect x="72.56" y="157.34" width="51.46" height="0.66" transform="translate(-82.47 114.69) rotate(-44.69)"/><rect class="cls-5" x="52.75" y="186.65" width="31.87" height="0.66" transform="translate(-111.63 102.32) rotate(-44.68)"/><rect class="cls-5" x="49.27" y="193.11" width="0.66" height="9.78" transform="translate(-145.27 137.24) rotate(-58.62)"/><path class="cls-1" d="M153,193.4c4.49-6.45,9.33-11.76,15.53-15.82a55.89,55.89,0,0,1,5.16-3v8.9Z"/><path class="cls-1" d="M41.19,190.68a10.9,10.9,0,0,0-.32,2.8,11.82,11.82,0,0,0,.18,1.72,17.37,17.37,0,0,0-.53,5.42,2.91,2.91,0,0,0,.49,1.3c.27.37.93,1.09,1.52,1s1.1-1.52,1.95-4.45c1.85-6.38,2.27-5.56,2.43-7.66.24-3.28-.92-3.84-1-8.17a11.16,11.16,0,0,0-.46-2.91,4.63,4.63,0,0,0-1.42-2.61c-1.5-1.11-3.71-.19-4-.08L40,188.72Z"/><polygon class="cls-4" points="29.62 250.58 40.08 240.64 40.08 79.54 29.62 70.16 29.62 250.58"/><polygon points="29.62 246.79 37.34 239.47 37.34 80.76 29.62 73.84 29.62 246.79"/><path d="M29.29,247.56V73.1l8.37,7.51v159Zm.66-173V246L37,239.32V80.91Z"/><path class="cls-4" d="M33.81,183.77l-3.24-.6a13.11,13.11,0,0,1,1.54-4.06A10.18,10.18,0,0,0,32,168.67a13.45,13.45,0,0,1-.19-13.6,10.1,10.1,0,0,0-.14-10.43,13.42,13.42,0,0,1-.18-13.6,10.18,10.18,0,0,0-.14-10.44,13.45,13.45,0,0,1-.19-13.6,9.19,9.19,0,0,0,1.37-5.24A9.31,9.31,0,0,0,31,96.56,13.45,13.45,0,0,1,30.8,83a9.27,9.27,0,0,0,1.38-5.24l3.29,0a12.46,12.46,0,0,1-1.76,6.82,9.4,9.4,0,0,0-1.37,5.24,9.25,9.25,0,0,0,1.52,5.2,13.42,13.42,0,0,1,.18,13.6A10.18,10.18,0,0,0,34.18,119a13.46,13.46,0,0,1,.19,13.6A10.12,10.12,0,0,0,34.51,143a13.42,13.42,0,0,1,.18,13.6,10.13,10.13,0,0,0,.15,10.43,13.42,13.42,0,0,1,.18,13.6A9.86,9.86,0,0,0,33.81,183.77Z"/><path class="cls-4" d="M33.62,242.44A15.63,15.63,0,0,0,32.4,236,18.69,18.69,0,0,1,31,228.4a18.41,18.41,0,0,1,1.44-7.57,15.34,15.34,0,0,0,1.22-6.4A15.6,15.6,0,0,0,32.39,208a18.89,18.89,0,0,1-1.43-7.6,18.44,18.44,0,0,1,1.43-7.57,15.34,15.34,0,0,0,1.22-6.4h3.3A18.57,18.57,0,0,1,35.47,194a15.34,15.34,0,0,0-1.22,6.4,15.63,15.63,0,0,0,1.22,6.44,18.69,18.69,0,0,1,1.44,7.6A18.41,18.41,0,0,1,35.47,222a15.34,15.34,0,0,0-1.22,6.4,15.6,15.6,0,0,0,1.23,6.44,18.89,18.89,0,0,1,1.43,7.6Z"/><path class="cls-5" d="M119.28,237h-.66c.1-5.53.06-33.4-10.33-39.06a15.77,15.77,0,0,0-2.94-1.19c-8.3-2.34-16.43,3.27-20.54,6.83l-.43-.5c4.21-3.64,12.56-9.39,21.15-7a16.36,16.36,0,0,1,3.07,1.25C119.33,203.19,119.38,231.4,119.28,237Z"/><path class="cls-5" d="M86.56,238.42a124.61,124.61,0,0,0-4.17-17.15c-1.24-3.88-2.62-7.39-3-8.37-.78-2-1.38-3.29-2.07-4.85-3.58-8.07-4.88-9.64-6.46-10.12a5,5,0,0,0-2.44-.08l-.13-.64a5.56,5.56,0,0,1,2.76.09c1.81.55,3.17,2.13,6.87,10.48.7,1.57,1.29,2.92,2.08,4.88.39,1,1.78,4.51,3,8.41a124.47,124.47,0,0,1,4.19,17.24Z"/><path class="cls-5" d="M84,238a124.9,124.9,0,0,0-4.1-16.76c-1-3.15-2.08-6-2.5-7.05-1-2.48-2-4.91-3-7-3.63-7.78-5.45-9.22-6.88-9.62a5.59,5.59,0,0,0-2.42-.11l-.11-.65a6.14,6.14,0,0,1,2.71.13c1.47.41,3.36,1.55,7.29,10,1,2.13,2,4.57,3,7.06.41,1.08,1.49,3.92,2.51,7.09a126.24,126.24,0,0,1,4.12,16.85Z"/><path class="cls-5" d="M78.86,237a125.41,125.41,0,0,0-3.92-15.75c-1.08-3.36-2.36-6.7-2.37-6.73-.63-1.62-1.48-3.83-2.35-5.66-2.36-5-7.32-12.6-10.58-11.81a2.84,2.84,0,0,0-1.59,1.26l-.54-.38a3.48,3.48,0,0,1,2-1.52c3.94-1,9.14,7.54,11.33,12.17.88,1.85,1.73,4.07,2.36,5.69,0,0,1.3,3.4,2.39,6.78a126.25,126.25,0,0,1,3.94,15.83Z"/><path class="cls-5" d="M76.26,236.39c-.4-2.12-.85-4.27-1.36-6.37-.72-3-1.59-6.1-2.45-8.75-1.09-3.36-2.3-6.55-3.69-9.75-2-4.54-2.93-6.63-4.74-8.71-3.7-4.25-5.81-4.63-6.93-4.21a3,3,0,0,0-1.49,1.57l-.59-.29a3.54,3.54,0,0,1,1.85-1.9c1.91-.73,4.48.76,7.66,4.4,2,2.24,3,4.6,4.84,8.87,1.41,3.23,2.62,6.44,3.72,9.82.86,2.67,1.74,5.79,2.46,8.79.51,2.12,1,4.28,1.37,6.41Z"/><path class="cls-5" d="M71,234.87a123.41,123.41,0,0,0-3.51-13.6,100.75,100.75,0,0,0-4.55-11.09A24.83,24.83,0,0,0,60.46,206a23.48,23.48,0,0,0-2.2-2.57l.47-.46a24.17,24.17,0,0,1,4.79,6.93,101.5,101.5,0,0,1,4.59,11.17,122.46,122.46,0,0,1,3.52,13.67Z"/><path class="cls-5" d="M68.34,234c-1-4.24-2.11-8.42-3.43-12.42a57.29,57.29,0,0,0-3-7.72,50.54,50.54,0,0,0-3.47-6l.55-.37a51.85,51.85,0,0,1,3.51,6.1,58.45,58.45,0,0,1,3.05,7.8c1.32,4,2.48,8.22,3.45,12.49Z"/><path class="cls-5" d="M73.59,235.66c-1-4.88-2.23-9.72-3.62-14.39a77.39,77.39,0,0,0-3.33-9.14c-3.78-8.6-6.55-10.57-8.55-11.33a5,5,0,0,0-3.71-.19,4.23,4.23,0,0,0-2,1.89c-.15.28-1.46,2.75,0,4.72a4,4,0,0,0,5,1.28A3.45,3.45,0,0,0,59,204.37a2.93,2.93,0,0,0-3.43-1.65,2.27,2.27,0,0,0-1.13,1.13,2.23,2.23,0,0,0,.14,2.18,1.77,1.77,0,0,0,1.48.61,1.72,1.72,0,0,0,1.3-1.6l.66.06A2.2,2.2,0,0,1,54,206.45a3,3,0,0,1,1.25-4.35,3.6,3.6,0,0,1,4.27,2,4.15,4.15,0,0,1-1.88,5,4.62,4.62,0,0,1-5.86-1.46c-1.64-2.3-.16-5.12,0-5.43a4.85,4.85,0,0,1,2.3-2.17,5.55,5.55,0,0,1,4.2.18c2.12.8,5,2.85,8.92,11.67a77.11,77.11,0,0,1,3.36,9.22c1.39,4.69,2.62,9.55,3.63,14.45Z"/><path class="cls-5" d="M81.43,217.11l-.4-.52c3.36-2.57,5-6.57,4.25-10.19-1.13-5.22-6.86-8.61-12.77-7.56l-.11-.64c6.25-1.12,12.32,2.5,13.52,8.06C86.76,210.13,85,214.39,81.43,217.11Z"/><path class="cls-5" d="M80.43,214.37l-.44-.49A7.57,7.57,0,0,0,82.6,207c-.61-2.79-3.76-5.76-8.3-5.58l0-.66c4.9-.18,8.31,3,9,6.1A8.21,8.21,0,0,1,80.43,214.37Z"/><path class="cls-5" d="M79.35,211.53l-.52-.41a4.54,4.54,0,0,0,1.09-3.56,5.05,5.05,0,0,0-4.22-3.34l.11-.65a5.63,5.63,0,0,1,4.75,3.85A5.12,5.12,0,0,1,79.35,211.53Z"/><path class="cls-5" d="M119.2,230.23l-.66,0a27.59,27.59,0,0,1,2-8.69c.3-.73.64-1.45,1-2.15l.19-.36.31.25a2.09,2.09,0,0,0,1.49.51,2.17,2.17,0,0,0,1.44-.89,1.91,1.91,0,0,0,.41-1.47,1.82,1.82,0,0,0-.84-1.15,3,3,0,0,0-1.51-.41h0c-1.4,0-3.27,2.21-4.56,5.35l-.61-.25c1.41-3.43,3.48-5.74,5.16-5.76a3.57,3.57,0,0,1,1.92.53,2.53,2.53,0,0,1,1.12,1.57,2.57,2.57,0,0,1-.53,2,2.75,2.75,0,0,1-1.9,1.15A2.57,2.57,0,0,1,122,220c-.29.58-.57,1.17-.81,1.76A26.94,26.94,0,0,0,119.2,230.23Z"/><path class="cls-5" d="M117.69,219.68a18.86,18.86,0,0,1,1.14-8.52A18.22,18.22,0,0,1,121,207l.54.38a17.94,17.94,0,0,0-3.22,12.21Z"/><path class="cls-5" d="M115.59,207.45l-.61-.25a9.17,9.17,0,0,1,3.3-4.25c1.84-1.25,5.45-2.57,7.3-.8a3.61,3.61,0,0,1,1,2.35l-.65.07a3.06,3.06,0,0,0-.82-1.95c-1.49-1.42-4.69-.34-6.48.88A8.54,8.54,0,0,0,115.59,207.45Z"/><path class="cls-5" d="M114.34,204.47l-.57-.32a9.58,9.58,0,0,1,4.55-4.18,5,5,0,0,1,3.76-.39,4.44,4.44,0,0,1,2.26,2l-.56.33a3.84,3.84,0,0,0-1.93-1.68,4.36,4.36,0,0,0-3.28.38A8.92,8.92,0,0,0,114.34,204.47Z"/><path class="cls-5" d="M113.05,202.18l-.53-.39c2.25-3.1,5.51-4.6,7.93-3.65a4.5,4.5,0,0,1,2,1.67l-.54.38a3.9,3.9,0,0,0-1.75-1.44C118.07,197.91,115.13,199.32,113.05,202.18Z"/><path class="cls-5" d="M111.69,200.29l-.55-.36c1.65-2.58,4.28-3.92,6.53-3.34A4.74,4.74,0,0,1,120,198l-.49.44a4.1,4.1,0,0,0-2-1.25C115.53,196.72,113.19,198,111.69,200.29Z"/><path class="cls-5" d="M110.28,198.79l-.62-.21a4.48,4.48,0,0,1,2.88-2.74,4.31,4.31,0,0,1,3.65.73l-.4.52a3.7,3.7,0,0,0-3.08-.61A3.77,3.77,0,0,0,110.28,198.79Z"/><path class="cls-5" d="M107.81,197.4l-.52-.4a4.11,4.11,0,0,1,2.32-1.49,4.2,4.2,0,0,1,3,.43l-.33.57a3.46,3.46,0,0,0-4.44.89Z"/><path class="cls-5" d="M87.24,230.23a18.2,18.2,0,0,0,8,1.55c2.77-.31,5.1-1,7.92-1.5l.11.17a8.07,8.07,0,0,1-5.27,3,18,18,0,0,1-5-.36,16.92,16.92,0,0,1-5.87-2.63l.1-.18Z"/><path class="cls-5" d="M119.2,230.36c-3,4.81-11,4.11-11.82-1.91a9.7,9.7,0,0,0,2.48,2.23c2.79,1.67,6,.69,8.56-1.05l.78.73Z"/><path class="cls-5" d="M105.31,215.16a4,4,0,0,1-3.27-.27c-.76-.39-1.22-.92-2-.9-1.86.12-2,1.79-.6,2.84a.31.31,0,0,1,.06.44.33.33,0,0,1-.42.08,3.5,3.5,0,0,1-1.08-1,2.17,2.17,0,0,1,.41-3,3.17,3.17,0,0,1,3.13-.49,5.4,5.4,0,0,0,2.17.7,2.42,2.42,0,0,0,.91-.25,1,1,0,1,1,.72,1.84Z"/><path class="cls-5" d="M99.84,226.26a10.12,10.12,0,0,0-1.7-4.1,10.29,10.29,0,0,0-3.38-3,.21.21,0,0,1,.19-.38,11,11,0,0,1,6.17,7.24.66.66,0,1,1-1.28.28Z"/><path class="cls-5" d="M107.66,224.42a10.73,10.73,0,0,1,5-5.56.2.2,0,0,1,.29.09.21.21,0,0,1-.07.27,9.81,9.81,0,0,0-4,5.62.66.66,0,1,1-1.25-.42Z"/><path class="cls-5" d="M108.05,204.74A9.85,9.85,0,0,0,101,205a5.41,5.41,0,0,1,7.09-.24Z"/><path class="cls-5" d="M107.58,200.87a5.21,5.21,0,0,1-6.9-.28,9.55,9.55,0,0,0,6.9.28Z"/><path class="cls-5" d="M114.1,229.48c-4,0-6.36-3.5-6.62-3.89a.33.33,0,1,1,.56-.36c.23.37,2.42,3.59,6.06,3.59h0a6.64,6.64,0,0,0,3.47-1,.33.33,0,0,1,.45.11.32.32,0,0,1-.11.45,7.27,7.27,0,0,1-3.81,1.12Z"/><path class="cls-5" d="M95.16,230.21A12.5,12.5,0,0,1,86.42,226a.33.33,0,1,1,.48-.45c3.32,3.51,7.61,4.9,10.93,3.55a7.27,7.27,0,0,0,3-2.34.33.33,0,1,1,.51.41,7.92,7.92,0,0,1-3.26,2.54A7.77,7.77,0,0,1,95.16,230.21Z"/><path class="cls-5" d="M113.78,227.4a8.62,8.62,0,0,1-6-2.63l1-.91a7.32,7.32,0,0,0,5.21,2.22,7.07,7.07,0,0,0,4.27-1.56l.82,1a8.35,8.35,0,0,1-5.07,1.86Z"/><path class="cls-5" d="M94.87,228h-.32a10.91,10.91,0,0,1-6.79-2.73l.88-1a9.53,9.53,0,0,0,6,2.39,9.42,9.42,0,0,0,5.47-1.57l.72,1.1A10.79,10.79,0,0,1,94.87,228Z"/><path class="cls-5" d="M115.56,225.29a1.67,1.67,0,1,1-1.66-1.67A1.66,1.66,0,0,1,115.56,225.29Z"/><path class="cls-5" d="M116.86,226.72l-.59-.29a2.63,2.63,0,1,0-5-1.14,2.57,2.57,0,0,0,.15.87l-.62.22a3.13,3.13,0,0,1-.19-1.09,3.29,3.29,0,1,1,6.57,0A3.36,3.36,0,0,1,116.86,226.72Z"/><circle class="cls-5" cx="94.85" cy="225.72" r="1.66"/><path class="cls-5" d="M97.7,227.19l-.58-.3a2.49,2.49,0,0,0,.28-1.17,2.55,2.55,0,1,0-4.82,1.16l-.58.3a3.2,3.2,0,1,1,6.06-1.46A3.13,3.13,0,0,1,97.7,227.19Z"/><path class="cls-5" d="M118.46,224a.35.35,0,0,1-.18,0,9.57,9.57,0,0,0-9.33-.71.35.35,0,0,1-.44-.17.34.34,0,0,1,.17-.44,10.58,10.58,0,0,1,6.43-.71,10.14,10.14,0,0,1,3.53,1.48.32.32,0,0,1,.09.45A.32.32,0,0,1,118.46,224Z"/><path class="cls-5" d="M88.09,225.16a.34.34,0,0,1-.26-.12.33.33,0,0,1,0-.46,9.24,9.24,0,0,1,2-1.25,10.61,10.61,0,0,1,5.05-1,15.32,15.32,0,0,1,4.84.89.33.33,0,0,1,.2.42.32.32,0,0,1-.42.2,14.85,14.85,0,0,0-4.64-.85,10,10,0,0,0-4.75.91,8.94,8.94,0,0,0-1.84,1.17A.31.31,0,0,1,88.09,225.16Z"/><path class="cls-5" d="M100.85,225.62l1.5,2.47-2.44-1.55a.67.67,0,1,1,.94-.92Z"/><path class="cls-5" d="M110.2,231.89a.35.35,0,0,1-.19-.06,6.33,6.33,0,0,1-2.52-3c-.6-1.58-.23-2.93.44-5.38l.25-.93c1.49-5.58,1.88-8.66,1.15-9.15-.12-.08-.22-.08-.47-.08a3.82,3.82,0,0,1-1.26-.21,5.36,5.36,0,0,1-2.47-1.82.32.32,0,0,1,.06-.46.33.33,0,0,1,.46.05,4.72,4.72,0,0,0,2.16,1.61,3,3,0,0,0,1.06.17,1.3,1.3,0,0,1,.83.2c.77.52,1.2,2.07-.89,9.86l-.25.94c-.65,2.39-1,3.59-.45,5a5.65,5.65,0,0,0,2.27,2.68.34.34,0,0,1,.09.46A.32.32,0,0,1,110.2,231.89Z"/><path class="cls-5" d="M105.39,211.07a4.4,4.4,0,0,0,2.58,1,3.12,3.12,0,0,1,1.24.18c1.86.8,1.45,2.87.64,4.3-.29-.89-.14-2-.62-2.69a1.69,1.69,0,0,0-1.33-.55,3,3,0,0,1-2.51-2.2Z"/><path class="cls-5" d="M88.15,225.61a11.66,11.66,0,0,1-1.83-2.08l1.2.55,1.22.35-.59,1.18Z"/><polygon points="29.3 251.34 28.84 250.86 39.75 240.5 39.75 79.69 28.85 69.91 29.29 69.42 40.41 79.39 40.41 240.78 29.3 251.34"/><polygon points="29.3 247.56 28.84 247.08 37.01 239.32 37.01 80.91 28.85 73.59 29.29 73.1 37.66 80.61 37.66 239.61 29.3 247.56"/><path class="cls-4" d="M29.07,226.6a62.34,62.34,0,0,1,30.08,10.27c-.9-2.57-5.84-15.82-19.07-20.81a29.3,29.3,0,0,0-11-1.83Z"/><path d="M59.79,237.68l-.82-.54a62.06,62.06,0,0,0-29.92-10.21l0-.66a63,63,0,0,1,17,3.62,63.74,63.74,0,0,1,12.44,6.16c-1.73-4.47-7-15.34-18.54-19.68a28.75,28.75,0,0,0-10.88-1.81l0-.66a29.83,29.83,0,0,1,11.13,1.85c12.72,4.79,18,17.29,19.27,21Z"/><path d="M29.07,223.87a65.8,65.8,0,0,1,17.81,3.76c2.1.76,4,1.59,5.85,2.44a28.42,28.42,0,0,0-13.62-11.44A30.24,30.24,0,0,0,29.86,217h-.79"/><path d="M53.64,230.87l-1.06-.5c-1.89-.9-3.84-1.72-5.81-2.44a65.75,65.75,0,0,0-17.72-3.73l0-.66A66.26,66.26,0,0,1,47,227.32c1.62.58,3.23,1.24,4.8,2A27.34,27.34,0,0,0,39,218.94a30.18,30.18,0,0,0-9.14-1.63h-.78v-.66h.79a30.31,30.31,0,0,1,9.37,1.67A28.32,28.32,0,0,1,53,229.89Z"/><path class="cls-4" d="M35,221.41a1.73,1.73,0,1,1-1.73-1.73A1.72,1.72,0,0,1,35,221.41Z"/><path class="cls-4" d="M40.38,222.28a1.73,1.73,0,1,1-1.73-1.72A1.73,1.73,0,0,1,40.38,222.28Z"/><path class="cls-4" d="M45,223.83a1.48,1.48,0,1,1-1.47-1.48A1.47,1.47,0,0,1,45,223.83Z"/><path class="cls-4" d="M48.51,225.93a1.3,1.3,0,1,1-1.3-1.3A1.3,1.3,0,0,1,48.51,225.93Z"/><path d="M42.45,203.27c-.85,0-1.62-1-1.7-1.16a3.15,3.15,0,0,1-.55-1.44,17,17,0,0,1,.51-5.48,12.09,12.09,0,0,1-.17-1.7,11.3,11.3,0,0,1,.33-2.89l.64.16a10.25,10.25,0,0,0-.14,4.38l0,.07,0,.06a16.93,16.93,0,0,0-.52,5.31,2.61,2.61,0,0,0,.43,1.15c.33.46.86.92,1.21.88s1.35-3.08,1.67-4.21a45.86,45.86,0,0,1,1.9-5.56,5,5,0,0,0,.52-2,10,10,0,0,0-.38-3.62,17.87,17.87,0,0,1-.59-4.52,10.62,10.62,0,0,0-.44-2.82,4.37,4.37,0,0,0-1.31-2.45c-1.3-1-3.27-.2-3.65,0l-.26-.61c.44-.19,2.71-1.07,4.31.11a5,5,0,0,1,1.54,2.79,11.15,11.15,0,0,1,.46,3,17.31,17.31,0,0,0,.58,4.37,10.79,10.79,0,0,1,.4,3.83,5.9,5.9,0,0,1-.57,2.24,42.35,42.35,0,0,0-1.87,5.48c-1,3.59-1.52,4.59-2.23,4.68Z"/><path class="cls-1" d="M31.63,181.88a1.58,1.58,0,0,1-.87-.44,1.65,1.65,0,0,1-.49-1.12,1.85,1.85,0,0,1,.44-1.15c1.32-1.71,5.74-2.73,7.71-1.9a1.67,1.67,0,0,1,.77.6,1.81,1.81,0,0,1,.09,1.82,1.9,1.9,0,0,1-1.28.93,2.15,2.15,0,0,1,1.76.37,1.83,1.83,0,0,1,.66,1.29c0,1-1.21,2.08-3.08,2.41a2.37,2.37,0,0,1,3.12,1.66,2.34,2.34,0,0,1-1.79,2.44,2.18,2.18,0,0,1,2.41.41,1.8,1.8,0,0,1,.2.54,2.29,2.29,0,0,1,0,.66c-.11.93-1.59,1.79-1.59,1.79-3.53,2.28-6.73,3.17-8,2a2.3,2.3,0,0,1-.73-1.92c.19-1.29,1.68-1.86,1.78-1.89a2.16,2.16,0,0,1-1.8-.54c-.7-.8-.22-2.08.17-2.69A3.09,3.09,0,0,1,32.57,186a2.07,2.07,0,0,1-1.32-.34,2.31,2.31,0,0,1-.53-3A2.18,2.18,0,0,1,31.63,181.88Z"/><path d="M33.28,195.06a2.09,2.09,0,0,1-1.09-.25,3.9,3.9,0,0,1-.58-.42,3.32,3.32,0,0,1-1-2.12,1.8,1.8,0,0,1,.65-1.34c1.85-1.73,7.42-2.65,8.7-2.54a1.87,1.87,0,0,1,1.35.62,1.59,1.59,0,0,1,.27.68,2.44,2.44,0,0,1-.11,1.1c-.36,1-3.38,2.85-5.64,3.69A7.67,7.67,0,0,1,33.28,195.06Zm-1.21-1.15a2.71,2.71,0,0,0,.44.33c.53.3,1.67.17,3.12-.38,2.55-1,5-2.69,5.25-3.29a1.74,1.74,0,0,0,.08-.77,1.12,1.12,0,0,0-.15-.4,1.24,1.24,0,0,0-.87-.35c-1.11-.09-6.47.74-8.2,2.36a1.15,1.15,0,0,0-.44.84,2.68,2.68,0,0,0,.77,1.66Z"/><path d="M37.9,189.12a.92.92,0,0,0,.07,1.41,2.16,2.16,0,0,0,1.82.26c-1.45.71-3.41-.24-2.45-2l.56.35Z"/><path d="M32.23,190.75a1.88,1.88,0,0,1-1.26-.42c-.92-.78-.66-2.33-.28-3.12.69-1.43,2.23-1.8,5-2.48s3.76-.34,4.17,0a2.54,2.54,0,0,1,.89,2.34,2.65,2.65,0,0,1-2,2.05l-.16-.64A2,2,0,0,0,40.13,187a1.88,1.88,0,0,0-.65-1.72c-.46-.37-1.73-.32-3.6.14-2.69.65-4,1-4.59,2.13-.31.64-.49,1.82.1,2.33a1.65,1.65,0,0,0,1.3.21l.13.65A3.16,3.16,0,0,1,32.23,190.75Z"/><path d="M37.33,185c-.37.47-.57,1.15,0,1.52a2.08,2.08,0,0,0,2,.05c-1.51,1-3.67,0-2.55-1.93l.55.36Z"/><path d="M32.36,186.32a2.18,2.18,0,0,1-1.31-.42,2.39,2.39,0,0,1-.86-1.8,3.26,3.26,0,0,1,.23-1.57c.27-.57,1-1.3,4.6-1.92,3.9-.67,4.86-.14,5.24.32a2.21,2.21,0,0,1,.48,1,2.43,2.43,0,0,1-.15,1.09c-.36.89-2,1.75-4.17,2.17l-.12-.65c2.12-.41,3.45-1.2,3.67-1.77a1.69,1.69,0,0,0,.12-.75,1.62,1.62,0,0,0-.34-.72c-.19-.23-1-.71-4.62-.09-2.44.42-3.83.94-4.11,1.55a2.58,2.58,0,0,0-.18,1.22,1.79,1.79,0,0,0,.61,1.35,1.55,1.55,0,0,0,1.09.27l.07.66Z"/><path d="M31.57,182.21a2,2,0,0,1-1-.53,2,2,0,0,1-.59-1.35,2.21,2.21,0,0,1,.51-1.36c1.39-1.8,5.93-2.92,8.1-2a2.08,2.08,0,0,1,.92.71,2.14,2.14,0,0,1,.1,2.16,2.25,2.25,0,0,1-1.5,1.11l-.13-.65a1.58,1.58,0,0,0,1.05-.76,1.47,1.47,0,0,0-.07-1.48,1.33,1.33,0,0,0-.62-.48c-1.89-.8-6.13.24-7.33,1.79a1.56,1.56,0,0,0-.37.95,1.33,1.33,0,0,0,.39.89,1.39,1.39,0,0,0,.69.35Z"/><path d="M37.11,180.81a1.17,1.17,0,0,0,.24,1.51,1.92,1.92,0,0,0,1.81.21,2.09,2.09,0,0,1-2,.07,1.69,1.69,0,0,1-.68-2l.62.23Z"/><path d="M36.83,177.22c-.89.67-.64,1.94.58,1.89a1.64,1.64,0,0,0,1-.36,1.82,1.82,0,0,1-1,.53c-1.6.27-2.07-1.54-1-2.54l.45.48Z"/><path d="M44.41,198.62c-1.58-.85-3,.84-3,2.39a3.31,3.31,0,0,1,.72-2.38,2.27,2.27,0,0,1,2.53-.62l-.24.61Z"/><path d="M40.89,189.35a.33.33,0,0,1-.32-.26,6.25,6.25,0,0,1,.28-3.64,6,6,0,0,1,.89-1.52.33.33,0,0,1,.46-.05.32.32,0,0,1,0,.46,5.42,5.42,0,0,0-.79,1.35,5.6,5.6,0,0,0-.25,3.26.32.32,0,0,1-.25.39Z"/><rect x="52.32" y="168.89" width="77.94" height="0.66" transform="translate(-92.61 113.09) rotate(-44.68)"/><rect x="67.45" y="165.9" width="63.08" height="0.66" transform="translate(-88.28 117.64) rotate(-44.68)"/><rect x="125.06" y="194.08" width="51.2" height="0.66" transform="translate(-69.43 84.63) rotate(-25.72)"/><circle class="cls-4" cx="110.42" cy="175.38" r="7.12" transform="matrix(0.94, -0.34, 0.34, 0.94, -52.72, 47.57)"/><path d="M110.41,182.83a7.45,7.45,0,1,1,6.75-4.29h0a7.48,7.48,0,0,1-6.75,4.29Zm0-14.24a6.58,6.58,0,0,0-2.31.41,6.79,6.79,0,1,0,8.45,9.26h0a6.78,6.78,0,0,0-6.14-9.67Z"/><path class="cls-4" d="M108.07,180.15a2.17,2.17,0,0,1-1.29.79h0a2.17,2.17,0,0,0-1.57,1.25c-.83,1.85-1.64,3.73-2.44,5.62-.72,1.69-1,2.5-.79,3.15a2.25,2.25,0,0,0,.69,1,2.28,2.28,0,0,0,1.19-.09c.64-.25,1.08-1,1.92-2.62.94-1.82,1.86-3.65,2.76-5.47a2.19,2.19,0,0,0-.05-2h0a2.18,2.18,0,0,1-.22-1.5Z"/><path class="cls-4" d="M106.78,180.94a2.17,2.17,0,0,0-1.57,1.25c-.83,1.85-1.64,3.73-2.44,5.62-.72,1.69-1,2.5-.79,3.15a2.25,2.25,0,0,0,.69,1,2.28,2.28,0,0,0,1.19-.09c.64-.25,1.08-1,1.92-2.62.94-1.82,1.86-3.65,2.76-5.47a2.19,2.19,0,0,0-.05-2h0a2.18,2.18,0,0,1-.22-1.5,2.92,2.92,0,0,1,.13-.46s0-.16.11-.31a8.24,8.24,0,0,1,2.81-2.54,15.68,15.68,0,0,0,.84,5.64c-1,2.11-2.33,4.78-3.94,7.91-1,1.82-1.72,3.27-3.35,3.92a5.39,5.39,0,0,1-3.31.09l-.14-.07a5.31,5.31,0,0,1-2-2.6c-.55-1.67.07-3.19.87-5.08,1.37-3.24,2.58-6,3.55-8.09a15.41,15.41,0,0,0,4.87-3,8,8,0,0,1-.15,3.78,2.82,2.82,0,0,1-.16.29,3.89,3.89,0,0,1-.28.39,2.17,2.17,0,0,1-1.29.79Z"/><path d="M103.16,195a6.44,6.44,0,0,1-1.69-.24l-.19-.08a5.54,5.54,0,0,1-2.22-2.8c-.6-1.81.09-3.43.88-5.31,1.15-2.73,2.35-5.45,3.55-8.1l.06-.12.13,0a15.83,15.83,0,0,0,2.58-1.27,15.09,15.09,0,0,0,2.18-1.63l.47-.41.08.62a13.78,13.78,0,0,1,.11,2.57,13.18,13.18,0,0,1,2-1.56l.53-.34,0,.63a15.4,15.4,0,0,0,.15,2.71,14.83,14.83,0,0,0,.67,2.8l0,.13-.06.12c-1.25,2.61-2.58,5.28-3.94,7.92-.93,1.81-1.74,3.37-3.52,4.07A4.84,4.84,0,0,1,103.16,195Zm.88-16.13c-1.19,2.6-2.36,5.28-3.5,8-.74,1.75-1.38,3.27-.86,4.85a4.89,4.89,0,0,0,1.93,2.43l.09,0a4.85,4.85,0,0,0,3-.1c1.55-.61,2.3-2.07,3.18-3.76,1.33-2.6,2.64-5.21,3.87-7.78a16.76,16.76,0,0,1-.66-2.8,17.8,17.8,0,0,1-.16-2.2,6.94,6.94,0,0,0-2.17,2l-.1.28a4,4,0,0,0-.12.43,1.87,1.87,0,0,0,.19,1.27,2.53,2.53,0,0,1,0,2.32c-.9,1.82-1.82,3.66-2.76,5.47s-1.34,2.49-2.09,2.78a2.52,2.52,0,0,1-1.36.1h-.09l-.07-.06a2.58,2.58,0,0,1-.8-1.12c-.25-.76.06-1.61.8-3.38s1.62-3.78,2.44-5.62a2.5,2.5,0,0,1,1.82-1.44h0a1.89,1.89,0,0,0,1.09-.67,2.68,2.68,0,0,0,.26-.37l.15-.26a6.74,6.74,0,0,0,.18-3,18.78,18.78,0,0,1-1.79,1.28A16.64,16.64,0,0,1,104,178.91Zm-1.22,12.71a1.92,1.92,0,0,0,.92-.08c.53-.21,1-.95,1.75-2.47.93-1.81,1.86-3.65,2.75-5.46a1.85,1.85,0,0,0,0-1.71,2.61,2.61,0,0,1-.31-1.11,2.57,2.57,0,0,1-1,.47h0a1.86,1.86,0,0,0-1.33,1.07c-.82,1.83-1.64,3.72-2.44,5.6-.67,1.58-1,2.38-.78,2.93A1.85,1.85,0,0,0,102.82,191.62Z"/><path d="M130.51,152.8a.31.31,0,0,1-.22-.09l-13.91-12.85a.34.34,0,0,1,0-.47.33.33,0,0,1,.47,0l13.9,12.85a.33.33,0,0,1-.22.57Z"/><path d="M153.46,193.38l-.54-.38c4.89-7,9.8-12,15.46-15.69a58,58,0,0,1,5.19-3l.3.59a56.64,56.64,0,0,0-5.13,3C163.16,181.51,158.3,186.45,153.46,193.38Z"/><path d="M147.8,196.09l-.57-.34a63.67,63.67,0,0,1,19.9-21.19l1.32-.88a38.62,38.62,0,0,1,5.13-3.06l.28.59a40.13,40.13,0,0,0-5.05,3l-1.32.88A63.08,63.08,0,0,0,147.8,196.09Z"/><path d="M140.25,199.77l-.6-.29c4.06-8.51,11.64-20.46,24.77-29a59.69,59.69,0,0,1,9.17-5.24l.26.6a59.85,59.85,0,0,0-9.07,5.19C151.78,179.49,144.27,191.33,140.25,199.77Z"/><path d="M136.05,201l-.6-.26c6.06-14,15.45-25.44,27.17-33.11a64.1,64.1,0,0,1,11-6.06l.25.61a64.21,64.21,0,0,0-10.87,6C151.37,175.82,142.06,187.17,136.05,201Z"/><path d="M130.52,194.62l-.59-.28a81.11,81.11,0,0,1,28.49-33.09,73.62,73.62,0,0,1,15.19-7.88l.23.62a73.08,73.08,0,0,0-15.06,7.81A80.45,80.45,0,0,0,130.52,194.62Z"/><rect x="127.44" y="149.93" width="0.66" height="42.32"/><rect x="130.18" y="152.47" width="0.66" height="41.43"/><path class="cls-5" d="M124.37,212h-.26a3.77,3.77,0,0,1-2.86-1.6,3.33,3.33,0,0,1-.23-3.38,2.82,2.82,0,0,1,3.33-1.24,2.56,2.56,0,0,1,1.59,2.95,2.48,2.48,0,0,1-1.59,1.48l-.2-.63a1.84,1.84,0,0,0,1.17-1.05,1.9,1.9,0,0,0-1.22-2.13,2.14,2.14,0,0,0-2.52,1,2.7,2.7,0,0,0,.23,2.68,3.08,3.08,0,0,0,2.35,1.3,3.53,3.53,0,0,0,3.38-2.13,3.79,3.79,0,0,0-1.2-4.24,4.38,4.38,0,0,0-4.14-.55c-4.14,1.14-5.32,6.79-5.37,7l-.65-.13c.06-.25,1.32-6.29,5.84-7.54,2.43-.66,3.92,0,4.74.68a4.48,4.48,0,0,1,1.39,5A4.16,4.16,0,0,1,124.37,212Z"/><path class="cls-5" d="M48.42,197.4l-.43-.49c6.2-5.39,20.83-20.52,22.9-44.75a67.06,67.06,0,0,0-11.78-43.72l.55-.38a67.81,67.81,0,0,1,11.88,44.16C69.45,176.68,54.68,192,48.42,197.4Z"/><path class="cls-5" d="M81.44,237.57a124.31,124.31,0,0,0-4-16.3c-1.29-4.05-2.71-7.62-3.11-8.62-.89-2.19-1.33-3.28-2-4.73-4.58-9.46-7.43-11.13-9-10.86a2.15,2.15,0,0,0-1,.5l-.42-.51a2.82,2.82,0,0,1,1.34-.64c2.66-.44,5.84,3.22,9.71,11.22.72,1.47,1.19,2.64,2,4.75.41,1,1.84,4.62,3.14,8.69a124.33,124.33,0,0,1,4,16.38Z"/><path class="cls-2" d="M136.38,257l-17-20a91.09,91.09,0,0,1-50.69-3.08C63.43,241.26,57.39,249.7,52.11,257Z"/><path d="M135.88,257.46l-16.73-19.74a91.75,91.75,0,0,1-50.2-3l-7.84,10.92c-2.88,4-5.77,8.06-8.46,11.8l-1.07-.77L60,244.86l8.13-11.33.29-.4.47.16a90.24,90.24,0,0,0,50.32,3.06l.39-.08,17.25,20.34Z"/><path class="cls-1" d="M128.3,257.77l-6.14-7.49-5.36-6.54c-1.09.19-2.2.38-3.29.54-.77.11-1.54.22-2.33.31l5.66,12-2.08,1-7-14.87,1.61-.18c1.29-.13,2.58-.3,3.84-.48s2.59-.41,3.87-.65l.67-.13.43.53c1.8,2.18,3.8,4.62,5.8,7.07l6.15,7.49Z"/><path class="cls-1" d="M106.67,257.41c-.67-2-1.42-4.23-2.18-6.49-.64-1.94-1.29-3.89-1.89-5.66-2.42.08-4.85.07-7.24,0-2.58-.1-5.18-.31-7.75-.63-.41,1.84-.87,3.85-1.32,5.85-.54,2.37-1.08,4.74-1.55,6.84l-2.25-.5c.47-2.1,1-4.48,1.55-6.85s1.09-4.76,1.55-6.86l.23-1,1.05.14c2.84.37,5.73.62,8.58.74,2.62.11,5.28.11,7.91,0l.87,0,.28.82c.67,2,1.42,4.23,2.17,6.48s1.5,4.5,2.17,6.48Z"/><path class="cls-1" d="M60.83,257.69l-1.89-1.31c1.82-2.64,3.83-5.57,5.83-8.49l5.85-8.49.47-.7.81.25c1.51.46,3.06.88,4.61,1.27,1.36.34,2.75.65,4.13.92l1.13.23-.23,1.14c-.48,2.28-1,4.84-1.59,7.39s-1.1,5.1-1.58,7.37l-2.25-.47c.47-2.28,1-4.83,1.58-7.39.47-2.13.93-4.27,1.35-6.24-1-.22-2.07-.46-3.1-.72-1.31-.32-2.62-.68-3.91-1.06l-5.37,7.81C64.67,252.12,62.66,255,60.83,257.69Z"/><polygon class="cls-4" points="90.2 151.76 90.22 151.75 91.81 150.18 91.81 150.3 92.4 156.48 98.6 157.12 98.51 157.2 97.01 158.68 96.99 158.68 92.04 158.18 91.39 158.81 96.37 159.32 96.28 159.4 94.78 160.88 94.77 160.88 89.78 160.36 89.14 161 94.14 161.51 92.55 163.09 92.53 163.09 87.54 162.56 86.9 163.2 91.91 163.72 90.33 165.28 90.31 165.28 85.3 164.76 84.66 165.4 89.69 165.91 88.1 167.49 88.09 167.48 83.05 166.96 82.4 167.59 87.47 168.11 85.89 169.67 85.87 169.68 80.81 169.16 80.16 169.78 85.26 170.31 85.17 170.38 83.67 171.87 83.65 171.88 77.33 171.23 77.32 171.18 76.76 165.06 78.36 163.48 78.81 168.42 79.46 167.79 79 162.85 80.6 161.27 80.6 161.38 81.06 166.23 81.7 165.59 81.24 160.63 82.84 159.06 82.84 159.17 83.31 164.04 83.95 163.4 83.48 158.41 85.08 156.83 85.54 161.84 86.19 161.2 85.73 156.19 87.33 154.61 87.34 154.72 87.78 159.64 88.43 159.01 87.97 153.98 89.57 152.4 90.03 157.45 90.69 156.81 90.2 151.76"/><path class="cls-5" d="M110.72,208.4c.22-.08.22-.46.35-1.54.17-1.31.26-1.51.13-1.61-.41-.29-1.39,1.46-3.06,1.52-.9,0-.94-.46-2.47-.65a5.35,5.35,0,0,0-2.32.1c-.8.23-1,.61-1.91.75a4.26,4.26,0,0,1-1.27,0c-1.7-.25-2.53-1.27-2.83-1-.12.1,0,.3.45,1.78.31,1,.42,1.42.68,1.45s.26-.2.65-.43a2.47,2.47,0,0,1,1-.3c1.2-.14,1.66.61,2.69.52s1.24-1.07,2.19-1,.93.9,1.8,1c1.22.14,1.94-1.44,3-1.12C110.3,208,110.46,208.49,110.72,208.4Z"/><path d="M174.38,257.7h-146V25.57h146ZM29.73,256.38H173.06V26.89H29.73Z"/><rect x="134.02" y="156.32" width="0.66" height="30.53"/><path class="cls-1" d="M113,225.07a.61.61,0,0,1-.61.6.61.61,0,1,1,0-1.21A.61.61,0,0,1,113,225.07Z"/><path class="cls-1" d="M93.87,225.67a.61.61,0,1,1-.6-.6A.6.6,0,0,1,93.87,225.67Z"/><path d="M40.24,124.59l-.33-.57c1.33-.78,2.71-1.64,4.1-2.55A80.47,80.47,0,0,0,72.27,88.64l.6.29A81.14,81.14,0,0,1,44.37,122C43,122.94,41.58,123.8,40.24,124.59Z"/><path class="cls-5" d="M143.14,175.21a67.81,67.81,0,0,1-11.89-44.16c2.09-24.47,16.87-39.75,23.12-45.18l.43.49c-6.19,5.39-20.82,20.52-22.89,44.75a67.09,67.09,0,0,0,11.77,43.72Z"/><path d="M130.52,194.62l-.59-.28a81.11,81.11,0,0,1,28.49-33.09l.36.55A80.45,80.45,0,0,0,130.52,194.62Z"/><path class="cls-2" d="M22.06,11.23H13.75V14h2.78V35.09a3.39,3.39,0,1,1-6.78,0v-2H7v2a6.14,6.14,0,1,0,12.27,0V14h2.78Z"/><path class="cls-2" d="M180.73,272H189v-2.75h-2.78V248.17a3.39,3.39,0,1,1,6.78,0v2h2.74v-2a6.13,6.13,0,0,0-12.26,0v21.12h-2.79Z"/><path class="cls-2" d="M51,72.12A74.1,74.1,0,0,1,66.17,52.41a74.15,74.15,0,0,1-8.48-9.29A73.67,73.67,0,0,1,51,32.69a74.42,74.42,0,0,1-6.7,10.43,74.15,74.15,0,0,1-8.49,9.29,73.3,73.3,0,0,1,8.49,9.28A74.42,74.42,0,0,1,51,72.12Z"/><path class="cls-2" d="M14.54,67.14A36.1,36.1,0,0,1,17.81,62,36.66,36.66,0,0,1,22,57.51a35.87,35.87,0,0,1-7.42-9.64A37.17,37.17,0,0,1,11.26,53a36.1,36.1,0,0,1-4.15,4.54A36.66,36.66,0,0,1,11.26,62,37.17,37.17,0,0,1,14.54,67.14Z"/><path class="cls-2" d="M151.81,211.14a73.81,73.81,0,0,1-15.19,19.72,73.55,73.55,0,0,1,15.19,19.71A74.1,74.1,0,0,1,167,230.86a74.15,74.15,0,0,1-8.48-9.29A73.1,73.1,0,0,1,151.81,211.14Z"/><path class="cls-2" d="M188.26,216.13a36.59,36.59,0,0,1-7.42,9.63,36.59,36.59,0,0,1,7.42,9.63,35.49,35.49,0,0,1,3.27-5.09,36.1,36.1,0,0,1,4.15-4.54,36.1,36.1,0,0,1-4.15-4.54A35.49,35.49,0,0,1,188.26,216.13Z"/></g></g></svg>