<svg xmlns="http://www.w3.org/2000/svg" viewBox="0 0 202.79 283.27"><defs><style>.cls-1{fill:#fff;}.cls-2{fill:#e0010a;}</style></defs><g id="Réteg_2" data-name="Réteg 2"><g id="_ŽÓť_1" data-name="—ŽÓť_1"><rect class="cls-1" width="202.79" height="283.27" rx="15.31"/><path class="cls-2" d="M14.54,51.41c-.34-1.92-2.45-3.28-3.7-3.55a3.41,3.41,0,0,0-2.78.85,4.09,4.09,0,0,0-1.24,3A8.11,8.11,0,0,0,8.1,56.07a86.37,86.37,0,0,0,6.44,8.41A86.61,86.61,0,0,0,21,56.07a8,8,0,0,0,1.28-4.36,4.09,4.09,0,0,0-1.24-3,3.41,3.41,0,0,0-2.78-.85C17,48.13,14.87,49.49,14.54,51.41Z"/><path class="cls-2" d="M188.26,231.86c.33,1.91,2.44,3.28,3.7,3.55a3.37,3.37,0,0,0,2.77-.86,4.08,4.08,0,0,0,1.24-3,8.18,8.18,0,0,0-1.27-4.36,86.32,86.32,0,0,0-6.44-8.4,84.74,84.74,0,0,0-6.44,8.4,8.09,8.09,0,0,0-1.27,4.36,4.06,4.06,0,0,0,1.23,3,3.38,3.38,0,0,0,2.78.86C185.81,235.14,187.92,233.77,188.26,231.86Z"/><polygon class="cls-2" points="4.31 41.23 4.31 38.06 7.23 38.06 7.23 15.45 4.31 15.45 4.31 12.29 10.46 12.29 10.46 38.06 13.24 38.06 13.24 41.23 4.31 41.23"/><polygon class="cls-2" points="198.48 242.04 198.48 245.2 195.57 245.2 195.57 267.82 198.48 267.82 198.48 270.98 192.34 270.98 192.34 245.2 189.55 245.2 189.55 242.04 198.48 242.04"/><path class="cls-2" d="M20.68,12.29a6.43,6.43,0,0,0-1.81.28l-.13,0h0a5.81,5.81,0,0,0-.85.36,5.24,5.24,0,0,0-.51.3l-.46.33a4.5,4.5,0,0,0-.43.37A5.94,5.94,0,0,0,15,16.31c-.05.13-.09.26-.12.36a1.15,1.15,0,0,0-.08.31,2.13,2.13,0,0,0-.1.49,2.21,2.21,0,0,0,0,.35,3.44,3.44,0,0,0,0,.56V35.15a4.7,4.7,0,0,0,0,.54,1.65,1.65,0,0,0,.05.32,1.33,1.33,0,0,0,.05.34l0,.1a1.06,1.06,0,0,0,.1.35,3,3,0,0,0,.13.45l.06.13a6,6,0,0,0,1.48,2.18,4.25,4.25,0,0,0,.41.35,5.4,5.4,0,0,0,.46.33,5.24,5.24,0,0,0,.51.3,4,4,0,0,0,.84.35l.11,0h0c.19.06.39.11.58.15a5.4,5.4,0,0,0,1.23.13,6.09,6.09,0,0,0,6.08-6.08V18.38A6.09,6.09,0,0,0,20.68,12.29ZM23.6,35.15a2.92,2.92,0,0,1-5.79.56l0-.2s0,0,0-.09a1.85,1.85,0,0,1,0-.24V18.41c0-.1,0-.21,0-.33l0-.23a2.89,2.89,0,0,1,1.36-1.94l.42-.25a2.88,2.88,0,0,1,1.08-.21,2.85,2.85,0,0,1,2.43,1.32l0,.07.24.45.1.3a3.1,3.1,0,0,1,.1.53,2.64,2.64,0,0,1,0,.29Z"/><path class="cls-2" d="M182.11,271a6.43,6.43,0,0,0,1.81-.28l.13,0h0a5.81,5.81,0,0,0,.85-.36,5.24,5.24,0,0,0,.51-.3l.46-.33a4.5,4.5,0,0,0,.43-.37,5.94,5.94,0,0,0,1.52-2.33c0-.13.09-.26.12-.36a1.15,1.15,0,0,0,.08-.31,2.13,2.13,0,0,0,.1-.49,2.21,2.21,0,0,0,0-.35,3.44,3.44,0,0,0,0-.56V248.12a4.7,4.7,0,0,0,0-.54,1.65,1.65,0,0,0-.05-.32,1.33,1.33,0,0,0,0-.34l0-.1a1.06,1.06,0,0,0-.1-.35,3,3,0,0,0-.13-.45l-.06-.13a6,6,0,0,0-1.48-2.18,4.25,4.25,0,0,0-.41-.35,5.4,5.4,0,0,0-.46-.33,5.24,5.24,0,0,0-.51-.3,4,4,0,0,0-.84-.35l-.11,0h0c-.19-.06-.39-.11-.58-.15a5.4,5.4,0,0,0-1.23-.13,6.09,6.09,0,0,0-6.08,6.08v16.77A6.09,6.09,0,0,0,182.11,271Zm-2.92-22.86a2.92,2.92,0,0,1,5.79-.56l0,.2s0,.05,0,.09a1.85,1.85,0,0,1,0,.24v16.77c0,.1,0,.21,0,.33l0,.23a2.89,2.89,0,0,1-1.36,1.94l-.42.25a2.88,2.88,0,0,1-1.08.21,2.85,2.85,0,0,1-2.43-1.32l0-.07-.24-.45-.1-.3a3.1,3.1,0,0,1-.1-.53,2.64,2.64,0,0,1,0-.29Z"/><path class="cls-2" d="M142.23,238.52c.69,3.92,5,6.71,7.57,7.26a7,7,0,0,0,5.69-1.75,8.32,8.32,0,0,0,2.52-6.14,16.46,16.46,0,0,0-2.6-8.92c-4.92-7.71-10.37-13.67-13.18-17.2-2.8,3.53-8.26,9.49-13.17,17.2a16.54,16.54,0,0,0-2.61,8.92A8.34,8.34,0,0,0,129,244a6.93,6.93,0,0,0,5.68,1.75C137.23,245.23,141.55,242.44,142.23,238.52Z"/><path class="cls-2" d="M142.23,44.75c-.68-3.92-5-6.71-7.57-7.26A7,7,0,0,0,129,39.23a8.36,8.36,0,0,0-2.53,6.15,16.57,16.57,0,0,0,2.61,8.92C134,62,139.43,68,142.23,71.5,145,68,150.49,62,155.41,54.3a16.49,16.49,0,0,0,2.6-8.92,8.34,8.34,0,0,0-2.52-6.15,7,7,0,0,0-5.69-1.74C147.23,38,142.92,40.83,142.23,44.75Z"/><path class="cls-2" d="M142.23,102.88c-.68-3.92-5-6.71-7.57-7.26A6.92,6.92,0,0,0,129,97.36a8.35,8.35,0,0,0-2.53,6.14,16.58,16.58,0,0,0,2.61,8.93c4.91,7.71,10.37,13.66,13.17,17.2,2.81-3.54,8.26-9.49,13.18-17.2a16.5,16.5,0,0,0,2.6-8.93,8.33,8.33,0,0,0-2.52-6.14,7,7,0,0,0-5.69-1.74C147.23,96.17,142.92,99,142.23,102.88Z"/><path class="cls-2" d="M101.4,73.82c-.69-3.92-5-6.72-7.57-7.26a6.92,6.92,0,0,0-5.69,1.74,8.28,8.28,0,0,0-2.52,6.14,16.46,16.46,0,0,0,2.6,8.92c4.92,7.71,10.37,13.67,13.18,17.2,2.8-3.53,8.25-9.49,13.17-17.2a16.54,16.54,0,0,0,2.61-8.92,8.34,8.34,0,0,0-2.53-6.14A6.89,6.89,0,0,0,109,66.56C106.4,67.1,102.08,69.9,101.4,73.82Z"/><path class="cls-2" d="M101.4,209.45c.68,3.92,5,6.72,7.57,7.26a6.92,6.92,0,0,0,5.68-1.74,8.35,8.35,0,0,0,2.53-6.14,16.51,16.51,0,0,0-2.61-8.92c-4.92-7.72-10.37-13.67-13.17-17.21-2.81,3.54-8.26,9.49-13.18,17.21a16.43,16.43,0,0,0-2.6,8.92A8.29,8.29,0,0,0,88.14,215a7,7,0,0,0,5.69,1.74C96.4,216.17,100.71,213.37,101.4,209.45Z"/><path class="cls-2" d="M142.23,180.39c.69,3.92,5,6.71,7.57,7.26a7,7,0,0,0,5.69-1.74,8.34,8.34,0,0,0,2.52-6.15,16.49,16.49,0,0,0-2.6-8.92c-4.92-7.71-10.37-13.67-13.18-17.2-2.8,3.53-8.26,9.49-13.17,17.2a16.57,16.57,0,0,0-2.61,8.92,8.36,8.36,0,0,0,2.53,6.15,7,7,0,0,0,5.68,1.74C137.23,187.1,141.55,184.31,142.23,180.39Z"/><path class="cls-2" d="M60.56,238.52c.68,3.92,5,6.71,7.57,7.26A7,7,0,0,0,73.82,244a8.36,8.36,0,0,0,2.52-6.14,16.54,16.54,0,0,0-2.6-8.92c-4.92-7.71-10.38-13.67-13.18-17.2-2.8,3.53-8.26,9.49-13.17,17.2a16.54,16.54,0,0,0-2.61,8.92A8.34,8.34,0,0,0,47.31,244,6.93,6.93,0,0,0,53,245.78C55.56,245.23,59.88,242.44,60.56,238.52Z"/><path class="cls-2" d="M60.56,44.75c-.68-3.92-5-6.71-7.57-7.26a7,7,0,0,0-5.68,1.74,8.36,8.36,0,0,0-2.53,6.15,16.57,16.57,0,0,0,2.61,8.92C52.3,62,57.76,68,60.56,71.5,63.36,68,68.82,62,73.74,54.3a16.57,16.57,0,0,0,2.6-8.92,8.38,8.38,0,0,0-2.52-6.15,7,7,0,0,0-5.69-1.74C65.56,38,61.24,40.83,60.56,44.75Z"/><path class="cls-2" d="M60.56,102.88c-.68-3.92-5-6.71-7.57-7.26a6.92,6.92,0,0,0-5.68,1.74,8.35,8.35,0,0,0-2.53,6.14,16.58,16.58,0,0,0,2.61,8.93c4.91,7.71,10.37,13.66,13.17,17.2,2.8-3.54,8.26-9.49,13.18-17.2a16.58,16.58,0,0,0,2.6-8.93,8.37,8.37,0,0,0-2.52-6.14,7,7,0,0,0-5.69-1.74C65.56,96.17,61.24,99,60.56,102.88Z"/><path class="cls-2" d="M60.56,180.39c.68,3.92,5,6.71,7.57,7.26a7,7,0,0,0,5.69-1.74,8.38,8.38,0,0,0,2.52-6.15,16.57,16.57,0,0,0-2.6-8.92c-4.92-7.71-10.38-13.67-13.18-17.2-2.8,3.53-8.26,9.49-13.17,17.2a16.57,16.57,0,0,0-2.61,8.92,8.36,8.36,0,0,0,2.53,6.15A7,7,0,0,0,53,187.65C55.56,187.1,59.88,184.31,60.56,180.39Z"/></g></g></svg>