<svg xmlns="http://www.w3.org/2000/svg" viewBox="0 0 202.79 283.27"><defs><style>.cls-1{fill:#fff;}.cls-2{fill:#e0010a;}</style></defs><g id="Réteg_2" data-name="Réteg 2"><g id="_ŽÓť_1" data-name="—ŽÓť_1"><rect class="cls-1" width="202.79" height="283.27" rx="15.31"/><path class="cls-2" d="M14.54,51.41c-.34-1.92-2.45-3.28-3.7-3.55a3.41,3.41,0,0,0-2.78.85,4.09,4.09,0,0,0-1.24,3A8.11,8.11,0,0,0,8.1,56.07a86.37,86.37,0,0,0,6.44,8.41A86.61,86.61,0,0,0,21,56.07a8,8,0,0,0,1.28-4.36,4.09,4.09,0,0,0-1.24-3,3.41,3.41,0,0,0-2.78-.85C17,48.13,14.87,49.49,14.54,51.41Z"/><path class="cls-2" d="M188.26,231.86c.33,1.91,2.44,3.28,3.7,3.55a3.37,3.37,0,0,0,2.77-.86,4.08,4.08,0,0,0,1.24-3,8.18,8.18,0,0,0-1.27-4.36,86.32,86.32,0,0,0-6.44-8.4,84.74,84.74,0,0,0-6.44,8.4,8.09,8.09,0,0,0-1.27,4.36,4.06,4.06,0,0,0,1.23,3,3.38,3.38,0,0,0,2.78.86C185.81,235.14,187.92,233.77,188.26,231.86Z"/><path class="cls-2" d="M5.87,41.23V39.59A13.88,13.88,0,0,1,9.5,30.24a61.79,61.79,0,0,1,6.88-5.77c2.57-2,3.83-3.67,3.83-5.15A3.56,3.56,0,0,0,18,16.08a8.2,8.2,0,0,0-3.81-.88c-3.53,0-5.32,1.29-5.32,3.84a4.55,4.55,0,0,0,.29,1.49l-2.8,1.24A8.69,8.69,0,0,1,5.87,19a6.3,6.3,0,0,1,2.49-5.4,9.47,9.47,0,0,1,5.81-1.7,10.24,10.24,0,0,1,6.11,1.85,6.37,6.37,0,0,1,2.92,5.53c0,2.15-1.05,4.21-3.12,6.11l-6.3,5.07a13.2,13.2,0,0,0-4.57,7.09L9.13,38H20.21V34.22h3v7Z"/><path class="cls-2" d="M196.93,242v1.64a13.86,13.86,0,0,1-3.64,9.34,62,62,0,0,1-6.87,5.78c-2.58,2-3.83,3.67-3.83,5.15a3.55,3.55,0,0,0,2.22,3.24,8.12,8.12,0,0,0,3.8.87c3.53,0,5.32-1.29,5.32-3.83a4.52,4.52,0,0,0-.28-1.49l2.8-1.24a8.93,8.93,0,0,1,.48,2.73,6.29,6.29,0,0,1-2.5,5.39,9.4,9.4,0,0,1-5.8,1.71,10.22,10.22,0,0,1-6.11-1.85,6.39,6.39,0,0,1-2.93-5.53c0-2.15,1-4.21,3.13-6.12l6.29-5.06a13.26,13.26,0,0,0,4.58-7.09l.08-.37H182.59v3.74h-3v-7Z"/><path class="cls-2" d="M101.4,44.75c-.69-3.92-5-6.71-7.57-7.26a7,7,0,0,0-5.69,1.74,8.3,8.3,0,0,0-2.52,6.15,16.49,16.49,0,0,0,2.6,8.92C93.14,62,98.59,68,101.4,71.5c2.8-3.53,8.25-9.49,13.17-17.2a16.57,16.57,0,0,0,2.61-8.92,8.36,8.36,0,0,0-2.53-6.15A7,7,0,0,0,109,37.49C106.4,38,102.08,40.83,101.4,44.75Z"/><path class="cls-2" d="M101.4,238.52c.68,3.92,5,6.71,7.57,7.26a6.93,6.93,0,0,0,5.68-1.75,8.34,8.34,0,0,0,2.53-6.14,16.54,16.54,0,0,0-2.61-8.92c-4.92-7.71-10.37-13.67-13.17-17.2-2.81,3.53-8.26,9.49-13.18,17.2a16.46,16.46,0,0,0-2.6,8.92A8.28,8.28,0,0,0,88.14,244a7,7,0,0,0,5.69,1.75C96.4,245.23,100.71,242.44,101.4,238.52Z"/></g></g></svg>