<svg xmlns="http://www.w3.org/2000/svg" viewBox="0 0 202.79 283.27"><defs><style>.cls-1{fill:#fff;}.cls-2{fill:#e0010a;}</style></defs><g id="Réteg_2" data-name="Réteg 2"><g id="_ŽÓť_1" data-name="—ŽÓť_1"><rect class="cls-1" width="202.79" height="283.27" rx="15.31" transform="translate(202.79 283.27) rotate(180)"/><path class="cls-2" d="M14.54,51.41c-.34-1.92-2.45-3.28-3.7-3.55a3.41,3.41,0,0,0-2.78.85,4.09,4.09,0,0,0-1.24,3A8,8,0,0,0,8.1,56.07a86.37,86.37,0,0,0,6.44,8.41A86.61,86.61,0,0,0,21,56.07a8,8,0,0,0,1.28-4.36,4.09,4.09,0,0,0-1.24-3,3.41,3.41,0,0,0-2.78-.85C17,48.13,14.87,49.49,14.54,51.41Z"/><path class="cls-2" d="M188.26,231.86c.33,1.91,2.44,3.28,3.7,3.55a3.37,3.37,0,0,0,2.77-.86,4.08,4.08,0,0,0,1.24-3,8.18,8.18,0,0,0-1.27-4.36,86.32,86.32,0,0,0-6.44-8.4,84.74,84.74,0,0,0-6.44,8.4,8.09,8.09,0,0,0-1.27,4.36,4.06,4.06,0,0,0,1.23,3,3.38,3.38,0,0,0,2.78.86C185.81,235.14,187.92,233.77,188.26,231.86Z"/><path class="cls-2" d="M14.46,41.18a7.3,7.3,0,0,1-3.89-1.29,9.39,9.39,0,0,1-3.46-5,24.83,24.83,0,0,1-1.29-6.34l0-.28s-.08-.88-.08-2.19A25.88,25.88,0,0,1,7.3,16.19c1.48-3.36,3.83-5,7.19-5a8.08,8.08,0,0,1,4.56,1.4A10.33,10.33,0,0,1,22.19,16l-2.62,1.66a5.69,5.69,0,0,0-5.08-3.23c-2.91,0-4.74,2.28-5.43,6.78l-.13.84.61-.57a7.1,7.1,0,0,1,4.92-2.07A7.73,7.73,0,0,1,21,23a12.88,12.88,0,0,1,2.28,7.64,11.65,11.65,0,0,1-2.44,7.29A7.85,7.85,0,0,1,14.46,41.18Zm0-18.47a4.63,4.63,0,0,0-3.66,2,5.73,5.73,0,0,0-.45.68,9.18,9.18,0,0,0-.83,7,14.37,14.37,0,0,0,.7,2c1,2.31,2.45,3.49,4.24,3.49a5,5,0,0,0,4.24-2.45,8.23,8.23,0,0,0,1.56-4.89,9.6,9.6,0,0,0-1.41-5.24A5,5,0,0,0,14.46,22.71Z"/><path class="cls-2" d="M188.33,242.08a7.33,7.33,0,0,1,3.9,1.3,9.38,9.38,0,0,1,3.45,5,24.76,24.76,0,0,1,1.29,6.33l0,.28s.08.89.08,2.2a25.69,25.69,0,0,1-1.58,9.86c-1.48,3.36-3.83,5-7.19,5a8.11,8.11,0,0,1-4.56-1.4,10.3,10.3,0,0,1-3.13-3.44l2.61-1.66a5.71,5.71,0,0,0,5.08,3.23c2.91,0,4.74-2.28,5.43-6.78l.13-.84-.6.56a7.11,7.11,0,0,1-4.93,2.08,7.74,7.74,0,0,1-6.52-3.51,12.91,12.91,0,0,1-2.28-7.65,11.64,11.64,0,0,1,2.44-7.28A7.87,7.87,0,0,1,188.33,242.08Zm0,18.48a4.69,4.69,0,0,0,3.67-2,6.43,6.43,0,0,0,.44-.69,9.18,9.18,0,0,0,.83-7,14,14,0,0,0-.7-1.95c-1-2.31-2.45-3.48-4.24-3.48a5,5,0,0,0-4.24,2.45,8.3,8.3,0,0,0-1.56,4.89,9.6,9.6,0,0,0,1.42,5.24A5,5,0,0,0,188.33,260.56Z"/><path class="cls-2" d="M60.56,44.75c-.68-3.92-5-6.71-7.57-7.26a7,7,0,0,0-5.68,1.74,8.36,8.36,0,0,0-2.53,6.15,16.57,16.57,0,0,0,2.61,8.92C52.3,62,57.76,68,60.56,71.5,63.36,68,68.82,62,73.74,54.3a16.57,16.57,0,0,0,2.6-8.92,8.38,8.38,0,0,0-2.52-6.15,7,7,0,0,0-5.69-1.74C65.56,38,61.24,40.83,60.56,44.75Z"/><path class="cls-2" d="M60.56,238.52c.68,3.92,5,6.71,7.57,7.26A7,7,0,0,0,73.82,244a8.36,8.36,0,0,0,2.52-6.14,16.54,16.54,0,0,0-2.6-8.92c-4.92-7.71-10.38-13.67-13.18-17.2-2.8,3.53-8.26,9.49-13.17,17.2a16.54,16.54,0,0,0-2.61,8.92A8.34,8.34,0,0,0,47.31,244,6.93,6.93,0,0,0,53,245.78C55.56,245.23,59.88,242.44,60.56,238.52Z"/><path class="cls-2" d="M142.23,44.75c-.68-3.92-5-6.71-7.57-7.26A7,7,0,0,0,129,39.23a8.36,8.36,0,0,0-2.53,6.15,16.57,16.57,0,0,0,2.61,8.92C134,62,139.43,68,142.23,71.5,145,68,150.49,62,155.41,54.3a16.49,16.49,0,0,0,2.6-8.92,8.34,8.34,0,0,0-2.52-6.15,7,7,0,0,0-5.69-1.74C147.23,38,142.92,40.83,142.23,44.75Z"/><path class="cls-2" d="M60.56,131.94c-.68-3.92-5-6.71-7.57-7.26a7,7,0,0,0-5.68,1.74,8.36,8.36,0,0,0-2.53,6.15,16.57,16.57,0,0,0,2.61,8.92c4.91,7.71,10.37,13.67,13.17,17.2,2.8-3.53,8.26-9.49,13.18-17.2a16.57,16.57,0,0,0,2.6-8.92,8.38,8.38,0,0,0-2.52-6.15,7,7,0,0,0-5.69-1.74C65.56,125.23,61.24,128,60.56,131.94Z"/><path class="cls-2" d="M142.23,131.94c-.68-3.92-5-6.71-7.57-7.26a7,7,0,0,0-5.68,1.74,8.36,8.36,0,0,0-2.53,6.15,16.57,16.57,0,0,0,2.61,8.92c4.91,7.71,10.37,13.67,13.17,17.2,2.81-3.53,8.26-9.49,13.18-17.2a16.49,16.49,0,0,0,2.6-8.92,8.34,8.34,0,0,0-2.52-6.15,7,7,0,0,0-5.69-1.74C147.23,125.23,142.92,128,142.23,131.94Z"/><path class="cls-2" d="M142.23,238.52c.69,3.92,5,6.71,7.57,7.26a7,7,0,0,0,5.69-1.75,8.32,8.32,0,0,0,2.52-6.14,16.46,16.46,0,0,0-2.6-8.92c-4.92-7.71-10.37-13.67-13.18-17.2-2.8,3.53-8.26,9.49-13.17,17.2a16.54,16.54,0,0,0-2.61,8.92A8.34,8.34,0,0,0,129,244a6.93,6.93,0,0,0,5.68,1.75C137.23,245.23,141.55,242.44,142.23,238.52Z"/></g></g></svg>