<svg xmlns="http://www.w3.org/2000/svg" viewBox="0 0 202.79 283.27"><defs><style>.cls-1{fill:#fff;}.cls-2{fill:#e0010a;}</style></defs><g id="Réteg_2" data-name="Réteg 2"><g id="_ŽÓť_1" data-name="—ŽÓť_1"><rect class="cls-1" width="202.79" height="283.27" rx="15.31"/><path class="cls-2" d="M14.54,51.41c-.34-1.92-2.45-3.28-3.7-3.55a3.41,3.41,0,0,0-2.78.85,4.09,4.09,0,0,0-1.24,3A8.11,8.11,0,0,0,8.1,56.07a86.37,86.37,0,0,0,6.44,8.41A86.61,86.61,0,0,0,21,56.07a8,8,0,0,0,1.28-4.36,4.09,4.09,0,0,0-1.24-3,3.41,3.41,0,0,0-2.78-.85C17,48.13,14.87,49.49,14.54,51.41Z"/><path class="cls-2" d="M188.26,231.86c.33,1.91,2.44,3.28,3.7,3.55a3.37,3.37,0,0,0,2.77-.86,4.08,4.08,0,0,0,1.24-3,8.18,8.18,0,0,0-1.27-4.36,86.32,86.32,0,0,0-6.44-8.4,84.74,84.74,0,0,0-6.44,8.4,8.09,8.09,0,0,0-1.27,4.36,4.06,4.06,0,0,0,1.23,3,3.38,3.38,0,0,0,2.78.86C185.81,235.14,187.92,233.77,188.26,231.86Z"/><path class="cls-2" d="M101.4,124.54c-1.21-7-8.88-11.92-13.44-12.89-3.44-.73-7.44.75-10.09,3.09-4.13,3.64-4.38,8.77-4.49,10.91-.32,6.63,2.85,13,4.63,15.84,8.73,13.69,18.41,24.26,23.39,30.53,5-6.27,14.66-16.84,23.38-30.53,1.78-2.79,5-9.21,4.63-15.84-.1-2.14-.35-7.27-4.48-10.91-2.66-2.34-6.65-3.82-10.09-3.09C110.27,112.62,102.61,117.58,101.4,124.54Z"/><path class="cls-2" d="M16.6,43V39.91h1.74l-.67-3.85H11.42l-.68,3.85h1.73V43H5.34V39.91H7.82L12.6,13h3.83l4.82,26.93h2.48V43ZM14.23,20l-2.3,13h5.21L14.82,20Z"/><path class="cls-2" d="M186.19,243.78v3.06h-1.73l.66,3.85h6.26l.68-3.85h-1.73v-3.06h7.12v3.06H195l-4.78,26.94h-3.83l-4.82-26.94h-2.47v-3.06Zm2.38,22.94,2.3-13h-5.21l2.32,13Z"/></g></g></svg>