<svg xmlns="http://www.w3.org/2000/svg" viewBox="0 0 202.79 283.27"><defs><style>.cls-1{fill:#fff;}</style></defs><g id="Réteg_2" data-name="Réteg 2"><g id="_ŽÓť_1" data-name="—ŽÓť_1"><rect class="cls-1" width="202.79" height="283.27" rx="15.31"/><path d="M14.54,67.08h2.22a11.65,11.65,0,0,1-1-2.23,11.94,11.94,0,0,1-.55-3.95.15.15,0,0,1,.3,0c.33,1.92,1.44,3.28,2.69,3.55A3.41,3.41,0,0,0,21,63.58a4.09,4.09,0,0,0,1.24-3A8,8,0,0,0,21,56.22a86.61,86.61,0,0,0-6.43-8.41A86.37,86.37,0,0,0,8.1,56.22a8.11,8.11,0,0,0-1.28,4.36,4.09,4.09,0,0,0,1.24,3,3.41,3.41,0,0,0,2.78.85c1.25-.27,2.36-1.63,2.7-3.55a.15.15,0,0,1,.29,0,11.85,11.85,0,0,1-1.52,6.18Z"/><path d="M188.26,216.19H186a11.69,11.69,0,0,1,1.53,6.18.15.15,0,0,1-.3,0c-.34-1.92-1.45-3.28-2.7-3.55a3.41,3.41,0,0,0-2.78.85,4.06,4.06,0,0,0-1.23,3,8.06,8.06,0,0,0,1.27,4.36,86.37,86.37,0,0,0,6.44,8.41,88,88,0,0,0,6.44-8.41,8.15,8.15,0,0,0,1.27-4.36,4.08,4.08,0,0,0-1.24-3,3.4,3.4,0,0,0-2.77-.85c-1.26.27-2.37,1.63-2.7,3.55a.15.15,0,0,1-.3,0,11.69,11.69,0,0,1,1.53-6.18Z"/><path d="M14.3,41.23c-3.13,0-5.67-1.69-7.56-5l2.64-1.63C10.66,36.82,12.31,38,14.3,38c3.07,0,5-2.54,5.77-7.56l.12-.78-.59.49A7.7,7.7,0,0,1,14.5,32a7.86,7.86,0,0,1-6.36-3.17,11.19,11.19,0,0,1-2.47-7.17,11.11,11.11,0,0,1,2.47-7.17A7.84,7.84,0,0,1,14.5,11.3c3.16,0,5.47,1.69,7.06,5.15a23.74,23.74,0,0,1,1.84,9.78,23.78,23.78,0,0,1-1.81,9.91C20,39.56,17.64,41.23,14.3,41.23Zm.18-26.66a5.13,5.13,0,0,0-4.25,2.3,8.11,8.11,0,0,0,0,9.59,5.15,5.15,0,0,0,4.25,2.3A5,5,0,0,0,18.25,27a8.47,8.47,0,0,0,1.92-3.83v-.11C19.5,17.43,17.59,14.57,14.48,14.57Z"/><path d="M188.49,242c3.14,0,5.68,1.69,7.56,5l-2.64,1.63c-1.28-2.25-2.93-3.38-4.92-3.38-3.07,0-5,2.54-5.77,7.56l-.11.78.58-.5a7.76,7.76,0,0,1,5.1-1.9,7.89,7.89,0,0,1,6.37,3.17,11.64,11.64,0,0,1,0,14.34,7.88,7.88,0,0,1-6.37,3.21c-3.16,0-5.47-1.69-7.06-5.16a27.46,27.46,0,0,1,0-19.69C182.77,243.7,185.15,242,188.49,242Zm-.18,26.66a5.13,5.13,0,0,0,4.25-2.3,8.11,8.11,0,0,0,0-9.59,5.13,5.13,0,0,0-4.25-2.3,4.94,4.94,0,0,0-3.76,1.75,8.27,8.27,0,0,0-1.92,3.83v.11C183.29,265.84,185.2,268.7,188.31,268.7Z"/><path d="M60.56,74.16h4.56A23.93,23.93,0,0,1,62,61.51a.31.31,0,0,1,.61,0c.68,3.92,3,6.71,5.52,7.26A7,7,0,0,0,73.82,67a8.36,8.36,0,0,0,2.52-6.14,16.54,16.54,0,0,0-2.6-8.92c-4.92-7.71-10.38-13.67-13.18-17.2-2.8,3.53-8.26,9.49-13.17,17.2a16.54,16.54,0,0,0-2.61,8.92A8.34,8.34,0,0,0,47.31,67,6.93,6.93,0,0,0,53,68.74c2.57-.55,4.84-3.34,5.52-7.26a.31.31,0,0,1,.62,0A24,24,0,0,1,56,74.16Z"/><path d="M60.56,209.11H56a24,24,0,0,1,3.13,12.64.31.31,0,0,1-.62,0c-.68-3.92-2.95-6.71-5.52-7.26a7,7,0,0,0-5.68,1.74,8.36,8.36,0,0,0-2.53,6.15,16.57,16.57,0,0,0,2.61,8.92c4.91,7.71,10.37,13.67,13.17,17.2,2.8-3.53,8.26-9.49,13.18-17.2a16.57,16.57,0,0,0,2.6-8.92,8.38,8.38,0,0,0-2.52-6.15,7,7,0,0,0-5.69-1.74c-2.57.55-4.84,3.34-5.52,7.26a.31.31,0,0,1-.61,0,23.92,23.92,0,0,1,3.12-12.64Z"/><path d="M60.56,151H56a24.24,24.24,0,0,1,2,4.57,24.48,24.48,0,0,1,1.13,8.08.31.31,0,0,1-.62,0c-.68-3.92-2.95-6.71-5.52-7.26a6.93,6.93,0,0,0-5.68,1.75,8.34,8.34,0,0,0-2.53,6.14,16.54,16.54,0,0,0,2.61,8.92c4.91,7.71,10.37,13.67,13.17,17.2,2.8-3.53,8.26-9.49,13.18-17.2a16.54,16.54,0,0,0,2.6-8.92,8.36,8.36,0,0,0-2.52-6.14,7,7,0,0,0-5.69-1.75c-2.57.55-4.84,3.34-5.52,7.26a.31.31,0,0,1-.61,0A24,24,0,0,1,65.12,151Z"/><path d="M60.56,132.29h4.56A24,24,0,0,1,62,119.64a.31.31,0,0,1,.61,0c.68,3.92,3,6.72,5.52,7.26a6.92,6.92,0,0,0,5.69-1.74A8.37,8.37,0,0,0,76.34,119a16.54,16.54,0,0,0-2.6-8.92c-4.92-7.72-10.38-13.67-13.18-17.21-2.8,3.54-8.26,9.49-13.17,17.21A16.54,16.54,0,0,0,44.78,119a8.35,8.35,0,0,0,2.53,6.14A6.89,6.89,0,0,0,53,126.86c2.57-.54,4.84-3.34,5.52-7.26a.31.31,0,0,1,.62,0A24.48,24.48,0,0,1,58,127.72a24.24,24.24,0,0,1-2,4.57Z"/><path d="M142.23,209.11h-4.56a23.77,23.77,0,0,1,2,4.56,24.52,24.52,0,0,1,1.13,8.08.31.31,0,0,1-.61,0c-.69-3.92-3-6.71-5.53-7.26a7,7,0,0,0-5.68,1.74,8.36,8.36,0,0,0-2.53,6.15,16.57,16.57,0,0,0,2.61,8.92c4.91,7.71,10.37,13.67,13.17,17.2,2.81-3.53,8.26-9.49,13.18-17.2a16.49,16.49,0,0,0,2.6-8.92,8.34,8.34,0,0,0-2.52-6.15,7,7,0,0,0-5.69-1.74c-2.57.55-4.84,3.34-5.52,7.26a.31.31,0,0,1-.61,0,23.92,23.92,0,0,1,3.12-12.64Z"/><path d="M142.23,74.16h4.56a23.93,23.93,0,0,1-3.12-12.65.31.31,0,0,1,.61,0c.68,3.92,2.95,6.71,5.52,7.26A7,7,0,0,0,155.49,67,8.32,8.32,0,0,0,158,60.85a16.46,16.46,0,0,0-2.6-8.92c-4.92-7.71-10.37-13.67-13.18-17.2-2.8,3.53-8.26,9.49-13.17,17.2a16.54,16.54,0,0,0-2.61,8.92A8.34,8.34,0,0,0,129,67a6.93,6.93,0,0,0,5.68,1.75c2.57-.55,4.84-3.34,5.53-7.26a.31.31,0,0,1,.61,0,24.57,24.57,0,0,1-1.13,8.09,23.77,23.77,0,0,1-2,4.56Z"/><path d="M101.4,161.35H106a23.77,23.77,0,0,1-2-4.56,24.55,24.55,0,0,1-1.13-8.08.31.31,0,0,1,.61,0c.69,3.92,3,6.71,5.53,7.26a6.93,6.93,0,0,0,5.68-1.75,8.32,8.32,0,0,0,2.53-6.14,16.57,16.57,0,0,0-2.61-8.92c-4.92-7.71-10.37-13.67-13.17-17.2-2.81,3.53-8.26,9.49-13.18,17.2a16.49,16.49,0,0,0-2.6,8.92,8.26,8.26,0,0,0,2.52,6.14,7,7,0,0,0,5.69,1.75c2.57-.55,4.84-3.34,5.52-7.26a.31.31,0,0,1,.61,0,24.26,24.26,0,0,1-1.12,8.08,23.76,23.76,0,0,1-2,4.56Z"/><path d="M142.23,132.29h4.56a24,24,0,0,1-3.12-12.65.31.31,0,0,1,.61,0c.68,3.92,2.95,6.72,5.52,7.26a6.92,6.92,0,0,0,5.69-1.74A8.33,8.33,0,0,0,158,119a16.46,16.46,0,0,0-2.6-8.92c-4.92-7.72-10.37-13.67-13.18-17.21-2.8,3.54-8.26,9.49-13.17,17.21a16.54,16.54,0,0,0-2.61,8.92,8.35,8.35,0,0,0,2.53,6.14,6.89,6.89,0,0,0,5.68,1.74c2.57-.54,4.84-3.34,5.53-7.26a.31.31,0,0,1,.61,0,24.48,24.48,0,0,1-1.13,8.08,23.61,23.61,0,0,1-2,4.57Z"/><path d="M142.23,151h-4.56a23.61,23.61,0,0,1,2,4.57,24.48,24.48,0,0,1,1.13,8.08.31.31,0,0,1-.61,0c-.69-3.92-3-6.71-5.53-7.26a6.93,6.93,0,0,0-5.68,1.75,8.34,8.34,0,0,0-2.53,6.14,16.54,16.54,0,0,0,2.61,8.92c4.91,7.71,10.37,13.67,13.17,17.2,2.81-3.53,8.26-9.49,13.18-17.2a16.46,16.46,0,0,0,2.6-8.92,8.32,8.32,0,0,0-2.52-6.14,7,7,0,0,0-5.69-1.75c-2.57.55-4.84,3.34-5.52,7.26a.31.31,0,0,1-.61,0A24,24,0,0,1,146.79,151Z"/></g></g></svg>