<svg xmlns="http://www.w3.org/2000/svg" viewBox="0 0 202.79 283.27"><defs><style>.cls-1{fill:#fff;}</style></defs><g id="Réteg_2" data-name="Réteg 2"><g id="_ŽÓť_1" data-name="—ŽÓť_1"><rect class="cls-1" width="202.79" height="283.27" rx="15.31"/><path d="M14.54,67.08h2.22a11.65,11.65,0,0,1-1-2.23,11.94,11.94,0,0,1-.55-3.95.15.15,0,0,1,.3,0c.33,1.92,1.44,3.28,2.69,3.55A3.41,3.41,0,0,0,21,63.58a4.09,4.09,0,0,0,1.24-3A8,8,0,0,0,21,56.22a86.61,86.61,0,0,0-6.43-8.41A86.37,86.37,0,0,0,8.1,56.22a8.11,8.11,0,0,0-1.28,4.36,4.09,4.09,0,0,0,1.24,3,3.41,3.41,0,0,0,2.78.85c1.25-.27,2.36-1.63,2.7-3.55a.15.15,0,0,1,.29,0,11.85,11.85,0,0,1-1.52,6.18Z"/><path d="M188.26,216.19H186a11.69,11.69,0,0,1,1.53,6.18.15.15,0,0,1-.3,0c-.34-1.92-1.45-3.28-2.7-3.55a3.41,3.41,0,0,0-2.78.85,4.06,4.06,0,0,0-1.23,3,8.06,8.06,0,0,0,1.27,4.36,86.37,86.37,0,0,0,6.44,8.41,88,88,0,0,0,6.44-8.41,8.15,8.15,0,0,0,1.27-4.36,4.08,4.08,0,0,0-1.24-3,3.4,3.4,0,0,0-2.77-.85c-1.26.27-2.37,1.63-2.7,3.55a.15.15,0,0,1-.3,0,11.69,11.69,0,0,1,1.53-6.18Z"/><path d="M101.4,176.72h8.1A42.38,42.38,0,0,1,104,154.28a.54.54,0,0,1,1.08-.07c1.21,7,5.24,11.91,9.81,12.88,3.44.74,7.43-.75,10.09-3.09,4.13-3.64,4.38-8.76,4.48-10.9.33-6.64-2.85-13.06-4.62-15.84-8.73-13.69-18.42-24.27-23.39-30.54-5,6.27-14.66,16.85-23.39,30.54-1.78,2.78-5,9.2-4.63,15.84.11,2.14.36,7.26,4.49,10.9,2.65,2.34,6.65,3.83,10.09,3.09,4.56-1,8.59-5.92,9.8-12.88a.55.55,0,0,1,1.09.07,43.34,43.34,0,0,1-2,14.34,42.17,42.17,0,0,1-3.55,8.1Z"/><path d="M16.6,42.1V39h1.74l-.67-3.85H11.42L10.74,39h1.73V42.1H5.34V39H7.82L12.6,12.1h3.83L21.25,39h2.48V42.1ZM14.23,19.16l-2.3,13h5.21l-2.32-13Z"/><path d="M186.19,242.91V246h-1.73l.66,3.85h6.26l.68-3.85h-1.73v-3.06h7.12V246H195l-4.78,26.94h-3.83L181.54,246h-2.47v-3.06Zm2.38,22.94,2.3-13h-5.21l2.32,13Z"/></g></g></svg>