<svg xmlns="http://www.w3.org/2000/svg" viewBox="0 0 202.79 283.27"><defs><style>.cls-1{fill:#fff;}.cls-2{fill:#f2c304;}.cls-3{fill:#e0010a;}.cls-4{fill:#122166;}</style></defs><g id="Réteg_2" data-name="Réteg 2"><g id="_ŽÓť_1" data-name="—ŽÓť_1"><path class="cls-1" d="M15.31,0H187.48a15.31,15.31,0,0,1,15.31,15.31V268a15.31,15.31,0,0,1-15.31,15.31H15.31A15.32,15.32,0,0,1,0,268V15.31A15.32,15.32,0,0,1,15.31,0Z"/><polygon points="22.01 13.97 24.17 13.97 24.17 11.23 15.87 11.23 15.87 13.97 18.65 13.97 10.42 25.61 10.42 13.97 13.21 13.97 13.21 11.23 4.9 11.23 4.9 13.97 7.68 13.97 7.68 38.48 4.9 38.48 4.9 41.23 13.21 41.23 13.21 38.48 10.42 38.48 10.42 30.35 13.52 25.98 18.87 38.48 15.87 38.48 15.87 41.23 24.17 41.23 24.17 38.48 21.86 38.48 15.37 23.36 22.01 13.97"/><polygon points="180.78 269.29 178.62 269.29 178.62 272.03 186.93 272.03 186.93 269.29 184.14 269.29 192.37 257.66 192.37 269.29 189.59 269.29 189.59 272.03 197.9 272.03 197.9 269.29 195.11 269.29 195.11 244.78 197.9 244.78 197.9 242.04 189.59 242.04 189.59 244.78 192.37 244.78 192.37 252.92 189.28 257.29 183.92 244.78 186.93 244.78 186.93 242.04 178.62 242.04 178.62 244.78 180.94 244.78 187.42 259.91 180.78 269.29"/><path d="M155.48,127.06q3,0,6.09,0c4.24.08,8.3.31,12.15.64v39a44.89,44.89,0,0,1-19.32-35.69,3.2,3.2,0,0,0,1.18-1.41A3.28,3.28,0,0,0,155.48,127.06Z"/><path d="M56.4,88.14c5.51,6.67,17.91,23.58,18.88,47.57a75.75,75.75,0,0,1-2.7,23.15L47.87,147.12a6.55,6.55,0,0,1,.15,3,6.78,6.78,0,0,1-2.62,4.06c-1.07.74-2.19.91-4.39,1.22a30,30,0,0,1-4.46.28l0,.35c1.82.08,3.69.14,5.61.17,1.77,0,3.5,0,5.18,0a3.2,3.2,0,0,1-.06-2.68,3.15,3.15,0,0,1,2.93-1.68,3.23,3.23,0,0,1,2.29,1,3.33,3.33,0,0,1,.82,2.62l17.4,8.29A85.56,85.56,0,0,1,61.8,180,85.13,85.13,0,0,1,50.45,193.2c1.9,1.08,3.9,2.18,6,3.26q3.91,2,7.58,3.61a5.86,5.86,0,0,1-.29-1.66,5.43,5.43,0,0,1,.58-2.87,4.31,4.31,0,0,1,3.5-2.43,3,3,0,0,1,.78.13,10,10,0,0,1-.2-1.59,5.9,5.9,0,0,1,.25-2.64,4.57,4.57,0,0,1,2.47-2.42,4,4,0,0,1,1.32-.25A82.87,82.87,0,0,0,82.9,165.16,83,83,0,0,0,85.84,153h21.31q.27-11.37.55-22.73a100.87,100.87,0,0,1,8.8-31.85c-.18,0-3,0-4.45-1.6A7.4,7.4,0,0,1,111,95.09a7.6,7.6,0,0,1-.37-1.12c-.28-1.17.29-4.12,2-7.68a16.57,16.57,0,0,1-3.2,5.57,5.42,5.42,0,0,1-1.5,1.13,5.5,5.5,0,0,1-2.82.53A5.9,5.9,0,0,1,99.75,86a5.42,5.42,0,0,1-4.09,1.8,5,5,0,0,1-4.55-3.33,4.34,4.34,0,0,1,0-2.16,9.15,9.15,0,0,1-5,2.78l-1.51.82a100.73,100.73,0,0,1,8.83,24.87,100.84,100.84,0,0,1,2.2,19.54H85.54a85.38,85.38,0,0,0-4.25-19.38A85.92,85.92,0,0,0,66.54,84.56Z"/><path class="cls-2" d="M69.74,26.81q2.74,4.94,5.47,9.87l2.24,4,1.1,2c0,.05,0,.09.07.14l5.84,10.54A134.67,134.67,0,0,1,134.78,52l7.67-12.18c.79-1.25,1.58-2.49,2.36-3.74q2.91-4.62,5.83-9.24Z"/><path class="cls-3" d="M137.76,47.24a9.69,9.69,0,0,1-7.43.28A9.36,9.36,0,0,1,126,44a11.34,11.34,0,0,1-7.64,3.14A11.47,11.47,0,0,1,110,43.41,11.21,11.21,0,0,1,94.1,45.46,9.38,9.38,0,0,1,87.19,50a8.73,8.73,0,0,1-5.41-1.43l1.54,2.79a138.3,138.3,0,0,1,52.76-1.41Z"/><path class="cls-1" d="M72.62,140.83a34.76,34.76,0,0,1-16.29-12.64,35.65,35.65,0,0,1-6.17-19.66,35.3,35.3,0,0,1,1.55-10.25,34.82,34.82,0,0,1,3.37-7.51,75.89,75.89,0,0,1,13.6,24.34A76,76,0,0,1,72.62,140.83Z"/><path class="cls-3" d="M31.85,103.1a94,94,0,0,1,22-13.85l1.22,1.52a36.56,36.56,0,0,0-4.88,19.36,34.19,34.19,0,0,0,2.3,11.11,34.63,34.63,0,0,0,8.78,12.63,35.29,35.29,0,0,0,11.34,7,74.06,74.06,0,0,1-.81,8.87,75.38,75.38,0,0,1-1.69,8L61,153.34a53.69,53.69,0,0,0-2.15-15.78,57.25,57.25,0,0,0-13-22.51A66.42,66.42,0,0,0,31.85,103.1Z"/><path class="cls-3" d="M144.23,125.27l5.27,2.51a5.65,5.65,0,0,1,1.78-3.79,6.44,6.44,0,0,1,3.18-1.27,11.6,11.6,0,0,1,3.43-.19q0-9.5,0-19a73.58,73.58,0,0,0-5.74,7.15A72.35,72.35,0,0,0,144.23,125.27Z"/><path class="cls-1" d="M70.12,157.66a72.61,72.61,0,0,0,2.48-21.84c-.94-23.14-12.89-39.48-18.27-46l-.47-.6,2.54-1.11c5.51,6.67,17.91,23.58,18.88,47.57a75.75,75.75,0,0,1-2.7,23.15Z"/><path class="cls-4" d="M63.69,103.74a20.66,20.66,0,0,0,7.87,22.47,75.29,75.29,0,0,0-3.23-12.1A75,75,0,0,0,63.69,103.74Z"/><path class="cls-2" d="M48.11,147.09c-.15-1.09-.34-2.18-.57-3.24-2.78-12.68-11.31-21.73-18.47-27.34v-11l2.78-2.45c6.56,4.36,23.24,16.78,27.91,38.07A53.46,53.46,0,0,1,61,153.34Z"/><path class="cls-2" d="M157.88,103.53a72.06,72.06,0,0,0-13.57,21.53L132.1,119.5a85.08,85.08,0,0,1,20.25-29.43l5.53,3.33Z"/><path class="cls-2" d="M130.34,96.93a81.22,81.22,0,0,0-13,31.15l-.41,2.19H107.7l.4-3a99.72,99.72,0,0,1,8.4-28.82,5.56,5.56,0,0,0,2.25-.7,5.63,5.63,0,0,0,2.1-2.09l2.49-6.24,1.45-.31c.23,3.93,1.77,7,4.09,7.72A3.68,3.68,0,0,0,130.34,96.93Z"/><path class="cls-2" d="M84.61,85.86a98.72,98.72,0,0,1,6.52,16,100,100,0,0,1,4.4,25.65l.11,2.79H85.54l-.3-2.35a84.57,84.57,0,0,0-6.15-22.76,85,85,0,0,0-12.55-20.6L68.6,84a3.75,3.75,0,0,0,1,.66A5.09,5.09,0,0,0,71,86a5,5,0,0,0,2.9.71,7.11,7.11,0,0,0,2.51.6c.23,0,.45,0,.65,0a9.81,9.81,0,0,0,4-.3,13.16,13.16,0,0,0,2.24-.57A13.77,13.77,0,0,0,84.61,85.86Z"/><rect class="cls-3" x="86.4" y="137.1" width="29.99" height="9.06"/><path class="cls-2" d="M107.71,141.63a9.2,9.2,0,0,0,0-1.18c-.39-4.6-4.5-7.68-6.29-8.87-1.8,1.19-5.9,4.27-6.3,8.87a9.2,9.2,0,0,0,0,1.18,9.32,9.32,0,0,0,0,1.19c.4,4.6,4.5,7.68,6.3,8.86,1.79-1.18,5.9-4.26,6.29-8.86A9.32,9.32,0,0,0,107.71,141.63Z"/><path class="cls-3" d="M127.66,96.2a82.68,82.68,0,0,0-12.94,31.39h-4a96.93,96.93,0,0,1,10.09-32l2.49-6.24,1.37-.29A9.54,9.54,0,0,0,126,94.21,9.43,9.43,0,0,0,127.66,96.2Z"/><path class="cls-3" d="M71,86a86.29,86.29,0,0,1,10.54,18.14,86.74,86.74,0,0,1,6.35,23.48h4.95a97.7,97.7,0,0,0-4.28-25,97.67,97.67,0,0,0-6.5-15.84,11,11,0,0,1-2.64.55,11.14,11.14,0,0,1-2.36,0,7.4,7.4,0,0,1-1.28-.07,7.12,7.12,0,0,1-1.88-.53,4.64,4.64,0,0,1-1.42-.1A4.8,4.8,0,0,1,71,86Z"/><path class="cls-4" d="M78.83,87.69h-.34L77,87.61,77,87l1.51.07A6.49,6.49,0,0,0,84.2,84.2c3.49-5.07,5.92-10.68,7.93-18.21A107.43,107.43,0,0,0,94.62,53.8L95,51.42l.65.08-.35,2.39a106.68,106.68,0,0,1-2.51,12.27c-2,7.61-4.49,13.28-8,18.39A7.14,7.14,0,0,1,78.83,87.69Z"/><path class="cls-4" d="M76.68,87.62a5.2,5.2,0,0,1-1-.09L73.65,87l.16-.64,2.06.52a4.29,4.29,0,0,0,4-1.33,31,31,0,0,0,2.2-2.86c3.28-4.79,5.61-10.15,7.53-17.38A104.23,104.23,0,0,0,92,53.41l.24-1.61.66.1-.24,1.61a108.17,108.17,0,0,1-2.45,12c-1.95,7.3-4.3,12.73-7.63,17.58A28.77,28.77,0,0,1,80.36,86,4.92,4.92,0,0,1,76.68,87.62Z"/><path class="cls-4" d="M91,82.58,90.78,82a11.15,11.15,0,0,0,5.82-5.82,60.85,60.85,0,0,0,3-8.61,107.43,107.43,0,0,0,2.69-12.64l.59-4.32.65.09L103,55a107.55,107.55,0,0,1-2.72,12.71,60.46,60.46,0,0,1-3.05,8.71A11.85,11.85,0,0,1,91,82.58Z"/><path class="cls-4" d="M86.19,85.36l-.14-.64c3.47-.77,4.84-2.45,6.31-5.5a67,67,0,0,0,4.8-12.37A106,106,0,0,0,99.8,54.54l.5-3.73.66.08-.51,3.74A106.54,106.54,0,0,1,97.8,67,67.76,67.76,0,0,1,93,79.51C91.43,82.67,89.9,84.54,86.19,85.36Z"/><path d="M92.85,127.92H87.9a.32.32,0,0,1-.32-.29,86.79,86.79,0,0,0-6.33-23.39,86.06,86.06,0,0,0-10.5-18.07.33.33,0,0,1,.53-.4A87.2,87.2,0,0,1,81.86,104a86.86,86.86,0,0,1,6.33,23.28h4.32a97,97,0,0,0-4.26-24.54,96.64,96.64,0,0,0-6.47-15.79.34.34,0,0,1,.14-.45.32.32,0,0,1,.44.15,96.76,96.76,0,0,1,6.52,15.9,97.71,97.71,0,0,1,4.3,25,.32.32,0,0,1-.09.24A.35.35,0,0,1,92.85,127.92Z"/><path class="cls-4" d="M73.56,87a5.94,5.94,0,0,1-.72,0,5.15,5.15,0,0,1-3.49-2.15l.54-.37a4.49,4.49,0,0,0,3,1.86,4.32,4.32,0,0,0,3.38-.93,20,20,0,0,0,3.6-4.17c3.11-4.53,5.32-9.65,7.17-16.58A103.16,103.16,0,0,0,89.45,53l.12-.79.65.1-.12.79a102.21,102.21,0,0,1-2.39,11.67c-1.86,7-4.1,12.18-7.26,16.78a20.17,20.17,0,0,1-3.73,4.31A4.93,4.93,0,0,1,73.56,87Z"/><path class="cls-4" d="M73.62,81.38l-.39-.53q.3-.22.6-.48a9.33,9.33,0,0,0,2.08-2.57A68.72,68.72,0,0,0,82,63.29a70.26,70.26,0,0,0,2.11-10l.65.09a70.28,70.28,0,0,1-2.13,10.06,69.23,69.23,0,0,1-6.18,14.65,10.2,10.2,0,0,1-2.22,2.74C74.05,81.05,73.83,81.23,73.62,81.38Z"/><path d="M84.46,53.7a.32.32,0,0,1-.28-.17l-1.54-2.77q-2.16-3.88-4.3-7.77l-.09-.15L69.46,27a.33.33,0,0,1,.13-.45.32.32,0,0,1,.44.13l8.81,15.88a.54.54,0,0,0,.07.13q2.15,3.9,4.31,7.78L84.63,53a135.4,135.4,0,0,1,50-1.39l7.57-12,2.35-3.74,5.83-9.24a.33.33,0,0,1,.45-.1.32.32,0,0,1,.1.45l-5.82,9.25L142.73,40l-7.67,12.18a.35.35,0,0,1-.33.15,136.3,136.3,0,0,0-22.49-1.71A134.87,134.87,0,0,0,84.53,53.7Z"/><path d="M83.32,51.64a.33.33,0,0,1-.32-.26.32.32,0,0,1,.25-.39,138.39,138.39,0,0,1,52.88-1.41.33.33,0,0,1-.1.65,137.93,137.93,0,0,0-52.64,1.4Z"/><path class="cls-4" d="M123.39,89.71l-.11-.65a14.37,14.37,0,0,0,5.2-1.83c6.26-4.39,6.24-15.13,6.21-27.56,0-2.58-.09-5.16-.24-7.68l.66,0c.15,2.53.24,5.13.24,7.72,0,12.61.05,23.51-6.5,28.1A14.83,14.83,0,0,1,123.39,89.71Z"/><path class="cls-4" d="M105.53,91.64a3.29,3.29,0,0,1-1.54-.39l-.68-.37a3.68,3.68,0,0,1-1.48-5L105,80.05l.58.31-3.14,5.85a3,3,0,0,0,1.21,4.09l.68.37a2.59,2.59,0,0,0,3.51-1l2.38-3.92.56.34L108.38,90A3.22,3.22,0,0,1,105.53,91.64Z"/><path class="cls-4" d="M105.41,89.29h-.07a2.13,2.13,0,0,1-1.72-1.15,2.38,2.38,0,0,1,0-2.1l2.51-4.62.58.31-2.51,4.62a1.7,1.7,0,0,0,0,1.48,1.5,1.5,0,0,0,1.16.8h0a1.43,1.43,0,0,0,1.28-.91L108.6,84l.59.3L107.29,88A2.08,2.08,0,0,1,105.41,89.29Z"/><path class="cls-4" d="M105.52,93.87a5.43,5.43,0,0,1-2.6-.66l-.68-.37a5.91,5.91,0,0,1-2.37-8l3.5-6.42.58.32-3.5,6.41a5.24,5.24,0,0,0,2.11,7.11l.67.37a4.84,4.84,0,0,0,6.55-1.94l2.47-4.56.58.31L110.36,91a5.45,5.45,0,0,1-3.27,2.64A5.68,5.68,0,0,1,105.52,93.87Z"/><path class="cls-4" d="M95.71,88.08a5.17,5.17,0,0,1-4.61-2.83,4.92,4.92,0,0,1-.32-3.06l.64.14A4.27,4.27,0,0,0,91.7,85a4.36,4.36,0,0,0,2.83,2.29,5.11,5.11,0,0,0,5-1.54l.48.46A6,6,0,0,1,95.71,88.08Z"/><path class="cls-4" d="M95.87,85.84a3.38,3.38,0,0,1-.94-.13,3.82,3.82,0,0,1-2.72-4.36l.65.12a3.1,3.1,0,0,0,5.85,1.9l3.08-6.7.6.28-3.08,6.7A3.84,3.84,0,0,1,95.87,85.84Z"/><path class="cls-4" d="M95.67,83.87h-.14a1.41,1.41,0,0,1-.61-.22,2.41,2.41,0,0,1-.85-1.12,5.19,5.19,0,0,1-.43-2.21l.66,0a4.58,4.58,0,0,0,.37,1.93,1.75,1.75,0,0,0,.59.82,1,1,0,0,0,.34.13c1.2.14,3.12-3.09,4.81-8.24l.62.2C100,78.45,97.85,83.87,95.67,83.87Z"/><path class="cls-4" d="M96.29,81l-.58-.32c.57-1,1.11-2.13,1.61-3.19.6-1.28,1.17-2.58,1.69-3.88l.61.24c-.52,1.31-1.1,2.63-1.7,3.92C97.41,78.87,96.86,80,96.29,81Z"/><path class="cls-4" d="M116.41,96.61a3.09,3.09,0,0,1-1-.15l-.71-.22a3.55,3.55,0,0,1-2.3-4.44l1.46-4.73.63.2L113.08,92A2.88,2.88,0,0,0,115,95.61l.71.23a2.49,2.49,0,0,0,1.89-.17,2.42,2.42,0,0,0,1.21-1.45l2.08-4.46.6.28-2.06,4.42a3.11,3.11,0,0,1-1.53,1.8A3.19,3.19,0,0,1,116.41,96.61Z"/><path class="cls-4" d="M116,94.51h0a2,2,0,0,1-1.29-.51,2.32,2.32,0,0,1-.57-2.4l1.29-3.95.62.2-1.28,4a1.65,1.65,0,0,0,.38,1.71,1.33,1.33,0,0,0,.85.34h0a1.7,1.7,0,0,0,1.47-1.28l1.36-3.42.61.25-1.35,3.39A2.32,2.32,0,0,1,116,94.51Z"/><path d="M86.54,48.52a7.29,7.29,0,0,1-4-1.22L80.08,46a.32.32,0,0,1-.14-.44.32.32,0,0,1,.44-.15l2.53,1.31A6.65,6.65,0,0,0,87,47.84a7.15,7.15,0,0,0,5.26-3.45l1-1.76a.31.31,0,0,1,.22-.15.32.32,0,0,1,.27.06l1.6,1.26a9.29,9.29,0,0,0,6.45,1.93,9.4,9.4,0,0,0,6.47-3.6l1.31-1.72a.34.34,0,0,1,.25-.13.36.36,0,0,1,.26.11l1.44,1.6a9.42,9.42,0,0,0,6.69,3,9.15,9.15,0,0,0,6.24-2.54L126.07,41a.31.31,0,0,1,.26-.09.33.33,0,0,1,.24.14l1.19,1.79a7.44,7.44,0,0,0,3.34,2.74,8.43,8.43,0,0,0,8.55-1.9.33.33,0,0,1,.43.49,9.06,9.06,0,0,1-9.22,2,8.11,8.11,0,0,1-3.65-3l-1-1.47L125,42.93a9.82,9.82,0,0,1-6.64,2.73,10.15,10.15,0,0,1-7.24-3.23l-1.18-1.3-1.06,1.4A9.76,9.76,0,0,1,95,44.32l-1.31-1-.84,1.43a7.85,7.85,0,0,1-5.78,3.77Z"/><path d="M86.54,50.3a9.19,9.19,0,0,1-4.94-1.5.33.33,0,1,1,.36-.55,8.49,8.49,0,0,0,5.2,1.37c4.18-.33,6.42-3.92,6.66-4.32a.32.32,0,0,1,.22-.16.36.36,0,0,1,.27.06A11.07,11.07,0,0,0,102,47.51a11.24,11.24,0,0,0,7.74-4.3.31.31,0,0,1,.24-.13.35.35,0,0,1,.26.11,11.07,11.07,0,0,0,8,3.6h.07a11,11,0,0,0,7.41-3,.33.33,0,0,1,.27-.09.37.37,0,0,1,.24.15,9.1,9.1,0,0,0,4.18,3.41,9.41,9.41,0,0,0,7.17-.27.33.33,0,0,1,.43.16.32.32,0,0,1-.16.44,10,10,0,0,1-7.68.28,9.69,9.69,0,0,1-4.27-3.34,11.66,11.66,0,0,1-7.59,3A11.81,11.81,0,0,1,110,43.91a11.51,11.51,0,0,1-15.85,2,9.73,9.73,0,0,1-7,4.34Z"/><path class="cls-4" d="M138.36,81.22l-.63-.18a18.63,18.63,0,0,0-.3-11.5,17.56,17.56,0,0,0-2.68-4.82l.52-.41a18.35,18.35,0,0,1,2.78,5A19.27,19.27,0,0,1,138.36,81.22Z"/><path class="cls-4" d="M129.84,95.05l-.48,0c-1.49-.23-2.82-2.87-3.22-6.42l.66-.08c.39,3.46,1.66,5.69,2.66,5.85a2.77,2.77,0,0,0,1.34-.14,3,3,0,0,0,1.09-.83c.65-.79.41-3.81-1.33-7.85l.61-.26c1.69,3.94,2.18,7.37,1.23,8.53a3.06,3.06,0,0,1-2.56,1.23Z"/><path class="cls-4" d="M130,92.88h-.08c-1.57-.1-2.28-3.7-2.46-4.79l.65-.11c.34,2.07,1.09,4.19,1.86,4.25a.42.42,0,0,0,.25-.06c.56-.37.21-2.56-.84-5.32l.61-.23c.74,1.93,1.8,5.3.6,6.1A1.14,1.14,0,0,1,130,92.88Z"/><path class="cls-4" d="M134,87.1a2.37,2.37,0,0,1-.85-.17l.22-.62A1.23,1.23,0,0,0,135.15,85a13.5,13.5,0,0,0-1.94-4.76l.57-.33a14.49,14.49,0,0,1,2,5,2,2,0,0,1-.74,1.9A1.77,1.77,0,0,1,134,87.1Z"/><path class="cls-4" d="M134.59,88.7l-.32,0a1.47,1.47,0,0,1-.73-.27l.41-.52a.84.84,0,0,0,.4.14,2.09,2.09,0,0,0,1.7-.6,4.51,4.51,0,0,0,.72-1c.64-1.19-.17-4.54-3-8.65l.54-.37c2.65,3.88,3.88,7.72,3,9.33a4.75,4.75,0,0,1-.84,1.14A2.7,2.7,0,0,1,134.59,88.7Z"/><path d="M95.64,130.6H85.54a.33.33,0,0,1-.33-.29L84.92,128a84.52,84.52,0,0,0-6.13-22.67A84.34,84.34,0,0,0,66.41,84.92a.32.32,0,0,1,0-.46.33.33,0,0,1,.47,0A84.81,84.81,0,0,1,79.39,105a84.65,84.65,0,0,1,6.18,22.85l.26,2.06H95.3l-.1-2.44a100,100,0,0,0-4.38-25.57A100,100,0,0,0,84.32,86a.33.33,0,1,1,.59-.3,99.86,99.86,0,0,1,6.53,16,100.48,100.48,0,0,1,4.42,25.74l.11,2.79a.3.3,0,0,1-.09.24A.35.35,0,0,1,95.64,130.6Z"/><path d="M117,130.6H107.7a.33.33,0,0,1-.25-.11.35.35,0,0,1-.08-.26l.41-3a100.23,100.23,0,0,1,8.42-28.91.33.33,0,1,1,.59.28,101.17,101.17,0,0,0-4.86,12.67,100.08,100.08,0,0,0-3.5,16l-.36,2.66h8.61L117,128a81.6,81.6,0,0,1,13-31.28.33.33,0,0,1,.46-.08.32.32,0,0,1,.08.46,80.85,80.85,0,0,0-12.93,31l-.4,2.19A.33.33,0,0,1,117,130.6Z"/><path d="M114.72,127.92h-4a.36.36,0,0,1-.25-.11.35.35,0,0,1-.08-.26,97.71,97.71,0,0,1,10.13-32.07.34.34,0,0,1,.45-.14.33.33,0,0,1,.14.44,96.69,96.69,0,0,0-10,31.48h3.31A83.07,83.07,0,0,1,127.39,96a.33.33,0,0,1,.46-.08.32.32,0,0,1,.08.45,82.88,82.88,0,0,0-7.57,13.79,82,82,0,0,0-5.31,17.48A.33.33,0,0,1,114.72,127.92Z"/><path class="cls-2" d="M102.15,110.85a2.64,2.64,0,0,1-2.64-2.64,1.51,1.51,0,0,1,0-.32l.1-.63-.62.11a1.61,1.61,0,0,1-.33,0,2.64,2.64,0,0,1,0-5.27l.33,0,.62.11-.1-.62a1.69,1.69,0,0,1,0-.33,2.64,2.64,0,0,1,5.27,0,1.69,1.69,0,0,1,0,.33l-.1.62.62-.11.33,0a2.64,2.64,0,0,1,0,5.27,1.61,1.61,0,0,1-.33,0l-.62-.11.1.63a1.51,1.51,0,0,1,0,.32A2.64,2.64,0,0,1,102.15,110.85Z"/><path d="M102.15,106.6a1.84,1.84,0,1,1,1.84-1.84A1.84,1.84,0,0,1,102.15,106.6Zm0-3a1.19,1.19,0,1,0,1.18,1.18A1.18,1.18,0,0,0,102.15,103.58Z"/><path d="M101.4,152a.35.35,0,0,1-.18,0c-2.25-1.48-6.06-4.63-6.45-9.11a10.1,10.1,0,0,1,0-1.23,9.68,9.68,0,0,1,0-1.2c.39-4.48,4.2-7.63,6.45-9.11a.33.33,0,0,1,.36,0c2.24,1.48,6.06,4.63,6.44,9.11a8.15,8.15,0,0,1,0,1.21,8.28,8.28,0,0,1,0,1.22c-.38,4.48-4.2,7.63-6.44,9.11A.41.41,0,0,1,101.4,152Zm0-20c-2.16,1.46-5.62,4.41-6,8.5a8.62,8.62,0,0,0,0,1.14,9,9,0,0,0,0,1.17c.35,4.09,3.81,7,6,8.5,2.16-1.46,5.61-4.41,6-8.5a7.23,7.23,0,0,0,0-1.14v0a7.21,7.21,0,0,0,0-1.14C107,136.39,103.56,133.44,101.4,132Z"/><path d="M101.4,149.54a.34.34,0,0,1-.2-.06c-1.88-1.45-4.17-3.8-4.42-6.81a7.38,7.38,0,0,1,0-.94v-.19a7.49,7.49,0,0,1,0-.95c.25-3,2.54-5.35,4.42-6.8a.33.33,0,0,1,.4,0c1.87,1.45,4.16,3.8,4.42,6.8a7.55,7.55,0,0,1,0,.95v.18a7.51,7.51,0,0,1,0,.95c-.26,3-2.55,5.36-4.42,6.81A.36.36,0,0,1,101.4,149.54Zm0-15.07c-1.73,1.37-3.74,3.52-4,6.18a6,6,0,0,0,0,.85v.26a6.15,6.15,0,0,0,0,.86c.23,2.66,2.24,4.8,4,6.18,1.72-1.38,3.73-3.52,4-6.18a6.19,6.19,0,0,0,0-.86v-.26a6,6,0,0,0,0-.85C105.13,138,103.12,135.84,101.4,134.47Z"/><path d="M101.4,146.89a.32.32,0,0,1-.23-.09,7,7,0,0,1-2.39-4.3,4.85,4.85,0,0,1,0-.66v-.41a5,5,0,0,1,0-.67,7,7,0,0,1,2.39-4.29.32.32,0,0,1,.46,0,7,7,0,0,1,2.38,4.29,3.76,3.76,0,0,1,0,.67v.41a3.64,3.64,0,0,1,0,.66,7,7,0,0,1-2.38,4.3A.35.35,0,0,1,101.4,146.89Zm0-9.72a6.12,6.12,0,0,0-2,3.65,3.62,3.62,0,0,0,0,.57v.48a3.75,3.75,0,0,0,0,.58,6.14,6.14,0,0,0,2,3.65,6.2,6.2,0,0,0,2-3.65,5.56,5.56,0,0,0,0-.58l0-.22,0-.26a5.42,5.42,0,0,0,0-.57A6.17,6.17,0,0,0,101.4,137.17Z"/><path class="cls-4" d="M111.92,61.53A1.43,1.43,0,1,1,113.35,63,1.43,1.43,0,0,1,111.92,61.53Z"/><path class="cls-4" d="M113.35,64a2.88,2.88,0,0,1-2.87-2.87,2.81,2.81,0,0,1,.19-1l.62.23a2.21,2.21,0,1,0,4.27.8,2.25,2.25,0,0,0-.33-1.15l.57-.34a2.91,2.91,0,0,1,.41,1.49A2.87,2.87,0,0,1,113.35,64Z"/><path class="cls-4" d="M129.73,61.47a1.43,1.43,0,1,1,1.42,1.43A1.43,1.43,0,0,1,129.73,61.47Z"/><path class="cls-4" d="M131.15,64.24a2.87,2.87,0,0,1-2.86-2.87,2.62,2.62,0,0,1,.14-.88l.62.2a2.25,2.25,0,0,0-.11.68,2.21,2.21,0,1,0,4-1.32l.52-.4a2.82,2.82,0,0,1,.57,1.72A2.87,2.87,0,0,1,131.15,64.24Z"/><path class="cls-4" d="M120.71,57a20.2,20.2,0,0,0-15.76.42l-.28-.57a21.52,21.52,0,0,1,16.69-1.72L120.71,57Z"/><path class="cls-4" d="M126.21,54.65a11.46,11.46,0,0,0,4.38,0,7,7,0,0,1,4.53,1.16l-.3.56a6.94,6.94,0,0,0-2-.59,6,6,0,0,0-2,.16,13.08,13.08,0,0,1-4.77.68l.24-2Z"/><path class="cls-4" d="M121.61,54.47a14,14,0,0,0-.24,4.38,3.29,3.29,0,0,1,.24-4.38Z"/><path class="cls-4" d="M104.63,62.31a.36.36,0,0,1-.28-.15.33.33,0,0,1,0-.41c4-4.17,8.79-5.88,12-4.24a6,6,0,0,1,2.2,2,.33.33,0,1,1-.55.37,5.2,5.2,0,0,0-2-1.8c-2.68-1.37-6.64-.13-10.17,3.07a38.73,38.73,0,0,1,4.87-1.26c5.82-1.11,7,.11,7.38.51a.33.33,0,0,1-.48.45c-1.08-1.12-4.28-.79-6.78-.32a38.11,38.11,0,0,0-6.17,1.74Z"/><path class="cls-4" d="M117.2,59.81a5,5,0,0,0,2.11-1.53,5.19,5.19,0,0,1-.48,1.35,8.2,8.2,0,0,1-.86,1.25l-.77-1.07Z"/><path class="cls-4" d="M113.35,64.44a8.72,8.72,0,0,1-2.32-.31,9.24,9.24,0,0,1-4.31-2.64.33.33,0,0,1,.49-.45,8.65,8.65,0,0,0,4,2.46,9.11,9.11,0,0,0,7-1.14.33.33,0,0,1,.35.55A10.19,10.19,0,0,1,113.35,64.44Z"/><path class="cls-1" d="M112.47,61.65a.49.49,0,1,0-.52.46A.49.49,0,0,0,112.47,61.65Z"/><path class="cls-1" d="M130.33,61.49a.49.49,0,0,0-1-.07.49.49,0,0,0,1,.07Z"/><path class="cls-4" d="M123.89,74.76l-.55-.37a6.9,6.9,0,0,1,2.6-2.43l.08,0a2.55,2.55,0,0,0,1-.8,2.43,2.43,0,0,0,.4-1.15,8,8,0,0,0-.67-3.34c-.12-.34-.23-.68-.34-1a20.21,20.21,0,0,1-.88-4.94,27.66,27.66,0,0,1,0-3.2c0-.9.11-1.82.21-2.72l.66.08c-.11.89-.18,1.78-.22,2.67,0,.6-.08,1.83,0,3.13a20.06,20.06,0,0,0,.86,4.78c.1.34.22.67.33,1a8.31,8.31,0,0,1,.7,3.62,2.93,2.93,0,0,1-.51,1.46,3.15,3.15,0,0,1-1.3,1l-.08,0A6.3,6.3,0,0,0,123.89,74.76Z"/><path class="cls-4" d="M125.89,60.57a.31.31,0,0,1-.19-.06.34.34,0,0,1-.09-.46,7,7,0,0,1,4.31-2.82,7,7,0,0,1,5.29,1.16.32.32,0,0,1,.07.46.33.33,0,0,1-.46.08,6.3,6.3,0,0,0-4.77-1,6.2,6.2,0,0,0-3.89,2.55A.35.35,0,0,1,125.89,60.57Z"/><path class="cls-4" d="M130.43,64.27A8,8,0,0,1,126,62.91a.32.32,0,0,1-.1-.45.34.34,0,0,1,.46-.09,7.41,7.41,0,0,0,4.77,1.21,7.18,7.18,0,0,0,3.7-1.46.34.34,0,0,1,.47.07.32.32,0,0,1-.07.46,8,8,0,0,1-4,1.59Z"/><path class="cls-4" d="M126.46,62.57l-.79-1a11.45,11.45,0,0,1,1.66-1,12.69,12.69,0,0,1,7.8-1.07l-.21,1.3a11.42,11.42,0,0,0-7,.94A10.58,10.58,0,0,0,126.46,62.57Z"/><path class="cls-4" d="M120,81.07a5,5,0,0,0,6.29-.3A3.45,3.45,0,0,1,125,82.12a3.7,3.7,0,0,1-5-1.05Z"/><path class="cls-4" d="M120.8,76.53a5.54,5.54,0,0,0-3.54.85,7.61,7.61,0,0,1-4.52,1.12c-2.87-.48-3.2-5-.3-5.7a2.63,2.63,0,0,1,2.3.61.32.32,0,0,1-.41.48,1.77,1.77,0,0,0-2.81.87,1.88,1.88,0,0,0,1.42,2.45c1.48.1,3.07-1,4.43-1.84a7.62,7.62,0,0,1,3.5-.81,1,1,0,1,1-.07,2Z"/><path class="cls-4" d="M125.86,74.52c.56.17,1.11.3,1.64.52,1.29.59,2.54,1.68,3.83,1.36,2.07-.54,1.66-3-.39-3a.32.32,0,0,1-.33-.31.32.32,0,0,1,.28-.32,2.49,2.49,0,0,1,1.71.4c1.91,1.28,1.14,3.8-.86,4.5-1.82.66-3.4-.38-4.87-.91-.5-.14-1-.18-1.52-.31a1,1,0,1,1,.51-1.9Z"/><path class="cls-4" d="M123.83,72.5c-.7-.47-1.15-.29-1.91.16a3.16,3.16,0,0,1-1.55.43c-3.58-.1-3.87-3.74-.86-5.11a.21.21,0,0,1,.19.38,3,3,0,0,0-1.54,1.89c-.35,1.29,1.1,2,2.17,1.86s1.37-.89,2.47-1.08a2.64,2.64,0,0,1,1.73.36.66.66,0,1,1-.7,1.11Z"/><path class="cls-4" d="M116,81.07l.51-2.3a.22.22,0,0,1,.33-.14,2.73,2.73,0,0,0,1.28.43c1.44.09,2-1.16,3.32-1,.91.15,1,.87,1.82.84s1.11-.93,2-.92,1.15.88,2,.84a1.57,1.57,0,0,0,.83-.31.22.22,0,0,1,.33.17l.21,1.9a.22.22,0,0,1-.34.21,4,4,0,0,0-1.58-.61c-1.3-.18-1.78.48-3.25.65-1.82.21-2.22-.66-4-.61a6.18,6.18,0,0,0-3.15,1A.22.22,0,0,1,116,81.07Z"/><path class="cls-4" d="M134.7,59.43a2.7,2.7,0,0,0,1.83-.69,3.37,3.37,0,0,1-1.39,1.93l-.44-1.24Z"/><path class="cls-4" d="M126.9,61.74a6.47,6.47,0,0,0,4.15,4.87.21.21,0,0,1-.12.41,7.38,7.38,0,0,1-5.31-5,.66.66,0,1,1,1.28-.32Z"/><path class="cls-4" d="M118.24,60c.2.37.41.71.6,1.11a2.12,2.12,0,0,1-.31,2.18,12,12,0,0,1-5.2,3.84.21.21,0,0,1-.18-.38,11.39,11.39,0,0,0,4.22-3.59c.38-.54.7-1,.38-1.54-.19-.3-.44-.63-.64-.94a.66.66,0,1,1,1.13-.68Z"/><path class="cls-4" d="M117.44,61a9.72,9.72,0,0,0-6.26-.45,43.12,43.12,0,0,0-6.48,1.67l-.15-.4A45.06,45.06,0,0,1,111,59.66a12.46,12.46,0,0,1,5.23-.41,11.76,11.76,0,0,1,1.73.5L117.44,61Z"/><path class="cls-4" d="M118.4,61.64c-3.24-2.14-6.66-.06-10.15.14a25.68,25.68,0,0,1-3.62.2,36.4,36.4,0,0,1,6.89-2.07c2.33-.66,5.46-.58,6.88,1.73Z"/><path class="cls-4" d="M137.17,78.74l-.65-.13a15.25,15.25,0,0,0,.16-5.26,15.09,15.09,0,0,0-2-5.62l.57-.34a15.83,15.83,0,0,1,2.08,5.86A16.07,16.07,0,0,1,137.17,78.74Z"/><path class="cls-2" d="M98.15,100.6c-.18-3.68.65-5,1.49-5.54.51-.31,1.5-.63,1.55-1.28a1.1,1.1,0,0,0-.44-.83c-.66-.54-1.86-.4-3,.32-.87-3.41-3.06-5.55-5-5.43a3.45,3.45,0,0,0-2.58,1.57c-.72,1.14-.72,2.8-.13,3.1s1.33-1,2.72-.93a2.86,2.86,0,0,1,1.8.93c1.27,1.27.72,2.74,1.5,4.88A8.55,8.55,0,0,0,98.15,100.6Z"/><path class="cls-2" d="M106.2,101.08A4.78,4.78,0,0,1,108,98c.4-.3,1.59-1.21,2.7-.76,1.36.55,1.73,2.78,1.25,3.12s-.94-.61-2.09-.8A4.66,4.66,0,0,0,106.2,101.08Z"/><path class="cls-2" d="M106.45,108.36c2.26,1.25,3.28,3.44,2.72,5a3,3,0,0,1-2.85,2c-1.35-.2-2.31-1.8-2-2.31s1.1.07,1.9-.53A2.39,2.39,0,0,0,107,111,3.68,3.68,0,0,0,106.45,108.36Z"/><path class="cls-2" d="M98.35,108.58a4.7,4.7,0,0,0,.4,3.83c.8,1.09,2,1.19,2,1.8s-1.56,1.49-2.89,1.13A3,3,0,0,1,96,113.5a4,4,0,0,1,.84-3.6A4.85,4.85,0,0,1,98.35,108.58Z"/><path d="M149.5,128.11l-.14,0L132,119.8a.33.33,0,0,1-.15-.44.32.32,0,0,1,.44-.16l17.4,8.29a.32.32,0,0,1,.15.43A.33.33,0,0,1,149.5,128.11Z"/><path d="M157.88,93.73a.41.41,0,0,1-.18,0c-2.55-1.62-5.19-3.17-7.85-4.63-3.65-2-7.43-3.87-11.23-5.55a.33.33,0,1,1,.27-.61c3.82,1.69,7.61,3.57,11.28,5.58,2.66,1.47,5.32,3,7.89,4.65a.34.34,0,0,1,.1.46A.32.32,0,0,1,157.88,93.73Z"/><path class="cls-1" d="M63.72,88.84l-.8.52a5.88,5.88,0,0,1,.88.57,5.19,5.19,0,0,1,1.12,1.29.06.06,0,0,1-.1.08A1.76,1.76,0,0,0,63,90.66a1.47,1.47,0,0,0-.79,1A1.74,1.74,0,0,0,62.48,93,3.49,3.49,0,0,0,64,94.26a37.37,37.37,0,0,0,4.29,1.51,37,37,0,0,0,.34-4.54A3.51,3.51,0,0,0,68,89.36a1.74,1.74,0,0,0-1.16-.79,1.45,1.45,0,0,0-1.2.35,1.78,1.78,0,0,0-.13,1.91c0,.07-.07.13-.11.06a5,5,0,0,1-.73-1.55,4.65,4.65,0,0,1-.18-1Z"/><path class="cls-1" d="M69.45,97.48l-.85.44a5,5,0,0,1,.82.66,5.17,5.17,0,0,1,1,1.4.06.06,0,0,1-.11.06,1.77,1.77,0,0,0-1.73-.82,1.44,1.44,0,0,0-.9.87,1.84,1.84,0,0,0,.12,1.4,3.53,3.53,0,0,0,1.35,1.41,39.5,39.5,0,0,0,4.12,1.94,35,35,0,0,0,.8-4.49,3.44,3.44,0,0,0-.37-1.91,1.79,1.79,0,0,0-1.07-.91,1.44,1.44,0,0,0-1.23.23,1.76,1.76,0,0,0-.33,1.89c0,.07-.08.12-.12,0a5.12,5.12,0,0,1-.57-1.62,4.8,4.8,0,0,1-.06-1Z"/><path class="cls-1" d="M74.55,107.91l-.91.32a4.41,4.41,0,0,1,.72.76,5,5,0,0,1,.8,1.52c0,.07-.08.12-.12,0a1.74,1.74,0,0,0-1.61-1,1.46,1.46,0,0,0-1,.75,1.78,1.78,0,0,0-.06,1.39,3.49,3.49,0,0,0,1.15,1.58,36.19,36.19,0,0,0,3.83,2.47,37.57,37.57,0,0,0,1.38-4.34,3.46,3.46,0,0,0-.12-2,1.73,1.73,0,0,0-.93-1,1.47,1.47,0,0,0-1.25.06,1.77,1.77,0,0,0-.58,1.83.06.06,0,0,1-.12,0,5,5,0,0,1-.35-1.68,4.91,4.91,0,0,1,.07-1Z"/><path class="cls-1" d="M78.2,118.68l-.94.18a4.61,4.61,0,0,1,.59.86,4.9,4.9,0,0,1,.56,1.62.06.06,0,1,1-.12,0,1.76,1.76,0,0,0-1.43-1.27,1.47,1.47,0,0,0-1.11.59,1.77,1.77,0,0,0-.27,1.37,3.48,3.48,0,0,0,.9,1.73,39.22,39.22,0,0,0,3.41,3,37.56,37.56,0,0,0,2-4.08,3.42,3.42,0,0,0,.18-2,1.73,1.73,0,0,0-.77-1.16,1.4,1.4,0,0,0-1.24-.13,1.75,1.75,0,0,0-.85,1.72.07.07,0,0,1-.13,0,5.19,5.19,0,0,1-.09-1.71,4.52,4.52,0,0,1,.23-1Z"/><path class="cls-1" d="M80.27,130.33l-1,0a4.84,4.84,0,0,1,.47.94,5.3,5.3,0,0,1,.33,1.68.07.07,0,0,1-.13,0,1.77,1.77,0,0,0-1.24-1.46,1.48,1.48,0,0,0-1.17.43,1.74,1.74,0,0,0-.47,1.31,3.44,3.44,0,0,0,.65,1.85,37.85,37.85,0,0,0,3,3.47,37.69,37.69,0,0,0,2.58-3.76,3.47,3.47,0,0,0,.45-1.9,1.79,1.79,0,0,0-.6-1.26,1.45,1.45,0,0,0-1.21-.3A1.74,1.74,0,0,0,80.84,133c0,.08-.13.08-.13,0a5.07,5.07,0,0,1,.52-2.69Z"/><path class="cls-1" d="M80.67,141.36l-1-.09a4.58,4.58,0,0,1,.34,1,4.91,4.91,0,0,1,.09,1.72.07.07,0,0,1-.13,0,1.77,1.77,0,0,0-1-1.62,1.45,1.45,0,0,0-1.22.27,1.71,1.71,0,0,0-.64,1.24,3.42,3.42,0,0,0,.38,1.91A35.26,35.26,0,0,0,80,149.61,38.28,38.28,0,0,0,83,146.25a3.56,3.56,0,0,0,.7-1.82,1.73,1.73,0,0,0-.41-1.33,1.45,1.45,0,0,0-1.16-.47,1.76,1.76,0,0,0-1.29,1.42.07.07,0,0,1-.13,0,5.1,5.1,0,0,1,.38-1.67,5.21,5.21,0,0,1,.5-.92Z"/><path class="cls-1" d="M79.25,153.74l-.93-.22a4.74,4.74,0,0,1,.19,1,5,5,0,0,1-.16,1.7.06.06,0,1,1-.12,0,1.79,1.79,0,0,0-.79-1.75,1.47,1.47,0,0,0-1.24.09,1.71,1.71,0,0,0-.81,1.13,3.44,3.44,0,0,0,.1,2,37.46,37.46,0,0,0,1.87,4.15,35.54,35.54,0,0,0,3.52-2.88,3.51,3.51,0,0,0,1-1.7,1.73,1.73,0,0,0-.22-1.38,1.46,1.46,0,0,0-1.08-.63,1.77,1.77,0,0,0-1.48,1.22.06.06,0,0,1-.12,0,5,5,0,0,1,.62-1.6,4.86,4.86,0,0,1,.63-.83Z"/><path d="M51.55,192.46a.31.31,0,0,1-.24-.1.33.33,0,0,1,0-.47,84.83,84.83,0,0,0,11.82-14.43,85.75,85.75,0,0,0,7.25-13.82.33.33,0,0,1,.6.26,85,85,0,0,1-7.3,13.92,86.13,86.13,0,0,1-11.91,14.54A.32.32,0,0,1,51.55,192.46Z"/><path d="M72.58,159.19l-.09,0a.32.32,0,0,1-.23-.4A75.32,75.32,0,0,0,75,135.72c-.87-21.42-10.7-37.58-18.8-47.37a.33.33,0,1,1,.5-.42c8.17,9.87,18.08,26.16,19,47.77a75.63,75.63,0,0,1-2.72,23.24A.33.33,0,0,1,72.58,159.19Z"/><path class="cls-4" d="M71.94,130.08a23.92,23.92,0,0,1-10.36-29.65l.61.24A23.28,23.28,0,0,0,72.26,129.5Z"/><path class="cls-4" d="M71.37,126.47a21,21,0,0,1-8-22.82l.64.18a20.35,20.35,0,0,0,7.74,22.11Z"/><path class="cls-4" d="M72.51,141.14A34.8,34.8,0,0,1,54.8,90.6l.57.34a34.13,34.13,0,0,0,17.37,49.58Z"/><path class="cls-4" d="M61.13,102.78l-4-1.29a7.32,7.32,0,0,1-3.67-2.57,4.16,4.16,0,0,1-.82-4A4.12,4.12,0,0,1,56,92.77a5.52,5.52,0,0,1,.81-.06v.65c-.25,0-.49,0-.73.06A2.93,2.93,0,0,0,54,98.53a6.58,6.58,0,0,0,3.33,2.33l4,1.29Z"/><path class="cls-4" d="M61.88,100.55l-.21.57-4.58-2A2.11,2.11,0,0,1,56,96.37h0a2.11,2.11,0,0,1,2.35-1.24Z"/><path class="cls-4" d="M60.12,109.39l-3.9,0A7.24,7.24,0,0,1,52,107.88a3.56,3.56,0,0,1,.82-6.62,7.31,7.31,0,0,1,4.44-.41l4.06.94-.15.65-4.06-1a6.68,6.68,0,0,0-4,.37,2.93,2.93,0,0,0-.67,5.51,6.68,6.68,0,0,0,3.85,1.32l3.89,0Z"/><path class="cls-4" d="M60.18,107.65l-4.61-.57a2.11,2.11,0,0,1-1.83-2.34h0a2.11,2.11,0,0,1,2.34-1.84l4.76.59Z"/><path class="cls-4" d="M55.63,117.38a6.82,6.82,0,0,1-2.56-.48,3.56,3.56,0,0,1-1-6.59,7.35,7.35,0,0,1,4.16-1.62l4.17-.21,0,.66-4.16.21a6.6,6.6,0,0,0-3.77,1.46,2.92,2.92,0,0,0,.87,5.48,6.57,6.57,0,0,0,4.06.21l3.76-1,.17.64-3.76,1A8,8,0,0,1,55.63,117.38Z"/><path class="cls-4" d="M60.77,114.43l-4.47.71a2.11,2.11,0,0,1-.66-4.16l4.6-.72c0,.61.07,1.28.16,2S60.63,113.77,60.77,114.43Z"/><path class="cls-4" d="M57.26,125.31c-.22,0-.44,0-.66,0a3.56,3.56,0,0,1-2.82-6,7.26,7.26,0,0,1,3.55-2.7L61,115.28l.22.62-3.62,1.24a6.7,6.7,0,0,0-3.23,2.45,2.93,2.93,0,0,0,2.35,5,6.64,6.64,0,0,0,4-.92l3.33-2,.34.57-3.33,2A7.44,7.44,0,0,1,57.26,125.31Z"/><path class="cls-4" d="M63.26,120.8l-4,1.89a2.11,2.11,0,0,1-1.78-3.82L61.49,117c.18.53.39,1.08.65,1.66A17.94,17.94,0,0,0,63.26,120.8Z"/><path class="cls-4" d="M61.19,132.44a3.65,3.65,0,0,1-2.83-1.1,4.14,4.14,0,0,1-.44-4,7.25,7.25,0,0,1,2.67-3.57l3.06-2.14.38.54L61,124.27a6.58,6.58,0,0,0-2.42,3.24,2.92,2.92,0,0,0,3.64,4.18,6.5,6.5,0,0,0,3.55-2L68.25,127l.49.44-2.52,2.73a7.24,7.24,0,0,1-3.92,2.17A6.19,6.19,0,0,1,61.19,132.44Z"/><path class="cls-4" d="M67.43,126.25l-3.33,2.89a2.11,2.11,0,0,1-3-.21h0a2.12,2.12,0,0,1,.21-3l3.33-2.89c.34.47.71,1,1.14,1.45C66.36,125.17,66.91,125.74,67.43,126.25Z"/><path class="cls-4" d="M67.39,138.17a3.11,3.11,0,0,1-1.72-.48,4.12,4.12,0,0,1-1.54-3.76,7.26,7.26,0,0,1,1.58-4.16l2.36-2.91.51.42-2.35,2.89A6.56,6.56,0,0,0,64.79,134,3.52,3.52,0,0,0,66,137.14a3.51,3.51,0,0,0,3.41-.16,6.53,6.53,0,0,0,2.78-2.69l.57.32a7.14,7.14,0,0,1-3.06,3A5.38,5.38,0,0,1,67.39,138.17Z"/><path class="cls-4" d="M69.45,128l-2.4,3.7A2.1,2.1,0,0,0,70.58,134l1.7-2.62-.09-.83-.09-.75c-.43-.25-.89-.53-1.36-.85S69.85,128.31,69.45,128Z"/><path class="cls-4" d="M72.36,139.81a6.27,6.27,0,0,1-.44-1.22,7.22,7.22,0,0,1,.3-4.24l.62.23a6.49,6.49,0,0,0-.28,3.85,5.59,5.59,0,0,0,.39,1.09Z"/><circle class="cls-2" cx="164.57" cy="150.83" r="3.92"/><path class="cls-4" d="M164.56,155.07a4.25,4.25,0,1,1,4.25-4.24A4.24,4.24,0,0,1,164.56,155.07Zm0-7.83a3.59,3.59,0,1,0,3.6,3.59A3.59,3.59,0,0,0,164.56,147.24Z"/><path class="cls-4" d="M167,149.93c1.23,2-1.14,4.51-3.29,3.61a2.32,2.32,0,0,1-1.39-1.42,2.66,2.66,0,0,0,4.68-2.19Z"/><path class="cls-2" d="M101.39,122.33a1.46,1.46,0,0,0-1.44,1.44v6.29a3.07,3.07,0,0,1-1.11,2.42l0,0a2.06,2.06,0,0,1-1.06.49,1.32,1.32,0,0,1-1.2-.36,1.06,1.06,0,0,1-.18-.75.34.34,0,0,1,.26-.29,1.67,1.67,0,0,0,.51-.2h0a1.21,1.21,0,0,0,.56-1v-6.58a3.68,3.68,0,0,1,3.67-3.67h0a3.68,3.68,0,0,1,3.67,3.67v6.58a1.21,1.21,0,0,0,.56,1h0a1.77,1.77,0,0,0,.51.2.34.34,0,0,1,.26.29,1.06,1.06,0,0,1-.18.75A1.31,1.31,0,0,1,105,133a2.05,2.05,0,0,1-1.07-.49l0,0a3.07,3.07,0,0,1-1.11-2.42v-6.29a1.46,1.46,0,0,0-1.44-1.44Z"/><path d="M141.83,124.38l-.13,0a.34.34,0,0,1-.18-.43A75.25,75.25,0,0,1,157.65,99.4a.32.32,0,0,1,.46,0,.34.34,0,0,1,0,.47,73.72,73.72,0,0,0-9.46,11.77,75,75,0,0,0-6.53,12.54A.33.33,0,0,1,141.83,124.38Z"/><path d="M144.31,125.39l-.12,0a.33.33,0,0,1-.18-.43,72.39,72.39,0,0,1,13.63-21.63.33.33,0,0,1,.46,0,.31.31,0,0,1,0,.46,72,72,0,0,0-13.5,21.43A.34.34,0,0,1,144.31,125.39Z"/><path d="M138.17,122.71a.27.27,0,0,1-.13,0,.33.33,0,0,1-.18-.43,79.24,79.24,0,0,1,19.4-28.09.33.33,0,0,1,.46,0,.32.32,0,0,1,0,.47,78.29,78.29,0,0,0-19.23,27.85A.31.31,0,0,1,138.17,122.71Z"/><path d="M134.53,121l-.13,0a.34.34,0,0,1-.18-.43,83.39,83.39,0,0,1,20.3-29.3.33.33,0,0,1,.45.48,82.67,82.67,0,0,0-20.14,29.07A.33.33,0,0,1,134.53,121Z"/><path d="M132.1,119.83a.27.27,0,0,1-.12,0,.33.33,0,0,1-.18-.43,85.63,85.63,0,0,1,20.32-29.54.33.33,0,0,1,.47,0,.32.32,0,0,1,0,.46,85.12,85.12,0,0,0-12.91,15.5,84.09,84.09,0,0,0-7.25,13.81A.34.34,0,0,1,132.1,119.83Z"/><path d="M157.88,99.09h0l-4.54-.2a.33.33,0,0,1-.31-.29l-.61-5.16a.34.34,0,0,1,.29-.37.33.33,0,0,1,.36.29l.58,4.88,4.26.19a.33.33,0,0,1,.31.35A.33.33,0,0,1,157.88,99.09Z"/><path d="M154.3,103.86h-5.19a.33.33,0,0,1-.33-.26l-1-5.11a.34.34,0,0,1,.26-.39.34.34,0,0,1,.39.26l1,4.84h4.92a.33.33,0,1,1,0,.66Z"/><path d="M150.3,109h-4.88a.33.33,0,0,1-.32-.24l-1.35-5.11a.34.34,0,0,1,.24-.41.34.34,0,0,1,.4.24l1.28,4.86h4.63a.33.33,0,0,1,.33.33A.33.33,0,0,1,150.3,109Z"/><path d="M147,114h-4.64a.33.33,0,0,1-.3-.19l-2.15-4.3a.33.33,0,0,1,.59-.29l2.06,4.12H147a.33.33,0,0,1,0,.66Z"/><path d="M139.27,120.14A.33.33,0,0,1,139,120l-2.35-4.45a.33.33,0,0,1,.59-.31l2.24,4.27,4.33-.2a.31.31,0,0,1,.34.32.32.32,0,0,1-.31.34l-4.53.2Z"/><path d="M48.11,147.42a.34.34,0,0,1-.33-.28c-.14-1.08-.33-2.16-.56-3.22-2.8-12.77-11.53-21.81-18.35-27.15a.33.33,0,1,1,.4-.52c6.91,5.41,15.75,14.57,18.59,27.53.24,1.07.43,2.17.58,3.27a.34.34,0,0,1-.29.37Z"/><path d="M50.5,148.65a.33.33,0,0,1-.33-.3,41.83,41.83,0,0,0-.77-4.91C46.32,129.39,36.54,119.66,28.88,114a.33.33,0,1,1,.39-.53C37,119.19,46.92,129.05,50,143.3a43.21,43.21,0,0,1,.79,5,.33.33,0,0,1-.3.36Z"/><path d="M32,114a.31.31,0,0,1-.2-.07c-.93-.74-1.9-1.47-2.87-2.16a.33.33,0,0,1,.38-.54c1,.71,2,1.44,2.9,2.19a.33.33,0,0,1,0,.46A.34.34,0,0,1,32,114Z"/><path d="M36.69,118.14a.32.32,0,0,1-.23-.1c-.93-.89-1.9-1.77-2.89-2.62a.33.33,0,1,1,.42-.5c1,.85,2,1.75,2.93,2.65a.34.34,0,0,1,0,.47A.37.37,0,0,1,36.69,118.14Z"/><path d="M41.19,123a.34.34,0,0,1-.26-.12c-.92-1.1-1.91-2.2-2.94-3.26a.33.33,0,0,1,.48-.46c1,1.07,2,2.18,3,3.3a.32.32,0,0,1,0,.46A.29.29,0,0,1,41.19,123Z"/><path d="M44.54,127.4a.33.33,0,0,1-.28-.15c-.65-1-1.36-1.94-2.1-2.89a.33.33,0,0,1,.06-.46.32.32,0,0,1,.46,0c.75,1,1.46,2,2.13,2.93a.33.33,0,0,1-.09.46A.32.32,0,0,1,44.54,127.4Z"/><path d="M47.7,132.78a.32.32,0,0,1-.29-.18c-.58-1.14-1.21-2.28-1.9-3.4a.34.34,0,0,1,.11-.45.33.33,0,0,1,.46.11c.69,1.13,1.33,2.29,1.91,3.44a.33.33,0,0,1-.14.45A.4.4,0,0,1,47.7,132.78Z"/><path d="M50.09,138.43a.33.33,0,0,1-.31-.22c-.41-1.21-.9-2.42-1.43-3.61a.33.33,0,1,1,.61-.27c.53,1.21,1,2.44,1.44,3.67a.33.33,0,0,1-.2.42Z"/><path d="M51.65,144.2a.33.33,0,0,1-.32-.27l-.18-.87c-.19-.83-.4-1.67-.63-2.48a.33.33,0,0,1,.23-.4.33.33,0,0,1,.41.22q.35,1.24.63,2.52c.06.29.13.59.18.89a.32.32,0,0,1-.26.38Z"/><path d="M52.39,149.57a.33.33,0,0,1-.33-.3c-.07-.81-.21-2.09-.32-2.9A.34.34,0,0,1,52,146a.34.34,0,0,1,.37.29c.11.82.26,2.11.33,2.94a.33.33,0,0,1-.3.35Z"/><path d="M33,109.14a.31.31,0,0,1-.2-.07c-1.08-.81-2.2-1.6-3.32-2.34l-.51-.33a.32.32,0,0,1-.09-.45.33.33,0,0,1,.45-.1l.51.33c1.13.75,2.26,1.55,3.36,2.36a.33.33,0,0,1,.06.46A.31.31,0,0,1,33,109.14Z"/><path d="M38.35,113.57a.35.35,0,0,1-.22-.08c-1-.92-2.06-1.82-3.12-2.68a.33.33,0,1,1,.41-.51c1.08.87,2.14,1.78,3.15,2.7a.33.33,0,0,1,0,.46A.29.29,0,0,1,38.35,113.57Z"/><path d="M43,118.2a.32.32,0,0,1-.24-.11c-.94-1-1.93-2.06-2.95-3a.33.33,0,0,1,0-.47.34.34,0,0,1,.47,0c1,1,2,2,3,3.09a.33.33,0,0,1,0,.47A.35.35,0,0,1,43,118.2Z"/><path d="M47.19,123.4a.33.33,0,0,1-.26-.13c-.77-1.06-1.58-2.11-2.42-3.13a.33.33,0,1,1,.5-.42c.85,1,1.68,2.09,2.45,3.16a.33.33,0,0,1-.07.46A.36.36,0,0,1,47.19,123.4Z"/><path d="M50.81,129.1a.31.31,0,0,1-.28-.17c-.7-1.26-1.47-2.53-2.29-3.77a.34.34,0,0,1,.09-.46.33.33,0,0,1,.46.1c.83,1.25,1.6,2.53,2.31,3.82a.32.32,0,0,1-.13.44A.29.29,0,0,1,50.81,129.1Z"/><path d="M53.77,135.47a.34.34,0,0,1-.31-.21c-.52-1.38-1.12-2.76-1.78-4.1a.34.34,0,0,1,.15-.45.34.34,0,0,1,.44.16c.67,1.36,1.27,2.76,1.81,4.15a.34.34,0,0,1-.19.43Z"/><path d="M55.69,141.73a.33.33,0,0,1-.32-.26c-.31-1.33-.68-2.66-1.11-3.95a.33.33,0,0,1,.21-.41.32.32,0,0,1,.42.21c.43,1.31.8,2.65,1.12,4a.33.33,0,0,1-.25.4Z"/><path d="M56.79,148.74a.33.33,0,0,1-.33-.3c-.13-1.6-.35-3.21-.63-4.78a.32.32,0,0,1,.26-.38.33.33,0,0,1,.38.27,48.33,48.33,0,0,1,.65,4.83.32.32,0,0,1-.3.36Z"/><path d="M58.75,152.6a.32.32,0,0,1-.33-.32,50.84,50.84,0,0,0-1.16-10.56c-4.18-19-18.6-31-26.82-36.48l-.53-.34a.32.32,0,0,1-.09-.45.32.32,0,0,1,.45-.1l.53.34c8.31,5.51,22.87,17.63,27.1,36.89a51.41,51.41,0,0,1,1.18,10.69.33.33,0,0,1-.33.33Z"/><path d="M61,153.67h0a.33.33,0,0,1-.33-.34,53,53,0,0,0-1.21-12.09C55.1,121.44,40.18,109,31.67,103.38a.33.33,0,0,1,.37-.55c8.58,5.7,23.65,18.24,28,38.27a53.65,53.65,0,0,1,1.23,12.24A.33.33,0,0,1,61,153.67Z"/><path d="M32,114a.3.3,0,0,1-.23-.1.32.32,0,0,1,0-.46L35,110.32a.33.33,0,0,1,.46.47l-3.22,3.15A.33.33,0,0,1,32,114Z"/><path d="M36.69,118.14a.32.32,0,0,1-.24-.11.32.32,0,0,1,0-.47l3.31-3a.33.33,0,1,1,.45.48l-3.32,3A.31.31,0,0,1,36.69,118.14Z"/><path d="M41.19,123a.34.34,0,0,1-.27-.13.32.32,0,0,1,.07-.46l3.57-2.69a.32.32,0,0,1,.46.07.33.33,0,0,1-.06.46l-3.58,2.69A.33.33,0,0,1,41.19,123Z"/><path d="M44.54,127.4a.35.35,0,0,1-.3-.18.33.33,0,0,1,.14-.44l4-2.09a.32.32,0,0,1,.44.13.32.32,0,0,1-.14.45l-4,2.09A.28.28,0,0,1,44.54,127.4Z"/><path d="M47.7,132.78a.31.31,0,0,1-.31-.22.33.33,0,0,1,.2-.42l4.28-1.44a.33.33,0,0,1,.42.21.33.33,0,0,1-.21.41l-4.27,1.44A.22.22,0,0,1,47.7,132.78Z"/><path d="M50.09,138.43a.31.31,0,0,1-.32-.27.33.33,0,0,1,.27-.38l4.49-.69a.33.33,0,0,1,.37.28.31.31,0,0,1-.27.37l-4.49.69Z"/><path d="M51.65,144.2a.33.33,0,0,1,0-.66l4.5-.27a.33.33,0,1,1,0,.65l-4.5.28Z"/><path d="M56.79,148.74H54.48a.32.32,0,0,1-.32-.3L54,146.61l-1.92,0h0a.34.34,0,0,1-.33-.32.34.34,0,0,1,.33-.34l2.23-.05h0a.32.32,0,0,1,.33.3l.17,1.84h2a.33.33,0,0,1,.33.33A.33.33,0,0,1,56.79,148.74Z"/><path d="M53.51,142.12a.34.34,0,0,1-.32-.26l-.35-1.43-1.93.38a.33.33,0,1,1-.13-.64l2.24-.45a.35.35,0,0,1,.39.25l.35,1.44,1.87-.34a.33.33,0,0,1,.38.27.32.32,0,0,1-.26.38l-2.18.39Z"/><path d="M51.8,136.15a.34.34,0,0,1-.3-.19l-.79-1.76-2,.58a.33.33,0,0,1-.19-.63l2.24-.67a.33.33,0,0,1,.39.18l.79,1.75,1.68-.58a.33.33,0,0,1,.22.62l-2,.69Z"/><path d="M49,130.05a.32.32,0,0,1-.29-.17l-.87-1.57-1.87,1a.32.32,0,0,1-.44-.13.33.33,0,0,1,.13-.45l2.16-1.16a.32.32,0,0,1,.44.13l.87,1.57,1.55-.8a.34.34,0,0,1,.45.14.33.33,0,0,1-.15.45l-1.83.94A.28.28,0,0,1,49,130.05Z"/><path d="M45.47,124.63a.33.33,0,0,1-.26-.13l-.87-1.17-1.74,1.1a.33.33,0,1,1-.35-.55l2-1.27a.33.33,0,0,1,.44.08l.85,1.16,1.46-1a.33.33,0,0,1,.46.08.33.33,0,0,1-.08.46l-1.72,1.23A.33.33,0,0,1,45.47,124.63Z"/><path d="M38.23,119.67a.32.32,0,0,1-.25-.12.32.32,0,0,1,0-.46l1.82-1.54a.31.31,0,0,1,.44,0l1.18,1.18,1.3-1.13a.33.33,0,0,1,.43.5l-1.53,1.32a.31.31,0,0,1-.44,0L40,118.24l-1.59,1.35A.34.34,0,0,1,38.23,119.67Z"/><path d="M33.78,115.5a.3.3,0,0,1-.23-.1.32.32,0,0,1,0-.46l1.59-1.6a.33.33,0,0,1,.44,0l1.2,1L38.12,113a.33.33,0,0,1,.47,0,.33.33,0,0,1,0,.46L37,115a.33.33,0,0,1-.44,0l-1.19-1L34,115.4A.29.29,0,0,1,33.78,115.5Z"/><path d="M31.61,110.74a.33.33,0,0,1-.19-.06l-1.55-1.06-.52.81a.33.33,0,0,1-.46.1.33.33,0,0,1-.1-.45l.72-1.1a.3.3,0,0,1,.21-.15.36.36,0,0,1,.25,0L31.55,110l1.17-1.38a.33.33,0,0,1,.46,0,.32.32,0,0,1,0,.46l-1.36,1.6A.33.33,0,0,1,31.61,110.74Z"/><path d="M141.18,41.68l0,0-1.07,1.72-.19.3c-2.62,2.29-6.14,3.24-9,2.12a7.76,7.76,0,0,1-3.5-2.86L126.3,41.2l-1.55,1.49a9.44,9.44,0,0,1-6.41,2.64h-.06a9.75,9.75,0,0,1-6.93-3.12l-1.45-1.6-1.3,1.72a9.8,9.8,0,0,1-6.71,3.73,9.6,9.6,0,0,1-6.68-2L93.6,42.8c-.35.58-.69,1.17-1,1.75A7.49,7.49,0,0,1,87,48.17,6.94,6.94,0,0,1,82.76,47l-2.53-1.3-1.33-2.4.41-.27a4.24,4.24,0,0,0,4.13,2.83,4.16,4.16,0,0,0,2.85-1.65,4.55,4.55,0,0,0,3.76.68A4.24,4.24,0,0,0,92,43.67a4.63,4.63,0,0,0,1-1.94h.07a.54.54,0,0,0,.22,0,1,1,0,0,0,.21-.08.71.71,0,0,0,.17-.11,7.2,7.2,0,0,0,.83.9,5.06,5.06,0,0,0,4.85,1.42,4.47,4.47,0,0,0,2.39-2,3.84,3.84,0,0,0,2.1,1.44c1.56.37,3.45-.47,4.89-2.24a8.72,8.72,0,0,0,.84-1.22l.1,0a.82.82,0,0,0,.22,0,.78.78,0,0,0,.22,0l.17,0a5.65,5.65,0,0,0,1,1.4,5,5,0,0,0,3.84,1.56,5.27,5.27,0,0,0,3.77-2.29,4.51,4.51,0,0,0,3.31,2,4.34,4.34,0,0,0,3.76-2,5,5,0,0,0,.33-.55l.1.06.18.05a.91.91,0,0,0,.23,0h0a6,6,0,0,0,.71,1.56,4.68,4.68,0,0,0,3.67,2.34,4.54,4.54,0,0,0,3.18-1.34,3.64,3.64,0,0,0,2.07,1.51,4.15,4.15,0,0,0,4.25-2,4.25,4.25,0,0,0,.27-.46l.09,0Z"/><path d="M115.71,38.69a2.91,2.91,0,0,1-2.91,2.91,2.81,2.81,0,0,1-1.52-.43,2.93,2.93,0,0,1-1.17-1.36l.17,0a1.15,1.15,0,0,0,.76-1.08.83.83,0,0,0,0-.22,1.14,1.14,0,0,0-.9-.9l-.22,0-.22,0a1.16,1.16,0,0,0-.9.9,1.64,1.64,0,0,0,0,.22,1.15,1.15,0,0,0,.82,1.1l.1,0A2.94,2.94,0,0,1,107,41.6a2.91,2.91,0,1,1,0-5.81,2.91,2.91,0,0,1,5.82,0A2.9,2.9,0,0,1,115.71,38.69Z"/><path d="M132,40.26a2.65,2.65,0,0,1-3.21,2.14,2.62,2.62,0,0,1-1.3-.82A2.91,2.91,0,0,1,126.8,40h0a1.14,1.14,0,0,0,1.15-.87.85.85,0,0,0,0-.23,1.12,1.12,0,0,0-.69-1.08.64.64,0,0,0-.18-.06l-.22,0a1.13,1.13,0,0,0-1.06.61,1,1,0,0,0-.1.26,1.14,1.14,0,0,0,.56,1.26l.1.06a2.9,2.9,0,0,1-.43.49,2.5,2.5,0,0,1-2.34.6,2.93,2.93,0,0,1-2-3.52,2.67,2.67,0,0,1,3.22-2.14,2.66,2.66,0,0,1,3.22-2.14,2.93,2.93,0,0,1,2,3.52A2.92,2.92,0,0,1,132,40.26Z"/><path d="M144.81,36.05c-.78,1.25-1.57,2.49-2.36,3.74a.18.18,0,0,0-.07,0,1.09,1.09,0,0,0-.23-.09,1.12,1.12,0,0,0-1.09.26,1.09,1.09,0,0,0-.23.29,1.13,1.13,0,0,0,.21,1.36l.14.12a3.47,3.47,0,0,1-.5.38,2,2,0,0,1-2.09,0,3.08,3.08,0,0,1-.82-3.87c.68-1.43,2.13-2,3.25-1.31.67-1.43,2.13-2,3.25-1.31A2.07,2.07,0,0,1,144.81,36.05Z"/><path d="M81.34,43.71a2.83,2.83,0,0,1-2.82-1A1.15,1.15,0,0,0,79,41.37a1.08,1.08,0,0,0-.12-.24,1.14,1.14,0,0,0-1.21-.48l-.14,0-.06,0-2.24-4a1.63,1.63,0,0,1,.43-.18,3.09,3.09,0,0,1,3.44,2,3.09,3.09,0,0,1,3.44,2C83.14,41.87,82.61,43.34,81.34,43.71Z"/><path d="M96.58,42.58a2.86,2.86,0,0,1-2.08-.19,2.92,2.92,0,0,1-1-.79.71.71,0,0,0,.17-.11,1.13,1.13,0,0,0,.41-1.22,1.33,1.33,0,0,0-.09-.21,1.11,1.11,0,0,0-1.1-.61.85.85,0,0,0-.22,0,1.31,1.31,0,0,0-.21.08,1.15,1.15,0,0,0-.62,1.1,1.85,1.85,0,0,0,0,.23,1.16,1.16,0,0,0,1.12.83h.07a2.89,2.89,0,0,1-1.08,2,3,3,0,0,1-1,.51,2.91,2.91,0,0,1-1.6-5.59A2.91,2.91,0,1,1,95,37a2.91,2.91,0,1,1,1.6,5.59Z"/><path class="cls-4" d="M70.44,157.75l-.64-.17a72.49,72.49,0,0,0,2.47-21.75c-.84-20.65-10.35-36.29-18.19-45.77l-.48-.61.52-.41.47.61c7.9,9.55,17.49,25.32,18.34,46.16A73.11,73.11,0,0,1,70.44,157.75Z"/><path d="M29.2,105.75a.29.29,0,0,1-.24-.11.33.33,0,0,1,0-.46A95.26,95.26,0,0,1,68.52,83.67a.32.32,0,0,1,.4.23.33.33,0,0,1-.23.4,95.52,95.52,0,0,0-27.5,12.27,94.55,94.55,0,0,0-11.77,9.1A.35.35,0,0,1,29.2,105.75Z"/><path d="M154.68,136.39l-.14,0L130,124.67a.32.32,0,0,1-.16-.44.33.33,0,0,1,.44-.15l24.55,11.68a.33.33,0,0,1,.15.44A.32.32,0,0,1,154.68,136.39Z"/><path class="cls-4" d="M116.4,98.76a5.49,5.49,0,0,1-1.59-.25l-.7-.22a5.69,5.69,0,0,1-3.71-7.13l1.83-5,.62.23-1.83,5a5,5,0,0,0,.35,3.81,5,5,0,0,0,2.94,2.48l.7.22a4.64,4.64,0,0,0,5.8-3l2.22-5.6.62.24-2.22,5.58a5.22,5.22,0,0,1-2.59,3.06A5.28,5.28,0,0,1,116.4,98.76Z"/><path class="cls-4" d="M81.12,87.3l-.1-.65a11.15,11.15,0,0,0,8.08-5.43,64.57,64.57,0,0,0,5.55-14.56A108,108,0,0,0,97.2,54.19l.45-3.11.65.09-.44,3.11a111.61,111.61,0,0,1-2.57,12.55,65.41,65.41,0,0,1-5.62,14.71A11.8,11.8,0,0,1,81.12,87.3Z"/><path class="cls-4" d="M71.39,85.33a4.59,4.59,0,0,1-2.61-.78,4.85,4.85,0,0,1-1.65-5.81,4.32,4.32,0,0,1,3.28-2.36,3.67,3.67,0,0,1,3,1.23,3.19,3.19,0,0,1,.66,3,2.76,2.76,0,0,1-2.15,1.82,2.28,2.28,0,0,1-1.9-.64,2.33,2.33,0,0,1-.57-1.68,1.26,1.26,0,0,1,.44-.91,1.41,1.41,0,0,1,1.2-.18l-.15.65a.81.81,0,0,0-.64,0,.58.58,0,0,0-.19.45,1.65,1.65,0,0,0,.4,1.18,1.63,1.63,0,0,0,1.33.42,2.05,2.05,0,0,0,1.61-1.38A2.53,2.53,0,0,0,72.9,78a3,3,0,0,0-2.45-1,3.58,3.58,0,0,0-2.72,2,4.22,4.22,0,0,0,1.43,5,4,4,0,0,0,2.4.66c2.55-.11,4.56-2.55,6.19-4.93,3-4.33,5-9,6.8-15.77a98.47,98.47,0,0,0,2.29-11.21l.66.1a102,102,0,0,1-2.31,11.28c-1.79,6.71-3.91,11.63-6.89,16-1.72,2.51-3.87,5.09-6.71,5.22Z"/><path d="M84.46,53.7a.33.33,0,0,1-.32-.26.34.34,0,0,1,.25-.39,135.62,135.62,0,0,1,50.44-1.41.33.33,0,0,1,.27.38.32.32,0,0,1-.37.27,136.3,136.3,0,0,0-22.49-1.71A134.87,134.87,0,0,0,84.53,53.7Z"/><polygon class="cls-1" points="157.88 122.53 157.88 48.19 163.13 43.41 169.4 48.19 169.4 123.33 157.88 122.53"/><path class="cls-4" d="M169.4,123.66a.33.33,0,0,1-.33-.33v-75l-5.92-4.51-4.94,4.49v74.2a.33.33,0,1,1-.66,0V48.19a.34.34,0,0,1,.11-.25l5.25-4.77a.32.32,0,0,1,.42,0l6.27,4.77a.32.32,0,0,1,.13.27v75.14A.33.33,0,0,1,169.4,123.66Z"/><path class="cls-4" d="M162.33,123a93.39,93.39,0,0,1,.84-17.84,47.28,47.28,0,0,0,1.08-8.59,30.64,30.64,0,0,0-.35-4.29c-.41-2.89-1.66-5.65-1.94-8.61-.61-4.5.55-8.87,1.27-13.25a74.81,74.81,0,0,0,.41-17.57,75.49,75.49,0,0,1,.25,17.65c-.27,2.91-1,5.78-1,8.71a23.56,23.56,0,0,0,1.32,8.48,30.15,30.15,0,0,1,1.73,8.83,46.8,46.8,0,0,1-.77,8.92,91.84,91.84,0,0,0-.16,17.39l-2.63.17Z"/><path class="cls-2" d="M173.72,123.62c-1.07-.06-2.71-.15-4.7-.29-2.18-.15-3-.23-5.65-.46-5.87-.48-9.46-.69-11.84.94a3.83,3.83,0,0,0-.75.66c-1.29,1.5-2,4.6-.3,6.09,1.16,1,3.46,1.31,4.63-.08a3.42,3.42,0,0,0,.37-3.42c2.26,0,4.6,0,7,0,3.93.09,7.68.31,11.25.62Z"/><path d="M152.9,131.76a4.05,4.05,0,0,1-2.64-1c-1.85-1.66-1.08-5,.27-6.54a4,4,0,0,1,.81-.72c2.47-1.69,6-1.49,12-1l2.15.18c1.21.1,2,.17,3.5.27,2,.14,3.63.23,4.7.29a.32.32,0,0,1,.31.34.32.32,0,0,1-.34.32c-1.08-.06-2.72-.15-4.72-.29-1.47-.1-2.29-.17-3.5-.28l-2.15-.18c-5.89-.48-9.34-.68-11.63.88a3.58,3.58,0,0,0-.68.61c-1.15,1.32-1.87,4.24-.33,5.62a3.43,3.43,0,0,0,2.43.78,2.41,2.41,0,0,0,1.72-.82,3,3,0,0,0,.32-3.09.33.33,0,0,1,.31-.45c2.31,0,4.67,0,7,0,3.74.09,7.54.3,11.27.63a.32.32,0,0,1,.3.35.33.33,0,0,1-.36.3c-3.72-.32-7.5-.53-11.23-.62-2.17-.06-4.36-.07-6.53-.05a3.59,3.59,0,0,1-.57,3.31,3.07,3.07,0,0,1-2.19,1.06Z"/><path d="M174.38,257.7h-146V25.57h146ZM29.73,256.38H173.06V26.89H29.73Z"/><path d="M47.31,156.21q-3,0-6.08,0c-4.25-.08-8.31-.31-12.16-.65v-39a45.43,45.43,0,0,1,14.67,17,45.15,45.15,0,0,1,4.65,18.67,3.09,3.09,0,0,0-1.17,1.4A3.31,3.31,0,0,0,47.31,156.21Z"/><path d="M146.39,195.12c-5.51-6.66-17.9-23.57-18.87-47.56a75.14,75.14,0,0,1,2.7-23.15l24.71,11.73a6.39,6.39,0,0,1-.15-3,6.68,6.68,0,0,1,2.61-4c1.07-.74,2.19-.91,4.39-1.22a27.63,27.63,0,0,1,4.47-.28l0-.35c-1.82-.08-3.7-.14-5.62-.17-1.77,0-3.5,0-5.18,0a3.2,3.2,0,0,1,.06,2.68,3.15,3.15,0,0,1-2.92,1.68,3.19,3.19,0,0,1-3.12-3.64l-17.4-8.28a85.12,85.12,0,0,1,20.25-29.43c-1.91-1.09-3.91-2.18-6-3.26-2.6-1.33-5.14-2.53-7.58-3.62a6.27,6.27,0,0,1,.3,1.67,5.45,5.45,0,0,1-.58,2.87A4.31,4.31,0,0,1,135,90.15a2.46,2.46,0,0,1-.78-.13,10.13,10.13,0,0,1,.2,1.6,5.92,5.92,0,0,1-.25,2.64,4.57,4.57,0,0,1-2.47,2.42,4.26,4.26,0,0,1-1.32.25A82.33,82.33,0,0,0,117,130.27H95.64L95.1,153A101.54,101.54,0,0,1,91,172.78a102,102,0,0,1-4.67,12.06c.17,0,3,.06,4.44,1.6a7.2,7.2,0,0,1,1.09,1.74,7,7,0,0,1,.38,1.12c.28,1.17-.3,4.12-2,7.68a16.66,16.66,0,0,1,3.21-5.58A5.19,5.19,0,0,1,95,190.28a5.41,5.41,0,0,1,2.83-.53,6.15,6.15,0,0,1,5.15,3.85,6,6,0,0,1,.11,3.72,5.46,5.46,0,0,1,4.09-1.8,5,5,0,0,1,4.55,3.33,4.24,4.24,0,0,1,0,2.16,9.17,9.17,0,0,1,5-2.78l1.51-.82a100.77,100.77,0,0,1-11-44.41h10.11a84.92,84.92,0,0,0,19,45.7Z"/><path class="cls-1" d="M32.67,155.22l.12.13c.57.57,1.46.3,3,.32a19.56,19.56,0,0,0,4-.13c2.51-.26,4.18-.45,6-1.57a5.67,5.67,0,0,0,.72-.5c3-2.55.77-9.09,0-11.38-.83-2.48-1.49-4.35-3.2-5.09a7.55,7.55,0,0,0-3.59-.42,10.82,10.82,0,0,0-1.53.33,18.72,18.72,0,0,0-2.66,1,6.73,6.73,0,0,0-1.59,0,4.33,4.33,0,0,0-2.67,1c-1.23,1.25-.7,3.35-.65,3.52a5.31,5.31,0,0,0-.59,1.93,5.54,5.54,0,0,0,.2,2.15,5.56,5.56,0,0,0-.2,1.53,5.46,5.46,0,0,0,.3,1.77,4.24,4.24,0,0,0-.15,2,2.69,2.69,0,0,0,.54,1.33,2.64,2.64,0,0,0,1.73.89,1.69,1.69,0,0,0,0,.65A1.92,1.92,0,0,0,32.67,155.22Z"/><path class="cls-4" d="M37.47,156.05l-.58,0c-.26,0-.59,0-1.11,0-2.51,0-3-.08-3.38-.6a2.83,2.83,0,0,1,.75-3.27,3.41,3.41,0,0,1,2.82-.48,3.38,3.38,0,0,0,2.66-.41,2.56,2.56,0,0,0,.74-1.05l.61.24a3.06,3.06,0,0,1-.94,1.32,3.94,3.94,0,0,1-3.14.55,2.87,2.87,0,0,0-2.32.33A2.17,2.17,0,0,0,33,155c.14.21.55.28,2.84.31l1.13,0a15.38,15.38,0,0,0,2.86-.16c2.37-.24,4.07-.41,5.87-1.52a5,5,0,0,0,.68-.47c2.79-2.41.62-8.89-.09-11-.87-2.6-1.49-4.23-3-4.88a7.13,7.13,0,0,0-3.42-.4,10.41,10.41,0,0,0-1.48.32,17,17,0,0,0-2.62.93l-.27-.6a18.31,18.31,0,0,1,2.72-1,12.66,12.66,0,0,1,1.57-.34,7.81,7.81,0,0,1,3.76.45c1.88.81,2.58,2.88,3.38,5.28s3,9-.1,11.74a5.11,5.11,0,0,1-.76.53c-1.93,1.18-3.7,1.37-6.15,1.62C38.45,156,37.9,156.05,37.47,156.05Z"/><path class="cls-4" d="M35.47,155.57a2.27,2.27,0,0,0-.55-2.46,2.6,2.6,0,0,1,1.18,2.66l-.63-.2Z"/><path class="cls-2" d="M133.05,256.46l-5.47-9.87-2.23-4-1.1-2-.08-.13q-2.91-5.28-5.84-10.55A134.93,134.93,0,0,1,68,231.3l-7.68,12.18c-.79,1.24-1.57,2.49-2.36,3.74l-5.82,9.24Z"/><path class="cls-3" d="M65,236a9.68,9.68,0,0,1,7.43-.28,9.38,9.38,0,0,1,4.33,3.54,11.05,11.05,0,0,1,16,.57,11.21,11.21,0,0,1,15.91-2.06,9.43,9.43,0,0,1,6.92-4.48,8.73,8.73,0,0,1,5.4,1.42L119.47,232a138.3,138.3,0,0,1-52.76,1.41Z"/><path class="cls-1" d="M130.17,142.44a34.78,34.78,0,0,1,16.3,12.63,35.81,35.81,0,0,1,6.16,19.67A35.3,35.3,0,0,1,151.08,185a34.23,34.23,0,0,1-3.37,7.5,75.74,75.74,0,0,1-17.54-50.05Z"/><path class="cls-3" d="M170.94,180.16a94.1,94.1,0,0,1-9.77,7.21A92.8,92.8,0,0,1,148.93,194l-1.22-1.53a36.4,36.4,0,0,0,4.88-19.35A34.2,34.2,0,0,0,150.3,162a34.68,34.68,0,0,0-8.78-12.63,35.24,35.24,0,0,0-11.35-7,72.2,72.2,0,0,1,.82-8.87,73.06,73.06,0,0,1,1.68-8l9.14,4.32A54,54,0,0,0,144,145.71a57.36,57.36,0,0,0,13,22.5A66.38,66.38,0,0,0,170.94,180.16Z"/><path class="cls-3" d="M58.56,158l-5.27-2.52a5.64,5.64,0,0,1-1.77,3.79,6.62,6.62,0,0,1-3.19,1.28,11.2,11.2,0,0,1-3.43.18q0,9.51,0,19a72.11,72.11,0,0,0,5.74-7.15A72.62,72.62,0,0,0,58.56,158Z"/><path class="cls-1" d="M132.67,125.61a72.6,72.6,0,0,0-2.47,21.84c.93,23.13,12.89,39.48,18.26,46l.47.6-2.54,1.1c-5.51-6.66-17.9-23.57-18.87-47.56a75.14,75.14,0,0,1,2.7-23.15Z"/><path class="cls-4" d="M139.1,179.53a20.66,20.66,0,0,0-7.87-22.47,75.79,75.79,0,0,0,7.87,22.47Z"/><path class="cls-2" d="M154.68,136.18c.15,1.09.34,2.18.57,3.24,2.79,12.68,11.31,21.73,18.47,27.33v11l-2.78,2.44c-6.56-4.35-23.23-16.77-27.91-38.06a53.46,53.46,0,0,1-1.22-12.17Z"/><path class="cls-2" d="M44.91,179.74a72.3,72.3,0,0,0,7.25-9.39,71.74,71.74,0,0,0,6.32-12.14l12.21,5.56a85.07,85.07,0,0,1-7.28,13.87,85.51,85.51,0,0,1-13,15.56l-5.54-3.33Z"/><path class="cls-2" d="M72.45,186.34a81.16,81.16,0,0,0,7.82-14.17,80.64,80.64,0,0,0,5.16-17l.41-2.19H95.1l-.41,3a98.88,98.88,0,0,1-3.52,16.1,98.2,98.2,0,0,1-4.87,12.71,5.69,5.69,0,0,0-2.25.71,5.75,5.75,0,0,0-2.11,2.08l-2.49,6.25-1.44.31c-.24-3.94-1.77-7-4.1-7.73A3.7,3.7,0,0,0,72.45,186.34Z"/><path class="cls-2" d="M118.18,197.41a99.59,99.59,0,0,1-10.92-41.63l-.11-2.78h10.11l.29,2.35a84.62,84.62,0,0,0,18.71,43.35l-2.07.58a3.93,3.93,0,0,0-.55-.41l-.47-.25a4.68,4.68,0,0,0-1.39-1.32,5,5,0,0,0-2.89-.72,7.24,7.24,0,0,0-2.51-.59q-.34,0-.66,0a9.28,9.28,0,0,0-2.1-.06,10.06,10.06,0,0,0-1.9.36,12.34,12.34,0,0,0-3.54,1.12Z"/><rect class="cls-3" x="86.4" y="137.1" width="29.99" height="9.06"/><path class="cls-2" d="M95.08,141.63a9.32,9.32,0,0,0,0,1.19c.4,4.6,4.5,7.68,6.3,8.86,1.79-1.18,5.9-4.26,6.29-8.86a9.32,9.32,0,0,0,0-1.19,9.2,9.2,0,0,0,0-1.18c-.39-4.6-4.5-7.68-6.29-8.87-1.8,1.19-5.9,4.27-6.3,8.87A9.2,9.2,0,0,0,95.08,141.63Z"/><path class="cls-3" d="M75.13,187.07a82.83,82.83,0,0,0,7.61-13.84,83.35,83.35,0,0,0,5.33-17.55h4a96.91,96.91,0,0,1-3.42,15.67,97.45,97.45,0,0,1-6.67,16.28l-2.49,6.25-1.37.29a9.6,9.6,0,0,0-1.32-5.11A8.9,8.9,0,0,0,75.13,187.07Z"/><path class="cls-3" d="M131.78,197.3a86.63,86.63,0,0,1-16.89-41.62h-5a97,97,0,0,0,10.78,40.81,11.22,11.22,0,0,1,5-.5,7.51,7.51,0,0,1,1.29.07,7.69,7.69,0,0,1,1.88.52,5.07,5.07,0,0,1,1.42.11A4.84,4.84,0,0,1,131.78,197.3Z"/><path class="cls-4" d="M107.82,231.85l-.65-.09.35-2.39A108.68,108.68,0,0,1,110,217.11c2-7.61,4.49-13.28,8-18.39a7.17,7.17,0,0,1,6.27-3.13l1.51.06,0,.66-1.51-.07a6.49,6.49,0,0,0-5.68,2.82c-3.48,5.08-5.92,10.69-7.92,18.22a107.45,107.45,0,0,0-2.5,12.19Z"/><path class="cls-4" d="M110.52,231.46l-.65-.09.24-1.61a107.22,107.22,0,0,1,2.44-12c2-7.3,4.3-12.73,7.64-17.58a28.86,28.86,0,0,1,2.24-2.93,4.94,4.94,0,0,1,4.64-1.53l2.08.51-.16.64-2.06-.51a4.29,4.29,0,0,0-4,1.33,27.92,27.92,0,0,0-2.19,2.86c-3.29,4.79-5.61,10.15-7.54,17.38a103.79,103.79,0,0,0-2.43,11.91Z"/><path class="cls-4" d="M99.88,232.69l-.65-.09.59-4.32a108.32,108.32,0,0,1,2.71-12.72,61.66,61.66,0,0,1,3.06-8.7,11.79,11.79,0,0,1,6.16-6.17l.26.61a11.18,11.18,0,0,0-5.82,5.82,60.33,60.33,0,0,0-3,8.61,107.74,107.74,0,0,0-2.7,12.64Z"/><path class="cls-4" d="M102.49,232.46l-.65-.09.51-3.73A105.77,105.77,0,0,1,105,216.25a68.92,68.92,0,0,1,4.85-12.49c1.52-3.17,3-5,6.76-5.86l.15.65c-3.47.76-4.85,2.45-6.31,5.49a66.37,66.37,0,0,0-4.81,12.38A103.62,103.62,0,0,0,103,228.73Z"/><path d="M131.78,197.63a.33.33,0,0,1-.26-.13A87,87,0,0,1,114.6,156h-4.32A96.68,96.68,0,0,0,121,196.34a.32.32,0,0,1-.15.44.32.32,0,0,1-.44-.14,97.41,97.41,0,0,1-10.82-40.95.34.34,0,0,1,.09-.24.33.33,0,0,1,.24-.1h5a.33.33,0,0,1,.33.29A86.21,86.21,0,0,0,132,197.1a.33.33,0,0,1-.06.46A.31.31,0,0,1,131.78,197.63Z"/><path class="cls-4" d="M113.22,231l-.65-.1.13-.79a102.8,102.8,0,0,1,2.38-11.68c1.87-7,4.11-12.18,7.26-16.78a20.37,20.37,0,0,1,3.73-4.3,5,5,0,0,1,3.88-1.08,5.12,5.12,0,0,1,3.49,2.15l-.54.37a4.48,4.48,0,0,0-3-1.87,4.32,4.32,0,0,0-3.37.94,20.05,20.05,0,0,0-3.61,4.17c-3.11,4.53-5.32,9.64-7.16,16.57a101.59,101.59,0,0,0-2.37,11.61Z"/><path class="cls-4" d="M118.65,229.94l-.65-.09a69.38,69.38,0,0,1,8.31-24.71,10.24,10.24,0,0,1,2.22-2.74,7.23,7.23,0,0,1,.65-.51l.38.53c-.19.14-.4.3-.6.48a9.65,9.65,0,0,0-2.08,2.56,68.88,68.88,0,0,0-8.23,24.48Z"/><path d="M133.05,256.79a.32.32,0,0,1-.29-.17L124,240.73l-.07-.12-4.31-7.78-1.42-2.56a135.4,135.4,0,0,1-50,1.39l-7.56,12c-.79,1.25-1.57,2.5-2.36,3.74l-5.82,9.25a.33.33,0,0,1-.56-.36L57.71,247l2.35-3.74,7.68-12.17a.3.3,0,0,1,.33-.15,134.86,134.86,0,0,0,50.19-1.41.34.34,0,0,1,.36.16l1.53,2.78q2.16,3.88,4.31,7.77l.08.15,8.8,15.87a.34.34,0,0,1-.13.45A.32.32,0,0,1,133.05,256.79Z"/><path d="M89.48,235.58a138.6,138.6,0,0,1-22.82-1.89.33.33,0,1,1,.11-.65,137.87,137.87,0,0,0,52.63-1.4.32.32,0,0,1,.39.25.33.33,0,0,1-.25.39,139.17,139.17,0,0,1-29,3.3Z"/><path class="cls-4" d="M67.69,231.32c-.16-2.55-.24-5.15-.25-7.72,0-12.62,0-23.51,6.5-28.1a15.07,15.07,0,0,1,5.46-1.95l.11.65A14.46,14.46,0,0,0,74.32,196c-6.27,4.39-6.24,15.13-6.22,27.56,0,2.56.09,5.14.25,7.68Z"/><path class="cls-4" d="M97.83,203.22l-.58-.31,3.13-5.86A3,3,0,0,0,99.17,193l-.68-.37a2.61,2.61,0,0,0-3.51,1l-2.37,3.93-.57-.34,2.37-3.91a3.25,3.25,0,0,1,1.92-1.56,3.29,3.29,0,0,1,2.48.26l.68.37a3.68,3.68,0,0,1,1.47,5Z"/><path class="cls-4" d="M96.64,201.85l-.58-.31,2.51-4.62a1.69,1.69,0,0,0,0-1.49,1.52,1.52,0,0,0-1.16-.79,1.43,1.43,0,0,0-1.33.91l-1.91,3.76L93.6,199l1.9-3.75a2.07,2.07,0,0,1,2-1.29,2.14,2.14,0,0,1,1.72,1.15,2.31,2.31,0,0,1,0,2.1Z"/><path class="cls-4" d="M99.42,204.85l-.57-.32,3.5-6.41a5.25,5.25,0,0,0-2.11-7.11l-.68-.37A4.84,4.84,0,0,0,93,192.58l-2.48,4.56-.57-.32,2.47-4.56a5.5,5.5,0,0,1,7.43-2.2l.68.37a5.91,5.91,0,0,1,2.38,8Z"/><path class="cls-4" d="M112,201.08l-.65-.14a4.26,4.26,0,0,0-.28-2.64,4.39,4.39,0,0,0-2.83-2.3,5.1,5.1,0,0,0-5,1.55l-.47-.46a5.75,5.75,0,0,1,5.63-1.72,5.08,5.08,0,0,1,3.25,2.65A5,5,0,0,1,112,201.08Z"/><path class="cls-4" d="M101,206.6l-.59-.28,3.08-6.7a3.76,3.76,0,0,1,7.1,2.29l-.65-.11a3.1,3.1,0,0,0-5.86-1.9Z"/><path class="cls-4" d="M102.39,208.3l-.63-.21c1.1-3.35,3.27-8.94,5.51-8.68a1.46,1.46,0,0,1,.61.22,2.6,2.6,0,0,1,.85,1.11,5.1,5.1,0,0,1,.42,2.21h-.66a4.38,4.38,0,0,0-.37-1.93,1.82,1.82,0,0,0-.59-.82.65.65,0,0,0-.34-.13C106,199.91,104.08,203.15,102.39,208.3Z"/><path class="cls-4" d="M103.79,209.63l-.62-.24c.53-1.32,1.1-2.64,1.71-3.92.51-1.09,1.06-2.18,1.62-3.23l.58.31c-.56,1-1.1,2.12-1.61,3.2C104.88,207,104.31,208.32,103.79,209.63Z"/><path class="cls-4" d="M88.88,196.2l-.63-.2,1.47-4.73a2.89,2.89,0,0,0-1.88-3.62l-.71-.22a2.48,2.48,0,0,0-3.1,1.62L82,193.5l-.6-.27,2.07-4.42a3.06,3.06,0,0,1,1.52-1.8,3.15,3.15,0,0,1,2.39-.21L88,187a3.54,3.54,0,0,1,2.31,4.43Z"/><path class="cls-4" d="M87.33,195.62l-.63-.21L88,191.47a1.67,1.67,0,0,0-.39-1.71,1.29,1.29,0,0,0-.84-.35h0a1.7,1.7,0,0,0-1.47,1.29l-1.36,3.41-.62-.24,1.36-3.39a2.32,2.32,0,0,1,2.09-1.73h0a2.05,2.05,0,0,1,1.29.52,2.31,2.31,0,0,1,.56,2.39Z"/><path d="M92.89,243a.32.32,0,0,1-.24-.11l-1.45-1.6a9.36,9.36,0,0,0-6.69-3,9.18,9.18,0,0,0-6.24,2.54l-1.54,1.49a.33.33,0,0,1-.27.09.31.31,0,0,1-.23-.14L75,240.46a7.47,7.47,0,0,0-3.35-2.74,8.41,8.41,0,0,0-8.54,1.9.33.33,0,0,1-.47,0,.32.32,0,0,1,0-.46,9.06,9.06,0,0,1,9.22-2,8.11,8.11,0,0,1,3.65,3l1,1.46,1.25-1.21a9.8,9.8,0,0,1,6.65-2.73,10.14,10.14,0,0,1,7.23,3.22l1.18,1.31,1.07-1.4A9.74,9.74,0,0,1,107.79,239l1.31,1,.85-1.43a7.82,7.82,0,0,1,5.78-3.78,7.33,7.33,0,0,1,4.49,1.19l2.5,1.29a.33.33,0,0,1,.14.44.32.32,0,0,1-.44.14l-2.53-1.3a6.72,6.72,0,0,0-4.11-1.1,7.21,7.21,0,0,0-5.27,3.45l-1,1.76a.3.3,0,0,1-.22.15.3.3,0,0,1-.26-.06l-1.6-1.26a9.1,9.1,0,0,0-12.93,1.67l-1.31,1.72a.38.38,0,0,1-.25.13Z"/><path d="M92.78,240.19a.33.33,0,0,1-.25-.11,11.05,11.05,0,0,0-8-3.6h-.06a11,11,0,0,0-7.42,3,.37.37,0,0,1-.26.1.36.36,0,0,1-.24-.15,9.1,9.1,0,0,0-4.18-3.41,9.35,9.35,0,0,0-7.17.27.34.34,0,0,1-.44-.17.32.32,0,0,1,.16-.43,10.1,10.1,0,0,1,7.69-.29,9.77,9.77,0,0,1,4.27,3.35,11.55,11.55,0,0,1,7.58-3h.07a11.67,11.67,0,0,1,8.24,3.54,11.88,11.88,0,0,1,8-4.26,11.76,11.76,0,0,1,7.89,2.23,9.7,9.7,0,0,1,7-4.34,9.05,9.05,0,0,1,5.61,1.48.32.32,0,0,1,.1.45.33.33,0,0,1-.46.1,8.4,8.4,0,0,0-5.2-1.37c-4.18.33-6.41,3.91-6.66,4.32a.33.33,0,0,1-.22.16.31.31,0,0,1-.26-.07,10.89,10.89,0,0,0-15.45,2,.34.34,0,0,1-.25.13Z"/><path class="cls-4" d="M67.52,219a18.49,18.49,0,0,1-2.78-5,19.27,19.27,0,0,1-.31-11.91l.63.18a18.63,18.63,0,0,0,.3,11.5A17.71,17.71,0,0,0,68,218.55Z"/><path class="cls-4" d="M71.62,198c-1.68-3.95-2.18-7.37-1.23-8.53a3.63,3.63,0,0,1,1.37-1,3.5,3.5,0,0,1,1.67-.17c1.49.23,2.82,2.87,3.22,6.42l-.65.08c-.39-3.47-1.67-5.7-2.67-5.85A2.9,2.9,0,0,0,72,189a3,3,0,0,0-1.1.84c-.65.79-.4,3.81,1.33,7.85Z"/><path class="cls-4" d="M72.84,196.66c-.74-1.93-1.8-5.3-.59-6.1a1.19,1.19,0,0,1,.66-.17c1.57.11,2.28,3.7,2.46,4.8l-.65.11c-.34-2.07-1.08-4.2-1.86-4.25a.42.42,0,0,0-.25.06c-.56.37-.21,2.55.85,5.32Z"/><path class="cls-4" d="M69,203.41a14.34,14.34,0,0,1-2-5,2,2,0,0,1,.73-1.91,2,2,0,0,1,1.93-.17l-.23.61a1.32,1.32,0,0,0-1.31.1,1.29,1.29,0,0,0-.47,1.27,13.79,13.79,0,0,0,1.94,4.76Z"/><path class="cls-4" d="M68.45,205.85c-2.64-3.88-3.88-7.72-3-9.34a5.23,5.23,0,0,1,.83-1.14,2.75,2.75,0,0,1,2.25-.78,1.43,1.43,0,0,1,.72.27l-.4.52a.82.82,0,0,0-.41-.14,2,2,0,0,0-1.69.6,4.21,4.21,0,0,0-.72,1c-.65,1.19.16,4.54,3,8.65Z"/><path d="M136.13,198.89a.32.32,0,0,1-.25-.12,84.93,84.93,0,0,1-18.66-43.38l-.25-2.07h-9.48l.1,2.45a99.58,99.58,0,0,0,10.88,41.49.33.33,0,0,1-.58.3,100,100,0,0,1-11-41.76l-.11-2.79a.34.34,0,0,1,.09-.24.31.31,0,0,1,.24-.1h10.11a.32.32,0,0,1,.32.29l.3,2.35a84.18,84.18,0,0,0,18.51,43,.33.33,0,0,1,0,.46A.34.34,0,0,1,136.13,198.89Z"/><path d="M72.45,186.67a.35.35,0,0,1-.19-.06.33.33,0,0,1-.08-.46A80.81,80.81,0,0,0,80,172a81.12,81.12,0,0,0,5.14-16.91l.41-2.19a.32.32,0,0,1,.32-.27H95.1a.32.32,0,0,1,.24.11.31.31,0,0,1,.08.26l-.4,3a101,101,0,0,1-3.53,16.16A100.32,100.32,0,0,1,86.6,185a.33.33,0,0,1-.44.16.31.31,0,0,1-.16-.43A99.64,99.64,0,0,0,90.86,172a101,101,0,0,0,3.51-16l.35-2.67H86.11l-.35,1.93a82.46,82.46,0,0,1-5.18,17.05,82.12,82.12,0,0,1-7.86,14.22A.32.32,0,0,1,72.45,186.67Z"/><path d="M81.94,188l-.15,0a.33.33,0,0,1-.14-.45,97.93,97.93,0,0,0,6.65-16.23A98,98,0,0,0,91.66,156H88.34A83.42,83.42,0,0,1,83,173.36a83.7,83.7,0,0,1-7.63,13.89.33.33,0,0,1-.55-.37,81.68,81.68,0,0,0,7.57-13.78,82.65,82.65,0,0,0,5.32-17.48.31.31,0,0,1,.32-.27h4a.33.33,0,0,1,.25.11.35.35,0,0,1,.08.26,98.15,98.15,0,0,1-3.43,15.72,97.67,97.67,0,0,1-6.7,16.35A.32.32,0,0,1,81.94,188Z"/><path class="cls-2" d="M100.65,172.42a2.63,2.63,0,0,1,2.63,2.63,1.67,1.67,0,0,1,0,.33l-.11.62.62-.1a1.69,1.69,0,0,1,.33,0,2.64,2.64,0,0,1,0,5.27l-.32,0-.63-.11.11.62a1.72,1.72,0,0,1,0,.33A2.64,2.64,0,0,1,98,182a1.69,1.69,0,0,1,0-.33l.11-.62-.63.11-.32,0a2.64,2.64,0,1,1,0-5.27,1.51,1.51,0,0,1,.32,0l.63.1-.11-.62a1.61,1.61,0,0,1,0-.33A2.64,2.64,0,0,1,100.65,172.42Z"/><path d="M100.65,180.35a1.85,1.85,0,1,1,1.84-1.85A1.84,1.84,0,0,1,100.65,180.35Zm0-3a1.19,1.19,0,1,0,1.18,1.18A1.18,1.18,0,0,0,100.65,177.32Z"/><path d="M101.4,152a.35.35,0,0,1-.18,0c-2.25-1.48-6.06-4.63-6.45-9.11a9.9,9.9,0,0,1,0-1.22,9.77,9.77,0,0,1,0-1.21c.39-4.48,4.2-7.63,6.45-9.11a.33.33,0,0,1,.36,0c2.24,1.48,6.06,4.63,6.44,9.11a8.42,8.42,0,0,1,0,1.23,8.1,8.1,0,0,1,0,1.2c-.38,4.48-4.2,7.63-6.44,9.11A.41.41,0,0,1,101.4,152Zm0-20c-2.16,1.46-5.62,4.41-6,8.5a8.62,8.62,0,0,0,0,1.14v0a8.62,8.62,0,0,0,0,1.14c.35,4.09,3.81,7,6,8.5,2.16-1.46,5.61-4.41,6-8.5a7.23,7.23,0,0,0,0-1.14,7.53,7.53,0,0,0,0-1.17C107,136.39,103.56,133.44,101.4,132Z"/><path d="M101.4,149.54a.34.34,0,0,1-.2-.06c-1.88-1.45-4.17-3.8-4.42-6.81a7.38,7.38,0,0,1,0-.94v-.19a7.49,7.49,0,0,1,0-.95c.25-3,2.54-5.35,4.42-6.8a.33.33,0,0,1,.4,0c1.87,1.45,4.16,3.8,4.42,6.8a7.55,7.55,0,0,1,0,.95v.18a7.51,7.51,0,0,1,0,.95c-.26,3-2.55,5.36-4.42,6.81A.36.36,0,0,1,101.4,149.54Zm0-15.07c-1.73,1.37-3.74,3.52-4,6.18a6,6,0,0,0,0,.85v.26a6.15,6.15,0,0,0,0,.86c.23,2.66,2.24,4.8,4,6.18,1.72-1.38,3.73-3.52,4-6.18a6.19,6.19,0,0,0,0-.86v-.26a6,6,0,0,0,0-.85C105.13,138,103.12,135.84,101.4,134.47Z"/><path d="M101.4,146.89a.32.32,0,0,1-.23-.09,7,7,0,0,1-2.39-4.3,4.85,4.85,0,0,1,0-.66v-.41a5,5,0,0,1,0-.67,7,7,0,0,1,2.39-4.29.32.32,0,0,1,.46,0,7,7,0,0,1,2.38,4.29,3.76,3.76,0,0,1,0,.67v.41a3.64,3.64,0,0,1,0,.66,7,7,0,0,1-2.38,4.3A.35.35,0,0,1,101.4,146.89Zm0-9.72a6.12,6.12,0,0,0-2,3.65,3.62,3.62,0,0,0,0,.57v.48a3.75,3.75,0,0,0,0,.58,6.14,6.14,0,0,0,2,3.65,6.2,6.2,0,0,0,2-3.65,5.56,5.56,0,0,0,0-.58l0-.22,0-.26a5.42,5.42,0,0,0,0-.57A6.17,6.17,0,0,0,101.4,137.17Z"/><path class="cls-4" d="M90.88,221.74a1.43,1.43,0,1,1-1.43-1.43A1.43,1.43,0,0,1,90.88,221.74Z"/><path class="cls-4" d="M87,223.64a2.82,2.82,0,0,1-.42-1.49,2.87,2.87,0,1,1,5.74,0,2.82,2.82,0,0,1-.2,1l-.61-.24a2.13,2.13,0,0,0,.15-.79,2.21,2.21,0,1,0-4.42,0,2.18,2.18,0,0,0,.32,1.14Z"/><path class="cls-4" d="M73.07,221.8a1.43,1.43,0,1,1-1.43-1.43A1.43,1.43,0,0,1,73.07,221.8Z"/><path class="cls-4" d="M69.34,223.61a2.84,2.84,0,0,1-.57-1.71,2.87,2.87,0,1,1,5.6.88l-.63-.2a2.25,2.25,0,0,0,.11-.68,2.21,2.21,0,0,0-4.42,0,2.16,2.16,0,0,0,.44,1.32Z"/><path class="cls-4" d="M82.09,226.3a20.22,20.22,0,0,0,15.75-.42l.29.56a21.48,21.48,0,0,1-16.69,1.72l.65-1.86Z"/><path class="cls-4" d="M76.58,228.62a11.46,11.46,0,0,0-4.38,0,7,7,0,0,1-4.53-1.16l.3-.56a7,7,0,0,0,2,.59,6.38,6.38,0,0,0,2-.16,12.78,12.78,0,0,1,4.76-.68l-.24,2Z"/><path class="cls-4" d="M81.18,228.8a13.71,13.71,0,0,0,.24-4.38,3.29,3.29,0,0,1-.24,4.38Z"/><path class="cls-4" d="M89.11,226.37a5.92,5.92,0,0,1-2.7-.61,5.82,5.82,0,0,1-2.2-2,.32.32,0,1,1,.54-.36,5.22,5.22,0,0,0,2,1.8c2.67,1.37,6.63.13,10.16-3.08A36.73,36.73,0,0,1,92,223.36c-5.81,1.11-7-.11-7.37-.51a.32.32,0,0,1,0-.46.33.33,0,0,1,.47,0c1.08,1.13,4.29.8,6.78.32A37.08,37.08,0,0,0,98.05,221a.33.33,0,0,1,.39.13.32.32,0,0,1,0,.41C95.44,224.63,92,226.37,89.11,226.37Z"/><path class="cls-4" d="M85.59,223.46A5.11,5.11,0,0,0,83.48,225a5.9,5.9,0,0,1,.48-1.35,9.54,9.54,0,0,1,.86-1.24l.77,1.07Z"/><path class="cls-4" d="M95.83,222.33a.31.31,0,0,1-.24-.1,8.48,8.48,0,0,0-4-2.46,9.13,9.13,0,0,0-7,1.14.33.33,0,0,1-.45-.1.34.34,0,0,1,.1-.46,9.8,9.8,0,0,1,7.57-1.22,9.26,9.26,0,0,1,4.3,2.65.33.33,0,0,1,0,.46A.31.31,0,0,1,95.83,222.33Z"/><path class="cls-1" d="M90.32,221.61a.5.5,0,0,0,.45.53.51.51,0,0,0,.53-.46.49.49,0,0,0-1-.07Z"/><path class="cls-1" d="M72.47,221.78a.49.49,0,1,0,.52-.45A.48.48,0,0,0,72.47,221.78Z"/><path class="cls-4" d="M77,228.51l-.65-.07q.15-1.32.21-2.67a28.85,28.85,0,0,0,0-3.13,19.8,19.8,0,0,0-.85-4.78c-.11-.34-.23-.68-.34-1a8.58,8.58,0,0,1-.7-3.62,3.11,3.11,0,0,1,.51-1.46,3.22,3.22,0,0,1,1.31-1l.07,0a6.32,6.32,0,0,0,2.35-2.21l.54.37a7,7,0,0,1-2.6,2.43l-.08,0a2.55,2.55,0,0,0-1,.8,2.38,2.38,0,0,0-.39,1.15,8,8,0,0,0,.66,3.34c.12.33.24.67.35,1a21.11,21.11,0,0,1,.88,4.94,30.14,30.14,0,0,1,0,3.2C77.18,226.71,77.1,227.63,77,228.51Z"/><path class="cls-4" d="M71.6,226.16a7.17,7.17,0,0,1-4-1.28.33.33,0,0,1,.38-.54,6.15,6.15,0,0,0,8.67-1.5.32.32,0,0,1,.46-.08.33.33,0,0,1,.08.46A6.92,6.92,0,0,1,72.87,226,6.3,6.3,0,0,1,71.6,226.16Z"/><path class="cls-4" d="M67.77,221.21a.33.33,0,0,1-.2-.59,8,8,0,0,1,4-1.59,8.1,8.1,0,0,1,5.2,1.32.33.33,0,0,1-.37.55,7.27,7.27,0,0,0-8.47.24A.31.31,0,0,1,67.77,221.21Z"/><path class="cls-4" d="M70,224a14.41,14.41,0,0,1-2.32-.19l.21-1.3a11.44,11.44,0,0,0,7-.94,10.48,10.48,0,0,0,1.46-.91l.79,1.05a11.35,11.35,0,0,1-1.65,1A12.1,12.1,0,0,1,70,224Z"/><path class="cls-4" d="M82.82,202.19a5,5,0,0,0-6.29.31,3.45,3.45,0,0,1,1.25-1.35,3.71,3.71,0,0,1,5,1Z"/><path class="cls-4" d="M82,206.74a5.57,5.57,0,0,0,3.55-.85,7.6,7.6,0,0,1,4.51-1.12c2.88.47,3.21,5,.3,5.7a2.65,2.65,0,0,1-2.29-.61.32.32,0,0,1,0-.45.33.33,0,0,1,.44,0,1.77,1.77,0,0,0,2.82-.87,1.88,1.88,0,0,0-1.43-2.44c-1.48-.1-3.07,1-4.43,1.84a7.62,7.62,0,0,1-3.5.81,1,1,0,1,1,.07-2Z"/><path class="cls-4" d="M76.93,208.75a15.67,15.67,0,0,1-1.64-.53c-1.28-.58-2.53-1.67-3.83-1.35-2.07.53-1.66,3,.39,3a.31.31,0,0,1,.33.31.32.32,0,0,1-.28.32,2.57,2.57,0,0,1-1.71-.4c-1.91-1.28-1.14-3.8.86-4.5,1.83-.66,3.41.38,4.88.9.49.14,1,.19,1.51.31a1,1,0,1,1-.51,1.91Z"/><path class="cls-4" d="M79,210.76c.7.48,1.15.3,1.92-.15a3,3,0,0,1,1.55-.43c3.58.1,3.86,3.73.85,5.11a.21.21,0,0,1-.18-.38A3.08,3.08,0,0,0,84.64,213c.34-1.29-1.1-2-2.18-1.86s-1.36.89-2.46,1.08a2.62,2.62,0,0,1-1.73-.36.66.66,0,1,1,.69-1.12Z"/><path class="cls-4" d="M86.79,202.2l-.51,2.3a.21.21,0,0,1-.32.14,2.66,2.66,0,0,0-1.28-.43c-1.45-.09-2.05,1.16-3.32.95-.92-.15-1-.87-1.82-.85s-1.11.94-2,.93-1.14-.88-2-.84a1.65,1.65,0,0,0-.83.3.22.22,0,0,1-.34-.16l-.21-1.91a.22.22,0,0,1,.34-.2,4,4,0,0,0,1.59.6c1.29.19,1.78-.48,3.25-.65,1.81-.21,2.22.67,4,.62a6.24,6.24,0,0,0,3.16-1A.21.21,0,0,1,86.79,202.2Z"/><path class="cls-4" d="M68.1,223.84a2.66,2.66,0,0,0-1.83.69,3.32,3.32,0,0,1,1.38-1.93l.45,1.24Z"/><path class="cls-4" d="M75.9,221.53a6.51,6.51,0,0,0-4.16-4.88.21.21,0,0,1,.12-.4,7.35,7.35,0,0,1,5.31,5,.66.66,0,1,1-1.27.32Z"/><path class="cls-4" d="M84.56,223.3c-.21-.37-.41-.71-.61-1.11a2.12,2.12,0,0,1,.32-2.18,12,12,0,0,1,5.19-3.85.22.22,0,0,1,.18.39,11.39,11.39,0,0,0-4.22,3.59c-.38.54-.69,1-.38,1.53.19.3.44.63.64,1a.66.66,0,1,1-1.12.68Z"/><path class="cls-4" d="M85.36,222.31a9.71,9.71,0,0,0,6.26.44,43,43,0,0,0,6.47-1.66l.15.4a45.06,45.06,0,0,1-6.45,2.12,12.42,12.42,0,0,1-5.22.41,15,15,0,0,1-1.74-.5l.53-1.21Z"/><path class="cls-4" d="M84.39,221.63c3.24,2.14,6.67.06,10.15-.14a25.74,25.74,0,0,1,3.63-.2,36.5,36.5,0,0,1-6.9,2.07c-2.32.65-5.46.58-6.88-1.73Z"/><path class="cls-4" d="M67.55,215.88a15.94,15.94,0,0,1-1.92-11.36l.64.14a15.3,15.3,0,0,0,1.84,10.88Z"/><path class="cls-2" d="M104.64,182.67c.18,3.68-.65,5-1.48,5.53-.51.32-1.51.64-1.56,1.28a1.09,1.09,0,0,0,.45.83c.65.55,1.86.4,3-.31.87,3.4,3.06,5.54,5,5.42a3.44,3.44,0,0,0,2.58-1.56c.73-1.14.72-2.8.14-3.1s-1.34,1-2.72.93a2.92,2.92,0,0,1-1.81-.93c-1.27-1.27-.72-2.75-1.5-4.89A8.53,8.53,0,0,0,104.64,182.67Z"/><path class="cls-2" d="M96.6,182.18a4.89,4.89,0,0,1-1.75,3c-.4.3-1.59,1.2-2.7.76-1.36-.55-1.73-2.78-1.26-3.12s.94.61,2.09.8A4.65,4.65,0,0,0,96.6,182.18Z"/><path class="cls-2" d="M96.34,174.91c-2.26-1.26-3.28-3.44-2.71-5a2.92,2.92,0,0,1,2.84-2c1.35.19,2.32,1.8,2,2.31s-1.1-.08-1.89.53a2.36,2.36,0,0,0-.8,1.54A3.8,3.8,0,0,0,96.34,174.91Z"/><path class="cls-2" d="M104.44,174.68a4.68,4.68,0,0,0-.4-3.82c-.8-1.1-2.05-1.19-2-1.8s1.57-1.49,2.9-1.14a3,3,0,0,1,1.88,1.85,4,4,0,0,1-.84,3.6A4.79,4.79,0,0,1,104.44,174.68Z"/><path d="M70.69,164.1a.32.32,0,0,1-.14,0l-17.4-8.29a.34.34,0,0,1-.16-.44.33.33,0,0,1,.44-.15l17.4,8.28a.33.33,0,0,1,.16.44A.34.34,0,0,1,70.69,164.1Z"/><path d="M64,200.4a.31.31,0,0,1-.13,0c-3.83-1.69-7.62-3.57-11.28-5.58-2.66-1.45-5.32-3-7.89-4.64a.33.33,0,1,1,.35-.56c2.56,1.62,5.21,3.17,7.85,4.63,3.65,2,7.43,3.87,11.23,5.55a.33.33,0,0,1,.17.44A.32.32,0,0,1,64,200.4Z"/><path class="cls-1" d="M139.07,194.43l.81-.53a4.5,4.5,0,0,1-.88-.57,5,5,0,0,1-1.13-1.29.06.06,0,0,1,.1-.07,1.76,1.76,0,0,0,1.81.63,1.44,1.44,0,0,0,.8-1,1.75,1.75,0,0,0-.27-1.37,3.46,3.46,0,0,0-1.48-1.26,38.06,38.06,0,0,0-4.3-1.51,35.48,35.48,0,0,0-.33,4.54,3.45,3.45,0,0,0,.57,1.87,1.72,1.72,0,0,0,1.15.79,1.44,1.44,0,0,0,1.2-.35,1.76,1.76,0,0,0,.13-1.91c0-.07.07-.13.11-.07a5.2,5.2,0,0,1,.74,1.55,5.47,5.47,0,0,1,.17,1Z"/><path class="cls-1" d="M133.34,185.79l.85-.44a4.61,4.61,0,0,1-.81-.66,5,5,0,0,1-1-1.4.06.06,0,0,1,.11-.06,1.78,1.78,0,0,0,1.73.82,1.46,1.46,0,0,0,.89-.88,1.77,1.77,0,0,0-.12-1.39,3.53,3.53,0,0,0-1.35-1.41,36.66,36.66,0,0,0-4.12-1.94,39.09,39.09,0,0,0-.8,4.48,3.5,3.5,0,0,0,.38,1.92,1.73,1.73,0,0,0,1.06.9,1.47,1.47,0,0,0,1.23-.22,1.76,1.76,0,0,0,.33-1.89.07.07,0,0,1,.12-.05,5,5,0,0,1,.57,1.62,4.82,4.82,0,0,1,.07,1Z"/><path class="cls-1" d="M128.25,175.36l.9-.32a5.33,5.33,0,0,1-.72-.76,5.21,5.21,0,0,1-.8-1.52.07.07,0,0,1,.12,0,1.77,1.77,0,0,0,1.61,1,1.46,1.46,0,0,0,1-.75,1.73,1.73,0,0,0,.06-1.39,3.44,3.44,0,0,0-1.15-1.58,37.35,37.35,0,0,0-3.82-2.47,37.21,37.21,0,0,0-1.39,4.34,3.55,3.55,0,0,0,.12,1.95,1.76,1.76,0,0,0,.94,1,1.48,1.48,0,0,0,1.25,0,1.78,1.78,0,0,0,.57-1.83.07.07,0,0,1,.13,0,5.3,5.3,0,0,1,.35,1.68,5.49,5.49,0,0,1-.07,1Z"/><path class="cls-1" d="M124.6,164.59l.94-.18a5,5,0,0,1-1.16-2.48.07.07,0,0,1,.13,0,1.77,1.77,0,0,0,1.43,1.28,1.5,1.5,0,0,0,1.1-.59,1.73,1.73,0,0,0,.27-1.37,3.49,3.49,0,0,0-.9-1.74,37.34,37.34,0,0,0-3.41-3,35.76,35.76,0,0,0-2,4.08,3.5,3.5,0,0,0-.18,2,1.77,1.77,0,0,0,.77,1.16,1.49,1.49,0,0,0,1.25.13,1.77,1.77,0,0,0,.84-1.72.07.07,0,0,1,.13,0,5,5,0,0,1,.09,1.71,5.29,5.29,0,0,1-.22,1Z"/><path class="cls-1" d="M122.52,152.94l1-.05A5.48,5.48,0,0,1,123,152a5,5,0,0,1-.32-1.68.07.07,0,0,1,.13,0,1.76,1.76,0,0,0,1.23,1.47,1.5,1.5,0,0,0,1.18-.43,1.78,1.78,0,0,0,.46-1.32,3.53,3.53,0,0,0-.64-1.84,38.28,38.28,0,0,0-3-3.47,37.31,37.31,0,0,0-2.58,3.75,3.49,3.49,0,0,0-.45,1.9,1.73,1.73,0,0,0,.59,1.27,1.46,1.46,0,0,0,1.22.3A1.76,1.76,0,0,0,122,150.3a.07.07,0,0,1,.13,0,5.56,5.56,0,0,1-.15,1.71,6.11,6.11,0,0,1-.37,1Z"/><path class="cls-1" d="M122.12,141.91l1,.08a5,5,0,0,1-.34-1,5.37,5.37,0,0,1-.09-1.71c0-.08.13-.07.13,0a1.75,1.75,0,0,0,1,1.62,1.46,1.46,0,0,0,1.22-.26,1.8,1.8,0,0,0,.64-1.24,3.41,3.41,0,0,0-.39-1.91,37.15,37.15,0,0,0-2.44-3.84,36.86,36.86,0,0,0-3.07,3.36,3.44,3.44,0,0,0-.71,1.82,1.75,1.75,0,0,0,.42,1.33,1.47,1.47,0,0,0,1.16.47,1.75,1.75,0,0,0,1.28-1.42.07.07,0,0,1,.13,0,5.05,5.05,0,0,1-.88,2.59Z"/><path class="cls-1" d="M123.54,129.53l.94.22a4.87,4.87,0,0,1,0-2.74.07.07,0,0,1,.13,0,1.75,1.75,0,0,0,.78,1.75,1.45,1.45,0,0,0,1.25-.08,1.77,1.77,0,0,0,.81-1.13,3.46,3.46,0,0,0-.11-2,35.54,35.54,0,0,0-1.87-4.15,38.86,38.86,0,0,0-3.52,2.89,3.46,3.46,0,0,0-1,1.7,1.82,1.82,0,0,0,.22,1.38,1.49,1.49,0,0,0,1.08.63,1.77,1.77,0,0,0,1.48-1.22.06.06,0,0,1,.12,0,5.11,5.11,0,0,1-.61,1.59,4.59,4.59,0,0,1-.63.84Z"/><path d="M132.1,119.83a.27.27,0,0,1-.12,0,.33.33,0,0,1-.18-.43A85.44,85.44,0,0,1,151,90.9a.33.33,0,0,1,.46,0,.32.32,0,0,1,0,.46,84.73,84.73,0,0,0-19.07,28.25A.34.34,0,0,1,132.1,119.83Z"/><path d="M146.39,195.45a.33.33,0,0,1-.25-.12c-8.16-9.86-18.08-26.15-18.95-47.76a75.72,75.72,0,0,1,2.71-23.25.33.33,0,0,1,.64.18,74.68,74.68,0,0,0-2.69,23c.86,21.43,10.7,37.59,18.8,47.37a.34.34,0,0,1-.05.47A.31.31,0,0,1,146.39,195.45Z"/><path class="cls-4" d="M141.21,182.84l-.61-.25a23.29,23.29,0,0,0-10.07-28.83l.33-.57a23.93,23.93,0,0,1,10.35,29.65Z"/><path class="cls-4" d="M139.42,179.62l-.64-.18A20.3,20.3,0,0,0,131,157.33l.39-.54a21,21,0,0,1,8,22.83Z"/><path class="cls-4" d="M148,192.66l-.56-.34a34.14,34.14,0,0,0-17.37-49.57l.22-.62A34.79,34.79,0,0,1,148,192.66Z"/><path class="cls-4" d="M146,190.56v-.66a5.81,5.81,0,0,0,.72-.05,2.93,2.93,0,0,0,2.17-5.11,6.6,6.6,0,0,0-3.34-2.33l-4-1.29.2-.63,4,1.29a7.28,7.28,0,0,1,3.67,2.57,3.57,3.57,0,0,1-2.61,6.15A5.29,5.29,0,0,1,146,190.56Z"/><path class="cls-4" d="M140.91,182.72l.21-.57,4.58,2a2.12,2.12,0,0,1,1.12,2.76h0a2.12,2.12,0,0,1-2.36,1.25Z"/><path class="cls-4" d="M147.18,182.59a8.18,8.18,0,0,1-1.62-.17l-4.07-.95.15-.64,4.06.94a6.6,6.6,0,0,0,4-.36,2.93,2.93,0,0,0,.68-5.51,6.57,6.57,0,0,0-3.85-1.32l-3.9-.05v-.65l3.9,0a7.27,7.27,0,0,1,4.24,1.46A3.57,3.57,0,0,1,150,182,7,7,0,0,1,147.18,182.59Z"/><path class="cls-4" d="M142.61,175.62l4.61.57a2.11,2.11,0,0,1,1.84,2.34h0a2.1,2.1,0,0,1-2.35,1.83l-4.76-.58Z"/><path class="cls-4" d="M142.44,174.79l0-.66,4.16-.21a6.74,6.74,0,0,0,3.78-1.46,2.93,2.93,0,0,0-.87-5.48,6.6,6.6,0,0,0-4.07-.22l-3.75,1-.18-.63,3.77-1a7.21,7.21,0,0,1,4.47.24,3.56,3.56,0,0,1,1.05,6.59,7.24,7.24,0,0,1-4.16,1.61Z"/><path class="cls-4" d="M142,168.84l4.48-.71a2.1,2.1,0,1,1,.66,4.15l-4.61.73c0-.62-.07-1.28-.15-2S142.17,169.5,142,168.84Z"/><path class="cls-4" d="M141.84,168l-.21-.62,3.62-1.25a6.6,6.6,0,0,0,3.22-2.44,2.93,2.93,0,0,0-2.35-5,6.57,6.57,0,0,0-4,.92l-3.33,2-.34-.56,3.33-2a7.23,7.23,0,0,1,4.37-1,4.12,4.12,0,0,1,3.51,2,4.17,4.17,0,0,1-.68,4,7.34,7.34,0,0,1-3.55,2.69Z"/><path class="cls-4" d="M139.54,162.46l4-1.88a2.1,2.1,0,0,1,1.78,3.81l-4.06,1.89c-.18-.52-.39-1.07-.64-1.66A21.48,21.48,0,0,0,139.54,162.46Z"/><path class="cls-4" d="M139.14,161.68l-.38-.54,3.06-2.14a6.65,6.65,0,0,0,2.43-3.24,2.93,2.93,0,0,0-3.64-4.19,6.61,6.61,0,0,0-3.56,2l-2.51,2.72-.48-.45,2.51-2.72a7.29,7.29,0,0,1,3.92-2.18,3.57,3.57,0,0,1,4.38,5,7.24,7.24,0,0,1-2.66,3.57Z"/><path class="cls-4" d="M135.36,157l3.33-2.89a2.11,2.11,0,0,1,3,.21h0a2.09,2.09,0,0,1-.21,3l-3.32,2.9c-.34-.47-.72-1-1.14-1.45A23.22,23.22,0,0,0,135.36,157Z"/><path class="cls-4" d="M134.73,156.41l-.51-.42,2.35-2.9a6.65,6.65,0,0,0,1.44-3.78,2.93,2.93,0,0,0-4.66-3,6.46,6.46,0,0,0-2.77,2.69l-.58-.32a7.14,7.14,0,0,1,3.06-3,3.57,3.57,0,0,1,5.61,3.63,7.28,7.28,0,0,1-1.59,4.17Z"/><path class="cls-4" d="M133.34,155.26l2.4-3.69a2.11,2.11,0,0,0-3.53-2.3l-1.7,2.62.09.84.09.75c.44.25.89.53,1.36.85S133,155,133.34,155.26Z"/><path class="cls-4" d="M130.57,148.92l-.61-.23a6.52,6.52,0,0,0,.27-3.86,5.73,5.73,0,0,0-.39-1.08l.59-.29a6.42,6.42,0,0,1,.44,1.21A7.17,7.17,0,0,1,130.57,148.92Z"/><path class="cls-4" d="M30.35,142.42c0-.11-.47-2.71.91-4s4.08-1.06,5.71-.62c.76.2,1.72.58,1.92,1.26a1.85,1.85,0,0,1-.18,1.8,1.8,1.8,0,0,1-1.6.58l0-.66a1.23,1.23,0,0,0,1.05-.33,1.3,1.3,0,0,0,.06-1.2c-.06-.21-.49-.56-1.46-.82-1.72-.45-4.18-.37-5.09.48-1.11,1-.71,3.37-.71,3.39Z"/><path class="cls-4" d="M37.64,147.55c-.09.44-.37,1.2-.15,1.58a1.26,1.26,0,0,0,.73.35,2.06,2.06,0,0,0,.89,0,2.13,2.13,0,0,1-.91.2c-.85,0-1.33-.39-1.27-1.29,0-.33,0-.63.07-1l.64.14Z"/><path class="cls-4" d="M38.16,144.42c-.21.42-.66,1.1-.53,1.53a1.3,1.3,0,0,0,.62.55,2.05,2.05,0,0,0,.88.23,2.19,2.19,0,0,1-1-.06,1.13,1.13,0,0,1-.91-1.6,7.21,7.21,0,0,1,.3-.93l.59.28Z"/><path class="cls-4" d="M30,146.55a5.47,5.47,0,0,1,.51-4.41,3,3,0,0,1,1.33-1c2-.87,5.63-.84,7.38.49a2.25,2.25,0,0,1,.86,1.92A1.59,1.59,0,0,1,38.88,145l-.22-.62a1,1,0,0,0,.73-.91,1.58,1.58,0,0,0-.61-1.35c-1.55-1.18-4.94-1.19-6.72-.42a2.32,2.32,0,0,0-1,.77,4.84,4.84,0,0,0-.43,3.87Z"/><path class="cls-4" d="M37.84,141.39c-.21.41-.63,1.05-.52,1.48a1.23,1.23,0,0,0,.58.54,1.86,1.86,0,0,0,.84.24,1.89,1.89,0,0,1-.91-.07c-1.36-.35-1-1.48-.58-2.48l.59.29Z"/><path class="cls-4" d="M37.13,138.22c-.13.31-.44.88-.35,1.17a.92.92,0,0,0,.51.37,1.62,1.62,0,0,0,.7.12,1.72,1.72,0,0,1-.75.06c-1.2-.11-1-1.09-.72-2l.61.24Z"/><path class="cls-4" d="M30.06,149.87a5.72,5.72,0,0,1,.43-4.72,2.89,2.89,0,0,1,1.37-1c2-.87,5.82-.79,7.64.6a2.35,2.35,0,0,1,.91,2,1.73,1.73,0,0,1-1.24,1.59l-.21-.62a1.07,1.07,0,0,0,.79-1,1.69,1.69,0,0,0-.65-1.42c-1.62-1.24-5.15-1.3-7-.52a2.49,2.49,0,0,0-1.08.78,5.11,5.11,0,0,0-.36,4.13Z"/><path class="cls-4" d="M32.44,154.42a.27.27,0,0,1-.12,0l-.13,0a3.79,3.79,0,0,1-1.95-1.25,3,3,0,0,1-.29-2.23c0-.28.05-.55.06-.82a2.63,2.63,0,0,1,1.51-2.21,9.66,9.66,0,0,1,8.14.1,1.64,1.64,0,0,1,.6,1.36c0,1.61-1,2-3,2.23l-2.54.3c-.35,0-1.47.11-2,.14l-.22,0a.33.33,0,0,1,0-.66h.23c.49,0,1.64-.1,2-.14l2.55-.31c2.17-.24,2.41-.67,2.42-1.58a1.12,1.12,0,0,0-.26-.78,8.87,8.87,0,0,0-7.5-.09,2,2,0,0,0-1.17,1.65c0,.28,0,.57-.06.86-.06.68-.13,1.45.12,1.72a3.11,3.11,0,0,0,1.69,1.08l.13.05a.32.32,0,0,1,.19.42A.33.33,0,0,1,32.44,154.42Z"/><path class="cls-4" d="M37.13,141.11a1.46,1.46,0,0,0,1.16-.3,1.12,1.12,0,0,0,.27-.32c1,1.25,1.61,1.48,1.92,1.35.46-.19.49-1.21,1-1.28a.59.59,0,0,1,.32.08c.74.53-1,3.4,0,4.38.29.28.74.34.86.79a1,1,0,0,1-.11.7c-.34.68-1.07.49-1.56,1.06a1.78,1.78,0,0,0-.18,2c.43.65,1.45.59,1.52,1.15a.53.53,0,0,1-.06.33c-.3.51-1.24,0-2.21.42-.76.35-.72.91-1.38,1.08a2,2,0,0,1-1.62-.44,2.68,2.68,0,0,0,1.24-.24,2.73,2.73,0,0,0,1.41-1.59,1.89,1.89,0,0,0,0-1.67,1.52,1.52,0,0,0-.69-.58,1.61,1.61,0,0,0,.84-.71,1.71,1.71,0,0,0,0-1.42,2.07,2.07,0,0,0-1.18-1.13,1.33,1.33,0,0,0,.72-.51,1.59,1.59,0,0,0,.22-1C39.63,142.37,38.6,141.54,37.13,141.11Z"/><circle class="cls-2" cx="38.23" cy="132.44" r="3.92"/><path class="cls-4" d="M38.23,136.69a4.25,4.25,0,1,1,4.25-4.25A4.26,4.26,0,0,1,38.23,136.69Zm0-7.84a3.59,3.59,0,1,0,3.59,3.59A3.59,3.59,0,0,0,38.23,128.85Z"/><path class="cls-4" d="M35.8,133.33c-1.24-2,1.14-4.5,3.28-3.6a2.32,2.32,0,0,1,1.39,1.42,2.66,2.66,0,0,0-4.67,2.18Z"/><path class="cls-2" d="M101.4,160.93a1.45,1.45,0,0,0,1.44-1.43v-6.3a3.07,3.07,0,0,1,1.11-2.41l0,0a2,2,0,0,1,1.07-.49,1.25,1.25,0,0,1,1.19.36,1,1,0,0,1,.18.75.33.33,0,0,1-.26.28,2.12,2.12,0,0,0-.51.2h0a1.19,1.19,0,0,0-.56,1v6.58a3.68,3.68,0,0,1-3.67,3.67h0a3.68,3.68,0,0,1-3.67-3.67v-6.58a1.19,1.19,0,0,0-.56-1h0a2,2,0,0,0-.51-.2.31.31,0,0,1-.25-.28,1,1,0,0,1,.17-.75,1.27,1.27,0,0,1,1.2-.36,2,2,0,0,1,1.06.49l0,0A3.07,3.07,0,0,1,100,153.2v6.3a1.45,1.45,0,0,0,1.44,1.43Z"/><path d="M44.91,184a.35.35,0,0,1-.23-.09.33.33,0,0,1,0-.47,75.3,75.3,0,0,0,9.46-11.77,75.34,75.34,0,0,0,6.52-12.54.33.33,0,0,1,.61.25A75.44,75.44,0,0,1,54.69,172a75.15,75.15,0,0,1-9.54,11.88A.33.33,0,0,1,44.91,184Z"/><path d="M44.91,180.07a.31.31,0,0,1-.22-.09.34.34,0,0,1,0-.47,72.28,72.28,0,0,0,7.22-9.34,72.61,72.61,0,0,0,6.29-12.09.32.32,0,0,1,.42-.18.34.34,0,0,1,.19.43,73.19,73.19,0,0,1-6.35,12.2A72.71,72.71,0,0,1,45.16,180,.36.36,0,0,1,44.91,180.07Z"/><path d="M45.31,189.18a.33.33,0,0,1-.24-.1.34.34,0,0,1,0-.47,78.8,78.8,0,0,0,12.42-14.8,77.79,77.79,0,0,0,6.81-13.05.33.33,0,0,1,.43-.18.33.33,0,0,1,.18.43,78.73,78.73,0,0,1-6.87,13.16,79.06,79.06,0,0,1-12.52,14.92A.35.35,0,0,1,45.31,189.18Z"/><path d="M48.05,192.12a.33.33,0,0,1-.22-.57A82.64,82.64,0,0,0,60.89,176,82.27,82.27,0,0,0,68,162.49a.33.33,0,1,1,.61.25,83.22,83.22,0,0,1-7.13,13.62A83.6,83.6,0,0,1,48.28,192,.34.34,0,0,1,48.05,192.12Z"/><path d="M50.45,193.52a.31.31,0,0,1-.24-.1.32.32,0,0,1,0-.46,84.71,84.71,0,0,0,12.91-15.5,85.43,85.43,0,0,0,7.26-13.82.33.33,0,0,1,.6.26,85,85,0,0,1-7.3,13.92,85.27,85.27,0,0,1-13,15.61A.31.31,0,0,1,50.45,193.52Z"/><path d="M50.06,190.2a.33.33,0,0,1-.33-.29L49.15,185l-4.25-.19a.33.33,0,0,1-.32-.34.34.34,0,0,1,.33-.32h0l4.53.2a.33.33,0,0,1,.32.29l.6,5.16a.31.31,0,0,1-.28.36Z"/><path d="M54.71,185.17a.34.34,0,0,1-.33-.26l-1-4.84H48.49a.33.33,0,0,1-.33-.33.33.33,0,0,1,.33-.33h5.2a.33.33,0,0,1,.32.26l1,5.11a.33.33,0,0,1-.26.39Z"/><path d="M58.72,180.07a.32.32,0,0,1-.31-.25L57.12,175H52.49a.33.33,0,0,1-.33-.33.33.33,0,0,1,.33-.33h4.88a.34.34,0,0,1,.32.25L59,179.65a.32.32,0,0,1-.23.4Z"/><path d="M62.61,174.19a.31.31,0,0,1-.29-.18l-2.07-4.12H55.81a.33.33,0,0,1,0-.66h4.65a.33.33,0,0,1,.29.18l2.15,4.31a.32.32,0,0,1-.14.44A.4.4,0,0,1,62.61,174.19Z"/><path d="M65.87,168.24a.32.32,0,0,1-.29-.18l-2.25-4.26L59,164a.33.33,0,1,1,0-.66l4.53-.21a.31.31,0,0,1,.3.18l2.35,4.45a.32.32,0,0,1-.14.44A.28.28,0,0,1,65.87,168.24Z"/><path d="M173.72,167.08a.31.31,0,0,1-.2-.07c-6.91-5.4-15.74-14.56-18.59-27.52-.23-1.07-.42-2.17-.57-3.27a.32.32,0,0,1,.28-.37.33.33,0,0,1,.37.28c.15,1.08.34,2.17.57,3.22,2.8,12.76,11.52,21.81,18.34,27.15a.32.32,0,0,1-.2.58Z"/><path d="M173.72,169.89a.33.33,0,0,1-.19-.06c-7.76-5.76-17.65-15.61-20.78-29.86a40.84,40.84,0,0,1-.78-5,.33.33,0,0,1,.29-.36.34.34,0,0,1,.36.3,41.83,41.83,0,0,0,.77,4.91c3.09,14,12.87,23.78,20.53,29.47a.33.33,0,0,1-.2.59Z"/><path d="M173.67,172.07a.33.33,0,0,1-.19-.06c-1-.7-1.95-1.44-2.89-2.19a.32.32,0,0,1-.06-.46.33.33,0,0,1,.47-.05c.93.74,1.9,1.47,2.86,2.16a.33.33,0,0,1,.08.46A.35.35,0,0,1,173.67,172.07Z"/><path d="M169,168.43a.34.34,0,0,1-.21-.08c-1-.86-2-1.75-2.92-2.65a.32.32,0,0,1,0-.47.33.33,0,0,1,.46,0c.93.89,1.9,1.77,2.9,2.63a.33.33,0,0,1,0,.46A.3.3,0,0,1,169,168.43Z"/><path d="M164.56,164.26a.34.34,0,0,1-.23-.1c-1-1.08-2-2.19-3-3.3a.33.33,0,1,1,.5-.43c.92,1.11,1.91,2.21,2.94,3.27a.32.32,0,0,1,0,.46A.29.29,0,0,1,164.56,164.26Z"/><path d="M160.37,159.44a.32.32,0,0,1-.26-.13c-.75-1-1.46-1.95-2.12-2.93a.31.31,0,0,1,.08-.45.32.32,0,0,1,.46.08c.66,1,1.36,2,2.1,2.9a.32.32,0,0,1-.06.46A.31.31,0,0,1,160.37,159.44Z"/><path d="M157,154.57a.33.33,0,0,1-.28-.16c-.69-1.13-1.34-2.29-1.92-3.45a.33.33,0,0,1,.14-.44.33.33,0,0,1,.45.15c.57,1.14,1.21,2.28,1.89,3.4a.33.33,0,0,1-.11.45A.34.34,0,0,1,157,154.57Z"/><path d="M154.14,149.13a.32.32,0,0,1-.3-.19c-.54-1.2-1-2.44-1.45-3.67a.33.33,0,0,1,.2-.42.33.33,0,0,1,.42.2c.42,1.22.9,2.44,1.43,3.62a.34.34,0,0,1-.17.44Z"/><path d="M152,143.11a.33.33,0,0,1-.31-.24c-.24-.84-.45-1.69-.64-2.52l-.18-.89a.33.33,0,0,1,.26-.39.35.35,0,0,1,.39.26c.05.3.11.59.18.88.18.82.39,1.65.62,2.48a.32.32,0,0,1-.23.4Z"/><path d="M150.73,137.28a.34.34,0,0,1-.33-.29c-.11-.81-.25-2.11-.32-2.94a.33.33,0,0,1,.3-.36.32.32,0,0,1,.35.3c.07.83.21,2.11.33,2.91a.33.33,0,0,1-.28.37Z"/><path d="M173.67,177.47a.41.41,0,0,1-.18-.05l-.51-.33c-1.13-.75-2.26-1.55-3.35-2.37a.32.32,0,0,1-.07-.46.33.33,0,0,1,.46-.06c1.09.81,2.2,1.6,3.32,2.34l.51.32a.34.34,0,0,1,.1.46A.33.33,0,0,1,173.67,177.47Z"/><path d="M167.58,173a.31.31,0,0,1-.21-.07c-1.08-.88-2.14-1.79-3.15-2.7a.33.33,0,0,1,.45-.49c1,.91,2,1.81,3.11,2.68a.31.31,0,0,1,.05.46A.32.32,0,0,1,167.58,173Z"/><path d="M162.79,168.8a.29.29,0,0,1-.23-.1c-1-1-2-2-3-3.08a.33.33,0,0,1,.49-.45c.93,1,1.92,2.06,3,3.06a.33.33,0,0,1,0,.47A.34.34,0,0,1,162.79,168.8Z"/><path d="M158,163.66a.33.33,0,0,1-.25-.12c-.85-1-1.68-2.09-2.45-3.15a.33.33,0,0,1,.08-.46.32.32,0,0,1,.46.07c.76,1.05,1.57,2.1,2.42,3.12a.34.34,0,0,1,0,.47A.31.31,0,0,1,158,163.66Z"/><path d="M154.28,158.62a.32.32,0,0,1-.27-.15c-.83-1.24-1.61-2.53-2.32-3.82a.33.33,0,0,1,.13-.45.34.34,0,0,1,.45.13c.7,1.28,1.47,2.55,2.29,3.78a.33.33,0,0,1-.1.46A.35.35,0,0,1,154.28,158.62Z"/><path d="M150.82,152.59a.34.34,0,0,1-.3-.19c-.66-1.36-1.27-2.76-1.8-4.16a.32.32,0,0,1,.19-.42.32.32,0,0,1,.42.19c.53,1.37,1.13,2.75,1.79,4.1a.32.32,0,0,1-.16.44A.23.23,0,0,1,150.82,152.59Z"/><path d="M148.22,146.18a.34.34,0,0,1-.32-.23c-.43-1.32-.8-2.67-1.12-4a.33.33,0,0,1,.25-.39.33.33,0,0,1,.4.24c.3,1.33.68,2.66,1.1,4a.33.33,0,0,1-.21.41Z"/><path d="M146.64,140a.33.33,0,0,1-.32-.27c-.29-1.59-.51-3.21-.65-4.84a.33.33,0,0,1,.66,0,47.14,47.14,0,0,0,.64,4.77.34.34,0,0,1-.27.39Z"/><path d="M172.7,179a.41.41,0,0,1-.18-.05l-.52-.34c-8.31-5.51-22.88-17.63-27.11-36.89a51.43,51.43,0,0,1-1.18-10.7.33.33,0,0,1,.33-.33h0a.33.33,0,0,1,.33.33,50.18,50.18,0,0,0,1.17,10.56c4.17,19,18.59,31,26.82,36.48l.52.34a.32.32,0,0,1,.1.45A.33.33,0,0,1,172.7,179Z"/><path d="M170.94,180.49a.29.29,0,0,1-.18-.05c-8.59-5.7-23.65-18.25-28-38.27a54.36,54.36,0,0,1-1.23-12.25.33.33,0,0,1,.33-.32h0a.32.32,0,0,1,.32.33,53,53,0,0,0,1.21,12.1c4.35,19.8,19.27,32.22,27.77,37.86a.33.33,0,0,1,.09.46A.32.32,0,0,1,170.94,180.49Z"/><path d="M167.58,173a.33.33,0,0,1-.24-.1.32.32,0,0,1,0-.46l3.21-3.15a.33.33,0,0,1,.47,0,.34.34,0,0,1,0,.47L167.81,173A.35.35,0,0,1,167.58,173Z"/><path d="M162.79,168.8a.36.36,0,0,1-.25-.11.33.33,0,0,1,0-.47l3.31-3a.33.33,0,1,1,.44.48l-3.31,3A.31.31,0,0,1,162.79,168.8Z"/><path d="M158,163.66a.32.32,0,0,1-.26-.13.32.32,0,0,1,.07-.46l3.57-2.69a.32.32,0,0,1,.46.07.33.33,0,0,1-.06.46l-3.58,2.69A.36.36,0,0,1,158,163.66Z"/><path d="M154.28,158.62a.32.32,0,0,1-.29-.18.33.33,0,0,1,.14-.44l4-2.09a.33.33,0,0,1,.45.13.34.34,0,0,1-.14.45l-4,2.09A.29.29,0,0,1,154.28,158.62Z"/><path d="M150.82,152.59a.32.32,0,0,1-.31-.23.33.33,0,0,1,.2-.42L155,150.5a.32.32,0,0,1,.41.21.33.33,0,0,1-.2.42l-4.27,1.44Z"/><path d="M148.22,146.18a.34.34,0,0,1-.33-.28.34.34,0,0,1,.28-.38l4.48-.68a.33.33,0,0,1,.38.27.34.34,0,0,1-.28.38l-4.48.68Z"/><path d="M146.65,140a.32.32,0,0,1-.33-.31.33.33,0,0,1,.31-.35l4.49-.27a.33.33,0,0,1,0,.66l-4.49.27Z"/><path d="M148.5,137.32a.33.33,0,0,1-.33-.3l-.16-1.83h-2a.33.33,0,0,1-.33-.33.3.3,0,0,1,.33-.32h2.31a.35.35,0,0,1,.33.3l.16,1.83,1.92,0a.32.32,0,0,1,.34.32.34.34,0,0,1-.32.34l-2.23,0Z"/><path d="M149.71,143.55a.33.33,0,0,1-.32-.25l-.36-1.44-1.87.33a.32.32,0,1,1-.11-.64l2.17-.39a.32.32,0,0,1,.38.24l.35,1.44,1.94-.39a.34.34,0,0,1,.39.26.34.34,0,0,1-.26.39l-2.25.44Z"/><path d="M151.9,149.8a.35.35,0,0,1-.3-.2l-.78-1.75-1.69.59a.33.33,0,0,1-.42-.2.32.32,0,0,1,.21-.42l2-.69a.34.34,0,0,1,.41.18l.8,1.76,1.95-.58a.33.33,0,0,1,.41.22.32.32,0,0,1-.22.41l-2.23.66Z"/><path d="M154.84,155.73a.34.34,0,0,1-.29-.17l-.87-1.57-1.55.79a.33.33,0,0,1-.3-.58l1.83-.95a.33.33,0,0,1,.44.14L155,155l1.87-1a.33.33,0,0,1,.32.58L155,155.69A.29.29,0,0,1,154.84,155.73Z"/><path d="M158.37,160.71a.33.33,0,0,1-.26-.13l-.86-1.16-1.46,1a.33.33,0,1,1-.38-.53l1.72-1.23a.33.33,0,0,1,.46.07l.86,1.17,1.75-1.11a.33.33,0,0,1,.35.56l-2,1.27A.41.41,0,0,1,158.37,160.71Z"/><path d="M162.74,165.8a.3.3,0,0,1-.23-.1l-1.18-1.18L160,165.64a.33.33,0,1,1-.44-.49l1.53-1.33a.34.34,0,0,1,.45,0l1.18,1.18,1.59-1.34a.33.33,0,1,1,.43.5L163,165.72A.37.37,0,0,1,162.74,165.8Z"/><path d="M164.45,170.35a.31.31,0,0,1-.24-.1.32.32,0,0,1,0-.46l1.55-1.48a.33.33,0,0,1,.43,0l1.2,1,1.38-1.39a.33.33,0,0,1,.47.47l-1.6,1.59a.33.33,0,0,1-.44,0l-1.2-1-1.34,1.27A.31.31,0,0,1,164.45,170.35Z"/><path d="M169.82,174.79a.34.34,0,0,1-.21-.08.33.33,0,0,1,0-.46l1.37-1.61a.32.32,0,0,1,.43,0l1.55,1.06.53-.82a.33.33,0,0,1,.55.36l-.71,1.1a.3.3,0,0,1-.21.14.34.34,0,0,1-.26-.05l-1.58-1.08-1.17,1.37A.3.3,0,0,1,169.82,174.79Z"/><path class="cls-1" d="M76.5,166l-.87-.4a6.16,6.16,0,0,1,0,1,5.44,5.44,0,0,1-.5,1.65.07.07,0,0,1-.12,0,1.75,1.75,0,0,0-.42-1.87,1.44,1.44,0,0,0-1.23-.17,1.73,1.73,0,0,0-1,1,3.53,3.53,0,0,0-.29,1.93,38.21,38.21,0,0,0,1,4.44,35.44,35.44,0,0,0,4-2.12,3.41,3.41,0,0,0,1.28-1.47,1.72,1.72,0,0,0,.06-1.4,1.45,1.45,0,0,0-.93-.83,1.75,1.75,0,0,0-1.69.9c0,.06-.15,0-.11-.06a4.89,4.89,0,0,1,.92-1.44,5.37,5.37,0,0,1,.79-.7Z"/><path class="cls-1" d="M70.94,177.25l-.81-.51a5.41,5.41,0,0,1-.16,1,5.14,5.14,0,0,1-.72,1.56.06.06,0,0,1-.11-.06,1.75,1.75,0,0,0-.16-1.91,1.44,1.44,0,0,0-1.2-.34,1.76,1.76,0,0,0-1.14.8,3.45,3.45,0,0,0-.55,1.88,39.15,39.15,0,0,0,.38,4.53,34.83,34.83,0,0,0,4.28-1.55,3.51,3.51,0,0,0,1.48-1.29,1.77,1.77,0,0,0,.24-1.37,1.43,1.43,0,0,0-.81-1,1.75,1.75,0,0,0-1.8.66c0,.06-.14,0-.1-.08a5.35,5.35,0,0,1,1.11-1.3,4.86,4.86,0,0,1,.87-.58Z"/><path class="cls-1" d="M64,187.47l-.73-.62a5.26,5.26,0,0,1-.3,1,5.35,5.35,0,0,1-.93,1.44c0,.06-.14,0-.1-.08a1.76,1.76,0,0,0,.11-1.91,1.43,1.43,0,0,0-1.14-.5,1.81,1.81,0,0,0-1.25.63,3.52,3.52,0,0,0-.81,1.78,38.47,38.47,0,0,0-.26,4.54,35.87,35.87,0,0,0,4.46-.93,3.41,3.41,0,0,0,1.64-1.06,1.74,1.74,0,0,0,.44-1.33,1.45,1.45,0,0,0-.67-1.05,1.74,1.74,0,0,0-1.87.39.06.06,0,0,1-.09-.09,5.16,5.16,0,0,1,1.28-1.13,5.33,5.33,0,0,1,1-.45Z"/><path d="M61.62,241.59l-.06,0c.36-.58.71-1.15,1.08-1.72l.18-.3c2.62-2.29,6.15-3.25,9-2.13a7.89,7.89,0,0,1,3.5,2.86c.4.6.8,1.2,1.19,1.8l1.54-1.5a9.52,9.52,0,0,1,6.42-2.63h.05a9.71,9.71,0,0,1,6.94,3.12l1.44,1.6,1.31-1.72a9.42,9.42,0,0,1,13.39-1.73l1.6,1.26c.35-.58.69-1.17,1-1.76a7.52,7.52,0,0,1,5.52-3.61,6.93,6.93,0,0,1,4.29,1.14l2.53,1.3,1.32,2.4-.4.26a4.25,4.25,0,0,0-4.13-2.82,4.09,4.09,0,0,0-2.85,1.65,4.59,4.59,0,0,0-3.77-.68,4.13,4.13,0,0,0-1.93,1.25,4.64,4.64,0,0,0-1,1.94h-.07l-.22,0a1,1,0,0,0-.21.09l-.17.11a6.6,6.6,0,0,0-.83-.91,5,5,0,0,0-4.85-1.41,4.5,4.5,0,0,0-2.39,2A3.85,3.85,0,0,0,99,240c-1.57-.38-3.45.46-4.9,2.23a9.47,9.47,0,0,0-.84,1.23l-.09,0a.91.91,0,0,0-.23,0,.83.83,0,0,0-.22,0,.47.47,0,0,0-.16,0,5.73,5.73,0,0,0-1-1.4,5,5,0,0,0-3.85-1.56,5.26,5.26,0,0,0-3.77,2.29,4.46,4.46,0,0,0-3.3-2,4.31,4.31,0,0,0-3.76,2,4.56,4.56,0,0,0-.33.56l-.11-.06-.18-.06a.82.82,0,0,0-.22,0h0a6.17,6.17,0,0,0-.7-1.56,4.67,4.67,0,0,0-3.68-2.35,4.58,4.58,0,0,0-3.18,1.35,3.65,3.65,0,0,0-2.07-1.52,4.17,4.17,0,0,0-4.25,2l-.27.46-.09,0Z"/><path d="M87.08,244.57A2.91,2.91,0,0,1,90,241.66a2.93,2.93,0,0,1,2.69,1.8.47.47,0,0,0-.16,0,1.15,1.15,0,0,0-.76,1.07,1.79,1.79,0,0,0,0,.23,1.13,1.13,0,0,0,.9.89.83.83,0,0,0,.22,0,.91.91,0,0,0,.23,0,1.13,1.13,0,0,0,.89-.89,1.79,1.79,0,0,0,0-.23,1.14,1.14,0,0,0-.82-1.09l-.09,0a2.9,2.9,0,0,1,2.68-1.8,2.91,2.91,0,0,1,0,5.82,2.91,2.91,0,1,1-5.82,0A2.91,2.91,0,0,1,87.08,244.57Z"/><path d="M70.77,243a2.58,2.58,0,0,1,4.52-1.32,3.07,3.07,0,0,1,.71,1.56h0a1.13,1.13,0,0,0-1.15.86,1.94,1.94,0,0,0,0,.24,1.13,1.13,0,0,0,.68,1.08l.18.06a.91.91,0,0,0,.23,0,1.12,1.12,0,0,0,1-.61.82.82,0,0,0,.1-.26,1.13,1.13,0,0,0-.55-1.26l-.11-.06a2.67,2.67,0,0,1,.44-.5,2.47,2.47,0,0,1,2.33-.59,2.93,2.93,0,0,1,2,3.51,2.67,2.67,0,0,1-3.23,2.14A2.65,2.65,0,0,1,74.7,250a2.92,2.92,0,0,1-2-3.51A2.92,2.92,0,0,1,70.77,243Z"/><path d="M58,247.22c.79-1.25,1.57-2.5,2.36-3.74l.08.05a.92.92,0,0,0,.23.09,1.12,1.12,0,0,0,1.08-.26,1.09,1.09,0,0,0,.23-.29,1.15,1.15,0,0,0-.21-1.37l-.13-.11a2.93,2.93,0,0,1,.49-.38,2,2,0,0,1,2.1,0,3.09,3.09,0,0,1,.81,3.87c-.67,1.43-2.12,2-3.25,1.31-.67,1.43-2.13,2-3.25,1.31A2.45,2.45,0,0,1,58,247.22Z"/><path d="M121.45,239.55a2.88,2.88,0,0,1,2.83,1,1.12,1.12,0,0,0-.46,1.35.84.84,0,0,0,.12.23,1.11,1.11,0,0,0,1.2.49l.14,0,.07,0,2.23,4a1.85,1.85,0,0,1-.43.18,3.1,3.1,0,0,1-3.44-2,3.08,3.08,0,0,1-3.43-2A2.3,2.3,0,0,1,121.45,239.55Z"/><path d="M106.21,240.69a2.91,2.91,0,0,1,3.08,1l-.17.11a1.12,1.12,0,0,0-.4,1.22,1.8,1.8,0,0,0,.08.21,1.15,1.15,0,0,0,1.1.61l.22,0a.67.67,0,0,0,.21-.09,1.12,1.12,0,0,0,.62-1.1.93.93,0,0,0,0-.22,1.15,1.15,0,0,0-1.12-.83h-.07a2.88,2.88,0,0,1,1.09-1.94,2.71,2.71,0,0,1,1-.51,2.91,2.91,0,1,1,1.6,5.59,2.91,2.91,0,0,1-5.6,1.6,2.91,2.91,0,0,1-1.6-5.59Z"/><path class="cls-4" d="M148.67,194.22l-.47-.6c-7.89-9.55-17.49-25.32-18.33-46.16a72.75,72.75,0,0,1,2.49-21.94l.63.17a72.13,72.13,0,0,0-2.46,21.75c.83,20.65,10.35,36.29,18.18,45.77l.48.61Z"/><path d="M134.19,199.61a.31.31,0,0,1-.31-.24.31.31,0,0,1,.23-.4A95.34,95.34,0,0,0,161.6,186.7a94,94,0,0,0,11.77-9.1.34.34,0,0,1,.47,0,.33.33,0,0,1,0,.47A94.35,94.35,0,0,1,162,187.25a95.83,95.83,0,0,1-27.68,12.35Z"/><path d="M72.66,159.22a.4.4,0,0,1-.15,0L48,147.51a.33.33,0,0,1,.28-.6L72.8,158.6A.33.33,0,0,1,73,159,.32.32,0,0,1,72.66,159.22Z"/><path class="cls-4" d="M90.56,197.09l-.61-.22,1.82-5a5,5,0,0,0-3.28-6.29l-.71-.22a4.62,4.62,0,0,0-5.8,3L79.76,194l-.61-.24,2.21-5.58A5.29,5.29,0,0,1,88,184.76l.71.22a5.7,5.7,0,0,1,3.7,7.13Z"/><path class="cls-4" d="M70.46,199.75c-2.48-5.22-3.11-10-1.57-11.88A5.67,5.67,0,0,1,71,186.28a5.56,5.56,0,0,1,3-.14c2.37.59,4.19,3.89,4.42,8l-.65,0c-.22-3.78-1.87-6.89-3.93-7.41a4.82,4.82,0,0,0-2.58.12,4.9,4.9,0,0,0-1.85,1.39c-1.36,1.67-.68,6.26,1.66,11.17Z"/><path class="cls-4" d="M105.14,232.19l-.65-.1.45-3.1a109.4,109.4,0,0,1,2.56-12.55,65.71,65.71,0,0,1,5.62-14.71,11.81,11.81,0,0,1,8.55-5.77l.1.65a11.13,11.13,0,0,0-8.07,5.44,64.85,64.85,0,0,0-5.56,14.56,110.18,110.18,0,0,0-2.55,12.47Z"/><path class="cls-4" d="M116,230.51l-.65-.1a99.71,99.71,0,0,1,2.31-11.28,49.69,49.69,0,0,1,6.89-16c1.72-2.51,3.86-5.09,6.71-5.21a4.55,4.55,0,0,1,2.8.78,4.84,4.84,0,0,1,1.65,5.81,4.27,4.27,0,0,1-3.27,2.36,3.69,3.69,0,0,1-3-1.24,3.14,3.14,0,0,1-.65-3,2.71,2.71,0,0,1,2.15-1.82,2.29,2.29,0,0,1,1.89.63,2.32,2.32,0,0,1,.57,1.68,1.23,1.23,0,0,1-.44.92,1.37,1.37,0,0,1-1.2.17l.15-.64a.8.8,0,0,0,.65-.05.7.7,0,0,0,.19-.45,1.66,1.66,0,0,0-.41-1.18,1.58,1.58,0,0,0-1.33-.42,2.05,2.05,0,0,0-1.6,1.38,2.53,2.53,0,0,0,.54,2.33,3,3,0,0,0,2.45,1,3.62,3.62,0,0,0,2.73-2,4.21,4.21,0,0,0-1.44-5,3.93,3.93,0,0,0-2.4-.66c-2.55.11-4.56,2.55-6.19,4.93-3,4.33-5,9.05-6.8,15.77A100.22,100.22,0,0,0,116,230.51Z"/><path class="cls-4" d="M68.07,208.37c-3.94-5.15-5.59-10.14-4.19-12.71a5.3,5.3,0,0,1,3-2.73,3.94,3.94,0,0,1,1.84,0l-.15.64a3.25,3.25,0,0,0-1.52,0A4.67,4.67,0,0,0,64.46,196c-1.26,2.3.41,7.12,4.13,12Z"/><path d="M89.5,233.35A136,136,0,0,1,68,231.63a.33.33,0,1,1,.11-.65,134.86,134.86,0,0,0,50.19-1.41.33.33,0,0,1,.39.25.32.32,0,0,1-.25.39,134.67,134.67,0,0,1-27.84,3.13Z"/><polygon class="cls-1" points="44.91 160.74 44.91 235.08 39.66 239.86 33.39 235.08 33.39 159.94 44.91 160.74"/><path class="cls-4" d="M39.66,240.19a.26.26,0,0,1-.19-.07l-6.28-4.78a.33.33,0,0,1-.13-.26V159.94a.33.33,0,1,1,.66,0v75l5.93,4.51,4.93-4.49V160.73a.33.33,0,0,1,.66,0v74.35a.32.32,0,0,1-.11.24l-5.24,4.78A.35.35,0,0,1,39.66,240.19Z"/><path class="cls-4" d="M40.47,160.31a94.94,94.94,0,0,1-.84,17.83c-.47,2.91-1.16,5.67-1.08,8.6a32.21,32.21,0,0,0,.34,4.28c.42,2.9,1.66,5.66,2,8.62.61,4.5-.56,8.87-1.28,13.25a75.9,75.9,0,0,0-.41,17.57,75.5,75.5,0,0,1-.24-17.65c.26-2.91,1-5.79,1.05-8.71a23.75,23.75,0,0,0-1.32-8.48,30.49,30.49,0,0,1-1.74-8.83c-.2-3,.41-6,.77-8.92a91.12,91.12,0,0,0,.17-17.4l2.63-.16Z"/><path class="cls-2" d="M29.07,159.65c1.07.06,2.71.15,4.71.29,2.18.15,2.94.23,5.65.45,5.87.49,9.45.69,11.84-.93a4.26,4.26,0,0,0,.74-.66c1.3-1.5,2-4.6.3-6.09-1.16-1-3.46-1.31-4.62.08a3.4,3.4,0,0,0-.38,3.42q-3.39,0-7,0c-3.92-.1-7.68-.32-11.25-.63Z"/><path d="M45.57,161.07c-1.71,0-3.74-.15-6.17-.35l-2.16-.18-3.48-.28c-1.59-.11-3.17-.2-4.71-.28a.33.33,0,0,1-.31-.35.32.32,0,0,1,.35-.31c1.54.08,3.12.18,4.71.29s2.29.17,3.5.27l2.15.18c5.9.49,9.34.69,11.63-.87a3.51,3.51,0,0,0,.68-.61c1.15-1.33,1.87-4.25.33-5.62a3.37,3.37,0,0,0-2.42-.78,2.39,2.39,0,0,0-1.73.82,3.06,3.06,0,0,0-.32,3.09.32.32,0,0,1,0,.3.33.33,0,0,1-.27.15c-2.33,0-4.69,0-7,0-3.74-.09-7.53-.3-11.27-.63a.33.33,0,0,1-.3-.35.33.33,0,0,1,.36-.3c3.72.32,7.5.53,11.23.62,2.16.06,4.36.07,6.53,0a3.61,3.61,0,0,1,.58-3.32,3,3,0,0,1,2.18-1,4.05,4.05,0,0,1,2.91.95c1.86,1.66,1.08,5-.27,6.54a4.17,4.17,0,0,1-.81.72C50,160.74,48.12,161.07,45.57,161.07Z"/><path d="M174.38,257.7h-146V25.57h146ZM29.73,256.38H173.06V26.89H29.73Z"/><path class="cls-1" d="M126.3,117.27l.87.4a4.68,4.68,0,0,1,0-1,5.19,5.19,0,0,1,.5-1.64c0-.07.14,0,.12,0a1.75,1.75,0,0,0,.41,1.87,1.46,1.46,0,0,0,1.24.17,1.8,1.8,0,0,0,1-.95,3.45,3.45,0,0,0,.29-1.93,36.46,36.46,0,0,0-1-4.45,38.63,38.63,0,0,0-4,2.13,3.41,3.41,0,0,0-1.28,1.47,1.74,1.74,0,0,0-.06,1.39,1.49,1.49,0,0,0,.93.84,1.75,1.75,0,0,0,1.69-.9.07.07,0,0,1,.12.06,5.3,5.3,0,0,1-.93,1.44,4.87,4.87,0,0,1-.78.7Z"/><path class="cls-1" d="M131.86,106l.8.51a5.5,5.5,0,0,1,.17-1,4.9,4.9,0,0,1,.71-1.56.06.06,0,0,1,.11.06,1.77,1.77,0,0,0,.16,1.91,1.48,1.48,0,0,0,1.2.34,1.79,1.79,0,0,0,1.15-.8,3.66,3.66,0,0,0,.55-1.88,37,37,0,0,0-.39-4.54,37.07,37.07,0,0,0-4.28,1.56,3.41,3.41,0,0,0-1.47,1.28,1.75,1.75,0,0,0-.25,1.38,1.48,1.48,0,0,0,.81,1,1.76,1.76,0,0,0,1.8-.66.06.06,0,0,1,.1.07,5,5,0,0,1-1.11,1.31,4.86,4.86,0,0,1-.87.58Z"/><path class="cls-1" d="M138.76,95.79l.73.63a4.7,4.7,0,0,1,.31-1,4.78,4.78,0,0,1,.93-1.44.06.06,0,0,1,.1.07,1.78,1.78,0,0,0-.12,1.92,1.5,1.5,0,0,0,1.15.5,1.76,1.76,0,0,0,1.24-.63,3.52,3.52,0,0,0,.81-1.78,38.51,38.51,0,0,0,.26-4.55,36.68,36.68,0,0,0-4.46.94,3.5,3.5,0,0,0-1.64,1.06,1.79,1.79,0,0,0-.43,1.33,1.44,1.44,0,0,0,.66,1,1.76,1.76,0,0,0,1.88-.4.06.06,0,0,1,.09.09A5.06,5.06,0,0,1,139,94.72a5.66,5.66,0,0,1-.94.45Z"/><path class="cls-4" d="M135,90.45a4.78,4.78,0,0,1-.91-.1l.14-.65a3.29,3.29,0,0,0,1.53,0,4.81,4.81,0,0,0,2.56-2.41c1.25-2.3-.41-7.12-4.14-12l.52-.4c3.95,5.15,5.59,10.14,4.2,12.71a5.3,5.3,0,0,1-3,2.73A4,4,0,0,1,135,90.45Z"/><path class="cls-4" d="M130,97.27a5,5,0,0,1-1.22-.15c-2.37-.59-4.19-3.88-4.42-8l.66,0c.21,3.78,1.86,6.89,3.92,7.41A4.14,4.14,0,0,0,133.39,95c1.36-1.67.68-6.27-1.66-11.18l.6-.28c2.48,5.21,3.11,10,1.57,11.87A4.59,4.59,0,0,1,130,97.27Z"/><path class="cls-1" d="M170.12,128.05a.64.64,0,0,0-.12-.13c-.57-.57-1.46-.3-3-.32a19.48,19.48,0,0,0-4,.13c-2.51.26-4.19.45-6,1.57a5,5,0,0,0-.72.5c-3,2.55-.77,9.09,0,11.38.83,2.48,1.49,4.35,3.2,5.08a7.46,7.46,0,0,0,3.6.43,11.86,11.86,0,0,0,1.52-.33,18.93,18.93,0,0,0,2.67-1,6.3,6.3,0,0,0,1.59,0,4.25,4.25,0,0,0,2.66-1c1.24-1.25.7-3.35.66-3.53a5.37,5.37,0,0,0,.59-1.92,5.3,5.3,0,0,0-.21-2.15,5.52,5.52,0,0,0,.21-1.53,5.74,5.74,0,0,0-.3-1.77,4.16,4.16,0,0,0,.14-2,2.69,2.69,0,0,0-.54-1.33,2.62,2.62,0,0,0-1.73-.89,1.74,1.74,0,0,0,0-.66A1.59,1.59,0,0,0,170.12,128.05Z"/><path class="cls-4" d="M167.32,127.7a2.26,2.26,0,0,0,.56,2.46,3.09,3.09,0,0,1-1-1.1,2.36,2.36,0,0,1-.19-1.56l.62.2Z"/><path class="cls-4" d="M162.1,147.08a7.46,7.46,0,0,1-2.79-.51c-1.88-.81-2.57-2.88-3.38-5.28s-3-9,.1-11.74a5.28,5.28,0,0,1,.77-.53c1.92-1.19,3.69-1.37,6.14-1.62a16.48,16.48,0,0,1,3-.16l1.11,0c2.51,0,3,.08,3.38.6a2.81,2.81,0,0,1-.74,3.26,3.44,3.44,0,0,1-2.83.49,3.34,3.34,0,0,0-2.65.4,2.5,2.5,0,0,0-.74,1.06l-.61-.24a3.14,3.14,0,0,1,.93-1.33,3.94,3.94,0,0,1,3.14-.54,2.91,2.91,0,0,0,2.33-.33,2.19,2.19,0,0,0,.63-2.41c-.14-.21-.56-.27-2.84-.3l-1.14,0a15.43,15.43,0,0,0-2.86.16c-2.36.24-4.07.41-5.87,1.52a5.36,5.36,0,0,0-.68.47c-2.79,2.41-.62,8.89.1,11,.87,2.6,1.48,4.23,3,4.88a7.17,7.17,0,0,0,3.42.4,12.18,12.18,0,0,0,1.49-.32,18.4,18.4,0,0,0,2.61-.93l.27.6a18.15,18.15,0,0,1-2.71,1,11.07,11.07,0,0,1-1.57.34A6.75,6.75,0,0,1,162.1,147.08Z"/><path class="cls-4" d="M168.25,145.77a9.64,9.64,0,0,1-2.42-.3c-.77-.2-1.72-.59-1.93-1.26a1.87,1.87,0,0,1,.18-1.8,1.79,1.79,0,0,1,1.6-.58l0,.65a1.17,1.17,0,0,0-1,.34,1.3,1.3,0,0,0-.07,1.2c.07.21.49.55,1.47.81,1.71.46,4.17.38,5.08-.47,1.12-1,.72-3.37.71-3.39l.65-.12c0,.11.47,2.71-.91,4A5,5,0,0,1,168.25,145.77Z"/><path class="cls-4" d="M165.15,135.72c.1-.45.37-1.2.15-1.58a1.17,1.17,0,0,0-.72-.35,2.11,2.11,0,0,0-.9,0,2.19,2.19,0,0,1,.91-.2c.86,0,1.33.39,1.27,1.29a7.89,7.89,0,0,1-.07,1l-.64-.14Z"/><path class="cls-4" d="M164.63,138.84c.21-.41.66-1.09.53-1.52a1.23,1.23,0,0,0-.61-.55,2.05,2.05,0,0,0-.88-.23,2.15,2.15,0,0,1,.94.06,1.12,1.12,0,0,1,.91,1.6,6.25,6.25,0,0,1-.29.93l-.6-.29Z"/><path class="cls-4" d="M167.72,142.73a7,7,0,0,1-4.1-1.09,2.24,2.24,0,0,1-.87-1.91,1.63,1.63,0,0,1,1.16-1.5l.22.62a1,1,0,0,0-.72.92,1.58,1.58,0,0,0,.6,1.35c1.55,1.18,4.94,1.19,6.72.42a2.33,2.33,0,0,0,1-.78,4.83,4.83,0,0,0,.44-3.86l.63-.19a5.55,5.55,0,0,1-.52,4.42,3,3,0,0,1-1.32,1A8.58,8.58,0,0,1,167.72,142.73Z"/><path class="cls-4" d="M165,141.88c.2-.41.62-1.06.51-1.48a1.16,1.16,0,0,0-.57-.54,1.81,1.81,0,0,0-.85-.24,2,2,0,0,1,.91.06c1.36.35,1,1.49.59,2.49l-.59-.29Z"/><path class="cls-4" d="M165.66,145.05c.14-.31.44-.88.35-1.17a.93.93,0,0,0-.5-.37,1.67,1.67,0,0,0-.7-.12,1.67,1.67,0,0,1,.74-.06c1.2.11.95,1.09.73,2l-.62-.24Z"/><path class="cls-4" d="M167.68,139.71a7.59,7.59,0,0,1-4.39-1.17,2.37,2.37,0,0,1-.91-2,1.73,1.73,0,0,1,1.24-1.59l.22.62a1.09,1.09,0,0,0-.8,1,1.7,1.7,0,0,0,.65,1.42c1.62,1.24,5.15,1.29,7,.52a2.45,2.45,0,0,0,1.07-.79,5.1,5.1,0,0,0,.37-4.12l.61-.23a5.65,5.65,0,0,1-.43,4.71,2.92,2.92,0,0,1-1.36,1A8.68,8.68,0,0,1,167.68,139.71Z"/><path class="cls-4" d="M167.37,136.28a9,9,0,0,1-4.24-.95,1.66,1.66,0,0,1-.59-1.36c0-1.61,1-2,3-2.23,1-.11,1.86-.22,2.54-.31.35,0,1.47-.11,2-.14h.23a.33.33,0,0,1,.35.31.33.33,0,0,1-.31.35h-.23c-.49,0-1.64.09-2,.14l-2.56.31c-2.17.24-2.4.67-2.42,1.58a1.19,1.19,0,0,0,.26.77,8.87,8.87,0,0,0,7.5.1,2,2,0,0,0,1.18-1.65,8.48,8.48,0,0,1,.06-.86c.06-.68.13-1.45-.12-1.73a3.11,3.11,0,0,0-1.7-1.07l-.13,0a.33.33,0,0,1,.23-.62l.13,0a3.8,3.8,0,0,1,2,1.25,3,3,0,0,1,.28,2.23c0,.27-.05.55-.05.82a2.63,2.63,0,0,1-1.51,2.2A8.15,8.15,0,0,1,167.37,136.28Z"/><path class="cls-4" d="M165.66,142.15a1.56,1.56,0,0,0-1.16.3,1.41,1.41,0,0,0-.26.32c-1.06-1.25-1.61-1.47-1.92-1.35-.47.19-.5,1.22-1,1.28a.52.52,0,0,1-.33-.08c-.74-.52,1-3.39,0-4.37-.28-.28-.74-.35-.85-.8a1,1,0,0,1,.1-.7c.34-.67,1.07-.48,1.57-1.06a1.79,1.79,0,0,0,.18-1.94c-.43-.66-1.46-.59-1.53-1.16a.54.54,0,0,1,.07-.32c.3-.51,1.24,0,2.2-.43.76-.34.72-.9,1.38-1.08a2.1,2.1,0,0,1,1.63.45,2.61,2.61,0,0,0-2.66,1.83,1.93,1.93,0,0,0,0,1.67,1.47,1.47,0,0,0,.69.58,1.57,1.57,0,0,0-.85.71,1.7,1.7,0,0,0,0,1.42,2,2,0,0,0,1.17,1.12,1.46,1.46,0,0,0-.72.52,1.63,1.63,0,0,0-.22,1C163.16,140.9,164.19,141.73,165.66,142.15Z"/><path d="M51.5,72.24h4.56a23.5,23.5,0,0,1-2-4.56,24.52,24.52,0,0,1-1.13-8.08.31.31,0,0,1,.61,0c.69,3.92,3,6.71,5.53,7.26a6.92,6.92,0,0,0,5.68-1.74,8.35,8.35,0,0,0,2.53-6.14A16.58,16.58,0,0,0,64.67,50C59.76,42.3,54.3,36.35,51.5,32.81,48.69,36.35,43.24,42.3,38.32,50a16.5,16.5,0,0,0-2.6,8.93,8.37,8.37,0,0,0,2.52,6.14,7,7,0,0,0,5.69,1.74c2.57-.55,4.84-3.34,5.52-7.26a.31.31,0,0,1,.61,0,23.92,23.92,0,0,1-3.12,12.64Z"/><path d="M151.3,211h-4.57a23.86,23.86,0,0,1,3.13,12.65.31.31,0,0,1-.61,0c-.68-3.92-2.95-6.72-5.52-7.26a6.92,6.92,0,0,0-5.69,1.74,8.34,8.34,0,0,0-2.53,6.14,16.54,16.54,0,0,0,2.61,8.92c4.92,7.71,10.37,13.67,13.18,17.2,2.8-3.53,8.25-9.49,13.17-17.2a16.54,16.54,0,0,0,2.61-8.92,8.34,8.34,0,0,0-2.53-6.14,6.91,6.91,0,0,0-5.68-1.74c-2.57.54-4.84,3.34-5.53,7.26a.31.31,0,0,1-.61,0,24.22,24.22,0,0,1,1.13-8.08,23.61,23.61,0,0,1,2-4.57Z"/><path d="M14.54,67.08h2.22a11.65,11.65,0,0,1-1-2.23,11.94,11.94,0,0,1-.55-3.95.15.15,0,0,1,.3,0c.33,1.92,1.44,3.28,2.69,3.55A3.41,3.41,0,0,0,21,63.58a4.09,4.09,0,0,0,1.24-3A8,8,0,0,0,21,56.22a86.61,86.61,0,0,0-6.43-8.41A86.37,86.37,0,0,0,8.1,56.22a8.11,8.11,0,0,0-1.28,4.36,4.09,4.09,0,0,0,1.24,3,3.41,3.41,0,0,0,2.78.85c1.25-.27,2.36-1.63,2.7-3.55a.15.15,0,0,1,.29,0,11.85,11.85,0,0,1-1.52,6.18Z"/><path d="M188.26,216.19H186a11.69,11.69,0,0,1,1.53,6.18.15.15,0,0,1-.3,0c-.34-1.92-1.45-3.28-2.7-3.55a3.41,3.41,0,0,0-2.78.85,4.06,4.06,0,0,0-1.23,3,8.06,8.06,0,0,0,1.27,4.36,86.37,86.37,0,0,0,6.44,8.41,88,88,0,0,0,6.44-8.41,8.15,8.15,0,0,0,1.27-4.36,4.08,4.08,0,0,0-1.24-3,3.4,3.4,0,0,0-2.77-.85c-1.26.27-2.37,1.63-2.7,3.55a.15.15,0,0,1-.3,0,11.69,11.69,0,0,1,1.53-6.18Z"/></g></g></svg>