<svg xmlns="http://www.w3.org/2000/svg" xmlns:xlink="http://www.w3.org/1999/xlink" viewBox="0 0 34.3 26.93"><defs><style>.cls-1{isolation:isolate;}.cls-2{fill:#002972;}.cls-3{fill:#0437a0;}.cls-3,.cls-5,.cls-6{fill-rule:evenodd;}.cls-4{fill:#f4f4f4;}.cls-5{fill:#ff1612;}.cls-6{opacity:0.3;mix-blend-mode:lighten;fill:url(#linear-gradient);}</style><linearGradient id="linear-gradient" x1="34.3" y1="13.11" x2="0" y2="13.11" gradientUnits="userSpaceOnUse"><stop offset="0"/><stop offset="0.53"/><stop offset="0.76" stop-color="#fff"/><stop offset="0.84" stop-color="#fff"/><stop offset="0.93" stop-color="#4d4d4d"/><stop offset="0.97" stop-color="#f2f2f2"/><stop offset="1"/></linearGradient></defs><g class="cls-1"><g id="Réteg_2" data-name="Réteg 2"><g id="Page_1" data-name="Page 1"><path class="cls-2" d="M.86,22.78c10.86-1.2,21.72,4.11,32.57,2.91a1.8,1.8,0,0,1,.87.06C30.63,28.28,2.64,26.4,0,23.31c0,0,0-.32,0-.33S.2,22.9.86,22.78Z"/><path class="cls-3" d="M4.24,0A47.35,47.35,0,0,1,14.32,1.1V7.82A94,94,0,0,0,4.24,0ZM20,2.25A47.35,47.35,0,0,0,30.06,3.34,68.77,68.77,0,0,1,20,9V2.25ZM34.3,5.71v4.83a27.11,27.11,0,0,1-7.24.38A50.31,50.31,0,0,0,34.3,5.71Zm0,12.38v4.83a42.8,42.8,0,0,1-7.24-4.44,26.71,26.71,0,0,0,7.24-.39Zm-4.24,8.12A46.72,46.72,0,0,1,20,25.11V18.4a94,94,0,0,0,10.08,7.81ZM14.32,24a47.36,47.36,0,0,0-10.08-1.1,70.68,70.68,0,0,1,10.08-5.62V24ZM0,20.5V15.68a26.71,26.71,0,0,1,7.24-.39A50.31,50.31,0,0,0,0,20.5ZM0,8.12V3.29A43.54,43.54,0,0,1,7.24,7.74,27.11,27.11,0,0,0,0,8.12Z"/><path class="cls-4" d="M34.3,22.92a42.8,42.8,0,0,1-7.24-4.44,26.71,26.71,0,0,0,7.24-.39V10.54a27.11,27.11,0,0,1-7.24.38A50.31,50.31,0,0,0,34.3,5.71V2.88a23.6,23.6,0,0,1-4.24.46A68.77,68.77,0,0,1,20,9V2.25l-2.83-.57L14.32,1.1V7.82A94,94,0,0,0,4.24,0,23.5,23.5,0,0,0,0,.47V3.29A43.54,43.54,0,0,1,7.24,7.74,27.11,27.11,0,0,0,0,8.12v7.56a26.71,26.71,0,0,1,7.24-.39A50.31,50.31,0,0,0,0,20.5v2.83a25.46,25.46,0,0,1,4.24-.46,69.71,69.71,0,0,1,10.08-5.62V24l2.83.57c.94.2,1.89.39,2.83.57V18.4a94,94,0,0,0,10.08,7.81,25.57,25.57,0,0,0,4.24-.46V22.92Z"/><path class="cls-5" d="M18.92,2v9.07c5.13,1,10.25,1.87,15.38.85v4.72c-5.13,1-10.25.18-15.38-.85V24.9l-1.77-.36-1.77-.36V15.11c-5.13-1-10.25-1.88-15.38-.85V9.54c5.13-1,10.25-.18,15.38.85V1.31l1.77.37L18.92,2ZM34.3,24.69a50.52,50.52,0,0,1-9.89-6.49c-1.06-.14-2.12-.31-3.19-.51A69.68,69.68,0,0,0,32.71,26c.53-.07,1.06-.15,1.59-.26V24.69Zm-9.89-14A53.13,53.13,0,0,0,34.3,4V2.88c-.53.11-1.06.2-1.59.26a59,59,0,0,1-11.49,7c1.07.19,2.13.37,3.19.51ZM13.07,8.52A69.12,69.12,0,0,0,1.59.21C1.06.27.53.36,0,.47V1.53A50.91,50.91,0,0,1,9.89,8c1.06.14,2.12.32,3.18.51ZM9.89,15.57A52.64,52.64,0,0,0,0,22.27v1.06c.53-.1,1.06-.19,1.59-.26a59.67,59.67,0,0,1,11.48-7q-1.59-.3-3.18-.51Z"/><path class="cls-6" d="M0,.47V23.33C11.43,21,22.87,28,34.3,25.75V2.89C22.87,5.17,11.43-1.82,0,.47Z"/></g></g></g></svg>