<svg xmlns="http://www.w3.org/2000/svg" xmlns:xlink="http://www.w3.org/1999/xlink" viewBox="0 0 34.3 26.93"><defs><style>.cls-1{isolation:isolate;}.cls-2{fill:#398e16;}.cls-3{fill:#47b71d;}.cls-3,.cls-4,.cls-5,.cls-6{fill-rule:evenodd;}.cls-4{fill:#ff1612;}.cls-5{fill:#f0f0f0;}.cls-6{opacity:0.3;mix-blend-mode:lighten;fill:url(#linear-gradient);}</style><linearGradient id="linear-gradient" x1="34.3" y1="13.11" x2="0" y2="13.11" gradientUnits="userSpaceOnUse"><stop offset="0" stop-color="#1a171b"/><stop offset="0.53" stop-color="#1a171b"/><stop offset="0.76" stop-color="#fff"/><stop offset="0.84" stop-color="#fff"/><stop offset="0.93" stop-color="#4d4d4d"/><stop offset="0.97" stop-color="#f2f2f2"/><stop offset="1" stop-color="#1a171b"/></linearGradient></defs><g class="cls-1"><g id="Réteg_2" data-name="Réteg 2"><g id="Page_1" data-name="Page 1"><path class="cls-2" d="M.86,22.78c10.86-1.2,21.72,4.11,32.57,2.91a1.8,1.8,0,0,1,.87.06C30.64,28.28,2.64,26.4,0,23.31c0,0,0-.32,0-.33S.2,22.9.86,22.78Z"/><path class="cls-3" d="M0,23.33C11.43,21.05,22.87,28,34.3,25.75V18.13C22.87,20.42,11.43,13.42,0,15.71v7.62Z"/><path class="cls-4" d="M0,8.09c11.43-2.29,22.87,4.7,34.3,2.42V2.88C22.87,5.17,11.43-1.82,0,.47V8.09Z"/><path class="cls-5" d="M0,15.71c11.43-2.29,22.87,4.71,34.3,2.42V10.51C22.87,12.79,11.43,5.8,0,8.09v7.62Z"/><path class="cls-6" d="M0,.47V23.33C11.44,21,22.87,28,34.3,25.75V2.89C22.87,5.17,11.44-1.82,0,.47Z"/></g></g></g></svg>